<svg xmlns="http://www.w3.org/2000/svg" version="1.1" width="1024" height="768">
<rect x="0" y="0" width="1024" height="768" fill="#6b868d" />
<g transform="scale(4.000000) translate(0.5 0.5)">
<polygon fill="#d3dff5" fill-opacity="0.501961" points="179.840804,184.939524,199.091913,-14.291590,101.898255,-16.000000,90.818057,189.053584" />
<polygon fill="#12071d" fill-opacity="0.501961" points="68.366301,207.000000,61.956217,-8.712609,-16.000000,2.666962,-6.000588,203.855141" />
<polygon fill="#005500" fill-opacity="0.501961" points="271.000000,30.244259,180.050054,65.747341,190.708053,98.429373,271.000000,196.594926" />
<polygon fill="#c5cfea" fill-opacity="0.501961" points="123.405199,38.474176,242.141367,-14.533723,271.000000,26.165264,124.320706,73.132075" />
<polygon fill="#bed2df" fill-opacity="0.501961" points="181.712602,150.991335,271.000000,193.481339,162.364929,190.270767,111.704284,-15.061334" />
<polygon fill="#003c0f" fill-opacity="0.501961" points="259.235629,117.805673,268.785447,164.995858,215.865061,135.344001,208.752136,49.005178" />
<polygon fill="#47c191" fill-opacity="0.501961" points="193.808025,34.782849,164.301871,151.636602,271.000000,192.049174,196.686252,100.031851" />
<polygon fill="#737891" fill-opacity="0.501961" points="152.633127,207.000000,90.815151,37.513816,40.984569,-5.148461,27.755101,117.455842" />
<polygon fill="#1f222a" fill-opacity="0.501961" points="1.897593,-16.000000,-1.582384,191.451957,17.322290,207.000000,33.929246,-10.945210" />
<polygon fill="#4ba79d" fill-opacity="0.501961" points="250.283516,56.958703,246.440133,33.585786,161.696596,56.961687,168.472204,67.894895" />
<polygon fill="#007a47" fill-opacity="0.501961" points="243.558185,62.962307,203.255387,49.839037,185.329349,107.039078,222.565334,120.227606" />
<polygon fill="#919bb6" fill-opacity="0.501961" points="74.384709,203.349312,247.730823,191.836987,147.989900,165.148625,96.414566,39.653444" />
<polygon fill="#cedae2" fill-opacity="0.501961" points="146.598026,175.543106,186.462016,75.192203,118.724386,52.491057,153.296460,114.082033" />
<polygon fill="#475265" fill-opacity="0.501961" points="71.428045,21.585763,84.603767,-16.000000,27.169009,22.043345,34.515823,207.000000" />
<polygon fill="#00421c" fill-opacity="0.501961" points="248.955287,153.013811,217.448768,134.434263,219.224490,53.180404,271.000000,152.299462" />
<polygon fill="#495165" fill-opacity="0.501961" points="26.961924,81.055139,33.261757,191.206558,64.126849,207.000000,84.858095,152.358276" />
<polygon fill="#949dbc" fill-opacity="0.501961" points="100.152062,-16.000000,93.968694,34.957227,265.253312,13.259562,240.599273,-16.000000" />
<polygon fill="#b5c0d4" fill-opacity="0.501961" points="236.192350,26.065514,234.554777,45.320727,135.798884,35.713934,124.985603,19.783301" />
<polygon fill="#22876e" fill-opacity="0.501961" points="236.520268,31.110052,247.941036,115.725013,271.000000,42.684942,235.061648,32.455754" />
<polygon fill="#bbc8d8" fill-opacity="0.501961" points="138.197338,122.187121,196.987035,167.390956,257.222831,188.268524,153.784252,168.142228" />
<polygon fill="#379372" fill-opacity="0.501961" points="200.138527,146.382863,230.048377,138.762942,263.246253,167.634010,271.000000,192.958121" />
<polygon fill="#004a37" fill-opacity="0.501961" points="271.000000,61.521001,232.775593,35.326920,240.768891,35.000243,261.239628,35.919161" />
<polygon fill="#007e44" fill-opacity="0.501961" points="200.459128,98.730710,181.496832,63.922888,220.151078,71.299488,226.675964,145.601376" />
<polygon fill="#74bba8" fill-opacity="0.501961" points="216.129280,128.121107,211.191541,119.811431,163.422104,120.104167,190.174122,164.982009" />
<polygon fill="#444e65" fill-opacity="0.501961" points="-3.227011,96.860588,19.678742,69.704699,-3.433285,6.855583,2.337794,55.435846" />
<polygon fill="#53a58f" fill-opacity="0.501961" points="205.643369,34.450168,174.919870,66.086971,182.766022,81.220213,206.371598,62.947594" />
<polygon fill="#00350e" fill-opacity="0.501961" points="271.000000,149.217598,264.079915,104.789721,239.944121,113.366285,235.849714,151.869074" />
<polygon fill="#8595b0" fill-opacity="0.501961" points="92.540853,156.552316,217.869331,190.045091,245.609311,192.987096,69.718504,207.000000" />
<polygon fill="#a9b3c5" fill-opacity="0.501961" points="129.094767,73.328055,121.915322,164.199037,98.241379,98.745423,112.772755,-16.000000" />
<polygon fill="#869ab5" fill-opacity="0.501961" points="38.269056,187.636229,46.241525,207.000000,57.061870,207.000000,48.686227,185.642337" />
<polygon fill="#5fa997" fill-opacity="0.501961" points="225.107869,53.526793,256.273240,54.130601,230.574255,37.737790,237.958972,73.211198" />
<polygon fill="#272b33" fill-opacity="0.501961" points="15.254885,138.339744,39.680599,207.000000,-16.000000,184.598544,1.005653,90.912423" />
<polygon fill="#7f8796" fill-opacity="0.501961" points="84.883421,49.078848,63.380780,114.348847,92.932205,158.298425,101.040422,90.052373" />
<polygon fill="#01542f" fill-opacity="0.501961" points="233.270659,75.107482,210.315493,47.783969,222.283485,146.423145,245.504485,82.555444" />
<polygon fill="#82bab4" fill-opacity="0.501961" points="207.149955,62.244096,192.045481,41.886753,153.010664,81.768421,155.921176,56.953211" />
<polygon fill="#a6b4c8" fill-opacity="0.501961" points="86.521316,207.000000,102.440307,169.584440,86.898342,165.082774,80.049134,207.000000" />
<polygon fill="#c3ced9" fill-opacity="0.501961" points="218.984928,33.665115,127.744161,40.145872,128.133360,92.722463,158.668602,56.273309" />
<polygon fill="#323a48" fill-opacity="0.501961" points="48.012266,184.345017,38.336568,111.944406,55.685230,142.215407,61.609914,204.879981" />
<polygon fill="#2d9068" fill-opacity="0.501961" points="210.865623,88.798227,184.951843,137.180190,216.764896,154.851938,190.691404,133.186983" />
<polygon fill="#c0d2dd" fill-opacity="0.501961" points="183.266256,91.342059,171.986967,62.306429,149.441429,87.018315,174.712823,117.634784" />
<polygon fill="#1b1f26" fill-opacity="0.501961" points="7.006596,29.167477,26.208325,-16.000000,17.621894,30.812206,32.901701,79.252014" />
<polygon fill="#3a4350" fill-opacity="0.501961" points="44.164913,76.748546,48.819107,128.632699,50.308116,58.487580,47.372262,27.084573" />
<polygon fill="#59657b" fill-opacity="0.501961" points="36.371455,154.154377,51.712883,159.457921,25.670401,143.910110,41.968461,82.321627" />
<polygon fill="#7cbbaf" fill-opacity="0.501961" points="216.850151,163.142359,162.299940,118.623188,175.203735,158.348666,215.810661,176.775819" />
<polygon fill="#44b077" fill-opacity="0.501961" points="185.397926,99.994337,178.451615,111.176364,204.246510,111.122814,183.869906,84.681663" />
<polygon fill="#3a9777" fill-opacity="0.501961" points="244.344686,78.051238,232.451640,71.820878,238.347146,64.078913,271.000000,68.026362" />
<polygon fill="#71708c" fill-opacity="0.501961" points="95.443289,24.005760,95.171772,79.411300,70.251472,11.581386,106.451499,-16.000000" />
<polygon fill="#2c8869" fill-opacity="0.501961" points="203.698772,37.096158,210.008686,66.106184,173.085964,62.428721,197.123418,76.734586" />
<polygon fill="#aab6cd" fill-opacity="0.501961" points="246.857020,34.849200,271.000000,20.357249,201.971695,20.103385,94.893213,30.367698" />
<polygon fill="#606e85" fill-opacity="0.501961" points="33.841177,31.145801,37.406930,19.280663,42.258532,44.620058,44.506202,100.771342" />
<polygon fill="#7383a6" fill-opacity="0.501961" points="190.406632,-16.000000,271.000000,1.021218,232.498801,4.375590,209.023898,5.128893" />
<polygon fill="#4c5566" fill-opacity="0.501961" points="53.529718,97.575480,50.065388,131.020607,68.955853,195.687484,73.459443,164.336319" />
<polygon fill="#2c3646" fill-opacity="0.501961" points="45.872522,23.045750,41.458437,-13.971391,-5.937794,11.031768,14.150674,-13.630439" />
<polygon fill="#abb4cb" fill-opacity="0.501961" points="155.805247,158.917373,137.543644,147.189903,151.270453,176.602379,271.000000,190.710533" />
<polygon fill="#0b4b31" fill-opacity="0.501961" points="225.846165,90.050511,250.212711,85.706696,207.304109,66.339731,224.351293,47.958211" />
<polygon fill="#2d2f37" fill-opacity="0.501961" points="21.469351,154.660203,29.066076,127.475247,30.686628,116.655843,21.348295,81.993739" />
<polygon fill="#c7d9e2" fill-opacity="0.501961" points="184.268087,163.346736,217.349024,178.925667,169.228037,161.937840,163.232456,152.806546" />
<polygon fill="#556073" fill-opacity="0.501961" points="23.728186,80.283298,25.550080,95.573692,37.014679,157.257366,39.213789,79.207549" />
<polygon fill="#7786a2" fill-opacity="0.501961" points="159.757230,180.796425,193.231507,192.616589,124.539597,207.000000,132.082518,179.287212" />
<polygon fill="#20232a" fill-opacity="0.501961" points="31.407110,64.029792,33.716766,72.657129,34.579333,78.613361,9.788575,56.123237" />
<polygon fill="#007b43" fill-opacity="0.501961" points="227.800455,109.532195,220.428197,72.872428,198.567673,64.088518,193.524403,103.372773" />
<polygon fill="#6fb79d" fill-opacity="0.501961" points="215.164455,123.044238,214.051823,133.578226,230.834379,162.943891,168.793937,101.699219" />
<polygon fill="#96a3b5" fill-opacity="0.501961" points="103.025823,118.354565,96.001897,42.499326,95.935220,29.849851,105.696357,25.809380" />
<polygon fill="#6c7485" fill-opacity="0.501961" points="93.829543,131.360115,77.649746,168.831662,59.788286,110.598439,79.541939,143.384554" />
<polygon fill="#529b8d" fill-opacity="0.501961" points="246.718294,152.117481,222.632699,165.539405,234.664558,180.301706,257.993730,169.672901" />
<polygon fill="#494c63" fill-opacity="0.501961" points="61.184221,35.792498,62.272736,17.571647,58.591436,-16.000000,78.614947,-16.000000" />
<polygon fill="#206a4f" fill-opacity="0.501961" points="240.242384,47.764036,234.156060,90.620872,232.575878,82.284152,226.302424,75.369831" />
<polygon fill="#98a5b7" fill-opacity="0.501961" points="145.242612,126.037188,100.146596,160.033932,100.678650,122.565426,121.817847,86.287179" />
<polygon fill="#586277" fill-opacity="0.501961" points="135.366470,8.629637,9.318829,70.554540,9.277314,26.624840,14.292973,68.092089" />
<polygon fill="#cad8e1" fill-opacity="0.501961" points="171.244264,161.343498,153.184052,146.303746,177.743276,92.664718,152.696621,108.062691" />
<polygon fill="#434854" fill-opacity="0.501961" points="4.675936,145.829026,14.868857,157.429910,39.227125,201.552949,25.372481,184.567447" />
<polygon fill="#b7b9cb" fill-opacity="0.501961" points="146.563448,136.408881,120.856519,67.085383,154.679995,95.640024,156.912501,141.131592" />
<polygon fill="#003c18" fill-opacity="0.501961" points="271.000000,147.464979,217.873786,65.702129,271.000000,180.464521,223.125511,109.855359" />
<polygon fill="#b4c2d6" fill-opacity="0.501961" points="222.408130,45.162643,234.592811,35.631335,186.148579,27.481335,170.357284,31.101214" />
<polygon fill="#17915b" fill-opacity="0.501961" points="190.474449,97.894539,190.614205,69.957005,209.514448,62.100254,184.427173,116.934590" />
<polygon fill="#1e794f" fill-opacity="0.501961" points="211.279125,143.143389,202.467569,152.060589,215.248528,149.605804,208.991375,142.961295" />
<polygon fill="#909eb9" fill-opacity="0.501961" points="116.998239,7.424453,153.035341,-16.000000,243.288215,13.888617,162.886328,10.667970" />
<polygon fill="#30906e" fill-opacity="0.501961" points="249.386853,101.244315,251.826595,109.367109,266.415909,90.827082,248.778665,86.694027" />
<polygon fill="#22272f" fill-opacity="0.501961" points="12.151871,15.859044,10.385705,53.466269,25.517331,20.718582,51.841626,17.682896" />
<polygon fill="#5ea393" fill-opacity="0.501961" points="246.174351,40.122320,230.206131,59.884290,223.826282,40.184594,246.952735,59.257058" />
<polygon fill="#1b2027" fill-opacity="0.501961" points="26.469896,193.632102,6.297136,174.891941,32.106964,193.059858,5.129520,155.269968" />
<polygon fill="#1c654b" fill-opacity="0.501961" points="245.689029,88.646925,236.078996,91.752198,238.998944,103.834412,252.477446,112.990651" />
<polygon fill="#323a45" fill-opacity="0.501961" points="40.534483,144.212899,46.913460,99.945197,38.125709,120.699317,38.881158,115.084118" />
<polygon fill="#004b1f" fill-opacity="0.501961" points="252.948944,38.947065,271.000000,30.708984,271.000000,75.701163,250.138757,47.373067" />
<polygon fill="#8092a9" fill-opacity="0.501961" points="84.425297,150.893125,106.826165,181.635589,112.171175,183.688091,140.446117,158.047924" />
<polygon fill="#636e7b" fill-opacity="0.501961" points="60.198837,124.825129,62.174210,112.199189,70.381940,116.965895,59.412395,27.460112" />
<polygon fill="#484d58" fill-opacity="0.501961" points="13.373098,162.746465,20.180972,207.000000,18.354981,177.199435,8.389887,133.854422" />
<polygon fill="#818c9c" fill-opacity="0.501961" points="69.171838,120.959004,91.809187,117.696158,117.271754,138.281951,85.246882,82.937987" />
<polygon fill="#65a399" fill-opacity="0.501961" points="186.669453,148.636823,236.876065,161.445889,246.912824,182.178099,230.246647,178.572240" />
<polygon fill="#a8b4c7" fill-opacity="0.501961" points="119.916904,130.800191,105.553147,67.907872,102.185326,3.398517,128.425649,34.502243" />
<polygon fill="#75c8a8" fill-opacity="0.501961" points="186.058876,73.995517,182.893337,68.891495,161.944247,59.782753,190.409337,86.512795" />
<polygon fill="#4e5562" fill-opacity="0.501961" points="9.961663,183.770954,14.404662,207.000000,5.320263,181.201285,-2.279876,172.904502" />
<polygon fill="#4e586b" fill-opacity="0.501961" points="38.572378,144.494756,13.243287,111.860114,52.059743,155.014353,36.506572,178.105068" />
<polygon fill="#6898ab" fill-opacity="0.501961" points="218.517408,54.921912,206.163980,47.423782,201.009574,42.034712,221.527574,43.177085" />
<polygon fill="#006232" fill-opacity="0.501961" points="217.817452,90.030125,248.071499,117.860102,209.542236,116.900250,208.991926,85.305903" />
<polygon fill="#00481a" fill-opacity="0.501961" points="231.717698,114.695617,271.000000,166.749868,221.669200,134.752611,240.815258,68.611837" />
<polygon fill="#424755" fill-opacity="0.501961" points="19.199340,56.229635,20.437781,46.211900,39.220152,61.475470,23.635372,60.112768" />
<polygon fill="#536179" fill-opacity="0.501961" points="51.377794,20.759756,49.680637,-11.072696,39.453765,17.964982,27.837006,7.534529" />
<polygon fill="#a1d1cc" fill-opacity="0.501961" points="163.585565,144.479829,160.243901,106.967196,170.929726,137.606287,171.400765,156.377493" />
<polygon fill="#727d98" fill-opacity="0.501961" points="75.904280,205.276931,100.640010,105.425627,69.029381,191.740504,33.712095,196.632583" />
<polygon fill="#72bca3" fill-opacity="0.501961" points="186.589386,130.786564,198.627653,166.363960,166.468548,123.839630,198.578299,108.384564" />
<polygon fill="#2a2e37" fill-opacity="0.501961" points="39.742121,65.862861,9.533231,75.660421,-1.494690,127.248418,27.501674,76.263501" />
<polygon fill="#181c23" fill-opacity="0.501961" points="34.370312,34.550757,20.919370,27.217540,12.810507,15.667781,33.219567,37.099658" />
<polygon fill="#515a69" fill-opacity="0.501961" points="75.800089,127.615558,25.231053,90.202125,11.380384,80.483411,11.875087,83.600655" />
<polygon fill="#5b6477" fill-opacity="0.501961" points="51.272578,111.271431,53.322602,145.381916,86.547983,168.235301,45.717914,121.113023" />
<polygon fill="#328f6b" fill-opacity="0.501961" points="255.071639,155.610003,245.030959,153.038271,212.791623,132.812449,258.254938,184.323014" />
<polygon fill="#329570" fill-opacity="0.501961" points="196.099519,110.590879,191.507719,146.238454,189.541190,128.522630,204.815764,92.154851" />
<polygon fill="#226d56" fill-opacity="0.501961" points="224.032907,62.693054,216.914056,64.326172,246.379024,82.929062,216.421361,44.612993" />
<polygon fill="#333845" fill-opacity="0.501961" points="35.959214,25.519056,16.281463,18.782911,39.637428,61.010220,20.485345,34.914513" />
<polygon fill="#367c8d" fill-opacity="0.501961" points="244.076249,36.004548,271.000000,22.798759,271.000000,35.964670,253.283626,37.154531" />
<polygon fill="#191c22" fill-opacity="0.501961" points="14.554767,121.362164,23.129812,124.562470,15.651940,118.096306,-16.000000,77.912323" />
<polygon fill="#9bc6c8" fill-opacity="0.501961" points="147.987709,58.392304,138.847174,64.339058,185.398428,49.814602,152.586367,78.162300" />
<polygon fill="#525c72" fill-opacity="0.501961" points="43.598918,155.533613,15.178014,138.912995,36.131928,140.581234,38.920852,188.740908" />
<polygon fill="#2b323f" fill-opacity="0.501961" points="25.880195,3.265168,4.608946,1.182293,8.390893,-16.000000,55.844945,14.730234" />
<polygon fill="#424855" fill-opacity="0.501961" points="-15.453713,104.583580,8.851861,168.915707,12.849374,175.541456,-3.107302,132.617106" />
<polygon fill="#089056" fill-opacity="0.501961" points="189.789373,101.199390,201.842274,107.091671,218.352010,126.004942,193.513063,77.284013" />
<polygon fill="#76b3ae" fill-opacity="0.501961" points="214.168782,123.514533,203.638480,141.561402,195.145282,138.824911,196.212591,123.791997" />
<polygon fill="#98a4bd" fill-opacity="0.501961" points="159.071842,179.069476,198.580236,186.090762,265.338633,191.532138,113.359617,163.058911" />
<polygon fill="#161a21" fill-opacity="0.501961" points="34.655713,8.296860,34.379585,13.002163,2.681038,-16.000000,11.980815,-5.042140" />
<polygon fill="#d8e3e7" fill-opacity="0.501961" points="139.622181,61.469125,143.859032,77.579579,153.637271,86.715954,148.327911,71.775422" />
<polygon fill="#93a2b3" fill-opacity="0.501961" points="93.233443,66.548083,101.983962,115.435328,122.458301,178.496452,115.835376,93.944784" />
<polygon fill="#394152" fill-opacity="0.501961" points="43.131926,53.715446,57.067211,3.162218,63.702624,-1.692192,56.783883,14.689675" />
<polygon fill="#566174" fill-opacity="0.501961" points="39.077865,84.087404,18.688234,79.120691,38.218183,96.138176,33.448773,44.332010" />
<polygon fill="#161a20" fill-opacity="0.501961" points="0.480187,149.878785,-16.000000,166.604436,9.364177,152.230894,13.684366,172.371041" />
<polygon fill="#464e66" fill-opacity="0.501961" points="60.979765,187.997364,80.315444,163.795544,62.276082,161.090653,73.077629,194.123978" />
<polygon fill="#69778f" fill-opacity="0.501961" points="43.473956,30.566733,32.091322,44.180246,45.301093,46.890540,34.059620,32.153091" />
<polygon fill="#323949" fill-opacity="0.501961" points="60.646262,183.836196,34.279903,169.562563,58.928843,168.064585,64.780227,206.748098" />
<polygon fill="#c3cbd9" fill-opacity="0.501961" points="158.241140,71.287813,143.115069,150.209718,180.031311,85.855787,172.445395,69.404122" />
<polygon fill="#14191d" fill-opacity="0.501961" points="8.410285,207.000000,7.680460,187.280833,-10.995176,163.516865,8.460384,207.000000" />
<polygon fill="#343a48" fill-opacity="0.501961" points="-16.000000,23.276834,5.288880,70.266078,13.604445,26.726449,49.115727,40.748484" />
<polygon fill="#66738a" fill-opacity="0.501961" points="41.730519,13.007694,49.237944,9.502567,46.719858,-16.000000,47.894813,24.632312" />
<polygon fill="#a6aec2" fill-opacity="0.501961" points="148.871649,113.372780,136.548294,84.276070,122.051923,86.951230,141.663371,146.647085" />
<polygon fill="#003311" fill-opacity="0.501961" points="243.938777,130.964401,254.344515,158.901051,271.000000,76.625072,253.196648,113.848395" />
<polygon fill="#2d333d" fill-opacity="0.501961" points="42.901051,71.978356,49.004971,69.242246,48.176019,75.084011,46.479526,81.845160" />
<polygon fill="#95c0c5" fill-opacity="0.501961" points="169.183410,156.594675,200.963749,168.804008,199.019283,160.203256,184.927100,156.227880" />
<polygon fill="#798394" fill-opacity="0.501961" points="66.664781,33.920440,97.724963,43.868154,92.872148,65.342961,100.836576,120.423995" />
<polygon fill="#646975" fill-opacity="0.501961" points="-16.000000,163.943238,-3.308302,160.563039,5.676758,171.260253,-16.000000,159.834719" />
<polygon fill="#4a546b" fill-opacity="0.501961" points="6.669867,85.552935,-3.642775,68.650928,10.609810,74.286547,-13.003732,107.708785" />
<polygon fill="#90a3c1" fill-opacity="0.501961" points="221.310011,12.285250,208.829648,40.062974,182.853456,47.754573,265.065422,3.610737" />
<polygon fill="#3aa170" fill-opacity="0.501961" points="210.238418,116.416418,199.351793,118.352992,195.304632,124.440321,198.828772,103.179895" />
<polygon fill="#9dabc0" fill-opacity="0.501961" points="156.074184,33.662691,121.879343,-4.692419,110.724839,34.242056,226.323114,-14.122032" />
<polygon fill="#186851" fill-opacity="0.501961" points="241.791372,58.689067,237.519911,49.295286,234.167668,65.676679,249.981538,62.952274" />
<polygon fill="#7c8ca1" fill-opacity="0.501961" points="130.394466,138.660163,131.443216,141.562156,132.225139,167.118084,121.108907,169.812734" />
<polygon fill="#003e1e" fill-opacity="0.501961" points="241.254095,80.728525,227.272208,121.764748,234.555818,119.983270,228.745022,84.532909" />
<polygon fill="#54a48a" fill-opacity="0.501961" points="201.666095,58.828060,190.350742,55.656250,171.364655,64.706988,206.481741,64.175621" />
<polygon fill="#c2ccd8" fill-opacity="0.501961" points="124.249723,52.099631,132.597307,31.262594,159.067292,39.035196,126.352662,83.648894" />
<polygon fill="#003917" fill-opacity="0.501961" points="219.032587,72.387267,219.460303,64.583827,223.874321,63.056129,208.994532,64.331739" />
<polygon fill="#161a20" fill-opacity="0.501961" points="7.720510,131.925358,-16.000000,110.723974,11.332811,123.538612,-16.000000,94.135174" />
<polygon fill="#8b99b2" fill-opacity="0.501961" points="107.670242,1.601551,205.395363,5.037241,111.984858,-16.000000,89.724857,20.869087" />
<polygon fill="#879ab4" fill-opacity="0.501961" points="48.457678,189.684401,16.748081,207.000000,31.597750,203.855775,46.932904,184.746601" />
<polygon fill="#3c4651" fill-opacity="0.501961" points="53.548446,131.416850,55.389957,112.242365,56.625487,56.661067,53.506240,116.147098" />
<polygon fill="#5b6377" fill-opacity="0.501961" points="70.143407,-16.000000,87.849088,-3.836208,47.098548,45.424823,64.385387,52.420759" />
<polygon fill="#1c212a" fill-opacity="0.501961" points="27.107734,136.976453,23.700148,141.430599,18.072166,161.277550,29.958615,118.107823" />
<polygon fill="#3e434e" fill-opacity="0.501961" points="11.155798,130.786767,15.203094,133.382678,0.197391,86.929253,11.970668,108.859731" />
<polygon fill="#1c2026" fill-opacity="0.501961" points="-16.000000,87.270442,-16.000000,88.756335,27.797927,103.143769,28.277525,105.973864" />
<polygon fill="#515c74" fill-opacity="0.501961" points="25.656861,166.534260,47.973121,161.108831,21.016795,175.652622,24.688606,174.263816" />
<polygon fill="#006933" fill-opacity="0.501961" points="239.509688,151.818507,210.553635,101.367190,217.686691,132.118292,262.368864,160.739325" />
<polygon fill="#576379" fill-opacity="0.501961" points="33.678516,110.431897,23.595071,112.689395,38.183200,121.741213,33.115929,145.324689" />
<polygon fill="#313744" fill-opacity="0.501961" points="3.941631,47.921226,34.784009,72.934890,32.134038,67.447334,32.844877,84.251054" />
<polygon fill="#171c27" fill-opacity="0.501961" points="19.686138,68.539565,17.859657,42.623590,16.653254,67.840600,11.622145,54.736752" />
<polygon fill="#4a596f" fill-opacity="0.501961" points="13.360110,8.551994,6.667940,4.842446,-13.716467,-16.000000,-16.000000,-3.593555" />
<polygon fill="#7c8898" fill-opacity="0.501961" points="97.712881,150.100420,85.661963,155.113113,102.290290,112.768893,62.645843,108.490732" />
<polygon fill="#242a34" fill-opacity="0.501961" points="17.005958,83.386029,30.149994,91.664184,2.548281,62.804879,6.375655,68.695927" />
<polygon fill="#4a9c81" fill-opacity="0.501961" points="251.364396,59.727564,244.469864,59.018783,234.102443,33.738851,271.000000,74.648631" />
<polygon fill="#404553" fill-opacity="0.501961" points="12.559497,96.303729,-16.000000,69.987779,35.152616,117.090442,10.845072,88.981107" />
<polygon fill="#252a32" fill-opacity="0.501961" points="-16.000000,-16.000000,34.789679,54.758152,31.506280,40.738230,21.486099,39.009672" />
<polygon fill="#dbe7eb" fill-opacity="0.501961" points="163.700095,139.230682,161.058842,132.641248,155.793814,106.275424,157.851071,107.226141" />
<polygon fill="#4e576c" fill-opacity="0.501961" points="5.680523,69.013524,17.296085,71.103894,-0.889843,53.627044,13.956715,60.353894" />
<polygon fill="#424a5b" fill-opacity="0.501961" points="-3.834402,36.601959,49.896655,48.222004,38.341222,49.684694,35.984962,47.550679" />
<polygon fill="#b0bdce" fill-opacity="0.501961" points="110.904209,92.558937,105.691095,79.875617,106.131830,48.505850,111.974233,15.799797" />
<polygon fill="#6aae9d" fill-opacity="0.501961" points="211.650939,162.235883,211.530537,182.477113,184.886244,100.330747,201.944533,143.404021" />
<polygon fill="#282e3b" fill-opacity="0.501961" points="24.533350,171.687780,45.249482,207.000000,39.978704,207.000000,36.491354,183.509605" />
<polygon fill="#84c2b5" fill-opacity="0.501961" points="164.884258,122.737414,186.761193,97.864540,177.885670,60.582509,183.322635,124.473730" />
<polygon fill="#0d1319" fill-opacity="0.501961" points="30.535687,204.183152,15.486762,186.441251,13.336306,184.919567,16.531157,207.000000" />
<polygon fill="#596378" fill-opacity="0.501961" points="46.514241,31.022571,31.853114,21.546306,29.107230,47.525596,30.190748,23.089379" />
<polygon fill="#545e71" fill-opacity="0.501961" points="25.939770,7.887423,22.608104,17.658816,21.431585,4.002241,97.752112,60.299423" />
<polygon fill="#aab6cc" fill-opacity="0.501961" points="146.951292,26.509943,271.000000,27.661846,214.315710,38.922969,210.511105,15.767247" />
<polygon fill="#697184" fill-opacity="0.501961" points="95.493166,33.517398,78.561213,-16.000000,96.526886,57.751482,92.457704,87.617204" />
<polygon fill="#0f1318" fill-opacity="0.501961" points="12.570186,19.182572,23.773797,44.889891,16.080225,32.280387,15.882780,7.452073" />
<polygon fill="#2b313d" fill-opacity="0.501961" points="42.582946,142.377558,45.600233,138.909529,58.098339,168.668826,53.462159,147.682251" />
<polygon fill="#151a1e" fill-opacity="0.501961" points="5.105667,160.953198,0.644786,160.924350,8.429865,173.541733,9.240885,179.784828" />
<polygon fill="#358e6c" fill-opacity="0.501961" points="271.000000,84.694218,271.000000,81.105553,235.259714,72.363369,226.460510,57.325475" />
<polygon fill="#4c8690" fill-opacity="0.501961" points="189.335009,46.702360,189.931917,44.336865,203.691363,45.038697,215.347958,54.085945" />
<polygon fill="#1c8354" fill-opacity="0.501961" points="191.798289,77.176494,212.995865,63.744735,183.170744,68.256029,196.532149,82.504844" />
<polygon fill="#21242b" fill-opacity="0.501961" points="31.120124,117.659322,23.709558,136.379407,31.809346,119.208995,-16.000000,104.010907" />
<polygon fill="#808b9d" fill-opacity="0.501961" points="71.290504,117.883787,92.337373,152.249809,72.292658,100.400912,68.409398,52.055299" />
<polygon fill="#323947" fill-opacity="0.501961" points="33.064314,177.653694,28.194519,142.610306,-9.651280,162.938095,25.654192,147.628823" />
<polygon fill="#51ae7f" fill-opacity="0.501961" points="184.786659,116.017675,198.889424,111.253395,201.618296,107.149893,182.488430,104.941742" />
<polygon fill="#343a47" fill-opacity="0.501961" points="61.530490,132.457594,-16.000000,119.306069,31.213328,127.603283,37.039643,126.343575" />
<polygon fill="#494d59" fill-opacity="0.501961" points="14.774064,145.294550,25.812604,129.463484,18.975534,109.831000,24.974361,123.862843" />
<polygon fill="#1b1f26" fill-opacity="0.501961" points="29.023620,181.349101,25.947474,204.498286,15.396874,161.137603,30.892130,205.829029" />
<polygon fill="#55a485" fill-opacity="0.501961" points="215.070497,130.955934,245.974772,182.934261,240.549671,155.946393,213.336683,160.358357" />
<polygon fill="#212832" fill-opacity="0.501961" points="44.064409,29.725373,42.456489,28.735128,28.445524,27.396301,-16.000000,10.058471" />
<polygon fill="#1d2128" fill-opacity="0.501961" points="17.346539,128.097292,17.237058,130.438806,24.306207,139.519453,-16.000000,98.342431" />
<polygon fill="#616e85" fill-opacity="0.501961" points="32.057580,10.701618,48.802732,29.242766,44.742102,34.378491,43.335217,22.143825" />
<polygon fill="#1d232f" fill-opacity="0.501961" points="4.292729,-16.000000,43.855437,-1.453196,46.924760,-6.324110,44.270099,2.384260" />
<polygon fill="#8cb8bd" fill-opacity="0.501961" points="194.536656,39.192326,196.096153,33.266285,191.887585,55.774929,199.581713,55.583006" />
<polygon fill="#15181e" fill-opacity="0.501961" points="32.169040,19.313024,19.175226,18.361476,30.903197,14.687191,36.196553,18.090653" />
<polygon fill="#77a9ae" fill-opacity="0.501961" points="237.294521,177.559594,203.769691,171.069625,196.059118,158.817401,230.069834,170.996176" />
<polygon fill="#212631" fill-opacity="0.501961" points="-16.000000,76.914163,21.564344,83.444418,9.553112,74.097559,12.401651,87.526004" />
<polygon fill="#abc1d2" fill-opacity="0.501961" points="238.389331,184.108212,245.198935,181.495525,271.000000,195.053067,192.949339,165.455018" />
<polygon fill="#1a694d" fill-opacity="0.501961" points="251.243226,71.921322,240.074617,60.406589,257.306141,61.760627,249.941781,65.269716" />
<polygon fill="#262b37" fill-opacity="0.501961" points="26.792052,159.112715,22.662262,169.839158,32.837771,157.175607,24.721977,156.298523" />
<polygon fill="#9eacc1" fill-opacity="0.501961" points="114.045231,60.414552,111.758997,-4.178580,132.555487,4.158784,133.756154,27.662727" />
<polygon fill="#14181e" fill-opacity="0.501961" points="-3.136676,149.465408,18.620439,174.653893,25.172941,192.382867,18.484520,171.604296" />
<polygon fill="#328b66" fill-opacity="0.501961" points="193.887726,141.046831,216.882625,151.681129,193.361556,144.002016,190.447435,140.705853" />
<polygon fill="#1d2023" fill-opacity="0.501961" points="24.530911,121.280940,25.121685,96.872969,27.715686,112.408596,22.546089,113.836516" />
<polygon fill="#242932" fill-opacity="0.501961" points="31.284742,66.814651,-3.463449,49.707382,34.101468,67.657099,32.781270,86.550802" />
<polygon fill="#4f586b" fill-opacity="0.501961" points="49.294004,160.506800,51.260799,168.191579,13.799114,157.293420,44.765927,162.800505" />
<polygon fill="#498b84" fill-opacity="0.501961" points="240.129886,167.075331,250.758841,163.766057,238.020776,180.762457,271.000000,182.603303" />
<polygon fill="#c5d5e1" fill-opacity="0.501961" points="190.596368,170.607374,183.081410,166.050705,184.222717,162.184223,202.227640,174.022019" />
<polygon fill="#075035" fill-opacity="0.501961" points="236.811316,39.361780,271.000000,47.619558,253.879521,49.847160,257.095979,38.000833" />
<polygon fill="#6e7988" fill-opacity="0.501961" points="57.334463,77.997685,59.471390,92.209113,84.083844,133.984874,56.085929,90.212531" />
<polygon fill="#596477" fill-opacity="0.501961" points="61.697172,58.955421,59.565993,7.429245,69.675920,59.281422,34.254703,20.393202" />
<polygon fill="#111720" fill-opacity="0.501961" points="8.707515,4.977202,11.982779,-8.972954,20.462621,7.898493,-6.225976,-16.000000" />
<polygon fill="#919eb2" fill-opacity="0.501961" points="131.920838,99.879302,122.719817,131.969784,141.458992,165.373387,131.079751,178.998610" />
<polygon fill="#41454e" fill-opacity="0.501961" points="3.215880,113.473830,12.218659,151.669960,18.015838,172.183087,12.070846,162.793696" />
<polygon fill="#899bb0" fill-opacity="0.501961" points="90.185648,150.343069,80.051651,154.927094,90.005032,158.839848,107.175186,158.512067" />
<polygon fill="#45566a" fill-opacity="0.501961" points="3.049427,20.908764,-15.570570,-5.378919,-11.506904,12.400008,8.055864,27.915210" />
<polygon fill="#5e6c81" fill-opacity="0.501961" points="28.724361,74.498807,35.703074,85.288026,35.259253,60.592573,39.410225,83.738724" />
<polygon fill="#007942" fill-opacity="0.501961" points="212.701860,77.699319,214.151625,115.629006,208.254356,117.995563,199.585567,66.331710" />
<polygon fill="#414856" fill-opacity="0.501961" points="23.107260,188.254438,25.791348,175.425293,29.816451,204.100210,38.501295,198.194790" />
<polygon fill="#1b212a" fill-opacity="0.501961" points="26.129381,39.708433,26.349359,47.262347,26.060212,56.188004,21.515025,69.537568" />
<polygon fill="#3d4658" fill-opacity="0.501961" points="50.082512,27.719408,61.541335,2.582147,42.817673,27.611025,17.928634,8.706283" />
<polygon fill="#8390a2" fill-opacity="0.501961" points="115.237381,123.313362,117.571045,141.500712,109.542578,127.039591,60.373388,144.228047" />
<polygon fill="#687283" fill-opacity="0.501961" points="61.164053,126.570098,60.049935,103.356115,64.378296,119.169903,83.220626,137.139190" />
<polygon fill="#2d3440" fill-opacity="0.501961" points="49.349884,10.664389,33.624760,9.356925,41.154352,14.908500,42.164248,7.791388" />
<polygon fill="#1c2024" fill-opacity="0.501961" points="5.653543,60.538888,-16.000000,60.867907,-6.020753,13.244958,1.171164,58.194521" />
<polygon fill="#3a3f4b" fill-opacity="0.501961" points="25.132062,33.182710,22.069293,53.832906,20.718894,29.980285,9.388183,-6.076447" />
<polygon fill="#b7c6d5" fill-opacity="0.501961" points="175.288447,55.509128,203.391338,32.922775,185.355915,26.361122,157.949337,46.248028" />
<polygon fill="#424753" fill-opacity="0.501961" points="32.505291,139.281692,30.547073,143.054999,22.598409,127.685355,3.960451,116.223163" />
<polygon fill="#0b1015" fill-opacity="0.501961" points="5.591706,173.734330,-1.257507,167.118243,0.330426,152.998639,-16.000000,173.062027" />
<polygon fill="#156e4a" fill-opacity="0.501961" points="210.442894,146.557980,214.029095,151.844908,206.793849,148.033395,218.441582,143.372472" />
<polygon fill="#15191e" fill-opacity="0.501961" points="13.744571,139.454986,6.812204,114.926051,11.581064,137.926319,21.383044,136.615521" />
<polygon fill="#729db0" fill-opacity="0.501961" points="239.939167,38.161042,235.968077,37.435332,209.520497,48.951329,210.390563,50.814838" />
<polygon fill="#8f9eb4" fill-opacity="0.501961" points="143.905712,169.934430,100.541358,199.013547,73.430499,152.102993,92.740942,180.308399" />
<polygon fill="#626b7f" fill-opacity="0.501961" points="89.552807,30.858750,92.074487,36.626903,97.149996,11.037628,74.105839,58.939334" />
<polygon fill="#24724f" fill-opacity="0.501961" points="231.832039,57.322644,229.906541,72.254271,231.396240,82.101782,235.865598,85.418762" />
<polygon fill="#026a3a" fill-opacity="0.501961" points="202.831227,56.277770,207.506964,61.947763,218.345960,108.820920,231.559068,90.239161" />
<polygon fill="#535f74" fill-opacity="0.501961" points="30.621633,186.504209,51.409045,207.000000,53.314870,185.796847,31.817773,201.571091" />
<polygon fill="#a5b4c7" fill-opacity="0.501961" points="84.269676,196.591418,90.355135,175.228271,86.262374,173.570689,101.221176,166.042530" />
<polygon fill="#485062" fill-opacity="0.501961" points="29.832572,54.361892,31.064151,35.494258,13.802205,29.054885,27.578512,30.109693" />
<polygon fill="#14181d" fill-opacity="0.501961" points="7.337460,112.397856,10.223774,106.870774,-16.000000,96.123189,-16.000000,63.680634" />
<polygon fill="#b6c7d8" fill-opacity="0.501961" points="198.777149,174.484928,220.584817,174.725912,220.195420,173.769795,230.846942,179.282597" />
<polygon fill="#b5c2d1" fill-opacity="0.501961" points="145.313105,15.726235,138.926209,51.233032,124.642229,39.305187,127.754141,34.981888" />
<polygon fill="#637289" fill-opacity="0.501961" points="31.996291,65.436245,35.533737,58.104204,32.243242,55.614663,38.027592,64.036650" />
<polygon fill="#404858" fill-opacity="0.501961" points="53.871651,97.259516,-8.406458,65.163650,20.576488,78.141761,40.783618,88.846221" />
<polygon fill="#6ca9a0" fill-opacity="0.501961" points="232.691077,21.571861,235.501325,62.258980,227.829509,55.347263,235.017503,46.794624" />
<polygon fill="#828b9b" fill-opacity="0.501961" points="86.131385,81.269816,74.114455,73.254591,97.295869,119.584245,88.092312,70.132078" />
<polygon fill="#3b4350" fill-opacity="0.501961" points="56.045147,142.332787,55.832553,75.272743,53.783042,138.991670,16.607637,137.504382" />
<polygon fill="#4a4c53" fill-opacity="0.501961" points="11.968779,114.511660,19.781282,118.903590,20.115473,110.886784,22.993247,123.968041" />
<polygon fill="#212832" fill-opacity="0.501961" points="-16.000000,14.990774,15.776941,42.828943,0.616373,33.666494,-16.000000,-2.453366" />
<polygon fill="#5e6c81" fill-opacity="0.501961" points="37.127339,76.366230,44.344425,99.190197,44.865954,75.898065,32.766508,88.282751" />
<polygon fill="#424a57" fill-opacity="0.501961" points="51.264098,61.246626,44.914357,49.769642,57.067698,54.601292,59.167128,39.024340" />
<polygon fill="#020506" fill-opacity="0.501961" points="25.320491,60.841929,30.511256,66.046388,31.209786,68.006742,25.595326,64.014068" />
<polygon fill="#bac8de" fill-opacity="0.501961" points="213.225679,41.866187,220.856227,43.233875,231.973927,39.535561,231.473641,37.546793" />
<polygon fill="#41444e" fill-opacity="0.501961" points="22.877708,99.670001,16.632650,104.476683,10.463002,130.580511,28.674252,80.194592" />
<polygon fill="#cde3e9" fill-opacity="0.501961" points="169.928465,121.803032,166.941377,104.705532,168.191292,105.037539,170.831274,111.373974" />
<polygon fill="#12151b" fill-opacity="0.501961" points="6.895880,90.774515,9.221727,95.516635,10.043747,99.954523,15.967333,101.749085" />
<polygon fill="#5d6a83" fill-opacity="0.501961" points="47.555819,3.534454,61.328071,8.892636,39.989048,5.097274,63.572646,-10.670703" />
<polygon fill="#19654d" fill-opacity="0.501961" points="219.319976,49.414784,225.147886,47.003864,222.371734,64.963573,236.886572,75.136408" />
<polygon fill="#5e687b" fill-opacity="0.501961" points="31.366078,114.683563,33.382059,98.600942,24.241563,101.525183,32.384840,105.621763" />
<polygon fill="#3e4450" fill-opacity="0.501961" points="3.314049,155.794580,-6.083678,120.687346,9.650927,168.014925,7.482488,167.943751" />
<polygon fill="#318666" fill-opacity="0.501961" points="251.064572,151.462583,235.360355,154.720671,225.327924,164.192476,228.883166,154.525235" />
<polygon fill="#313744" fill-opacity="0.501961" points="30.172375,155.297677,24.100592,136.203461,37.341292,168.629342,23.605399,155.628791" />
<polygon fill="#3f4759" fill-opacity="0.501961" points="31.082141,90.123994,-16.000000,18.097537,33.962494,96.738957,40.210282,136.758138" />
<polygon fill="#4e5970" fill-opacity="0.501961" points="35.468801,159.634501,42.022569,151.030209,33.875055,152.709804,20.620275,149.826553" />
<polygon fill="#a4b0c3" fill-opacity="0.501961" points="232.711353,182.495088,144.179809,172.540062,132.754551,116.947554,151.044238,164.563618" />
<polygon fill="#161d26" fill-opacity="0.501961" points="15.576927,13.488108,-16.000000,-0.556274,-4.658350,18.553333,-1.639271,1.638467" />
<polygon fill="#8abcbc" fill-opacity="0.501961" points="175.050178,62.341986,152.176532,77.981208,163.697825,59.065524,170.662101,51.299253" />
<polygon fill="#636d80" fill-opacity="0.501961" points="38.165936,5.689871,98.505707,83.306983,36.251210,6.347016,34.987946,11.019257" />
<polygon fill="#828da3" fill-opacity="0.501961" points="76.579463,43.910634,70.304089,55.588627,73.373199,38.270325,82.069109,50.745351" />
<polygon fill="#4db082" fill-opacity="0.501961" points="191.254607,77.670821,188.670249,103.441493,184.293044,73.177273,171.524603,56.471383" />
<polygon fill="#7c8da5" fill-opacity="0.501961" points="91.193206,167.862340,113.459790,153.857123,115.710095,152.119620,114.944855,169.677984" />
<polygon fill="#161b21" fill-opacity="0.501961" points="4.840493,148.196434,7.738102,159.667669,10.877198,160.899969,-5.113440,122.653040" />
<polygon fill="#191c22" fill-opacity="0.501961" points="13.691207,102.951543,15.930623,105.061886,13.924809,116.826138,13.115639,113.515344" />
<polygon fill="#1c222a" fill-opacity="0.501961" points="41.757285,8.680527,13.648825,-16.000000,5.101645,-0.453788,23.535201,-16.000000" />
<polygon fill="#545e72" fill-opacity="0.501961" points="47.634143,146.935332,48.851916,153.362404,45.909241,150.302608,35.909872,135.666459" />
<polygon fill="#515a69" fill-opacity="0.501961" points="41.343726,118.301809,74.869291,144.511461,66.056426,149.341218,41.977331,124.388895" />
<polygon fill="#98c8cb" fill-opacity="0.501961" points="172.409614,104.208256,170.075167,122.706288,181.453485,100.557720,179.234991,92.129591" />
<polygon fill="#586175" fill-opacity="0.501961" points="30.373256,25.947176,46.321442,52.487321,28.780069,28.135193,44.094918,35.459487" />
<polygon fill="#697281" fill-opacity="0.501961" points="65.374415,152.372284,70.793363,114.691645,75.065966,116.462609,64.351731,134.473555" />
<polygon fill="#535d6e" fill-opacity="0.501961" points="20.649392,51.850230,65.775215,74.071904,61.691576,54.249394,69.094820,66.356440" />
<polygon fill="#2f3640" fill-opacity="0.501961" points="40.403258,116.733217,50.937777,93.036987,42.673452,117.635621,40.572347,124.985364" />
<polygon fill="#252932" fill-opacity="0.501961" points="30.639630,129.500563,17.165010,113.027189,16.428108,121.161211,26.042772,114.551834" />
<polygon fill="#a1afc2" fill-opacity="0.501961" points="122.614293,173.795356,116.978488,110.284481,101.199073,140.572549,123.159519,105.099758" />
<polygon fill="#6b7486" fill-opacity="0.501961" points="80.028001,109.563057,37.317084,32.864736,84.898054,118.243266,64.045782,32.350542" />
<polygon fill="#171b23" fill-opacity="0.501961" points="2.664915,122.121645,10.872779,155.481775,-4.224289,106.481374,-16.000000,107.099395" />
<polygon fill="#525969" fill-opacity="0.501961" points="27.021939,142.017139,16.036399,140.359834,13.656944,134.338485,40.822521,154.040368" />
<polygon fill="#737b8e" fill-opacity="0.501961" points="71.365221,49.502067,90.062716,96.911989,64.846942,47.618204,55.670872,38.812995" />
<polygon fill="#191f27" fill-opacity="0.501961" points="-1.181750,15.441085,26.088285,29.458408,20.665480,23.031767,-13.799004,9.674639" />
<polygon fill="#697489" fill-opacity="0.501961" points="38.709864,48.432866,34.112640,46.822580,40.559549,62.728637,39.226678,69.356028" />
<polygon fill="#67b399" fill-opacity="0.501961" points="187.809743,133.981161,186.026818,156.428151,205.410974,151.800768,167.985405,124.704165" />
<polygon fill="#04653a" fill-opacity="0.501961" points="235.315994,120.528880,244.840319,115.247179,187.232789,71.849958,227.051166,101.331106" />
<polygon fill="#717a90" fill-opacity="0.501961" points="72.755886,10.714170,64.493968,44.401830,92.433787,27.635435,84.719673,9.043285" />
<polygon fill="#485060" fill-opacity="0.501961" points="17.206144,112.577460,42.765411,131.411351,81.316491,184.664719,41.751375,126.832629" />
<polygon fill="#343e53" fill-opacity="0.501961" points="9.651099,8.085296,2.938457,43.041356,13.730151,8.679710,17.264579,-16.000000" />
<polygon fill="#9aa8ba" fill-opacity="0.501961" points="95.765924,124.332419,140.928555,103.261788,105.807060,111.622886,98.826779,150.369456" />
<polygon fill="#272e3b" fill-opacity="0.501961" points="47.965693,170.623676,42.395931,175.854662,43.046176,182.985343,47.378379,162.733848" />
<polygon fill="#1a1f27" fill-opacity="0.501961" points="6.870262,-4.903096,36.791229,20.008270,26.434028,9.421405,22.139194,10.587578" />
</g>
</svg>