<svg height="1020" width="1024" xmlns="http://www.w3.org/2000/svg"><path d="m0 0h1024v1020h-1024z" fill="#bdb5aa"/><g fill-opacity=".501961" transform="matrix(4 0 0 4 2 2)"><path d="m42 181 90 40-27-131z" fill="#200500"/><path d="m160 210 74-67-214-4z" fill="#eb762a"/><path d="m173 134-32-38 69 27z"/><path d="m50 125 63 15-3-37z" fill="#00000a"/><path d="m254 270 8-101-278 95z" fill="#e5ebe8"/><path d="m106 155 57-21-41-69z" fill="#fff"/><path d="m121 214 2-60-46 42z" fill="#000126"/><path d="m34-16 237 90-233 44z" fill="#c4d1d1"/><path d="m-8 257 8-194 75 175z" fill="#dbe1dd"/><path d="m122 149-95-30 69 60z" fill="#ffa95f"/><path d="m125 196-75-10 1-28z" fill="#001024"/><path d="m106 221 99-35 7-74z" fill="#d2763a"/><path d="m167 136 36-15-50-20z" fill="#000006"/><path d="m154 189-16-2-17-36z" fill="#00121b"/><path d="m207-16 64 182-62 51z" fill="#d3d6d2"/><path d="m226 153-107 2 89-33z" fill="#ff9851"/><path d="m174 183h-37l72-25z" fill="#2a363a"/><path d="m57 121 30 52-60-24z" fill="#f88238"/><path d="m106 107 12 43-64-26z" fill="#093948"/><path d="m162 119-30-28-22 61z" fill="#fffff9"/><path d="m55 49 59 52-130 46z" fill="#cfd3d0"/><path d="m50 184-1-25-65 17z" fill="#fffff1"/><path d="m122 167-1 49-57-26z" fill="#03323d"/><path d="m-13-8 284 9-49 133z" fill="#bdc2be"/><path d="m123 182 1 33 86-38z" fill="#f38e49"/><path d="m162 107-21-13 2 9z"/><path d="m146 228-162-10 52-39z" fill="#b8bfbb"/><path d="m229 147-68-12-12 43z" fill="#ffa56d"/><path d="m49 158 62-23-13 43z" fill="#f79f6a"/><path d="m66 20 110 48 86-45z" fill="#aaada8"/><path d="m102 175 12 14 11-41z" fill="#002639"/><path d="m135 69-8 6 13 12z" fill="#475358"/><path d="m55 123 18 9 38-26z" fill="#040e13"/><path d="m110 111 21 36 6-70z" fill="#fffff3"/><path d="m62 54 12 12 22-1z" fill="#5a6e73"/><path d="m210 158-7 62 68-87z" fill="#dde1da"/><path d="m232 107 39-15h-57z" fill="#838e8f"/><path d="m170 134-18-28 52 16z" fill="#00212b"/><path d="m161 136-44 16-6-53z" fill="#e3f2ea"/><path d="m149 93 63 32 10-88z" fill="#d0d2cd"/><path d="m90 138 25 11-3-25z" fill="#528190"/><path d="m-9-16 29 174 53-62z" fill="#c1c6c4"/><path d="m104 95 29-3-28-5z" fill="#6a7b7e"/><path d="m52 125-21 28 89-2z" fill="#ef894b"/><path d="m209 156-4 13-33 3z" fill="#51382b"/><path d="m132 147 11-15-3-13z" fill="#6e9197"/><path d="m-16 201 36-62 29 41z" fill="#ece9da"/><path d="m140 193 34-19-40 6z" fill="#604d3f"/><path d="m97 227 133-50-64 48z" fill="#dee0d8"/><path d="m123 145-1-18-9-5z" fill="#748f97"/><path d="m136 42 24-23 15 2z" fill="#727b7e"/><path d="m65 28-13 21 40-32z" fill="#7d888a"/><path d="m38-3 208 1-121 34z" fill="#cccbc3"/><path d="m186 183 4-12-20 10z" fill="#d5c6a5"/><path d="m126 83 22 59 15-17z" fill="#fffff3"/><path d="m111 82 6-11-4-2z" fill="#334242"/><path d="m178 65-35-16 20 17z" fill="#647981"/><path d="m102 183-29 11-26-37z" fill="#112b36"/><path d="m85 66 21-3 14-13z" fill="#657477"/><path d="m102 21h-17l23 7z" fill="#3b4d53"/><path d="m227 150-21 8 4-32z" fill="#c67546"/><path d="m122 214 24-8-23-44z" fill="#ff9148"/><path d="m148 179 60-56-79 31z" fill="#fd9f62"/><path d="m39 69-33 44 6-68z" fill="#a2adae"/><path d="m104 105-58 15 65-62z" fill="#d3d9d4"/><path d="m186 19 74-24 11 124z" fill="#c6c6c1"/><path d="m136 92 13 15 11-4z" fill="#1a1c18"/><path d="m91 65-22-8 47-5z" fill="#cbd0c8"/><path d="m110 102-30 17 33 14z" fill="#1c2e32"/><path d="m49 182-65 23h75z" fill="#abaca7"/><path d="m189 24-15-4 26 19z" fill="#606f72"/><path d="m129 77-17-1 29 22z" fill="#fffff4"/><path d="m206 165v21l-42 11z" fill="#de7e3e"/><path d="m191 62 5-8-18 10z" fill="#4f5d63"/><path d="m137 44-16-1-11-13z" fill="#707878"/><path d="m135 93-1-50 98 77z" fill="#ccd0cd"/><path d="m164 124 8 4-9 14z" fill="#3b5154"/><path d="m171 65 21-9-47-7z" fill="#c9cdc7"/><path d="m49 158-21-7 14-17z" fill="#b57243"/><path d="m103 21 23 20 36-21z" fill="#cdcfc8"/><path d="m236 157 26 12-48 4z" fill="#aab4b6"/><path d="m226 151-81-7 60-20z" fill="#f89b63"/><path d="m228 195 43-22-62-1z" fill="#edebe1"/><path d="m148 99 57 24-20 5z" fill="#0a1b20"/><path d="m106 94 18-9-16-1z" fill="#768586"/><path d="m246 43 21-18h-58z" fill="#a2a59f"/><path d="m119 130 5 20-14-5z" fill="#e8f9fa"/><path d="m115 122 3-43 17 58z" fill="#ffe"/><path d="m130 214 27-11-12-1z" fill="#8e6544"/><path d="m64 131 54 21-20 26z" fill="#f69559"/><path d="m271 197-3 10-34-2z" fill="#8597a1"/><path d="m121 178 2 37-73-32z" fill="#1e303a"/><path d="m141 38 24-14 25 7z" fill="#cac9be"/><path d="m103 8-115 3-4 63z" fill="#cdc5b9"/><path d="m37 32-26 5-14-8z" fill="#d99e79"/><path d="m61 54 7 3-11-10z" fill="#213136"/><path d="m119 217-64-29-6 58z" fill="#bfc3bf"/><path d="m92 78-35-27-42 109z" fill="#cbcdc9"/><path d="m95 23-23 5 60 18z" fill="#cac9c0"/><path d="m140 44 4-9-6 7z" fill="#3d3731"/><path d="m200 113 71-6-31 57z" fill="#cacecc"/><path d="m119 114 20 11-28-39z" fill="#fff9ec"/><path d="m50 160-66 46 22-64z" fill="#e1dfd3"/><path d="m35 2h-29l15 9z" fill="#879193"/><path d="m154 110-15 22 23-7z" fill="#fffff2"/><path d="m186 63 60-32 25 68z" fill="#c4c4be"/><path d="m-4 73-1 75 50-46z" fill="#bcbfbc"/><path d="m233 150-23 21-3-12z" fill="#e5ede6"/><path d="m128 92-10 6-8-5z" fill="#838e8c"/><path d="m31 149 35 15-13-42z" fill="#ea8b4c"/><path d="m133 80-2 1v-7z"/><path d="m241 69 5-19 25 19z" fill="#97a1a7"/><path d="m152 28 11-8h12z" fill="#3a4c5b"/><path d="m256 92-7 8-1-7z" fill="#4b5b61"/><path d="m163 187-33 24 73-27z" fill="#fe9958"/><path d="m107 25 7 6-13-6z" fill="#37403f"/><path d="m77 63-19-21 20-17z" fill="#c8ccc6"/><path d="m42 270 194-87 35 69z" fill="#cdccc5"/><path d="m199 6-69 29-42-18z" fill="#c3c4be"/><path d="m158 25h28l32 37z" fill="#c1c2ba"/><path d="m184 22 25 16 30-32z" fill="#cdccc3"/><path d="m256 97-48-53-28 28z" fill="#c8c7c1"/><path d="m159 176 20-1 10-11z" fill="#3e3c38"/><path d="m121 195-11-20 11-25z" fill="#0f2a37"/><path d="m159 180 28 1-48 12z" fill="#ad7247"/><path d="m11 62-1 18-3-8z" fill="#79858c"/><path d="m143 104-25-11 10 55z" fill="#ffe"/><path d="m52 186-1-24 48 18z" fill="#132c37"/><path d="m227 39 10-4 7-10z" fill="#6e7371"/><path d="m114 125v11h6z" fill="#fff"/><path d="m253 35-11-11 7 4z" fill="#495155"/><path d="m14 189 35-11v-18z" fill="#f0efe5"/><path d="m113 122-21 12 16-22z" fill="#203b43"/><path d="m203 45-7 10 4-14z" fill="#5e6a70"/><path d="m146 129-3 3h5z" fill="#546975"/><path d="m156 145h-16l23-8z" fill="#97674c"/><path d="m183 164 12-36-62 21z" fill="#f29e68"/><path d="m162 136-1-12-19 18z" fill="#fffff6"/><path d="m253 8-19 27-8-18z" fill="#d1d0c4"/><path d="m117 151-3-13-12 2z" fill="#859fa5"/><path d="m207 185-89 35 87 2z" fill="#d5d7d0"/><path d="m20 72 2 1-1-3z" fill="#020b15"/><path d="m271 26-8-3-15 16z" fill="#3e4b55"/><path d="m80 20h10l-20 8z" fill="#485963"/><path d="m124 41-2 6-7 5z" fill="#5a6368"/><path d="m27 100-16-3 17-2z" fill="#7c9099"/><path d="m129 76-11-1-2-4z" fill="#667885"/><path d="m88 111 6-8 20-2z" fill="#f0c394"/><path d="m149 45 35 17 18-19z" fill="#c3c4bc"/><path d="m154 110h13l-27-15z" fill="#001522"/><path d="m185 66 9-10-16 10z" fill="#45525b"/><path d="m137 78-3-7-4 6z" fill="#3a4244"/><path d="m81 67-11-7 20 6z" fill="#3b505c"/><path d="m94 70 4 37-90-63z" fill="#cbccc8"/><path d="m15 23 8-1-2-4z" fill="#e77630"/><path d="m257 146-65-86-45 24z" fill="#c6c8c4"/><path d="m196 188 10-3 1-8z" fill="#895a36"/><path d="m81 64 21-4-36-5z" fill="#c4c9c3"/><path d="m12 136 31-6-59 71z" fill="#d6d7ce"/><path d="m242 103 9 4-14-13z" fill="#6a767f"/><path d="m185 183 19-16v18z" fill="#fc924e"/><path d="m117 87-2-14 13 5z" fill="#fffff1"/><path d="m93 91 17 10-62 22z" fill="#d3dad6"/><path d="m142 173-17-15 7 12z" fill="#20323a"/><path d="m133 145-6 4 11-3z" fill="#365c70"/><path d="m108 89 4-15-20 3z" fill="#c3d5d6"/><path d="m30 30h6l-4 7z" fill="#e77a31"/><path d="m18 267 75-22-109-45z" fill="#d1cfc7"/><path d="m40 132-2-109 26 34z" fill="#c8c7c1"/><path d="m200 159 7 10-1-11z" fill="#483b30"/><path d="m29 149 11 6h-6z" fill="#445960"/><path d="m68 30-8 8 5-9z" fill="#45515a"/><path d="m139 8-153-24 74 42z" fill="#c6c5bc"/><path d="m111 93-1-9-1 6z" fill="#2b4955"/><path d="m182 175 10-7-7 12z" fill="#e6bc94"/><path d="m91 38-4 12v-21z" fill="#838484"/><path d="m238 95 10 15-30-18z" fill="#c6c7be"/><path d="m36 105-3 6-1-6z" fill="#5f6560"/><path d="m19 16-28-32 26 56z" fill="#c5cac7"/><path d="m79 63 6-18-6-17z" fill="#a0a09e"/><path d="m111 110 4-12 6 29z" fill="#fffff8"/><path d="m146 37-48 30 27 2z" fill="#cdd0cd"/><path d="m143 42 12-14 1 29z" fill="#cdcfc8"/><path d="m216 106 7-3 3-5z" fill="#647476"/><path d="m206 123 9 10-8-5z" fill="#785946"/><path d="m89 57 1-34 13 3z" fill="#cccdc6"/><path d="m143 103 13 10-16 20z" fill="#fffff0"/><path d="m223 148-17-24-59 54z" fill="#f79e68"/><path d="m194 163-5 13 14-8z" fill="#9d542f"/><path d="m180 131-19-14 4 18z" fill="#2a4449"/><path d="m21 47 1-5-6 4z" fill="#df9057"/><path d="m147 50-14-9h8z" fill="#686e6d"/><path d="m216 154h10l2-6z" fill="#5b747d"/><path d="m123 135 12 10-12 3z" fill="#feffff"/><path d="m143 175-11-3-8-18z" fill="#423d37"/><path d="m271 168-22-6h16z" fill="#444f58"/><path d="m83 198 22-16 19 35z" fill="#1f313b"/><path d="m111 102-12 12 9 4z" fill="#081c24"/><path d="m6-1-22 52 24 41z" fill="#c6c9c6"/><path d="m187 25-14-3 5-2z" fill="#455456"/><path d="m94 23-2-2 6 2z" fill="#00131c"/><path d="m41 56-35 1 70-38z" fill="#caccc6"/><path d="m209 159-1 21 22-30z" fill="#e3e3d9"/><path d="m222 31-6 6 5-10z" fill="#6c6e6d"/><path d="m215 33 28-39-152-4z" fill="#c4c3bb"/><path d="m166 23 10-1 10 7z" fill="#cacbc3"/><path d="m81 87 3-1 1 3z" fill="#52666d"/><path d="m125 214-2-18 59-5z" fill="#f09456"/><path d="m75 27-14 11 11 21z" fill="#b2b8b5"/><path d="m137 83-2-4 1-4z" fill="#455155"/><path d="m121 137-9-13 5 20z" fill="#fffff9"/><path d="m52 123-15 14 10-3z" fill="#8b6a4f"/><path d="m222 139 12 21 35 2z" fill="#dadbd0"/><path d="m33 150 67 29-52-50z" fill="#ee9154"/><path d="m172 61-11-36 11-2z" fill="#adafa9"/><path d="m139 99-3-16-15-7z" fill="#fffff3"/><path d="m171 194-10 8 22-9z" fill="#786755"/><path d="m179 184-14 14 38-14z" fill="#f59353"/><path d="m81 57 5-16-5-5z" fill="#e3e3da"/><path d="m-16 82 50 6-50 14z" fill="#ced0c9"/><path d="m208 62 51-13-13-22z" fill="#cbcac2"/><path d="m242 166 4 3 7-1z" fill="#fff"/><path d="m11 104-4 8v-7z" fill="#6d7275"/><path d="m138 91 5 12 11 5z" fill="#1b2b35"/><path d="m146 130-18-35 21 12z" fill="#fdfaec"/><path d="m120 46 13-3-9-2z" fill="#576369"/><path d="m177 73-32 13-34-51z" fill="#c8cdc8"/><path d="m96 18 65 1-29 23z" fill="#c6c8c2"/><path d="m26 150 8 34 10-26z" fill="#e4e4db"/><path d="m227 25-18 25 38 53z" fill="#c6c5be"/><path d="m120 130 3 3-1-4z" fill="#254055"/><path d="m122 84 4 3h-5z" fill="#1a1e23"/><path d="m253 34-16-30 34 3z" fill="#cecbc0"/><path d="m137 87-3-13-1 22z" fill="#fffff7"/><path d="m164 62 13 3-11 1z" fill="#486068"/><path d="m141 199-17-40-2 19z" fill="#e88543"/><path d="m10 27 1 11-4-4z" fill="#d3763c"/><path d="m87 64v-18l3 9z" fill="#737a7c"/><path d="m150 53 27 5-10 5z" fill="#c5cbc6"/><path d="m101 143-15-9 19-11z" fill="#3e5358"/><path d="m253 170h-6v2z" fill="#3f4b57"/><path d="m129 83-7 6 3 1z" fill="#fff"/><path d="m19 111h3l1-6z" fill="#606a72"/><path d="m230 92 3 1 3-1z" fill="#252c2f"/><path d="m72 66 38 22-1-21z" fill="#cbd0cb"/><path d="m170 24-5 14 5 18z" fill="#d9d9cd"/><path d="m47 180 38 52-87-30z" fill="#babab4"/><path d="m165 62-1-28-4 12z" fill="#989999"/><path d="m114 32 5 7 6 2z" fill="#36444a"/><path d="m161 53-6-4 7-14z" fill="#cfd0cc"/><path d="m112 69 4 5-2 4z" fill="#4c5047"/><path d="m226 62-8 6 7-1z" fill="#b3866f"/><path d="m98 115 14-15-8 25z" fill="#1b2b30"/><path d="m112 54 11-10-5 8z" fill="#3c474e"/><path d="m141 45 8 5-1 3z" fill="#4b585b"/><path d="m156 57v-28l4 14z" fill="#8b908e"/><path d="m67 32 11-7-14 24z" fill="#c4c8c3"/><path d="m158 60 3 4h6z" fill="#233a4c"/><path d="m157 34 7 15-7-1z" fill="#dddcd7"/><path d="m95 58 4-13-4-14z" fill="#979f9e"/><path d="m140 95 51-21-46-16z" fill="#c9cdc9"/><path d="m156 128-14 15-3-7z" fill="#fffffa"/><path d="m154 41 2 17-16-17z" fill="#c9ccc6"/><path d="m37 73-4-11-13-6z" fill="#8a9094"/><path d="m95 140-6-28-35 12z" fill="#1c292f"/><path d="m96 30 6 15-6 14z" fill="#d7d6d1"/><path d="m47-11-21 54-3-27z" fill="#c1c8c6"/><path d="m22 33-3-1 3-4z" fill="#f5762a"/><path d="m122 153-59-24-6 22z" fill="#e99157"/><path d="m134 141 4 6-1-16z" fill="#739a9f"/><path d="m188 130-49 41-6-22z" fill="#f49d64"/><path d="m244 200-3 5 2 2z" fill="#697b89"/><path d="m31 70 7 2h-10z" fill="#626b6d"/><path d="m189 192 81 12-23-32z" fill="#dcdbd1"/><path d="m160 117-30-12v-14z" fill="#fcfbec"/><path d="m235 35-10-11 3 7z" fill="#707781"/><path d="m239 60 24 1-17 4z" fill="#d7d7d2"/><path d="m122 104 16 24-14 22z" fill="#fffaed"/><path d="m139 36-12 6-15-12z" fill="#cacbc3"/><path d="m11 60 14-2-7-1z" fill="#6e716e"/><path d="m240 61 6-4-2-2z" fill="#677073"/><path d="m162 138 3-8 10 3z" fill="#4d5b5b"/><path d="m123 149-2-1 1-5z" fill="#519fa6"/><path d="m115 72 16 13-16-5z" fill="#fffdea"/><path d="m152 53-5-1 9 7z" fill="#495b61"/><path d="m125 244-41-11 107-41z" fill="#d9d7ce"/><path d="m187 44v14l-2-7z" fill="#858a8b"/><path d="m89 62-1-25 6 5z" fill="#ced0cb"/><path d="m14 83 4 4 16-7z" fill="#8f9595"/><path d="m224 41h6l6-7z" fill="#6e7275"/><path d="m156 58-12-12 11-6z" fill="#c5c9c4"/><path d="m102 53 1-21 4 14z" fill="#a29f99"/><path d="m188 31 10 16-9 12z" fill="#cfcec1"/><path d="m251 167 20-7-1 7z" fill="#3d494f"/><path d="m15 9h9l-11-3z" fill="#616c6e"/><path d="m171 183h9l8-8z" fill="#e4bf93"/><path d="m180 44 6 16-1-33z" fill="#d7d5cf"/><path d="m84 198 37 1v-46z" fill="#1c303a"/><path d="m191 192 8-5-18 4z" fill="#7f6c52"/><path d="m115 142-3-8-21 3z" fill="#54757f"/><path d="m165 53 9 11h-7z" fill="#d0d8d0"/><path d="m228 162-8 6 8-2z" fill="#8e9597"/><path d="m106 64 4 11 11-26z" fill="#cad3d2"/><path d="m99 63 3-3h5z" fill="#263945"/><path d="m174 38-3-7v18z" fill="#7b807f"/><path d="m174 23 5 26h-7z" fill="#d7d5c7"/><path d="m-16 145 32 3 18-42z" fill="#cccac1"/><path d="m205 182-40 17-4-12z" fill="#f18f51"/><path d="m250 167-5 3h-6z" fill="#777f80"/><path d="m18 81 8-21 7 7z" fill="#bdc2bf"/><path d="m199 121-31 5-22-27z" fill="#10232a"/><path d="m138 44-33 18 64 14z" fill="#c7cac7"/><path d="m109 33-1 24-4-17z" fill="#dbd7c8"/><path d="m28 7 4-7 6-3z" fill="#818888"/><path d="m253 37-11 4 6 2z" fill="#949999"/><path d="m57 40-2 5 3-4z" fill="#414d4f"/><path d="m28 20 5 7-10-7z" fill="#888e8e"/><path d="m226 27-16 18 20-12z" fill="#cbccc4"/><path d="m249 160-14 8 5-8z" fill="#9da3a2"/><path d="m113 93 22 6 15 20z" fill="#fefbee"/><path d="m98 66-11-1 15-3z" fill="#48545b"/><path d="m76 93 25-29-29 11z" fill="#cdd0cb"/><path d="m186 180 5-7-1 4z" fill="#47483e"/><path d="m252 101-4-2 3-1z" fill="#000815"/><path d="m97 57-9 8 12-4z" fill="#ccd3cb"/><path d="m230 94-5 3 3-4z" fill="#4d5759"/><path d="m235 108 13-15-9 6z" fill="#757f7f"/><path d="m248 107 23-15v11z" fill="#576b7b"/><path d="m138 117v14l3-8z" fill="#8b9590"/><path d="m174 65-3-2 1-10z" fill="#767f81"/><path d="m46 157h-4l-1-2z" fill="#32333a"/><path d="m115 83 2 5-4-4z" fill="#4e5f63"/><path d="m269 55-32-4 21-18z" fill="#cdcbc6"/><path d="m240 163-20 7h15z" fill="#e7eee5"/><path d="m195 35v-2l1 2z" fill="#000017"/><path d="m164 201-13 5 8-6z" fill="#596465"/><path d="m111 97h6l-14-11z" fill="#6a7d84"/><path d="m237 95-7 12 10-8z" fill="#d5cfc2"/><path d="m142 106-15 23 6 12z" fill="#fffdee"/><path d="m140 130 22-2-22-21z" fill="#fdfaed"/><path d="m17 8 14-24h-39z" fill="#abb5b8"/><path d="m114 86 3 7 1-3z" fill="#686a63"/><path d="m95 82-11 6h32z" fill="#cdd7d3"/><path d="m130 74-3 4 1 1z" fill="#fff"/><path d="m148 47v-10l2 7z" fill="#777e7e"/><path d="m112 83 4 12-4-3z" fill="#f2f7f9"/><path d="m197 44-3 8v-15z" fill="#909492"/><path d="m69 57-4-23 6 8z" fill="#d7d8d0"/><path d="m242 167 7 3 8-2z" fill="#eaf1ec"/><path d="m150 30 6-4-4 1z" fill="#25373e"/><path d="m120-16 9 44 118-24z" fill="#c2c2ba"/><path d="m201 188-47 18 42 1z" fill="#dbdbd1"/><path d="m52 88 38 21 21-14z" fill="#cdd1cf"/><path d="m-11 65 27-36 5 27z" fill="#c5c7c1"/><path d="m68 39 4-13v25z" fill="#949c9b"/><path d="m248-16h-21l16 21z" fill="#8c9493"/><path d="m267 93 2-27-80 21z" fill="#c9cac7"/><path d="m51 185 1-26 32 38z" fill="#182d36"/><path d="m125 93-4-1 2 3z" fill="#5f645c"/><path d="m116 127 6 2-10-8z" fill="#5a6d77"/><path d="m32 146h3l3-7z" fill="#5e5c56"/><path d="m122 128 1 8-4-8z" fill="#516c7a"/><path d="m138 123-19-34 12 53z" fill="#fdf9ec"/><path d="m7 198 42-6v-12z" fill="#adb1ad"/><path d="m271 168-57-37 57-35z" fill="#cac9c4"/><path d="m76 114-2 3h-5z" fill="#f79234"/><path d="m12 86-28-74 11 151z" fill="#c6c6c1"/><path d="m131 136-15-12-3-26z" fill="#f8f8ea"/><path d="m64 53v-10l2 4z" fill="#85898e"/><path d="m51 121-30-12 17 28z" fill="#c5cac8"/><path d="m89 23-9 1 14 3z" fill="#caccc7"/><path d="m224 3-3-19h7z" fill="#6b7676"/><path d="m70 30v18l-5-1z" fill="#d8d9d1"/><path d="m210 153-1 4 8-4z" fill="#765e45"/><path d="m149 178 31-46 32 22z" fill="#f09d68"/><path d="m16 21-8 10 3-9z" fill="#9d9f9c"/><path d="m175 38 4 10v-18z" fill="#9da29a"/><path d="m150 28 39-24-76-2z" fill="#c2c2bb"/><path d="m172 28 14 32-14 4z" fill="#c5c7bf"/><path d="m246 93-33-36-71 19z" fill="#c6c8c3"/><path d="m261 177-20-7-11 6z" fill="#e9ede9"/><path d="m123 170v46l9-17z" fill="#f49757"/><path d="m138 135 10-17-5-4z" fill="#fcfdf5"/><path d="m261 165-7 5 9-14z" fill="#2a3439"/><path d="m227 94 20-46-44 39z" fill="#c7c8c3"/><path d="m180 64v1l-2-1z" fill="#000002"/><path d="m228 170-7 3 3-3z" fill="#50565c"/><path d="m58 128-3 32-20-16z" fill="#e98a4c"/><path d="m65 33 9-7h-4z" fill="#536371"/><path d="m110 56 13-14-18-14z" fill="#c6c3b8"/><path d="m241 102 30 30-46-13z" fill="#c8cac7"/><path d="m103 57v-4l1 1z" fill="#4e5453"/><path d="m241 69-2-5 10 4z" fill="#949798"/><path d="m122 137-1 5 2-2z" fill="#346b70"/><path d="m84 74 27 29-26-1z" fill="#cdd2ce"/><path d="m51 40-35-30 61 11z" fill="#c8c8c1"/><path d="m185 46 3-6-2-8z" fill="#939390"/><path d="m99 141 13-1v5z" fill="#90afb6"/><path d="m235 170h-5l9 3z" fill="#70747b"/><path d="m179 110 20 7-10-7z" fill="#e7bb94"/><path d="m87 64-5-15-1 15z" fill="#d7d9d1"/><path d="m219 142-4-7 10 9z" fill="#6f6963"/><path d="m133 71h-10l-4 5z" fill="#8a9ba1"/><path d="m206 188 5-16 47 1z" fill="#e5e5df"/><path d="m263 161-11-17-44 14z" fill="#d7d6ce"/><path d="m200 161 7 17-1-13z" fill="#925932"/><path d="m208 123 30 37-14-59z" fill="#c8ccc7"/><path d="m215 43 16-6-8-8z" fill="#c6c8c0"/><path d="m258 102 1-5-15 7z" fill="#cfdad6"/><path d="m150 34-1-5-3 5z" fill="#4b5a67"/><path d="m137 85 2 3v3z" fill="#4e636a"/><path d="m147 189 9 13 40-16z" fill="#ec8f51"/><path d="m116 152-3-5 9 5z" fill="#8d6b58"/><path d="m250 25 10-27-73 26z" fill="#c7c6be"/><path d="m90-16-83 33 87 4z" fill="#c7c5bd"/><path d="m193 114-45-18 44-2z" fill="#ced0c8"/><path d="m107 56-6 7 11-6z" fill="#4e606b"/><path d="m137 192-1-10 29-5z" fill="#785b45"/><path d="m120 131 2 19-6-5z" fill="#fdfffe"/><path d="m105 55 3 1-2 3z" fill="#f3f3e2"/><path d="m162 38-5-10 6-4z" fill="#d0d2c9"/><path d="m225 149-42 15 27-33z" fill="#f69960"/><path d="m254 164 17 7v-15z" fill="#fff"/><path d="m60 235 8-42 50 25z" fill="#bdbfbb"/><path d="m6 69 4 3 4-1z" fill="#687a84"/><path d="m236 105-6-8-4 2z" fill="#d8d7cc"/><path d="m34 37-2-3-6 10z" fill="#968c83"/><path d="m71 62 2-2-2-7z" fill="#587279"/><path d="m113 80h6l1 8z" fill="#fffff8"/><path d="m123 90h4v6z" fill="#787e7c"/><path d="m194 42h7l-1 5z" fill="#d4d5cb"/><path d="m72 84 40-6-1-20z" fill="#c9ceca"/><path d="m178 193 27-12 1-13z" fill="#f28f4f"/><path d="m226 100-4-2-2-4z" fill="#626a6f"/><path d="m14 92 1 7-3-4z" fill="#73848c"/><path d="m75 63h4l-3 1z" fill="#08182b"/><path d="m223 98-26 18-5-40z" fill="#c5c6c1"/><path d="m127 156 22 21 20-41z" fill="#f39d65"/><path d="m178 54 1-8 4 17z" fill="#979e9b"/><path d="m126 149-1 3 2-3z" fill="#48433d"/><path d="m34-16 8 91 27-63z" fill="#c6c5bd"/><path d="m-5 72 23 15 3 15z" fill="#c5cbc7"/><path d="m104 27 6 16-6 17z" fill="#d0cfc5"/><path d="m253 166 17 17-4-15z" fill="#e9f0f0"/><path d="m88 112-16 19-11-9z" fill="#121f25"/><path d="m176 26 12 2-8-4z" fill="#c3c9c0"/><path d="m20 191-34-37 59 25z" fill="#e6e3d6"/><path d="m119 188-63-25 21 34z" fill="#22323c"/><path d="m165 34-2-7v13z" fill="#858383"/><path d="m121 74 16-31 14 19z" fill="#c6c9c4"/><path d="m127 214h-1l-1 2z" fill="#000300"/><path d="m110 42 2-6-2-7z" fill="#7a7c75"/><path d="m95 55 2 5-2 6z" fill="#6f7e7f"/><path d="m139 136-2 9h-4z" fill="#81bfc3"/><path d="m93 141 18-13-24 6z" fill="#405558"/><path d="m81 67-40-20 40 62z" fill="#c9cbc6"/><path d="m122 184 4 16 23-5z" fill="#e3884b"/><path d="m245 166h-17l6 4z" fill="#e6e9e0"/><path d="m169 184-13-7 27 6z" fill="#906e4e"/><path d="m165 104h5l2 3z" fill="#ea9953"/><path d="m159 104 18 24 29-5z" fill="#182427"/><path d="m216 35 11 27-48 9z" fill="#c5c7c1"/><path d="m115 90 4-2h-3z" fill="#00040b"/><path d="m158 100-1 2-7-4z" fill="#e79d61"/><path d="m107 165 11-14-45-17z" fill="#f0965d"/><path d="m58 44 4-7 2 16z" fill="#d2d7d0"/><path d="m218 29 5-4 4 2z" fill="#727978"/><path d="m117 125 24-10-4-28z" fill="#fdf9eb"/><path d="m163 133-29-31 25 15z" fill="#fbfaeb"/><path d="m71 132-17-7-24 23z" fill="#e6894b"/><path d="m82 113 7-3-1-2z" fill="#e9a569"/><path d="m157 115-40 7-7-14z" fill="#fdfaeb"/><path d="m122 129-1-3-1 4z" fill="#2b4f58"/><path d="m231 100-1-3 5-1z" fill="#858784"/><path d="m187 28 1 9-2-3z" fill="#7b7d7a"/><path d="m231 208 3-5 11-1z" fill="#9eaeb6"/><path d="m158 143-17 27-18-18z" fill="#f29d65"/><path d="m9 111-1-1h3z" fill="#485362"/><path d="m137 146h7l1-3z" fill="#585455"/><path d="m141 92-7-29 38 43z" fill="#cad0ca"/><path d="m271 249-169 21 119-75z" fill="#cdccc6"/><path d="m212 52 10-35-31 9z" fill="#c6c7c0"/><path d="m5 34 10 10-4-7z" fill="#a19b95"/><path d="m152 176 36-46-48 16z" fill="#f09c64"/><path d="m107 124-27-7-1 18z" fill="#24373f"/><path d="m25 82-7 2-6-8z" fill="#bdc3be"/><path d="m-16 68 23-4 5 42z" fill="#c5c6c1"/><path d="m194 30-8-6-2 2z" fill="#46535a"/><path d="m123 23 62-25-45 38z" fill="#c3c3bc"/><path d="m181 39-1-13h5z" fill="#d3d3cd"/><path d="m99 58-9 6 13-3z" fill="#d1d4cb"/><path d="m134 150 71-26 17 21z" fill="#f29b64"/><path d="m226 100 5 5v-10z" fill="#cbcdc7"/><path d="m168 181h13l-7 2z" fill="#efb37e"/><path d="m88 24v4l-1-1z" fill="#7e8182"/><path d="m177 19 8-3 13 13z" fill="#c8cdc4"/><path d="m244 210 5-2-4-10z" fill="#dce5e1"/><path d="m78 228-91 35 100 7z" fill="#cdccc5"/><path d="m56 122v-3h6z" fill="#e0955a"/><path d="m180 176 6-5-13-1z" fill="#5e4d41"/><path d="m60 79-25-67v57z" fill="#c6c6c0"/><path d="m33 153 15 22 1-15z" fill="#e6e7df"/><path d="m39 104-22-17 26-3z" fill="#c9cac7"/><path d="m81 30-2 6v-10z" fill="#888886"/><path d="m179 23h-8l7 24z" fill="#c8c9bd"/><path d="m258 201 4 5-14-1z" fill="#828d91"/><path d="m22 29 8-7-16 2z" fill="#c5c6bc"/><path d="m118 49-5-15 1 18z" fill="#d5d4c8"/><path d="m156 51-1 7 3 1z" fill="#5a6a71"/><path d="m113 55-5 2 4-3z" fill="#354350"/><path d="m191 166-1 5 13-7z" fill="#995635"/><path d="m110 59 18-14-6 28z" fill="#c6ccca"/><path d="m174 57 10 4-4 2z" fill="#c1cac3"/><path d="m156 57-1-8-5 3z" fill="#d4dad3"/><path d="m135 102-8-9 10-3z" fill="#f6f9e9"/><path d="m234 35 9-13-16-2z" fill="#c6c7be"/><path d="m130 121-11-33 1 23z" fill="#faf9ed"/><path d="m181 73 14 43-71-71z" fill="#c8cbc8"/><path d="m141 136 1 6-4 3z" fill="#f4ffff"/><path d="m73 59 5-15 1 19z" fill="#d7dad3"/><path d="m84 22 7-2v2z" fill="#1e3541"/><path d="m171 30v-5l2 5z" fill="#6b6d6b"/><path d="m129-4-18 26-25-2z" fill="#c4c6c2"/><path d="m95 26 2 2-2 3z" fill="#878f89"/><path d="m165 25 5-2-5 16z" fill="#d4d3ca"/><path d="m254 270h-21l22-68z" fill="#cbcac5"/><path d="m137 142 3-8-9 11z" fill="#81acac"/><path d="m121 152 1 23-4-12z" fill="#0c1e28"/><path d="m130 148 2-6-9-1z" fill="#fdfff8"/><path d="m56 1 12-17-15 12z" fill="#7e8181"/><path d="m79 63v-15l3 11z" fill="#899193"/><path d="m254 59 13-24 4 16z" fill="#4b5662"/><path d="m157 42 6 10-6 6z" fill="#d2d3cf"/><path d="m115 126 2 9 1-4z" fill="#fdfff1"/><path d="m18 60v9l-3 2z" fill="#d1d8d1"/><path d="m66 33 3 5 1-8z" fill="#cbd5d1"/><path d="m51 122 37-13-19-1z" fill="#d8d9cf"/><path d="m248 64v4l5-3z" fill="#84878b"/><path d="m163 62v-5l2 7z" fill="#4c5c62"/><path d="m135 211-1 2-7-2z" fill="#865b3a"/><path d="m33 76 2 2-7 5z" fill="#7a8385"/><path d="m252 100-1-3-2-1z" fill="#021c26"/><path d="m181 42-3 3 1-10z" fill="#828786"/><path d="m56 150 64 2-28 23z" fill="#ed9156"/><path d="m37 74 31-1-50 25z" fill="#c6c9c4"/><path d="m131 163-8-10 4 10z" fill="#1c2829"/><path d="m39 131-28-27 1 31z" fill="#c7c7c2"/><path d="m172 129-13-11 32 9z" fill="#192e34"/><path d="m219 164 1 4 13-4z" fill="#9ba2a6"/><path d="m147 205-25 10 17-18z" fill="#f19557"/><path d="m76 70-4 42-22-71z" fill="#c9cac5"/><path d="m116 48-6-6-1 15z" fill="#bfc1b9"/><path d="m188 28 5 6-5 10z" fill="#d3d3c6"/><path d="m195 162-13 6h8z" fill="#3e3d37"/><path d="m-16 47 39-34-39-21z" fill="#c8c7c0"/><path d="m232 134 23-29 12 56z" fill="#c8c8c1"/><path d="m217 164 6 3 4-3z" fill="#d7dddb"/><path d="m271 92-24 3 17 3z" fill="#cacdc7"/><path d="m137 183 8-6-17-11z" fill="#625344"/><path d="m23 28 8 8-3 5z" fill="#c5cbc8"/><path d="m271 47-39-8-53 27z" fill="#c8c8c1"/><path d="m108 88-7-3 11-12z" fill="#bfd1d3"/><path d="m16 163-24-12 52-20z" fill="#d4d4cb"/><path d="m232 107-6-4 9 3z" fill="#70777f"/><path d="m29 149 3-1 2-4z" fill="#735237"/><path d="m111 116v-10l5-4z" fill="#fbfdfb"/><path d="m139 90 2-43 51 56z" fill="#c6ccc9"/><path d="m186 60-6-13-1 15z" fill="#d2d3ce"/><path d="m111 125-8 10 9-1z" fill="#34525b"/><path d="m134 145 3-9 6-3z" fill="#badbdd"/><path d="m268 85 3 29-16-20z" fill="#32373d"/><path d="m237 187-28-3 35 21z" fill="#dad9d0"/><path d="m129 77-11 4-3 7z" fill="#f9f8e3"/><path d="m240 164-1-3 9 3z" fill="#e0e5e5"/><path d="m251 157-16 5-12-4z" fill="#e1e2d4"/><path d="m10 207 55 29 54-18z" fill="#c1c2bb"/><path d="m64 44 2-3-2-4z" fill="#838589"/><path d="m63 191-37 16 79 12z" fill="#bdbeba"/><path d="m202 159 1 2 5-4z" fill="#423e31"/><path d="m30 149 46-10-27-9z" fill="#eb8d4e"/><path d="m69 129-15-5 18-1z" fill="#101e26"/><path d="m245 103h5l-4-7z" fill="#ced3cf"/><path d="m86 51-5 13 2-28z" fill="#cecfc9"/><path d="m120 163-25 19 24 33z" fill="#1d313d"/><path d="m69-16-41 61 133-61z" fill="#c5c4bb"/><path d="m180 30 1 18 5-20z" fill="#cccbc5"/><path d="m21 73 1 5-3 2z" fill="#949d9a"/><path d="m58 37v4l2-4z" fill="#344247"/><path d="m70 21-16 10-6 21z" fill="#c8cac4"/><path d="m96 24 6 3v19z" fill="#d0d0c7"/><path d="m26 47 12 24-3-23z" fill="#c9cbc8"/><path d="m32 66-6 16-5-24z" fill="#bec1be"/><path d="m194 52 3 1-2 4z" fill="#546068"/><path d="m10 79 7 7-9-16z" fill="#7c858a"/><path d="m193 59 2 26 11-40z" fill="#c4c6bf"/><path d="m65 39v15l5-5z" fill="#d3d5cf"/><path d="m247 106-2-4h-2z" fill="#5e676e"/><path d="m-6 105v16l15-14z" fill="#c7cac5"/><path d="m214 183-48 18h72z" fill="#d8d7ce"/><path d="m11 66 4-7-4 4z" fill="#848c88"/><path d="m118 249 81-30-67-5z" fill="#d2d0c9"/><path d="m113 121-6-6-1-8z" fill="#09202c"/><path d="m139 195 27-9-18 1z" fill="#cf763c"/><path d="m239 75 7-9 20 38z" fill="#c9cac6"/><path d="m22 106-2-2v5z" fill="#6d7584"/><path d="m150 38-2 3 1-9z" fill="#848c90"/><path d="m58 44-1 1-3-1z" fill="#626a71"/><path d="m43 182 11 10v-5z" fill="#abb1ab"/><path d="m6-15 12-1 2 23z" fill="#d1d1cb"/><path d="m20 134 11 2-7-38z" fill="#c7c9c5"/><path d="m195 30-40-34 83 26z" fill="#c5c4bc"/><path d="m-16 136 34-50-34-15z" fill="#c6c7c2"/><path d="m181 31-2-7-1 2z" fill="#7c898b"/><path d="m212 121 32-19-17 33z" fill="#c6c7c5"/><path d="m228 38-4-11-10 17z" fill="#c4c4bc"/><path d="m117 149-2-4 3 3z" fill="#f3ffff"/><path d="m25 82-2-16-2 14z" fill="#c7cbc6"/><path d="m253 65 16-59v51z" fill="#cfd3d1"/><path d="m229 171-21 18 63-6z" fill="#e1e0d7"/><path d="m146 35 6-5v5z" fill="#bdbeb7"/><path d="m167 181 13-4-3 5z" fill="#d19161"/><path d="m137 43-10 5 13-2z" fill="#cfd2cb"/><path d="m3-8 35-8-29 18z" fill="#8b989e"/><path d="m70 28 3-4h3z" fill="#162435"/><path d="m250 55 12 2 9-10z" fill="#d0dadc"/><path d="m22 188 27-25v15z" fill="#ebece2"/><path d="m64 24 13-3-19 13z" fill="#cdcfc3"/><path d="m64 218 24-15 34 15z" fill="#b8bab6"/><path d="m200 46h-3l-2 7z" fill="#d3d7ce"/><path d="m236 163-3-2h10z" fill="#8c928b"/><path d="m41 134h3l3-6z" fill="#626058"/><path d="m245 156-11 8-6-17z" fill="#dad9ce"/><path d="m32 110 2-3-9-4z" fill="#cccfce"/><path d="m112 80-2 1v6z" fill="#586d71"/><path d="m18 99 3 7-11 16z" fill="#c6c9c5"/><path d="m49 128 55 42-72-20z" fill="#ea8d51"/><path d="m112 79-21 26 8-39z" fill="#c7cfcd"/><path d="m59 110-51 20 33 4z" fill="#c6c8c4"/><path d="m163 41 3 8-2 7z" fill="#8d8e8b"/><path d="m15 56-31 36 11-91z" fill="#c8c6bf"/><path d="m196 36 6 2-1 3z" fill="#5e6975"/><path d="m199 37 6-5 7 18z" fill="#cfd0c5"/><path d="m13 35-6-3 3-2z" fill="#f58b47"/><path d="m111 90v2h-7z" fill="#3d4d53"/><path d="m116 92h-1v1z" fill="#1a1d19"/><path d="m225 170-12 2-2-6z" fill="#e3e6dc"/><path d="m179 176-32 9 14-10z" fill="#7c5843"/><path d="m158 117-44 1v-21z" fill="#fdfaed"/><path d="m79 52-6-9 4-17z" fill="#d2d2cc"/><path d="m165 49 4 7-3 5z" fill="#d5d6cf"/><path d="m140 131v4l3-4z" fill="#64788e"/><path d="m92 91h16l-34-14z" fill="#cbcfcb"/><path d="m25 64 2 10-3 3z" fill="#9fa4a1"/><path d="m137 44h-13l-14 17z" fill="#c5ccc9"/><path d="m165 53 3-8-3-6z" fill="#d8d3c6"/><path d="m11 74v-10l5 18z" fill="#c5cece"/><path d="m167 129 4-6-9 1z" fill="#22373f"/><path d="m147 179-12-17 42 1z" fill="#f29e67"/><path d="m183 174 1 7 5-7z" fill="#e0c4a0"/><path d="m162 52-3 3 1 5z" fill="#d8d9d2"/><path d="m149 142 3-2h-2z" fill="#383947"/><path d="m110 147 3-1v-2z" fill="#d2e1e6"/><path d="m207 181-1-4-1 5z" fill="#403f39"/><path d="m227 171 10-4v-4z" fill="#b3bab7"/><path d="m216 162-6 28-3-12z" fill="#e1e0d5"/><path d="m150 207-10 2 8-4z" fill="#71685d"/><path d="m32 110-3-3-2 1z" fill="#959692"/><path d="m165 215-19-6 14-5z" fill="#dbdcd7"/><path d="m113 126h1l-2-3z" fill="#edfbfb"/><path d="m12 39 1-7 16 11z" fill="#c4c7c1"/><path d="m217 170 2 1h-2z" fill="#787f82"/><path d="m134 82-3-2 1-6z" fill="#273036"/><path d="m119 73v2h7z" fill="#374a5d"/><path d="m102 37-6 3 6 20z" fill="#cccdc7"/><path d="m30 35 2-8 2 6z" fill="#d98853"/><path d="m163 199-16-7-23 22z" fill="#ef9255"/><path d="m118 75 9-28 22 11z" fill="#c6c8c4"/><path d="m54 158 56 2-12 17z" fill="#ef9459"/><path d="m121 76 18 8-27-2z" fill="#f9fbed"/><path d="m64 120 4-3-4-1z" fill="#e0ab72"/><path d="m109 63 40-6-25 17z" fill="#c5cac7"/><path d="m102 108 1-2-5 2z" fill="#7c4110"/><path d="m114 72-29 18-2-16z" fill="#ccd1cc"/><path d="m77 25-4 2 1 7z" fill="#ced3cb"/><path d="m155 37 2 2-1-8z" fill="#777b77"/><path d="m117 164 5-12-12 14z" fill="#11222a"/><path d="m225 270-78-17 124-8z" fill="#c9c8c1"/><path d="m182 182 8-12-15 11z" fill="#daaf85"/><path d="m71 59-7-3 2 3z" fill="#48565a"/><path d="m254 37-3-1-2-6z" fill="#414a51"/><path d="m64 57 16 25h16z" fill="#cccdc8"/><path d="m124 82-4 2 5-8z" fill="#faf8ed"/><path d="m33 112 4-2h-7z" fill="#868988"/><path d="m141 118-1 15 4-5z" fill="#f9fcf8"/><path d="m129 92-4-2h5z" fill="#6d7175"/><path d="m106 91 9 5-6-7z" fill="#4b5d62"/><path d="m29 135 3-26-45 14z" fill="#c9c8c2"/><path d="m137 114 2 13-25-12z" fill="#fbf9e9"/><path d="m93 36-3 6-2-18z" fill="#cbcbc5"/><path d="m158 136-7-27-3 32z" fill="#fdfaea"/><path d="m139 98-3-14-11 3z" fill="#fcfded"/><path d="m218 135 17 2-6 12z" fill="#d0d2cb"/><path d="m80 71 27 5 12-17z" fill="#c9cdc8"/><path d="m111 104-20 20-11-8z" fill="#15262e"/><path d="m260 106 7-4-17-8z" fill="#d1d4cc"/><path d="m201 160-5 2 1 1z" fill="#413125"/><path d="m156 37-6-4 3-4z" fill="#cfcec3"/><path d="m255 35 13 24-24-12z" fill="#c7c5bf"/><path d="m112 259-83 5-45-66z" fill="#cfcec7"/><path d="m113 112 8 17-2-30z" fill="#fbfcee"/><path d="m228 102 11-3-8 6z" fill="#cdcabe"/><path d="m215 154-11-30-20 9z" fill="#f19863"/><path d="m103 30 3 6-3-3z" fill="#767675"/><path d="m152 56 2 1-2 1z" fill="#2a3e44"/><path d="m104 96 7-1v5z" fill="#c6dbd9"/><path d="m243 56-26 23 8 19z" fill="#c7c8c2"/><path d="m186 193-1-1h-2z" fill="#0b1d1d"/><path d="m19 32 5-2-3 5z" fill="#e2783c"/><path d="m136 79-1 4 3-1z" fill="#4c595c"/><path d="m31 28-7 9v-17z" fill="#c1c6c2"/><path d="m169 98-32-17 2-20z" fill="#c5cdc9"/><path d="m62 121 17-6-13 15z" fill="#1e2628"/><path d="m157 102 3 13-14-16z" fill="#091e25"/><path d="m172 28 2 3 6-5z" fill="#c7c8bc"/><path d="m68 116-11 4 1-29z" fill="#ced4d1"/><path d="m28 96 8-23 28 21z" fill="#c8c9c5"/><path d="m130 84-10 5 11 1z" fill="#fbfdf2"/><path d="m194 128-43 48 51-18z" fill="#f19d68"/><path d="m107 104-5 2-1-2z" fill="#d68138"/><path d="m161 64-27-19-15 24z" fill="#c6c9c4"/><path d="m75 113 35-12-37-10z" fill="#d1d5d2"/><path d="m180 194-7 3v-3z" fill="#755a44"/><path d="m198 184-30 2 2 11z" fill="#f19153"/><path d="m113 136-17-1 2 7z" fill="#56727c"/><path d="m180 57 6-11-6-21z" fill="#c9cac5"/><path d="m145 132-2-1h1z" fill="#17242f"/><path d="m238 163 7 2h-4z" fill="#7e8286"/><path d="m154 35 1-5-2 4z" fill="#cbcdc1"/><path d="m248 36-2-8 4 7z" fill="#d4d3ca"/><path d="m17 45 3-3-1 5z" fill="#e59d69"/><path d="m118 186 4-18 1 22z" fill="#2c2f30"/><path d="m84 23 2 16-5-6z" fill="#d6d6cd"/><path d="m81 61 6 4-1-25z" fill="#cccfc7"/><path d="m205 184v-17l-13 14z" fill="#ec8c4c"/><path d="m180 104-2-1 1-7z" fill="#a8b2ad"/><path d="m179 24h4l-3-2z" fill="#1b2b30"/><path d="m194 115 4 3-8-3z" fill="#e4722a"/><path d="m58 37 9-8-3 6z" fill="#4b5759"/><path d="m57 39 1-13h11z" fill="#c9cdc7"/><path d="m78 48 2-10 1 8z" fill="#898986"/><path d="m97 105 15-12-21 8z" fill="#ccd3d0"/><path d="m113 200 8-29 1 46z" fill="#172c38"/><path d="m122 45 4-2v-2z" fill="#586569"/><path d="m200 41 5 5-4-1z" fill="#5c6774"/><path d="m128 42 32-20-44 11z" fill="#c3c5bc"/><path d="m125 44 19 29-30-12z" fill="#c5c8c5"/><path d="m120 96-3 2 1-2z" fill="#939ea1"/><path d="m232 45-16 30-16-43z" fill="#c6c6c0"/><path d="m137 77 3-15-6-12z" fill="#cbcdca"/><path d="m174 29-1-6 7 1z" fill="#cacbc1"/><path d="m17 193 22-37-55 1z" fill="#e2dfd3"/><path d="m172 62-2 3 1-8z" fill="#576769"/><path d="m182 183 9-6-4 5z" fill="#906c4f"/><path d="m135 87-12-11 8 15z" fill="#fcfcec"/><path d="m195 38 5 5-2 5z" fill="#cacdc5"/><path d="m91 133-4-5 1-7z" fill="#374951"/><path d="m183 112 8 3h-5z" fill="#cd7235"/><path d="m104 95 3-6-1 6z" fill="#748a8a"/><path d="m19 56-2-24-6 3z" fill="#c2c5be"/><path d="m182 185 13-9-3 13z" fill="#f09155"/><path d="m159 103h5l-7-2z" fill="#efa35e"/><path d="m208 127 1-2-6-3z" fill="#76594e"/><path d="m162 61-4-3h-4z" fill="#475b6b"/><path d="m123 161 2 40 9-18z" fill="#f4914f"/><path d="m114 69 1 8-2-1z" fill="#39413d"/><path d="m157 61-1-3 3 3z" fill="#334758"/><path d="m188 170 3-5 14 2z" fill="#985a3a"/><path d="m206 113 18-14-13-6z" fill="#c2c6c1"/><path d="m239 106-26 23-8-13z" fill="#c6c8c5"/><path d="m-16 203h38l3-12z" fill="#b3b4ac"/><path d="m74 169-28-14 16 3z" fill="#e38e56"/><path d="m206 125 4 20h11z" fill="#f69c62"/><path d="m177 64v-2l-5 1z" fill="#dce3de"/><path d="m246 41-6-2h12z" fill="#898f8e"/><path d="m28 6 18-22h-19z" fill="#babeb3"/><path d="m247 16 6 19 18-39z" fill="#c9c9be"/><path d="m99 63-7 2h4z" fill="#37474f"/><path d="m71 59-1-10h-3z" fill="#d6ddd6"/><path d="m20 72h-4l2 10z" fill="#d1d4cf"/><path d="m235 211 16-5 16 4z" fill="#d0d3cb"/><path d="m99 18 9 7-10-4z" fill="#cfd8d2"/><path d="m163 32 2-7-2-1z" fill="#7e8283"/><path d="m24 59 9 12v-5z" fill="#b1b7b6"/><path d="m132 11 82-6-24 18z" fill="#c3c2b9"/><path d="m28 95h-4l-3 5z" fill="#7a868a"/><path d="m123 51-13 14 12 8z" fill="#c6cccb"/><path d="m107 32-2 7-1-9z" fill="#d1ccc4"/><path d="m149 94 1 4-8-3z" fill="#e29966"/><path d="m149 97 37-33-48 18z" fill="#c9cdc9"/><path d="m108 137 6 2 1 6z" fill="#729095"/><path d="m34 73v-2l1 3z" fill="#233546"/><path d="m246 40 2-3h-10z" fill="#ced2cc"/><path d="m144 94 33 13-24-18z" fill="#cfd0c7"/><path d="m169 135 11-20-1 13z" fill="#1d3238"/><path d="m160 136-22 8 2-8z" fill="#fbfef4"/><path d="m93 22-1-1h-1z" fill="#000003"/><path d="m175 196-12 4h6z" fill="#5b5752"/><path d="m174 52-3-8v5z" fill="#6b7173"/><path d="m87 36 2 6-3 3z" fill="#7e7f80"/><path d="m235 168 8-6-18 7z" fill="#dfe5de"/><path d="m112 48v-15l9 9z" fill="#cacac1"/><path d="m177 53-5-6 1 16z" fill="#c9c8c2"/><path d="m260 168 11 4-21 1z" fill="#e6f8fe"/><path d="m271 71-21-31 13-12z" fill="#c9c9bd"/><path d="m166 130 5 3v-9z" fill="#364f53"/><path d="m167 21 3 1-1-1z"/><path d="m142 99 8 7v-7z" fill="#021a23"/><path d="m155 44v-15l-5 12z" fill="#c9c9bf"/><path d="m13 71 3 2 6-5z" fill="#899499"/><path d="m171 112 1 4-2-3z" fill="#455660"/><path d="m242 97 8-13h-16z" fill="#caccc5"/><path d="m129 60-3-16 18 7z" fill="#c5c7c3"/><path d="m250 87 7 1-7-23z" fill="#cacac6"/><path d="m24 10-4-3-4 2z" fill="#696e72"/><path d="m124 76 2 5-12-1z" fill="#fdfbed"/><path d="m154 206h31l-14-7z" fill="#d8d8cf"/><path d="m201 177-12-1 7 7z" fill="#ef8e53"/><path d="m80 64h2l-3 1z" fill="#00000a"/><path d="m-16-2 33 12-16 35z" fill="#c6c4bd"/><path d="m255 164h-6l3 1z" fill="#fff"/><path d="m18 8-6-8 11 8z" fill="#9da3a2"/><path d="m102 48-6 15 1-21z" fill="#cbcec9"/><path d="m162 41-5 12 4 8z" fill="#caccc7"/><path d="m28 104 3-7v16z" fill="#cccdca"/><path d="m94 22h-6l4 2z" fill="#bfc3ba"/><path d="m217 106-5 3 3-4z" fill="#949d9a"/><path d="m223 5 6-21-6 4z" fill="#8a8f8c"/><path d="m123 150 12-16-12-8z" fill="#f9fcf0"/><path d="m91 28-3 16 6 10z" fill="#cbccc6"/><path d="m109 48 2-9 2 15z" fill="#afb1ab"/><path d="m31 104-20-3 12-2z" fill="#c6cbc8"/><path d="m124 217-72-36 23-11z" fill="#1d303a"/><path d="m129 94h-2l-2-2z" fill="#afbdbd"/><path d="m174 118-15 1 3-15z" fill="#0f2126"/><path d="m233 157-11 7-13-5z" fill="#e3e4dd"/><path d="m65 111-1-9-2 10z" fill="#b4bab6"/><path d="m140 187-10-15 12 10z" fill="#785b44"/><path d="m234 162 19-15-33 7z" fill="#d5d5cc"/><path d="m265 203 3-20-36 15z" fill="#d2d0c7"/><path d="m194 90 22 10-6 26z" fill="#c5c7c3"/><path d="m181 38 4 16 1-23z" fill="#c6c6bf"/><path d="m92 141-18-4 23 42z" fill="#ec9359"/><path d="m108 29v-1l2 1z" fill="#24332b"/><path d="m157 138h1l-2 2z" fill="#533f39"/><path d="m144 97-3 1 6 1z" fill="#02080f"/><path d="m224 171 9 4-2-3z" fill="#e9f0f1"/><path d="m114 71-16 4 4 3z" fill="#c1d0ce"/><path d="m-15 69 22 2-23 4z" fill="#a2a9a2"/><path d="m171 104 31 15-2-12z" fill="#d0cfc2"/><path d="m250 106 9-8v-7z" fill="#ced0c8"/><path d="m105 20 6 9 31-14z" fill="#c7cac6"/><path d="m18 146 22 11-49 4z" fill="#d8d7cb"/><path d="m140 40-10 3 4 1z" fill="#4f565d"/><path d="m179 110-9-4h6z" fill="#e9a26d"/><path d="m134 42-34-40 51 23z" fill="#c3c4bf"/><path d="m137 43-13 5 36 16z" fill="#c7ccc7"/><path d="m17 107-4 2h4z" fill="#a2a4a7"/><path d="m21-1-1 5 3 2z" fill="#929293"/><path d="m203 121-2-3h-3z" fill="#e59867"/><path d="m232 33v3l-3-6z" fill="#5f656e"/><path d="m226 27-5 3 5 5z" fill="#c7c9c1"/><path d="m144 143 1 1 4-3z" fill="#6a6f76"/><path d="m230 34-1-3-5 4z" fill="#c6cac9"/><path d="m169 97 3 9 13 4z" fill="#cecfc5"/><path d="m245 57v-2l2 4z" fill="#566068"/><path d="m146 144-7 5h-7z" fill="#e49467"/><path d="m178 184h4l4-3z" fill="#504538"/><path d="m233 203-1 1 5 1z" fill="#88a2a6"/><path d="m255 163 16-10-3 10z" fill="#2d3736"/><path d="m37-3-7 16 3 14z" fill="#c7cbc7"/><path d="m-4 270 75-16-68-7z" fill="#cac8bf"/><path d="m17 7-6-3v-3z" fill="#bbc4c2"/><path d="m81 27 6 19-6 10z" fill="#cdcdc7"/><path d="m161 134-6-19-10 27z" fill="#fbfaea"/><path d="m80 72 3 27-24-47z" fill="#c9ccc8"/><path d="m139 94 13 6h-9z" fill="#361f14"/><path d="m171 31 2 6-2-1z" fill="#545b5f"/><path d="m239 169v2l3-2z" fill="#6d6f74"/><path d="m230 175 10-4 12 4z" fill="#e8ece7"/><path d="m64 30-25-13 26-14z" fill="#c3c1b8"/><path d="m91 210-10-11 21 11z" fill="#b4b7af"/><path d="m152 178h18l4-7z" fill="#5b4a3d"/><path d="m159 60h3l-4-7z" fill="#d3d7d0"/><path d="m140 135v6l10-10z" fill="#f7f9f3"/><path d="m156 181-14 7 6 1z" fill="#926345"/><path d="m60 53v-3l4 3z" fill="#48585b"/><path d="m199 160 8 11-1-11z" fill="#734d36"/><path d="m132 201 6-7-9-24z" fill="#e28a4e"/><path d="m110 107h-9l8 13z" fill="#0e2128"/><path d="m179 62v-4h-3z" fill="#a4aca7"/><path d="m64 55-19-8 2-8z" fill="#c6c6be"/><path d="m10 77-10 53-4-26z" fill="#c4c5c1"/><path d="m242 26 4 1 1-2z" fill="#5c6363"/><path d="m227 3 44 4-18 24z" fill="#c8c6bc"/><path d="m202 122h2l-2-1z" fill="#852a16"/><path d="m26 83-4 2 2-2z" fill="#74716e"/><path d="m22 5 15-21-15 8z" fill="#cfd2cd"/><path d="m173 51 5-11-1 23z" fill="#c8c9c1"/><path d="m14 100 2-6 3 2z" fill="#94a8ab"/><path d="m102 42 2-2-1-3z" fill="#6d6f6e"/><path d="m243 157h23l-15 5z" fill="#e0e1d8"/><path d="m271 19-58-14 20 22z" fill="#c7c7bf"/><path d="m181 207 41 10 22-31z" fill="#d4d2cb"/><path d="m226 148-2-5h-3z" fill="#585857"/><path d="m97 57 5-17v18z" fill="#c6c8c4"/><path d="m247 160 6-18-30 1z" fill="#d0cfc8"/><path d="m223 64-1 2 4-2z" fill="#b6755b"/><path d="m-16 55 42 41-26-7z" fill="#c6c9c4"/><path d="m249 64-5-5 6-1z" fill="#bec5c5"/><path d="m60 127 16-9 3 14z" fill="#13232b"/><path d="m246 18-13 15-6-12z" fill="#c5c4bb"/><path d="m222 171h-4l2 1z" fill="#505865"/><path d="m221 173-4 2-6-8z" fill="#e7e8db"/><path d="m72 166-17-6 17-27z" fill="#ea8f54"/><path d="m134 148 3-3 5-1z" fill="#70635c"/><path d="m95 37 1-3-1-3z" fill="#5f6466"/><path d="m58 110-32-21 30-38z" fill="#c6c7c2"/><path d="m79 26 3-2 2 1z" fill="#dde1dd"/><path d="m34 72 1-3-2-3z" fill="#777e82"/><path d="m167 129-6 9 6-5z" fill="#4a6167"/><path d="m62 42-3 1 4-7z" fill="#c7cdc9"/><path d="m18 83h-3l-1-9z" fill="#96a0a2"/><path d="m141 146-12 12 4-9z" fill="#f79b63"/><path d="m34 35 6-1v-3z" fill="#a4afac"/><path d="m196 40-2 4v-8z" fill="#949998"/><path d="m113 54-8-4-1-20z" fill="#c9c8bf"/><path d="m70 56 1-11 2 10z" fill="#859291"/><path d="m-16 129 23 24 19-11z" fill="#cfccc4"/><path d="m111 130-13 5 15-1z" fill="#425f6b"/><path d="m228 66-29-29 40 16z" fill="#c7c7c1"/><path d="m30 63 4 7-11-1z" fill="#c4c7c3"/><path d="m233 108-39-1 6 12z" fill="#c9cbc4"/><path d="m231 36-4-8v11z" fill="#c6c9c7"/><path d="m114 84h-2l1 2z" fill="#2d475a"/><path d="m170 64-3-5 3 1z" fill="#d5dfd7"/><path d="m78 45-5 7 1 8z" fill="#d2d3ca"/><path d="m120 96 11 51 7-22z" fill="#fcfaec"/><path d="m126 214h9l5-4z" fill="#6c655c"/><path d="m103 230 13 3 21-21z" fill="#dcd9cc"/><path d="m242 2 3-15-6-3z" fill="#dbd8c7"/><path d="m168 137 11-5-6 5z" fill="#d28a5b"/><path d="m141 97 13 4-9 2z" fill="#061923"/><path d="m75 115 9-3-3 3z" fill="#be702d"/><path d="m68 192 52-19 2 38z" fill="#1e313b"/><path d="m75 127 24-14-19 2z" fill="#172932"/><path d="m161 50-3-12-1 21z" fill="#c8c9c6"/><path d="m246 98 2 7-3-4z" fill="#cbcfcb"/><path d="m60 128 1 33-29-13z" fill="#ea8b4d"/><path d="m239 162 7-1-6-2z" fill="#888e8b"/><path d="m226 161 31-2-15-4z" fill="#ddddd1"/><path d="m162 51 1 11-4-6z" fill="#cdd0ca"/><path d="m15 192-27-8 5 16z" fill="#d9d5c7"/><path d="m260 161 11-10-40 8z" fill="#d9d9d0"/><path d="m8 70 6 1-6 1z" fill="#68767d"/><path d="m243 192h-53l81-22z" fill="#dcdbd2"/><path d="m192 117-11-4 9 15z" fill="#121e21"/><path d="m194 164-10 7h-12z" fill="#493f39"/><path d="m96 109-16 6 7 2z" fill="#232625"/><path d="m98 117 12-2 2 13z" fill="#1a3137"/><path d="m118 39h3l-3 9z" fill="#a4a8a7"/><path d="m176 20 1 2-8-1z" fill="#324345"/><path d="m226 25-44-19-36 11z" fill="#c3c3ba"/><path d="m193 16-28 5-32-20z" fill="#c2c1b9"/><path d="m70 31 2-2v1z" fill="#718589"/><path d="m216 134 1 3-5-5z" fill="#615e5b"/><path d="m220 130-4 3 8 10z" fill="#ccd1cd"/><path d="m239 46 6-19-19 21z" fill="#c9c8bd"/><path d="m177 51-4-14 4-13z" fill="#cdccbe"/><path d="m125 214 2-3 6-1z" fill="#f99a52"/><path d="m232 34v-9l12-3z" fill="#c3c5ba"/><path d="m89 51 1 13 4-2z" fill="#d4d6cf"/><path d="m21 66-4-2 1 7z" fill="#c2c7c1"/><path d="m30 34-3-7-10-2z" fill="#c3c5bd"/><path d="m122 227 10-13 11-3z" fill="#d5d5cb"/><path d="m126 140v9l-3-9z" fill="#f9fff7"/><path d="m144 208 11-4h-6z" fill="#5d564d"/><path d="m160 188-13 18 46-24z" fill="#ee9053"/><path d="m152 206-6 4 19 5z" fill="#d9dad2"/><path d="m113 103 5 3-4-8z" fill="#f4fcf9"/><path d="m271 17-3 13-17 6z" fill="#46535c"/><path d="m51 160 4 2-4 3z" fill="#1e2220"/><path d="m111 103 2-5-2-1z" fill="#6f949e"/><path d="m244 57 4-6-1 4z" fill="#c9cfce"/><path d="m71 60 1 2h1z" fill="#001921"/><path d="m218 166 1 1-1-3z" fill="#9d9fa1"/><path d="m170 111v15l-6-21z" fill="#0e1e23"/><path d="m110 93h2l-2-6z" fill="#2a373b"/><path d="m51 125-11 23 42-10z" fill="#ea8c4f"/><path d="m138 171-4 6-1-8z" fill="#4f4c43"/><path d="m240 99-3-2v5z" fill="#cfcfc0"/></g></svg>