<svg height="588" width="1024" xmlns="http://www.w3.org/2000/svg"><path d="m0 0h1024v588h-1024z" fill="#6f7faa"/><g fill-opacity=".501961" transform="matrix(4 0 0 4 2 2)"><path d="m263 47-247 4 254 64z" fill="#fb9f84"/><path d="m245 4-240-20-19 68z" fill="#0064d4"/><path d="m11 77 40 54 167-7z" fill="#b8d4fc"/><path d="m208 148-210 14 3-59z" fill="#0070c6"/><path d="m185 62 57 13-106 4z" fill="#000530"/><path d="m205 67-133-46-72 40z" fill="#d2c6f5"/><path d="m110 62 109 55-235-46z" fill="#583e4d"/><path d="m271 69-15-85h-100z" fill="#17265e"/><path d="m115 75 11 32 117-30z" fill="#e8ae9c"/><path d="m250 101-105-11 106 44z" fill="#4b403f"/><path d="m2 63-13 18h74z" fill="#000020"/><path d="m6-16 165 16-184 31z" fill="#005bb5"/><path d="m252 80-29-10 40 2z"/><path d="m235 66-100-27-95 28z" fill="#f4b4bb"/><path d="m130 74-70 1 31-11z" fill="#000a72"/><path d="m136 108-69-25-76 15z" fill="#e1bdd6"/><path d="m88 13-104 40 234-1z" fill="#7692d9"/><path d="m271 51v22l-76-7z" fill="#ffb441"/><path d="m193 78 78-2-23 28z" fill="#f88a59"/><path d="m218 81-32-16-41 7z" fill="#001d5b"/><path d="m138 105 106 22-119 9z" fill="#a3bee0"/><path d="m214 99-1 30-10-24z"/><path d="m219 129-8-50 13 4z" fill="#fbc0c0"/><path d="m98 50 36 21 54-6z" fill="#fff4d8"/><path d="m185 89-36-14-40 7z" fill="#ffdccd"/><path d="m-16 81 52 45 83-9z" fill="#81b7e7"/><path d="m51 36 61-24-63-28z" fill="#008ae5"/><path d="m250 131-7 2 5-23z"/><path d="m34 16-5-32-45 20z" fill="#002567"/><path d="m199-10 53 67-102-31z" fill="#5063a7"/><path d="m84 70 49-33-112 31z" fill="#cf99ca"/><path d="m-16 127 149 16-118 19z" fill="#0c589e"/><path d="m217 162 54-26-139 8z" fill="#365385"/><path d="m222 77 23-4-46-5z" fill="#00042f"/><path d="m12 72 54-3 36 23z" fill="#153060"/><path d="m92 83 54 22 2-17z" fill="#56494b"/><path d="m228 131v-31l12 33z" fill="#a5b6ea"/><path d="m167 99-5-8 1 22z"/><path d="m83 75 24-9 28 6z" fill="#00257e"/><path d="m222 109 4-7v19z"/><path d="m37 55-39 9 65 6z" fill="#b76894"/><path d="m271 61-29-27-80 9z" fill="#8b637e"/><path d="m190-16 66 37 11-33z" fill="#082756"/><path d="m158 111 4-21-6 3z" fill="#ffe0e4"/><path d="m22 47 9-28 84 13z" fill="#5aa8ea"/><path d="m167 146 77-21-161-4z" fill="#6d9cd1"/><path d="m171 110 6-6-3-12z"/><path d="m182 89-2 29 17-6z" fill="#382f2f"/><path d="m238 127v-28l-7 6z" fill="#0c111c"/><path d="m69 76 34-2 8 11z" fill="#b08dbf"/><path d="m196 124 12 10-10-30z" fill="#d5d6ee"/><path d="m166 79 2 29 6-29z" fill="#f8d0d2"/><path d="m221 76-19-9-27 6z" fill="#000c37"/><path d="m96 57 32-21 58 11z" fill="#ac76b0"/><path d="m250 61-49-10-41 16z" fill="#fba58c"/><path d="m154 75 48 28 8-28z" fill="#d19da4"/><path d="m139 44-93-25 169-1z" fill="#5a83d2"/><path d="m237 124 8-22-2 32z" fill="#a9aee2"/><path d="m65 87-42-7-39 16z" fill="#b586b5"/><path d="m185 100-2 32 10 1z" fill="#b3c2e2"/><path d="m154 107-1-17 4 4z"/><path d="m101 141-117-8 36-22z" fill="#2884d1"/><path d="m137 86-32 25 34 2z" fill="#b49ab2"/><path d="m251 109-5 17-1-22z"/><path d="m103 64 65-5-25 14z" fill="#ffe9cf"/><path d="m146 113 5-31 2 18z" fill="#ffe2e3"/><path d="m-2 75 28 11-4-10z" fill="#6d7cbc"/><path d="m134 75 41-1-19-6z" fill="#002a69"/><path d="m225 80-70 4 81 18z" fill="#f1aba1"/><path d="m195 116-9-4 10-18z" fill="#16171b"/><path d="m223 116-9-10 2 26z" fill="#a1b4e4"/><path d="m-13 150 42-1 10-20z" fill="#213b74"/><path d="m143 90-3 10 4 10z" fill="#fdd9e1"/><path d="m206 117-3-13 4-9z"/><path d="m3 65 29 9h-48z" fill="#002"/><path d="m51 58 33-22 64 23z" fill="#cbb5db"/><path d="m94 66 19 9-50-2z" fill="#002767"/><path d="m-16 48 3-11 38 10z" fill="#4e3a6c"/><path d="m86 81 38 5-9 11z" fill="#472f39"/><path d="m238 74 24-4 6 8z" fill="#001"/><path d="m149 108-3-19-2 17z" fill="#031225"/><path d="m-16 23 160-22-79-17z" fill="#0064bd"/><path d="m196 80-23-2 12-6z" fill="#443450"/><path d="m40 86 62 7 2 25z" fill="#cfbad4"/><path d="m136 104 81 23-69 1z" fill="#b1bdda"/><path d="m122-13 58 37 91-7z" fill="#2c5ca0"/><path d="m208 103 5-28 34 4z" fill="#e48d6a"/><path d="m241 97-2 18 12-20z" fill="#d0aebb"/><path d="m180 104v-14l-7-12z" fill="#f3c4ca"/><path d="m-16 67v-15l27 4z" fill="#9b264f"/><path d="m132 106-5-9 2-8z" fill="#0e101b"/><path d="m83 75-33-3 23-4z" fill="#00277c"/><path d="m133 75 16 3-6 12z" fill="#ffd3ac"/><path d="m214 56-7-12-43 11z" fill="#b3abd0"/><path d="m211 29-107 12 51 12z" fill="#947fb6"/><path d="m-8 100 25-15 26 11z" fill="#b9c5df"/><path d="m205 131 2-17 6 25z" fill="#a2aed7"/><path d="m244 62-13 8 39 1z" fill="#ffb545"/><path d="m244 137-154 3 69 22z" fill="#42689b"/><path d="m115 118 13-40-1 26z" fill="#c2abc1"/><path d="m20 80h30l-15-5z" fill="#030603"/><path d="m166 74 13-9 18 10z" fill="#001947"/><path d="m34 77-2-9 30 4z" fill="#003488"/><path d="m22 119 33-11-61-9z" fill="#5481c3"/><path d="m166 100-5 13v-19z" fill="#090000"/><path d="m250 119 21-3-1 7z"/><path d="m122 72 6-3 14 7z" fill="#033480"/><path d="m102 75 1 9 32-9z" fill="#b594bb"/><path d="m157 102 9-24-10 5z" fill="#e8c4c2"/><path d="m90 87 9 14-12 1z" fill="#e2a9c6"/><path d="m68 136 82-1-62-17z" fill="#4f8cca"/><path d="m57 75 18 5 5-5z" fill="#aea1ca"/><path d="m228 98 5 3-5 17z" fill="#d9b3be"/><path d="m228 102-4-4 1 18z" fill="#000419"/><path d="m165 114 6-17-1 14z" fill="#e6cee2"/><path d="m40 86 7-6-28 1z" fill="#57649d"/><path d="m57 64-2 7 22-7z" fill="#fa8db0"/><path d="m178 102h4l-4 14z" fill="#d5c7db"/><path d="m136 125 16-31v14z" fill="#c1bcd6"/><path d="m135 107 2-22-7 19z" fill="#d3b2ba"/><path d="m93 30-45 12 54 1z" fill="#8ac0ef"/><path d="m172 95 6 14-1-11z"/><path d="m109 108-3-20-3 24z" fill="#cbaac3"/><path d="m138 86v20l4-14z" fill="#1e202a"/><path d="m210 105-1 17 5 2z"/><path d="m211 128-36-11h34z" fill="#bcc2dc"/><path d="m31 61-28-10 33-1z" fill="#83b9db"/><path d="m60 63 53-12 1 15z" fill="#eea8c0"/><path d="m195 103-9-11 5 27z" fill="#423d46"/><path d="m134 89 1 6-4 4z" fill="#392d2a"/><path d="m162 68-17 2-10-8z" fill="#fffbe3"/><path d="m162 74-12 4 26 1z" fill="#655871"/><path d="m184 94 1 5 4-10z" fill="#fdcacd"/><path d="m141 96v-5l2 3z" fill="#fff7d6"/><path d="m202 96v-15l-55-2z" fill="#e6b6b8"/><path d="m89 56-16 7-25-8z" fill="#cae0eb"/><path d="m86 88-9-7 24 3z" fill="#292028"/><path d="m202 104 1 18-4-6z" fill="#b7b5d2"/><path d="m253 52-4 12-41-9z" fill="#d68588"/><path d="m203 67 32 6-38 3z" fill="#002045"/><path d="m70 101 35 10-38 11z" fill="#9bcbed"/><path d="m99 8-60-7 34 20z" fill="#0082df"/><path d="m156 106-2-9-1 14z"/><path d="m212 148 48-8-16 22z" fill="#393d66"/><path d="m218 78 27 7 26-8z" fill="#e58340"/><path d="m38 69 29-8h-57z" fill="#9c6295"/><path d="m182 129-45 13 89-1z" fill="#5683bd"/><path d="m242 121-55 9 56 6z" fill="#8197ca"/><path d="m161 98-1 19-13 4z" fill="#c0b8d6"/><path d="m166 94-1-5-4 8z" fill="#00051b"/><path d="m183 104-2 13-1-7z"/><path d="m205 30-47-25-28 19z" fill="#5579c1"/><path d="m152 112 26 6 2-8z" fill="#c5bbd6"/><path d="m271 50-34-1 34-50z" fill="#584b63"/><path d="m109 98 1-8 2 13z" fill="#f6b0ba"/><path d="m65 17-36 15-19-12z" fill="#227cd4"/><path d="m208 94-2 5-6-1z" fill="#121f37"/><path d="m251 94-38 6-15-18z" fill="#e8a59d"/><path d="m42 47 51 1-27 8z" fill="#ae80be"/><path d="m131 95-4 29 19-3z" fill="#a0b3d6"/><path d="m208 107 7-15h-5z" fill="#cfafbe"/><path d="m183 93-3 5 2 9z" fill="#000003"/><path d="m236 106 3 2-2-10z" fill="#000010"/><path d="m241 69-56-4 32-8z" fill="#ffad6f"/><path d="m215 100-2 8-2-10z" fill="#07274d"/><path d="m154 85-5 15-1-20z" fill="#f3cbb7"/><path d="m188 119 2-9 2 12z" fill="#c8c8e5"/><path d="m171 93 6 4 1 16z" fill="#0d1013"/><path d="m271 34-53-48-25 13z" fill="#2b457d"/><path d="m197 43 52-9-34-19z" fill="#566097"/><path d="m112 135 78 27h-146z" fill="#27588b"/><path d="m102 138-29-10-45 20z" fill="#2086ce"/><path d="m226 107-1 15-2-8z"/><path d="m-7 78-9-12 39 2z" fill="#000c37"/><path d="m84 69 16-10-34 1z" fill="#dea3bf"/><path d="m236 98 2 4 2-3z" fill="#000a26"/><path d="m227 79-23-4 2 6z" fill="#a55650"/><path d="m10 65 9-5 2 4z" fill="#ff5973"/><path d="m-16-2h40l-1 14z" fill="#003171"/><path d="m48 108 42-6-51-7z" fill="#9e98cb"/><path d="m44 63 14 6-15 1z" fill="#c8a3c7"/><path d="m203 108 4 4-4 6z"/><path d="m248 117 2 17-5-1z"/><path d="m232 102 8 19-8-8z" fill="#281f23"/><path d="m153 90 2-3 1 4z" fill="#001034"/><path d="m229 132-1-9 8-10z" fill="#93a3cf"/><path d="m45 101-18 27 46-5z" fill="#59a8df"/><path d="m187 94 1 16 2-9z" fill="#00030a"/><path d="m117 68 23 4-37-18z" fill="#fcb7a9"/><path d="m111 97 12-12-1 14z" fill="#57454a"/><path d="m163 42-60-3 41-9z" fill="#8995d4"/><path d="m92 81 15-3-14-1z" fill="#4b4485"/><path d="m107 77 8 3 8-3z" fill="#3a457b"/><path d="m98 82v13l-4-7z" fill="#2a1c22"/><path d="m186 30-30 12 69 8z" fill="#7872a8"/><path d="m217 83-9 12 15 10z" fill="#e3a8a4"/><path d="m119 84-1 14-7-12z" fill="#22232c"/><path d="m142 57-19-10 45 3z" fill="#c781a7"/><path d="m175 12-13-11 45-13z" fill="#0c67b7"/><path d="m114 96-11 23 22-6z" fill="#a19ac5"/><path d="m247 139-6-13-48 13z" fill="#607bb4"/><path d="m36 124-18-5-34 30z" fill="#298cda"/><path d="m16 49 1-16 53 17z" fill="#778bcb"/><path d="m94 79h25l-16 5z" fill="#d19db2"/><path d="m205 81 45-1-15 19z" fill="#f19b7e"/><path d="m132 79-4 4 4 6z" fill="#fed1c2"/><path d="m100 82h5l-7 15z" fill="#8c6680"/><path d="m22 132 25 30 6-34z" fill="#1e61ac"/><path d="m143 8-45 6-3-30z" fill="#0364b5"/><path d="m109 74h28l-21-6z" fill="#002e7b"/><path d="m197 62-16 5-8-9z" fill="#ffab88"/><path d="m178 103 2-3 1 11z" fill="#cab9d1"/><path d="m122 66 22-8 10 8z" fill="#f9fbf9"/><path d="m252 106-5-1-1 6z" fill="#000c25"/><path d="m127 21-53 7 40-21z" fill="#3873c4"/><path d="m156 68h16l-20 6z" fill="#0044a4"/><path d="m254 106-4-7-7 4z" fill="#c099af"/><path d="m207 133 15-18v14z" fill="#9da9cf"/><path d="m228-4 43 6-9 10z" fill="#182145"/><path d="m185 87 9 13-1-9z" fill="#ebb9bb"/><path d="m91 79-25-1 12 4z" fill="#3f4671"/><path d="m9 94-25 1 10-19z" fill="#b36ca7"/><path d="m211 69-29-2 23 8z" fill="#002265"/><path d="m146 101 2-12-4 7z" fill="#04090f"/><path d="m158 61-13 10 37-10z" fill="#f2d3b4"/><path d="m183 75 15 5 15-5z" fill="#90636e"/><path d="m2 41 9-32-27-5z" fill="#005ba9"/><path d="m203 75 39 1-18-7z" fill="#11202f"/><path d="m93 93 1-14h-5z" fill="#a37da0"/><path d="m129 47-45 4 32 6z" fill="#c88cc0"/><path d="m-16 112 16-10 21 1z" fill="#535b9a"/><path d="m50 72 16 2 12-6z" fill="#002b78"/><path d="m26 71 21-9-16-5z" fill="#8871a7"/><path d="m218 70 14-9 17 1z" fill="#ffb270"/><path d="m46 88-13 10 43-5z" fill="#dcc6d9"/><path d="m-13 80 3-8 26 8z" fill="#20305b"/><path d="m144 89-1 8-6-16z" fill="#e4baa8"/><path d="m124 84 3 5-3 5z" fill="#ffd4c3"/><path d="m201 105 1-6 1 7z" fill="#e9d6e3"/><path d="m53 23-13-12-23 3z" fill="#315aa4"/><path d="m197 105 13-11-9 2z" fill="#4c4750"/><path d="m42 105-28 2 21-8z" fill="#95bae0"/><path d="m96 105 6-3-3-11z" fill="#d0b1ce"/><path d="m107 87-2-2 1-1z" fill="#efb2dd"/><path d="m-16 20v27l41 2z" fill="#4d5c98"/><path d="m251 107-1 11 14-8z" fill="#958aa2"/><path d="m215 124h-5l1-14z" fill="#030308"/><path d="m139 103-18 1 28 6z" fill="#b29bbb"/><path d="m226 95h7l3 10z" fill="#dfa7a5"/><path d="m37 95 16-12-19 2z" fill="#ba7eb7"/><path d="m190 104v5l-2-2z" fill="#9690a1"/><path d="m196 111 1-9 4 12z" fill="#a9a7be"/><path d="m202 99 1-18h6z" fill="#e5a9a7"/><path d="m165 104-2 4 4-1z"/><path d="m122 110-35 9 79 11z" fill="#84a7d5"/><path d="m222 116-8 6 3-22z" fill="#aac"/><path d="m247 107 4 14-5-1z" fill="#000006"/><path d="m102 91-6 6 9 2z" fill="#e1a6b9"/><path d="m95 94 1-4-2 3z" fill="#b07c91"/><path d="m106 28 40 6-7-21z" fill="#5a8bd6"/><path d="m164 36 44-20 8 12z" fill="#637abb"/><path d="m134 84-6-9h24z" fill="#f8b79e"/><path d="m191 115 5-3-5-13z" fill="#0b0a0e"/><path d="m55 61-9-6 28 2z" fill="#cde5ef"/><path d="m128 105-2-11-9 10z" fill="#d7b3ca"/><path d="m175 111-35 2 62 17z" fill="#a9c0e1"/><path d="m20 76 3 4-13-4z" fill="#7f86bf"/><path d="m134 70h14l-7 3z" fill="#ff907b"/><path d="m-16 67 28-2-2-8z" fill="#777095"/><path d="m250 133v-12l21 29z" fill="#586aa3"/><path d="m86 119-38-17 18 24z" fill="#75b6e4"/><path d="m183 122 5-3-3-17z" fill="#c4bbd7"/><path d="m147 5 18-21-7 35z" fill="#4f66a9"/><path d="m223 122 1-8 3 10z" fill="#061020"/><path d="m19 96-35 10 2-10z" fill="#7fccec"/><path d="m238 115v5l-3-2z"/><path d="m59 77h-9l7-2z" fill="#8f84a7"/><path d="m116 97v12l-5-9z" fill="#cfa5be"/><path d="m94 96-20-8-19 6z" fill="#d6c7d5"/><path d="m21 29-17 14 38-7z" fill="#4d81cf"/><path d="m175 119-10 9 39 3z" fill="#83b3db"/><path d="m192 72-35 2 20-7z" fill="#002464"/><path d="m172 100 3-1-1-9z" fill="#010913"/><path d="m133 72-8-3-12 4z" fill="#03419d"/><path d="m181 82-2 19-6-18z" fill="#d6aab1"/><path d="m77 74 15-8 24 6z" fill="#002c74"/><path d="m9 118-6 24-19-33z" fill="#1070c3"/><path d="m167 92 5-7-3 19z" fill="#dcb8b9"/><path d="m222 69 7-7-29 4z" fill="#faa35b"/><path d="m26 44 8 4 7-1z" fill="#a2d3f0"/><path d="m196 56 26-5 2 12z" fill="#d08a9b"/><path d="m196 103-4 11 3 1z" fill="#17191d"/><path d="m106 87-2-4-10-1z" fill="#31304c"/><path d="m244 125-25-2-4 12z" fill="#8798c6"/><path d="m9 78-24-7 9 7z" fill="#6e82be"/><path d="m57 82-16-5 25 1z" fill="#35252b"/><path d="m175 102-3-7 1 14z"/><path d="m116 61-8-1 17-5z" fill="#ebf0f5"/><path d="m70 68 12-1-22-5z" fill="#c971a6"/><path d="m159 92-3-6 7 5z" fill="#f7c9c0"/><path d="m110 128-18 12 61 2z" fill="#3a74b2"/><path d="m239 117-1-13-2 8z"/><path d="m6 12 29-25v24z" fill="#004c9c"/><path d="m-8 92 20-12-21 1z" fill="#5e609c"/><path d="m197 97v7l2-6z" fill="#dcc7cf"/><path d="m70 136 34-4-51-9z" fill="#4096d7"/><path d="m109 119-32 3 58 13z" fill="#648bc5"/><path d="m136 79h-22l8 4z" fill="#f5d0cd"/><path d="m230 50 24 6 16-7z" fill="#8e636d"/><path d="m36 8 74-5-78-19z" fill="#0069c7"/><path d="m223 112-2-1 3-2z" fill="#0a0508"/><path d="m105 101-12 13-34-10z" fill="#acbfe1"/><path d="m235 111-3 9 3-4z" fill="#988fa7"/><path d="m15 89 10 2-1-6z" fill="#e3a5cf"/><path d="m165 75 12 5 14-3z" fill="#907088"/><path d="m14 52-6 9 34-8z" fill="#8da4cc"/><path d="m138 55 3 7-13-1z" fill="#f6babb"/><path d="m136 93 1 6-2-1z" fill="#ffe5db"/><path d="m194 102 1 6 1-9z"/><path d="m228 100-2 1-4-2z" fill="#001f37"/><path d="m228 99 4 7-2 7z" fill="#bea5b4"/><path d="m3 23 30-3-28-9z" fill="#0074ca"/><path d="m124 64-19-4 16 9z" fill="#ffae9d"/><path d="m214 107-4 9v-10z" fill="#060300"/><path d="m236 77-10-6 29 1z" fill="#1c2535"/><path d="m157 75 7 3 3-3z" fill="#c2a8ae"/><path d="m121 73-18-6-25 8z" fill="#002b66"/><path d="m37 109 26-10-22 2z" fill="#898bc3"/><path d="m27 70 8-5-18-1z" fill="#b78ead"/><path d="m192 122 9-5-8-2z" fill="#c5c1dc"/><path d="m219 153 52-23-46 7z" fill="#546499"/><path d="m175 112-10 3-1-6z" fill="#c3b3ce"/><path d="m-7 62 12 4h-8z" fill="#840027"/><path d="m224 105-2 10h3z" fill="#34303a"/><path d="m103 77 6 2h-12z" fill="#192b6a"/><path d="m161 96-5 3 6 6z" fill="#b498a5"/><path d="m129 105v-5l-1 3z" fill="#141020"/><path d="m101 103 39 2-38 10z" fill="#a4a2c7"/><path d="m240 108v14l4-12z" fill="#b0a4bb"/><path d="m52 80-29-3 13-4z" fill="#111927"/><path d="m44 70h-21l11 3z" fill="#0046a4"/><path d="m34 54 19 4-20 2z" fill="#db7eb1"/><path d="m223 99-16-18 3 18z" fill="#e6a6a0"/><path d="m91 61 16 1-8 2z" fill="#d66394"/><path d="m132 14 16 1-4-11z" fill="#1f7dd5"/><path d="m183 113-1-2-3 3z"/><path d="m166 23-24 7 31 8z" fill="#747dc0"/><path d="m40 65-13-3 25-1z" fill="#6d6198"/><path d="m90 78 14-1-7-2z" fill="#bc89ba"/><path d="m240 51 13-21-32 6z" fill="#61597c"/><path d="m175 28-8-19 20-7z" fill="#336ab7"/><path d="m107 94 3 1-3-5z" fill="#302529"/><path d="m195 98v-1l1-1z" fill="#000002"/><path d="m214 44-11 11 19-3z" fill="#9c81a9"/><path d="m148 87 3 4-1-12z" fill="#f1c8b2"/><path d="m66 76 23 14-35-8z" fill="#5e5771"/><path d="m99 75h21l-11 3z" fill="#c49abb"/><path d="m100 95 3-10v9z" fill="#a97f93"/><path d="m33 74-18-7-10 7z" fill="#001346"/><path d="m152 105-7 5 7-19z" fill="#cab0bf"/><path d="m83 65 5-3h-14z" fill="#e5dcde"/><path d="m222 104-8 22 1-29z" fill="#afa4bc"/><path d="m210 127-7 2 4-14z" fill="#abb7d7"/><path d="m174 88-12 1 2-3z" fill="#b49ba3"/><path d="m35 65 37-5-18 9z" fill="#c383b1"/><path d="m90 65h-12l3 5z" fill="#af72aa"/><path d="m249 93 22 10-37-6z" fill="#d89687"/><path d="m148 75 9-4-14 2z" fill="#023078"/><path d="m72 85 6 3-15 1z" fill="#af9ebb"/><path d="m177 103-4 7 2-18z" fill="#14171e"/><path d="m151 52 28 1-19 5z" fill="#c3b4ca"/><path d="m188 99-2 9 3 8z" fill="#141016"/><path d="m71 69 1 5 15-4z" fill="#003984"/><path d="m178 49-41 1 20-12z" fill="#947eae"/><path d="m194 126-9-11 4-1z" fill="#bac4e0"/><path d="m31 60-17 1 9-5z" fill="#c9acc5"/><path d="m134 97-1-4-1 7z" fill="#1a1829"/><path d="m39 105-20 22 24-2z" fill="#4391d3"/><path d="m91 82 4 6 3-1z" fill="#1d1f2d"/><path d="m131 111 17 1-17-14z" fill="#b9adc8"/><path d="m126 92 4-1-2-7z" fill="#302e34"/><path d="m154 118 13 11-44-1z" fill="#84a8d4"/><path d="m-3 49 21 9-1-9z" fill="#7eb2d6"/><path d="m22 87 16-6 16 4z" fill="#817eae"/><path d="m111 89 1 9 4-10z" fill="#2f262a"/><path d="m141 99 6-21-6 4z" fill="#f0ccb9"/><path d="m193 106-1 8 2-1z" fill="#8f879d"/><path d="m212 114 2-8-6 9z" fill="#05070a"/><path d="m103 3 40 1-1-20z" fill="#005caa"/><path d="m228 16 4-32 14 27z" fill="#393f6c"/><path d="m236 137 9-19-3 21z" fill="#627eb5"/><path d="m171 96-2-15-3 15z" fill="#e2bbb5"/><path d="m129 92v6l-2-5z" fill="#1d1a18"/><path d="m157 69v4l-9-2z" fill="#024ca6"/><path d="m127 99 1 14-9-15z" fill="#bfa4c0"/><path d="m235 29 14-10-56-17z" fill="#3a5391"/><path d="m260 64-8 7-21-2z" fill="#ffac44"/><path d="m136 71-22-6h28z" fill="#ffe4be"/><path d="m111 67-4 6-18-4z" fill="#003286"/><path d="m225 76h20l4 7z" fill="#df8149"/><path d="m36 90 17-1-13 6z" fill="#e5a1cb"/><path d="m271 17-31-1 19-10z" fill="#0b4785"/><path d="m205 102v-7l2 2z" fill="#101833"/><path d="m271 59-50 3 29 6z" fill="#f6a779"/><path d="m194 112-6 6 8-4z" fill="#14141c"/><path d="m184 122 20-3-17-2z" fill="#bac4e1"/><path d="m38 75h24l-24-7z" fill="#0c3477"/><path d="m151 57 6 12 20-6z" fill="#ebcec0"/><path d="m104 62-7-4-12 2z" fill="#ffa0b2"/><path d="m230 113 5 10h-7z" fill="#9eaad0"/><path d="m88 85h-4l-2-4z" fill="#070d10"/><path d="m188 124-2-17-3 14z" fill="#b2bcda"/><path d="m110 49 31-8-44-1z" fill="#a090cc"/><path d="m233 113 1-5 1 7z" fill="#000200"/><path d="m32 35 43-14-31-1z" fill="#3c8cdd"/><path d="m13 62 11 3v-4z" fill="#da4b74"/><path d="m12 98 2-9 22 10z" fill="#a5cde5"/><path d="m112 80h5v5z" fill="#cfaebe"/><path d="m187 108 2-1-1 2z" fill="#000202"/><path d="m55 77-1 6-1-4z" fill="#04121e"/><path d="m51 54 25 3-26 4z" fill="#d0d6e6"/><path d="m193 78 11 3 7-3z" fill="#624053"/><path d="m229 99-9-17-29-3z" fill="#e59d93"/><path d="m-16-6 37 4-16 7z" fill="#002966"/><path d="m159 75h38l-16-6z" fill="#0a1c35"/><path d="m113 89 4 9-4-4z" fill="#876f81"/><path d="m176 67-7 5h22z" fill="#002978"/><path d="m49 12-21 7 31 3z" fill="#2f69ba"/><path d="m190 71 1-4 12 1z" fill="#003071"/><path d="m37 39 45-11-31-2z" fill="#58a1e5"/><path d="m201 96 2-4-1 10z" fill="#ceacac"/><path d="m155 105-2-5v11z" fill="#030308"/><path d="m-16 159 59-23-26-2z" fill="#214e8b"/><path d="m125 92 4 8-2-10z" fill="#a48989"/><path d="m79 84-5-4-3 4z" fill="#37323c"/><path d="m123 79 6-2-3 2z" fill="#444677"/><path d="m130 145-46 17 23-19z" fill="#244f78"/><path d="m172 50h35l-18 6z" fill="#bcb3c9"/><path d="m35 138 33-1-14 18z" fill="#1474bf"/><path d="m91 106-5 2 1-20z" fill="#c4aecf"/><path d="m238 87 29-2 4 11z" fill="#c7786b"/><path d="m91 88 2 8h-6z" fill="#e0abbe"/><path d="m198 94 4-12-28 8z" fill="#e4b0b3"/><path d="m197 112 4 4-4-13z" fill="#c2c0dd"/><path d="m195 130-36 10-23-10z" fill="#6794c9"/><path d="m93 91-25 7 27 3z" fill="#d0a6ca"/><path d="m107 31v10l24-3z" fill="#8081c5"/><path d="m207 112-1-10-4 14z" fill="#000001"/><path d="m165 113 6 2-1-11z" fill="#b8b4d1"/><path d="m197 80h14l-26 15z" fill="#e4aba8"/><path d="m35 61-1-8h-20z" fill="#8992c3"/><path d="m150 135 37 27-45-8z" fill="#4d6a96"/><path d="m224 70-2 3-10-2z" fill="#002a75"/><path d="m92 77-6 2h11z" fill="#143278"/><path d="m200 111v-2l1-1z" fill="#272c37"/><path d="m250 106-1 13-2-9z" fill="#0d1625"/><path d="m191 90 9-4-10 12z" fill="#ebb8b5"/><path d="m29 73 5-2-4-2z" fill="#002d81"/><path d="m137 76 2 7-4 6z" fill="#ffc4a6"/><path d="m229 55h36l-14 7z" fill="#cd8f8a"/><path d="m236 114-2 4 1-10z" fill="#a495ad"/><path d="m252 119v-15l19-4z" fill="#94849f"/><path d="m81 0 14 16h-38z" fill="#0083db"/><path d="m8 66 15 3-36 9z" fill="#001239"/><path d="m215 142-2 20 14-8z" fill="#1076b0"/><path d="m271 87-23-11h16z" fill="#9d6654"/><path d="m114 92 4 9-1-9z" fill="#3b3848"/><path d="m46 75v3l5-3z" fill="#756e94"/><path d="m216 27-8 14-39 2z" fill="#69689f"/><path d="m83 78 11-1-11-2z" fill="#bc9ac1"/><path d="m116 97v7l-10 4z" fill="#c7a8c6"/><path d="m145 119 1-11-28 10z" fill="#a4bcdd"/><path d="m184 79-6-2-6 2z" fill="#3f3056"/><path d="m242 75 19-4-4 5z" fill="#030f1e"/><path d="m135 90-2-4v3z" fill="#070a19"/><path d="m179 82 7 3-11 12z" fill="#e3a9b1"/><path d="m52 40 37-9-29-1z" fill="#6db1ea"/><path d="m181 104 2-3v7z" fill="#000307"/><path d="m12 58-18-2 14-3z" fill="#865487"/><path d="m93 104-13 7 16 6z" fill="#a3d2ef"/><path d="m162 111 4-12-4-4z" fill="#030406"/><path d="m205 75-1-3-11 2z" fill="#0c181b"/><path d="m249 133v-10l-5 8z" fill="#00020a"/><path d="m227 121-1-7-3 6z"/><path d="m31 50 10 3h-20z" fill="#aaccea"/><path d="m270 121-21 1 22 25z" fill="#83789d"/><path d="m5 58-21-4v6z" fill="#c43854"/><path d="m20 80-16 7 27-3z" fill="#8485bb"/><path d="m130 95 5 10h-3z" fill="#d4a6b4"/><path d="m43 72-11-3h18z" fill="#3361ac"/><path d="m190 7-10 13 56 3z" fill="#4463a3"/><path d="m98 57 15-10-43 5z" fill="#cc9dcb"/><path d="m144 73-4 2-5-2z" fill="#312a46"/><path d="m113 22-42 1 20 8z" fill="#587cc8"/><path d="m52 88 16-3-15-2z" fill="#7e8baf"/><path d="m27 95h11l-14-11z" fill="#aeabcb"/><path d="m237 119 3 2-4-7z" fill="#000108"/><path d="m127 81 4-2 2 14z" fill="#e3beb2"/><path d="m114 77h-9l2 2z" fill="#263874"/><path d="m254 120 15 5 2-19z" fill="#050008"/><path d="m208 59 30-3-7 7z" fill="#e6aa97"/><path d="m111 84 9 1-7 2z" fill="#273650"/><path d="m27 71-4-5 11-1z" fill="#9c7bab"/><path d="m159 98-3 8 7 14z" fill="#c0b3cc"/><path d="m46 78 8 2v-3z" fill="#171722"/><path d="m190 101 3 1-6 2z" fill="#7a6e77"/><path d="m247 139-11-9 17 7z" fill="#5f84bf"/><path d="m234 105-1 5-1-4z" fill="#07070b"/><path d="m34 41h-22l18 5z" fill="#74a6de"/><path d="m83 71 11 4-19-1z" fill="#12274d"/><path d="m54 54-20-3 37-5z" fill="#a28bc4"/><path d="m156 90-3 1 1 8z" fill="#142437"/><path d="m137 53-15 1 17 4z" fill="#cccddb"/><path d="m110 89-1-7 2 2z" fill="#a8819a"/><path d="m240 104 30 3 1-16z" fill="#b88c94"/><path d="m202 76-5 2-7-2z" fill="#d89ea7"/><path d="m162 83-2 15-6-18z" fill="#e5bcb7"/><path d="m191 78-8-1 6 3z" fill="#654c6d"/><path d="m192 80-6 5-16-6z" fill="#e09da2"/><path d="m241 80h12l-7-2z" fill="#cc651b"/><path d="m62 69-8 1 6-3z" fill="#ebb2c0"/><path d="m117 104-3-9-2 8z" fill="#caa6bf"/><path d="m164 89 1 2v-3z" fill="#304358"/><path d="m166 58 24 7 27-8z" fill="#eea696"/><path d="m121 95 1-7 3 12z" fill="#b19398"/><path d="m59 78-11-3h18z" fill="#7f7ca5"/><path d="m-4 49 11-6-23-4z" fill="#3a4374"/><path d="m210 104 6 1-6-5z" fill="#273b5f"/><path d="m166 68 7 3h-12z" fill="#003289"/><path d="m205 132 4 7 13-6z" fill="#6e88ba"/><path d="m163 82 3 7 10-9z" fill="#dcb7b4"/><path d="m160 35-37-5 11 9z" fill="#7798da"/><path d="m228 114 4 5-1-19z" fill="#b2a1b8"/><path d="m243 119-2 12-22 3z" fill="#798fc2"/><path d="m100 61-6-5 19 3z" fill="#edc4d2"/><path d="m63 65-11-2 4 3z" fill="#e06796"/><path d="m200 123-3-8h-4z" fill="#babdd9"/><path d="m185 9 48-24-78-1z" fill="#215ca3"/><path d="m88 137-14 10 38-8z" fill="#2467a4"/><path d="m217 114 6 10-10 6z" fill="#95a8d0"/><path d="m-12 66 25-6-18-1z" fill="#94a6be"/><path d="m240 118 5-6-4-7z" fill="#a598b0"/><path d="m173 72-8-4-3 3z" fill="#003280"/><path d="m139 142-15-10 32 6z" fill="#4f88c2"/><path d="m111 99-1-10-2 12z" fill="#c898aa"/><path d="m133 67 12-7-24 6z" fill="#fbfaf2"/><path d="m49 72-6 4-8-1z" fill="#233766"/><path d="m15 26 20 1-9-11z" fill="#1f7fd3"/><path d="m12 111-28 12v-14z" fill="#3b5ca6"/><path d="m194 130 7 3 2-15z" fill="#9eb7db"/><path d="m9 42 6 7 15-1z" fill="#6769b0"/><path d="m100 88 1 1v2z" fill="#332731"/><path d="m75 47 9-11-30 9z" fill="#93aee4"/><path d="m114 94 9-1-1 3z" fill="#413d48"/><path d="m48 52 7 6-21-5z" fill="#b6b7dc"/><path d="m108 109 25-5-10 13z" fill="#9b9ac1"/><path d="m105 95v-8l4 11z" fill="#ba7c88"/><path d="m198 49-11-7-19 7z" fill="#927da7"/><path d="m57 60 7 2 4-2z" fill="#898fc7"/><path d="m247 145 6 17 3-19z" fill="#2f3b61"/><path d="m140 95-2-3v7z"/><path d="m239 99 1 5h-4z" fill="#00243e"/><path d="m171 68 12-6-10 2z" fill="#eabf99"/><path d="m207 91 20 5-10 6z" fill="#e4a9a2"/><path d="m32 4 26-19-7 29z" fill="#0065c0"/><path d="m96 61h20l-9 3z" fill="#f17b99"/><path d="m201 121 1-13-6 16z" fill="#b0b8d6"/><path d="m19 24h-35l22 10z" fill="#2767b7"/><path d="m107 68 3 3 7-2z" fill="#003794"/><path d="m15 100-5 8 20-7z" fill="#6f84bf"/><path d="m101 91-2-1v-6z" fill="#c08baa"/><path d="m171 79-7-3-5 3z" fill="#7b6376"/><path d="m235 137-22 16 33-11z" fill="#545984"/><path d="m57 96 7-4-9-2z" fill="#cbe0eb"/><path d="m241 58 3-6-24 3z" fill="#c5757e"/><path d="m47 131-18 18v-18z" fill="#225ea3"/><path d="m38 162-48-13 29-7z" fill="#1b4173"/><path d="m105 92-1 3v-2z" fill="#241620"/><path d="m143 103-3-11-1 14z" fill="#bba5ba"/><path d="m206 105-3-7v6z" fill="#201722"/><path d="m155 46 50-21-22 18z" fill="#7878af"/><path d="m4 87-20 9 27-4z" fill="#b487bc"/><path d="m219 80-9-1 6-1z" fill="#7a4543"/><path d="m133 51-5-8-25 10z" fill="#bb86bd"/><path d="m187 29-46-15 20-4z" fill="#5075bc"/><path d="m206 100-3-1v-2z" fill="#2a3e68"/><path d="m71 24 19-6-36-1z" fill="#2a83d6"/><path d="m216 133 12-10-35 9z" fill="#90a3cd"/><path d="m220 14 7 22-25 5z" fill="#556299"/><path d="m200 78h9l-4-2z" fill="#d38b8f"/><path d="m236 12-13 9-8-5z" fill="#4c5288"/><path d="m76 76h6l1 4z" fill="#aba2c9"/><path d="m158 61 18-6-36 1z" fill="#dab9c6"/><path d="m249 125 16 16 6-20z" fill="#676f9e"/><path d="m18 73h10l-12-6z" fill="#00194f"/><path d="m66 77v7l3-1z" fill="#2e354f"/><path d="m124 75h17l-3 5z" fill="#e8ae9c"/><path d="m111 63 5 1-9 1z" fill="#fef5e7"/><path d="m126 81 1 7-3 4z" fill="#ecc4bc"/><path d="m21 123 12-14-29 8z" fill="#3c79c3"/><path d="m229 68-14 1 5-4z" fill="#ffb551"/><path d="m114 17 22-8h-30z" fill="#2a68bc"/><path d="m148 101-3 5-1-11z" fill="#14161f"/><path d="m234 72-11 3-11-3z" fill="#111821"/><path d="m200 94-8-4 7 7z" fill="#efbbb6"/><path d="m143 81 10 8v-6z" fill="#e8c1b3"/><path d="m145 91 3 6-1-9z" fill="#223247"/><path d="m147 103 5 10-9 5z" fill="#b8bdda"/><path d="m100 102 6 1v-8z" fill="#ceb0c9"/><path d="m170 75v4l13-4z" fill="#a0818c"/><path d="m23 75-4 4-9-3z" fill="#6a7bb2"/><path d="m205-16h-61l91 25z" fill="#214a87"/><path d="m81 100-30-1 18-5z" fill="#bea5d1"/><path d="m25 17-6-8 20 2z" fill="#16529d"/><path d="m45 104-24 3 25 7z" fill="#6997cf"/><path d="m137 96-3-4 3-8z" fill="#e7b29b"/><path d="m52 64-15 1 7 3z" fill="#b895b6"/><path d="m141 95-3-5v12z" fill="#17151d"/><path d="m124 77h9l-4 2z" fill="#8c5171"/><path d="m222 46-20-2 32-6z" fill="#846b8f"/><path d="m148 76h-18v6z" fill="#faba9d"/><path d="m8 36-24-13v21z" fill="#315292"/><path d="m187 67-1 7 25-3z" fill="#002560"/><path d="m55 82-2 1 1-7z" fill="#07192d"/><path d="m75 78v3l7-3z" fill="#5e649a"/><path d="m167-3 22-6-23 18z" fill="#0766b8"/><path d="m140 88-3-1 4 10z" fill="#4a3d44"/><path d="m159 49-20 7-2-6z" fill="#c981a7"/><path d="m163 63-6-3-15 13z" fill="#f3d2c0"/><path d="m154 65h12l-5 3z" fill="#ffc89a"/><path d="m97 40-25-1 18-5z" fill="#89beec"/><path d="m225 106 2-4-3 1z" fill="#1d3a60"/><path d="m170 116 39 4-17 8z" fill="#b0c3e0"/><path d="m158 90 5-3-7 12z" fill="#e4c0bd"/><path d="m61 132-32-2 22-5z" fill="#3676bf"/><path d="m181 142 9 20 20-21z" fill="#4e6694"/><path d="m84 74h-29l14-5z" fill="#002567"/><path d="m197 95h-3v7z" fill="#060814"/><path d="m80 86-3-6 12 6z" fill="#2b2b32"/><path d="m194 101-2-1 2 5z" fill="#363138"/><path d="m119 65-1-2 6 1z" fill="#ff876c"/><path d="m227 101-3 12-3-4z" fill="#212534"/><path d="m152 109 1 3h1z" fill="#6d647f"/><path d="m113 122 17 10 20-2z" fill="#70a0d5"/><path d="m201 66h-11l1-3z" fill="#ffbc82"/><path d="m124 79h33l-13 6z" fill="#eeceba"/><path d="m220 97-6 12 9-6z" fill="#c7a6b3"/><path d="m102 114-31-1 19 6z" fill="#8ec2e9"/><path d="m86 78-10-3-8 3z" fill="#baa4c6"/><path d="m125 68-4 2 6-10z" fill="#f5d5c6"/><path d="m188 29 18-13-37 14z" fill="#4c7bc2"/><path d="m93 66 9 7-18-1z" fill="#002f7c"/><path d="m129 111-6-3-1-14z" fill="#b8a3be"/><path d="m-5 14 6-6 20 6z" fill="#005aae"/><path d="m172 117 5-4-12-3z" fill="#c1bad8"/><path d="m81 30 22 6-6-7z" fill="#70a4e3"/><path d="m83 120-12 6 32 2z" fill="#5b85c3"/><path d="m182 117 2-5-3-5z" fill="#090c12"/><path d="m28 77-6 3-5-1z" fill="#2d243d"/><path d="m187 123 1-8-16 4z" fill="#afc2e0"/><path d="m74 98 32 4-19 3z" fill="#b8abd1"/><path d="m245 85 17 15-39-13z" fill="#e08c79"/><path d="m115 25 29-11-44 4z" fill="#3e7aca"/><path d="m126 76h-4l1 1z" fill="#f1d5cd"/><path d="m4 67 3-2 2 2z" fill="#5c255b"/><path d="m244 120v-10l-3 7z" fill="#a99ab4"/><path d="m53 86-11-2 10-2z" fill="#8e85b1"/><path d="m87 86-1 6 3-1z" fill="#745365"/><path d="m22 80 11 3 3-3z" fill="#4a6594"/><path d="m185 78-7-3h13z" fill="#9d7789"/><path d="m191 129-33 5 15-9z" fill="#77a1d2"/><path d="m131 91-1 1 2 1z" fill="#eabca0"/><path d="m251 108 3 4 5-12z" fill="#887a91"/><path d="m18 62 11 2-3-3z" fill="#88558c"/><path d="m190 101-2-6-2 2z" fill="#131527"/><path d="m143 86-3 11 5-7z" fill="#ceb0a4"/><path d="m235 108 2-3-2-3z" fill="#947f8e"/><path d="m145 91-2 2h2z" fill="#445b81"/><path d="m239 116-4 1 4 2z" fill="#171c24"/><path d="m181 75 7-2 3 2z" fill="#070e12"/><path d="m97 95h-4l3-3z" fill="#c192a6"/><path d="m35 57 9 3 3-3z" fill="#df6c9b"/><path d="m164 108 3 1-1-7z" fill="#201d1f"/><path d="m75 69h-4l7-2z" fill="#4a68ad"/><path d="m98 70 12 3-15 2z" fill="#062659"/><path d="m7 79-23 3 2-6z" fill="#181f41"/><path d="m52 62 4 6-13-7z" fill="#886da8"/><path d="m145 94 1 8 2-3z" fill="#070d13"/><path d="m14 50-27-2-3 8z" fill="#6cb5d9"/><path d="m196 49 18 2-1-7z" fill="#9993b9"/><path d="m247 81-21 7-21-8z" fill="#f29c76"/><path d="m178 100-1-2v1z" fill="#000e1c"/><path d="m145 60 16 1-11 4z" fill="#ebe4e2"/><path d="m184 110 1 12 5 1z" fill="#b8c0dc"/><path d="m45 77h-10l10 4z" fill="#14121b"/><path d="m240 51-15-1 17-4z" fill="#81627b"/><path d="m181 79 2-2 7 2z" fill="#49365c"/><path d="m51 59-6 1 2-2z" fill="#feb3c2"/><path d="m102 73 10-6-17 2z" fill="#00307d"/><path d="m10 80h9l-18 8z" fill="#7178b2"/><path d="m137 73h-9l5 2z" fill="#282a3d"/><path d="m121 97-1-6-5 6z" fill="#473d48"/><path d="m168 112-3-3 6 1z" fill="#b6aac8"/><path d="m26 84-7 3-2-3z" fill="#b98ec2"/><path d="m142 107 1-14-3 7z" fill="#ccaebc"/><path d="m146 87 1 6-3 5z" fill="#2a334c"/><path d="m111 84 13-5-17 1z" fill="#d2abba"/><path d="m30 55-17-1 1 5z" fill="#91b1d4"/><path d="m149 50-20-5 42-8z" fill="#9583b9"/><path d="m125 93 1 4-3 4z" fill="#dec2c7"/><path d="m231 78 7 2h-13z" fill="#d86c29"/><path d="m205 96-8-10 6-5z" fill="#e0a8a6"/><path d="m7 41 7-8 6 9z" fill="#517ac1"/><path d="m201 117 6-6-2 4z" fill="#0f1621"/><path d="m22 62-4-3h7z" fill="#ea91ad"/><path d="m229 71-7-1 3 2z" fill="#013680"/><path d="m138 86 1-1 1 3z" fill="#48475d"/><path d="m78 61 6-4-5 7z" fill="#cfcedd"/><path d="m118 73 5-1 3-3z" fill="#143488"/><path d="m130 69 14 1-11-4z" fill="#ffd9a9"/><path d="m263 5-15 43 23-3z" fill="#504864"/><path d="m116 24 40 2 1-11z" fill="#5580cb"/><path d="m145 79 4-1-8-1z" fill="#f18973"/><path d="m124 93-2 1 1-8z" fill="#282022"/><path d="m143 80 4 3-13 3z" fill="#f0c8b3"/><path d="m192 58-10-1v10z" fill="#f7a28f"/><path d="m139 28-43 1 23 8z" fill="#6c8ad1"/><path d="m15 90 44 8-24 2z" fill="#b3b5d5"/><path d="m203 105-2 3 1 4z" fill="#a296ac"/><path d="m180 116h2l1-4z" fill="#000208"/><path d="m119 65-2 3-1-5z" fill="#f49a89"/><path d="m208 125 2-1-1-5z" fill="#7e7da5"/><path d="m97 87-2-5-1 12z" fill="#2a2634"/><path d="m91 89-3 5 5 1z" fill="#dbaebf"/><path d="m229 80 4-4h-18z" fill="#c87766"/><path d="m104 99h-16l14-5z" fill="#d6afcc"/><path d="m183 102 2-1-1-5z" fill="#b29fa7"/><path d="m224 120v-10l3 10z" fill="#080a0f"/><path d="m77 121-28-13 7 13z" fill="#71b6e4"/><path d="m128 101-4-3 1-6z" fill="#d3b4bc"/><path d="m53 7h54l-25-9z" fill="#0071ce"/><path d="m44 34 29-9-27-1z" fill="#4299e4"/><path d="m71 100-4-17-1 23z" fill="#b7add1"/><path d="m53 44 4-10-23 2z" fill="#6a9cde"/><path d="m120 97 1-3h-1z" fill="#000009"/><path d="m87 65-9-2 14-1z" fill="#dbc8d3"/><path d="m152 63-12 3-12-4z" fill="#fcfcf7"/><path d="m138 55h8l-14 8z" fill="#f5b3b5"/><path d="m77 46 34 3-14-9z" fill="#a8aadb"/><path d="m153 77 7-2 5 2z" fill="#cfafb3"/><path d="m37 103-13 1 5 2z" fill="#92bee5"/><path d="m149 75h10l-6-3z" fill="#272f49"/><path d="m71 102-32-4 12 8z" fill="#989dd0"/><path d="m235 62-18 5 2-6z" fill="#f7a371"/><path d="m142 65 16 2-7 2z" fill="#fff2d5"/><path d="m215 43 13 8-8 1z" fill="#897495"/><path d="m247 143 22-8 2-37z" fill="#47679d"/><path d="m201 100-3 3 1 2z" fill="#342e2e"/><path d="m104 103 5 3-3-15z" fill="#c5abc1"/><path d="m191 108-2-3 1-2z" fill="#ada1b5"/><path d="m20 61 8 4-17-2z" fill="#d55379"/><path d="m234 100-4 4-1-6z" fill="#d7a0a2"/><path d="m34 47-11-4h11z" fill="#8eb6e3"/><path d="m213 125v-3l-3 1z" fill="#080b15"/><path d="m120 86 2 1-2 6z" fill="#20181a"/><path d="m39 65-5 4 1-4z" fill="#c08bac"/><path d="m189 144-1-8h-26z" fill="#4e81bb"/><path d="m183 151-35-7 4 18z" fill="#3b5779"/><path d="m72 83 2 3 2-1z" fill="#595778"/><path d="m100 10-16 10 20-3z" fill="#2581d5"/><path d="m92 82v-3h-8z" fill="#a88fb9"/><path d="m143 147-17-12-20 4z" fill="#34679f"/><path d="m227 80-6-2h3z" fill="#854132"/><path d="m223 124 16 3-3-5z" fill="#899bc7"/><path d="m250 119-4 10 1-14z" fill="#050303"/><path d="m198 99 3-2v-2z" fill="#5a4b4e"/><path d="m70 73-6-3 13-1z" fill="#003e92"/><path d="m90 91-11 9 17-5z" fill="#d6aec8"/><path d="m95 62-10-1 8-3z" fill="#f98cab"/><path d="m53 45-6 8-13-3z" fill="#948ac4"/><path d="m210 126-4-11v12z" fill="#a7b0d1"/><path d="m138 92-3-5v4z" fill="#f5c0a8"/><path d="m213 74-19 1 9-4z" fill="#091425"/><path d="m212 59-19-1 14-4z" fill="#e08e93"/><path d="m211-6 25-4 19 20z" fill="#233561"/><path d="m83 68 6-3-8-1z" fill="#ce81ac"/><path d="m103 62v-6h16z" fill="#eab4c8"/><path d="m176 68 13 3 3-4z" fill="#002c70"/><path d="m117 113 2-17 3 18z" fill="#a599bc"/><path d="m232 87-27-6 22 15z" fill="#e69a8b"/><path d="m191 77 11 3-5-3z" fill="#72556a"/><path d="m41 12-5-28-7 22z" fill="#005ab0"/><path d="m175 110-13 14-18-8z" fill="#aeb7da"/><path d="m171 70-12 5h14z" fill="#1a2643"/><path d="m111 84 6 6-7 1z" fill="#302427"/><path d="m30 114-14-9-14 3z" fill="#5182c2"/><path d="m204 73-18-5h24z" fill="#002566"/><path d="m38 127-19-7-1 13z" fill="#318ad2"/><path d="m63 64 3-1-6-1z" fill="#fa96b0"/><path d="m185 97 4-12-4 5z" fill="#e4aeb4"/><path d="m94 82-7-3h7z" fill="#a285b2"/><path d="m160 122-19-6 2 8z" fill="#9aabd2"/><path d="m50 76 5 5-10-5z" fill="#202130"/><path d="m129 119-30-1 9-11z" fill="#91a4d0"/><path d="m121 94-8-6 1-4z" fill="#503f43"/><path d="m271 5v24l-32 4z" fill="#464877"/><path d="m119 89 1-3-1-3z" fill="#9f7e8c"/><path d="m221 110 2-2 1 9z" fill="#332d35"/><path d="m104 84-1 1 1 1z" fill="#18253e"/><path d="m70 83-4 1 1-5z" fill="#676588"/><path d="m160 79-6-1 10-2z" fill="#6f6982"/><path d="m242 70 29 1-14-5z" fill="#faa439"/><path d="m210 90 5 4-6 6z" fill="#e2a8a4"/><path d="m146 79-4-1-5 2z" fill="#ffe7bc"/><path d="m198 11 23 1-23-28z" fill="#335391"/><path d="m181 63-22 1 10-4z" fill="#eed5c6"/><path d="m68 105 8 11-22-12z" fill="#92bae3"/><path d="m107 67v-3l7-3z" fill="#fb98a2"/><path d="m127 134-12-8-18 4z" fill="#4f89c8"/><path d="m179 66v4l-6-1z" fill="#052e73"/><path d="m167 109 2-7-2 1z" fill="#aaa0bf"/><path d="m211 77 3 1h-4z" fill="#ee9991"/><path d="m216 25-13 10h-12z" fill="#7973a7"/><path d="m178 131 21 7 17-5z" fill="#6e89bb"/><path d="m84 87-11-4 9-4z" fill="#404053"/><path d="m206 108-2 4-1-7z" fill="#110b11"/><path d="m38 79-6-3-7 2z" fill="#080f17"/><path d="m37 68 11 4-6 2z" fill="#043e8b"/><path d="m152 71-6 1 7 1z" fill="#004aae"/><path d="m148 139 15 2-16-8z" fill="#6181b5"/><path d="m171 67-5 5 18-5z" fill="#053279"/><path d="m227 107 1-4-5-3z" fill="#202f49"/><path d="m196 115 21 15-11-2z" fill="#adb6d7"/><path d="m183 75 2 3-1-3z" fill="#b38999"/><path d="m13 75-14-10 1 8z" fill="#001130"/><path d="m250 121 18-3 3 17z" fill="#8c7f9d"/><path d="m144 49 24-2-12 5z" fill="#ac7cac"/><path d="m173 58v-7l-26 5z" fill="#c7b0c6"/><path d="m199 96 11-6-5-4z" fill="#e6aba6"/><path d="m145 107-6-5 5 9z" fill="#aea9c7"/><path d="m138 72 4 2-5-1z" fill="#633f84"/><path d="m239 56-3 4h16z" fill="#d39e92"/><path d="m135 105 2-3 1 1z" fill="#45435e"/><path d="m125 113 9-9 10 4z" fill="#a8abcb"/><path d="m17 53 1 1 3-1z" fill="#6368a7"/><path d="m46 70v-6h-11z" fill="#b67eaa"/><path d="m260 87 11-7h-37z" fill="#ed995d"/><path d="m119 91 2 5-2-1z" fill="#a38288"/><path d="m77 78h4l-3 1z" fill="#2b4089"/><path d="m-2 5 29-7-14 12z" fill="#003c84"/><path d="m19 76 2 6 2-6z" fill="#8078a9"/><path d="m148 72 17-3-6 4z" fill="#003a92"/><path d="m43 137-24-3 27-5z" fill="#2860a7"/><path d="m245 83 26-2-7 28z" fill="#ce8470"/><path d="m260 117-6-14-5 15z" fill="#998ba4"/><path d="m87 91v8l-5-7z" fill="#ddb4cb"/><path d="m204 22 14 8-3-12z" fill="#5c6aa5"/><path d="m194 64-5 1 6 2z" fill="#eda267"/><path d="m246 46v-6l-22 4z" fill="#5f6281"/><path d="m245 68 4-5-19 4z" fill="#ffb468"/><path d="m222 118-8-6 4 18z" fill="#96a5cd"/><path d="m271-16v32l-45-32z" fill="#152048"/><path d="m16 42 19-9 7 8z" fill="#5a8bd4"/><path d="m102 63-3-1-4 5z" fill="#dc85a7"/><path d="m113 98h-3l3 2z" fill="#8e6f89"/><path d="m110 4-66-5 63-15z" fill="#0066be"/><path d="m46 62-7 2h6z" fill="#795187"/><path d="m181 90-2 9-4-19z" fill="#dfb2b3"/><path d="m77 124-30 1 14-5z" fill="#56a5df"/><path d="m122 116 2 9 21-1z" fill="#8eb3dc"/><path d="m44 68 2-3 5 1z" fill="#b7aec6"/><path d="m232 116 2-2-2 1z" fill="#34313d"/><path d="m63 64 7-1 2-3z" fill="#b795c4"/><path d="m127 97 4 4-2-5z" fill="#2b2631"/><path d="m164 11-3-10 15 11z" fill="#2e6ebc"/><path d="m13 87-4 8-10 1z" fill="#9c99c2"/><path d="m50 44 30 2-14 4z" fill="#9798d4"/><path d="m136 108-6-2 1-11z" fill="#bea2b6"/><path d="m151 117-9-7 20 3z" fill="#b7c2e0"/><path d="m174 106-2-11 5 3z" fill="#0c0d11"/><path d="m110 66 4 3-1-3z" fill="#743a86"/><path d="m108 98 2-9-3 1z" fill="#503a46"/><path d="m80 142-26-14 39 8z" fill="#2b85c8"/><path d="m188 114v3l-2-2z" fill="#a29cb9"/><path d="m210 112-2 2h-2z" fill="#323448"/><path d="m104 89 1 5-2 2z" fill="#150e16"/><path d="m105 95-8 6 10-3z" fill="#cea7c4"/><path d="m145 75h5v2z" fill="#baa2a9"/><path d="m198 29-16-2-15 8z" fill="#6680c1"/><path d="m186 115 2-2v-2z" fill="#0d1425"/><path d="m255 80h16v-10z" fill="#aa4000"/><path d="m193 129-7-16v9z" fill="#a6bcda"/><path d="m104 102 17 1-11-4z" fill="#c7afcc"/><path d="m190 65-7-3-8 3z" fill="#fcbe93"/><path d="m84 48 2 9 31-9z" fill="#ca9ece"/><path d="m212 162-26-18 42 3z" fill="#415c87"/><path d="m247 110 3 1-1 3z" fill="#252841"/><path d="m76 81v-5l-1 2z" fill="#9891ba"/><path d="m52 89 11-3 6 3z" fill="#b4acbd"/><path d="m3 64 10 2-3-5z" fill="#6b6193"/><path d="m114 71 2-3h-5z" fill="#00388d"/><path d="m226 55 14-4h-28z" fill="#a9768d"/><path d="m57 84-8-3h4z" fill="#324776"/><path d="m171 64 4 3-8-1z" fill="#f8bd86"/><path d="m245 13-17 9 24-3z" fill="#27518f"/><path d="m230 117 3-1 1 9z" fill="#8e9bc4"/><path d="m47 53 7 9 1-8z" fill="#c9c1d9"/><path d="m42 74 9-3 5 3z" fill="#002165"/><path d="m136 6 8-8 1 12z" fill="#116dbf"/><path d="m198 106 1-8-2 1z" fill="#baa3b2"/><path d="m191 120h-4l-3-8z" fill="#c4bfda"/><path d="m251 108-5-1 2 6z" fill="#111a27"/><path d="m39 73-6-1 3-1z" fill="#005fa8"/><path d="m122 85v2l-2-2z" fill="#907c8b"/><path d="m18 119-2 17-20-1z" fill="#247ecc"/><path d="m84 95-8-7-14 7z" fill="#d0c2d3"/><path d="m228 106 4-1-3 9z" fill="#a397af"/><path d="m101 134-23-6-2 8z" fill="#3c92d3"/><path d="m253 121 16-1-7-6z" fill="#000009"/><path d="m216 135-3 6-22-5z" fill="#5e7cb1"/><path d="m153 75 7-3 4 2z" fill="#202840"/><path d="m167 99-3-6-3 4z" fill="#15131a"/><path d="m136 105v-7l-4 4z" fill="#cdaac4"/><path d="m138 57 13 2-5 4z" fill="#e3dcdf"/><path d="m69 151 44-13-1 24z" fill="#265a91"/><path d="m180 64h-4l6 2z" fill="#fb9380"/><path d="m95 65 2-2-7-2z" fill="#b487b7"/><path d="m225 105 1 2-3-1z" fill="#404761"/><path d="m-12 70 6 9 11-1z" fill="#4c588b"/><path d="m141 47-18-2 10 5z" fill="#a678b1"/><path d="m148 18-2-8-15 5z" fill="#3a7cce"/><path d="m0 56 5 4-19-1z" fill="#a3486b"/><path d="m216 72-2-3h-9z" fill="#002873"/><path d="m169 98-4-13 7 4z" fill="#d8b2b1"/><path d="m26 66 4-2h-10z" fill="#d28ba0"/><path d="m98 87v-4l-3 1z" fill="#0b121c"/><path d="m207 76h5l-6 2z" fill="#d58b8b"/><path d="m161 37 31-4-30 14z" fill="#8078ad"/><path d="m119 100 9 1-4 3z" fill="#cba7c0"/><path d="m194 57-12-2 19-2z" fill="#d5abbe"/><path d="m161 75h10l-11 3z" fill="#ab9199"/><path d="m226 53-8 5-14-2z" fill="#d0818e"/><path d="m126 79-1-2-4 1z" fill="#765f81"/><path d="m114 86 4 6 1-7z" fill="#2e2a35"/><path d="m48 115 7-11-12 6z" fill="#78aadb"/><path d="m207 100-3 10v-7z" fill="#06090a"/><path d="m0 64-16 22 9-26z" fill="#701341"/><path d="m58 81-3-4 6 2z" fill="#3d2a3d"/><path d="m114 93v-10l2 7z" fill="#2c282e"/><path d="m250 60v5l-18-3z" fill="#e9a279"/><path d="m-11 77 22 8-17 1z" fill="#6c6da3"/><path d="m53 70h-6l-2 3z" fill="#1c5faf"/><path d="m15 50 7 1-7 1z" fill="#84cded"/><path d="m156 69 3 4 5-3z" fill="#003a8f"/><path d="m214 102-2-3-2 6z" fill="#192c49"/><path d="m230 73-1-2h7z" fill="#032a62"/><path d="m239 107 5 4-2-8z" fill="#a597ac"/><path d="m145 51h-15l16 5z" fill="#db8ca9"/><path d="m102 88v6l1-3z" fill="#fabacd"/><path d="m111 94-3 1 2-11z" fill="#b28393"/><path d="m227 58-14 4-10-4z" fill="#e0a79b"/><path d="m170 118 28 7-33 1z" fill="#97bcde"/><path d="m163 51-2-5 15-1z" fill="#9c7aa6"/><path d="m122 57-9 1 2 3z" fill="#e6e8ea"/><path d="m250 106 1 2-4-2z" fill="#000009"/><path d="m142 43 12-6h-27z" fill="#8e94d0"/><path d="m52 83v4l-13-1z" fill="#a285b1"/><path d="m119 99-1-6-3 4z" fill="#383342"/><path d="m222 5 28-21h-27z" fill="#113e76"/><path d="m140 71 7-1-6-1z" fill="#ffd096"/><path d="m22 67 5-2 6 3z" fill="#8285ad"/><path d="m117 105-11 1 10-9z" fill="#bfa5c6"/><path d="m186 102-1-5-1 2z" fill="#bea6b3"/><path d="m96 97v-6l3 11z" fill="#cfa8c5"/><path d="m187 100v8l2-7z" fill="#010201"/><path d="m112 90 1-7 1 6z" fill="#91757e"/><path d="m46 79 2-1 3 2z" fill="#3b3146"/><path d="m70 59-5 1-5-2z" fill="#c8dbe7"/><path d="m162 98 1 13 2-7z" fill="#0c0b0f"/><path d="m15 76-5 2-1-2z" fill="#5f7fba"/><path d="m-16 91 32 8-32 2z" fill="#8abfe2"/><path d="m156 103-2-3v-4z"/><path d="m64 75-7 1 7 1z" fill="#928ab0"/><path d="m95 62h10l-4 2z" fill="#bf6d98"/><path d="m96 87v-2l3 4z" fill="#4a3e51"/><path d="m189 103-4 11 4-4z" fill="#222129"/><path d="m200 111v-4l-1 2z" fill="#33303e"/><path d="m76 68 6-2h-7z" fill="#a164a1"/><path d="m35 108v5l-13-2z" fill="#5584c5"/><path d="m206 50-14-1 10 6z" fill="#aea8c4"/><path d="m-15 95 21-3-22-13z" fill="#c277b3"/><path d="m147 9 10 12 12-2z" fill="#5472b7"/><path d="m10 45-8 3 1-6z" fill="#445189"/><path d="m244 117-2 4 2 7z" fill="#8282aa"/><path d="m85 53-18-3v6z" fill="#c997c8"/><path d="m145 74 10 1-4-2z" fill="#2e314c"/><path d="m82 81 5 3 5-2z" fill="#2e344c"/><path d="m2 80-14-6 4 6z" fill="#030b22"/><path d="m67 85-5-5v3z" fill="#67628b"/><path d="m130 95-1-6-1 2z" fill="#05030d"/><path d="m71 73 7-4 7 4z" fill="#002e7b"/><path d="m111 91v-1l3 2z"/><path d="m19 61 2 1 2-1z" fill="#6c5fa1"/><path d="m108 102-8 8-26-4z" fill="#b1bcdc"/><path d="m175 108 5 12-6 1z" fill="#b2b8d4"/><path d="m261 55-13 1-2-5z" fill="#946a76"/><path d="m174 103 3-6 1 14z" fill="#1e2129"/><path d="m209 118 4-13-4 2z" fill="#09080d"/><path d="m187 140-25 1-5 10z" fill="#4276af"/><path d="m1 102 11 2-14 2z" fill="#4a62a0"/><path d="m27 82 3-3v-4z" fill="#2f3e62"/><path d="m29 96 7 7 1-7z" fill="#a9cce6"/><path d="m176 102-3-3-2 10z" fill="#09080a"/><path d="m133 100v2h-1z" fill="#a5809a"/><path d="m189 123-4-9 12 11z" fill="#b9c3e0"/><path d="m111 99 7-13-2 9z" fill="#544654"/><path d="m74 73-1 2 7-1z" fill="#202e53"/><path d="m192 115-1-4 3 2z" fill="#040106"/><path d="m204 44 19-5-28-1z" fill="#676491"/><path d="m30 77 5 3 2-3z" fill="#01060d"/><path d="m187 115-4 1 2-7z" fill="#aba3c1"/><path d="m119 106-4-3-1-6z" fill="#cca9c6"/><path d="m204 127-7-11 2-5z" fill="#b9bddb"/><path d="m73 88-1-5-1 8z" fill="#b09dbb"/><path d="m120 107 21-4-15 9z" fill="#a69fc0"/><path d="m129 86-3 4 3-1z" fill="#393a4c"/><path d="m235 106-2-3 1 3z" fill="#000006"/><path d="m63 68-12-1 5 3z" fill="#dea0ba"/><path d="m190 103 4-2-2-1z" fill="#25242b"/><path d="m76 44 12 1 10-5z" fill="#a7b9e5"/><path d="m45 42 9 3 17-11z" fill="#7ca7e2"/><path d="m29 86-2-4-10-1z" fill="#8286b9"/><path d="m180 101 3-1-1-8z" fill="#101017"/><path d="m175 89 25-8-14 11z" fill="#e0abb0"/><path d="m138 66-5-3-7 1z" fill="#fdfdf5"/><path d="m127 83 9-3 13 5z" fill="#e9bcaf"/><path d="m110 113 15-5v6z" fill="#9298c4"/><path d="m69 84 2-4-3 2z" fill="#474a61"/><path d="m25 46 8 4h-18z" fill="#777ebc"/><path d="m156 35 16-2 2-6z" fill="#5a7fc3"/><path d="m109 106 17 2 1-5z" fill="#b1a0c3"/><path d="m95 123 7-6 18 4z" fill="#7d9ed0"/><path d="m230 119 4-1v-3z" fill="#9496b9"/><path d="m210 96 28 2-37-16z" fill="#e6a498"/><path d="m111 62-2 1h3z" fill="#f2648b"/><path d="m206 79-7 1-1-2z" fill="#644355"/><path d="m238 76h19l-9 3z" fill="#ae7264"/><path d="m33 72 8 2-13 1z" fill="#0a2b69"/><path d="m80 81h-9l12 4z" fill="#2d2e3d"/><path d="m78 85-7 1 8-6z" fill="#53506c"/><path d="m13 58-5-6h3z" fill="#a095c1"/><path d="m91 86 2-3v8z" fill="#664f6a"/><path d="m78 80 5 1-3-2z" fill="#736f8f"/><path d="m32 59 14 2-7 2z" fill="#767ab3"/><path d="m127 88-3 1 3 5z" fill="#bc968c"/><path d="m164 1-9-4-14 5z" fill="#345fa4"/><path d="m232 78h17l-10 3z" fill="#f58a38"/><path d="m258 69h-16l26-7z" fill="#ffaf55"/><path d="m41 54 4 2-8-1z" fill="#b7a3d0"/><path d="m82 137 14 4-31 2z" fill="#2a75b8"/><path d="m215 88-1-6-16-2z" fill="#e59c94"/><path d="m208 105 3-13 4 1z" fill="#d1a5a9"/><path d="m231 76-13-4h24z" fill="#191c28"/><path d="m50 70 1-4h3z" fill="#bb89b3"/><path d="m151 64-10 2-2 4z" fill="#fff4e3"/><path d="m188 67 5 6-2 1z" fill="#0a2c5c"/><path d="m208 82-8-3h6z" fill="#d58980"/><path d="m6 34 8 3-6 2z" fill="#4865ae"/><path d="m8 58 2-3 1 3z" fill="#706ba1"/><path d="m107 85 1 2v-5z" fill="#303552"/><path d="m219 13 27 16-22 1z" fill="#435791"/><path d="m211 100-3 2 6-1z" fill="#0f223d"/><path d="m144 85-2 3 2 2z" fill="#efc9b3"/><path d="m58 67-7-4 3 5z" fill="#ad7bad"/><path d="m-8 151 12-30-20-8z" fill="#0f6ebb"/><path d="m119 33-5 9 14-3z" fill="#8181c2"/><path d="m199 110-1 15 4-1z" fill="#b6bdda"/><path d="m176 110 2 2-1-6z" fill="#1a171c"/><path d="m83 25-16-4 34-2z" fill="#457ccc"/><path d="m107 88 1-2v4z" fill="#14141c"/><path d="m134 76-3 3h6z" fill="#ffab87"/><path d="m240 41 12-10-2 13z" fill="#525278"/><path d="m29 90-4 3-10-4z" fill="#c3c0d9"/><path d="m16 35 9-6-12-5z" fill="#3171c5"/><path d="m2 62 14-8 14 1z" fill="#92abce"/><path d="m163 84-6 2 7 7z" fill="#d8b2b0"/><path d="m58 132-13 4 15 9z" fill="#2573bc"/><path d="m94 60-3 2h10z" fill="#fd9db1"/><path d="m33 90v4l-6-7z" fill="#a0a8c9"/><path d="m12 79 5-1-3 3z" fill="#343963"/><path d="m236 114 1 2v-3z" fill="#050206"/><path d="m216 48 2-5-17 2z" fill="#8676a0"/><path d="m42 127 11-3 12 6z" fill="#4287cb"/><path d="m128 56-7-1-1 3z" fill="#d1e0e8"/><path d="m68 88-4-3 6-1z" fill="#8883a8"/><path d="m10 10 20-13-5 14z" fill="#004895"/><path d="m167 27-19 6 13 4z" fill="#7284c5"/><path d="m148 79 2-2h-2z" fill="#b76377"/><path d="m239 101-3-1 3-1z" fill="#090d0c"/><path d="m89 93 2-4-1-2z" fill="#ce9eb6"/><path d="m45 73-7-1 1 2z" fill="#001f65"/><path d="m39 111 14 10-12 1z" fill="#579fda"/><path d="m143 75-14 11 7-11z" fill="#eab7a3"/><path d="m84 57-8 2-3-3z" fill="#dce0ea"/><path d="m169 65-7 2-4-2z" fill="#faba92"/><path d="m13 80 4 4 10-4z" fill="#7d7fb2"/><path d="m250 53 9 1 12-13z" fill="#7a5c68"/><path d="m35 21-16-6-10 11z" fill="#1676cb"/><path d="m18 102-5 4-6-5z" fill="#5e70af"/><path d="m207 19 10-8-18 5z" fill="#3a64a4"/><path d="m260 104 11-14-31 12z" fill="#c69292"/><path d="m92 78h1l1 1z" fill="#001456"/><path d="m160 101-5 11 4 2z" fill="#bfb3cc"/><path d="m114 86v5l2 2z" fill="#211a1c"/><path d="m180 101-2 3v-6z" fill="#9e9aaa"/><path d="m236 117 3 4-1-13z" fill="#090b0e"/><path d="m251 103 16 19 4-25z" fill="#a27e8c"/><path d="m189 95-1-1v3z" fill="#303b4c"/><path d="m28 64-5-2 4-1z" fill="#776299"/><path d="m148 108 4 1-1-8z" fill="#c2b1ca"/><path d="m103 136 3-5-16 6z" fill="#317ebf"/><path d="m18 66h-6l2-2z" fill="#9d94b1"/><path d="m55 24 5-3h-16z" fill="#427cd0"/><path d="m231 98 4 5-1-3z" fill="#d39ea1"/><path d="m202 105-3 2 3-1z" fill="#c3b6ca"/><path d="m71 64h5l-6 2z" fill="#ff91a6"/><path d="m19 16-14-4 6 10z" fill="#006cc2"/><path d="m41 74h-4l3 1z" fill="#3e4975"/><path d="m102 56-9 3-5-3z" fill="#e5b5cb"/><path d="m174 77-7 2-4-2z" fill="#79586d"/><path d="m194 78 1-2h-8z" fill="#c092a2"/><path d="m172 93v9l3-3z" fill="#09080b"/><path d="m105 84 11-5h-9z" fill="#c89db6"/><path d="m30 61 4-3 7 1z" fill="#bb6ca1"/><path d="m187 76h-9l7 2z" fill="#ae859d"/><path d="m165 60-9 3h10z" fill="#e6dcd8"/><path d="m113 80 8 3h-10z" fill="#cbaaba"/><path d="m155 65 4 2h-9z" fill="#fac5a7"/><path d="m40 62h-12l7 2z" fill="#6c578b"/><path d="m208 93 5 3 6-5z" fill="#eda79a"/><path d="m177 112 2 2v2z" fill="#a79db9"/><path d="m229 51 17-5-8-1z" fill="#795f78"/><path d="m201 137 16 7-36-3z" fill="#5471a6"/><path d="m230 112 1-9-3 1z" fill="#b1a0b3"/><path d="m120 75 4 2h-11z" fill="#dfb8bc"/><path d="m166 107-1-4-5 6z" fill="#0e0d14"/><path d="m41 99-13 4v-4z" fill="#9ab0d4"/><path d="m111 8 11-17 23 8z" fill="#025faf"/><path d="m103 66-5-1 10-2z" fill="#fc98a7"/><path d="m175 62-8-3h14z" fill="#f8ac9d"/><path d="m11 43 18-6-8-5z" fill="#5182cd"/><path d="m154 93-1-7h2z" fill="#3d4f6c"/><path d="m19 14 16-4 6 7z" fill="#1a57a1"/><path d="m150 89 1 3 6-9z" fill="#e4b7ae"/><path d="m146 137v-7l12 1z" fill="#7496c7"/><path d="m154 39 2 9-14-5z" fill="#9a8bc0"/><path d="m45 45 5 6 18-1z" fill="#9785c3"/><path d="m68 80 4 2h-5z" fill="#5e5b79"/><path d="m89 64 1-2h-3z" fill="#e7e8e5"/><path d="m111 74 5-3 11 3z" fill="#002760"/><path d="m117 73-8-2 9-1z" fill="#003385"/><path d="m21 54 4-2h-11z" fill="#768bc0"/><path d="m13 75h-11l2 3z" fill="#4d659e"/><path d="m44 75 5-1 2 2z" fill="#5c5980"/><path d="m52 144 28 2-25 11z" fill="#1366a7"/><path d="m0 41 5-2 3 2z" fill="#397ac1"/><path d="m101 14 8-5h-16z" fill="#1271c7"/><path d="m-10 45 17 5h-14z" fill="#538ebb"/><path d="m-5 145 7-8 9-1z" fill="#1573c3"/><path d="m144 98 3-9v5z" fill="#1f1c1e"/><path d="m225 101 1 1 1-2z" fill="#001e3c"/><path d="m130 65-6-3h10z" fill="#fbf7ef"/><path d="m3 115h15l-8 11z" fill="#2c75c1"/><path d="m104 49-9 7 16 1z" fill="#d29ac2"/><path d="m222 80 3-2h-8z" fill="#a9533b"/><path d="m-12 64-4-9 21 7z" fill="#7d9bbb"/><path d="m61 15-17-6 7-8z" fill="#006eca"/><path d="m141 95 3-6-2 10z" fill="#e3baaa"/><path d="m42 85-8-3h18z" fill="#7a72a8"/><path d="m-15 2 8 45 14-36z" fill="#005eb0"/><path d="m195 65h7l-1 2z" fill="#d5b092"/><path d="m93 46-14 4-3-5z" fill="#ae9dd3"/><path d="m163 80-22 6 7-7z" fill="#eec6b3"/><path d="m214 66 2-4-16 2z" fill="#f79d6a"/><path d="m196 108 5 4v6z" fill="#a2a4c2"/><path d="m26 71-5 4h4z" fill="#0b2154"/><path d="m222 45 17-7-10 1z" fill="#776284"/><path d="m186 2-6 18 12-12z" fill="#3464ab"/><path d="m207 128-16 2 15 4z" fill="#85a2d0"/><path d="m167 79h4l2 13z" fill="#dfb5b1"/><path d="m226 119-3 3 2-9z" fill="#0a0f16"/><path d="m171 71 14-3 6 5z" fill="#001d57"/><path d="m167 23-17 7h17z" fill="#6e77b8"/><path d="m17 77 1 1 1-1z" fill="#9099ce"/><path d="m165 52-19 4 7-5z" fill="#bca2c1"/><path d="m24 81h10l-5 2z" fill="#6078ae"/><path d="m182 25-14-6 5 9z" fill="#4675bf"/><path d="m147 101 3 3-1-3z" fill="#aba3bf"/><path d="m230 3 17-19 24 7z" fill="#3d3a60"/><path d="m126 71-1-2 7 2z" fill="#7b4c88"/><path d="m110 36-11-4 3 5z" fill="#7b93d6"/><path d="m251 125-1-2 5-1z" fill="#8786ad"/><path d="m37 57-7-2h5z" fill="#946db0"/><path d="m163 146 4 16 28-21z" fill="#466b9d"/><path d="m151 45 12 1-2-4z" fill="#8283ba"/><path d="m90 82 1 1h-1z" fill="#957aa0"/><path d="m120 75 3-4h-2z" fill="#002e72"/><path d="m39 79v-3l5 4z" fill="#2c273c"/><path d="m178 66h8l-1 2z" fill="#631951"/><path d="m0 53h13l-6-2z" fill="#82b5d8"/><path d="m153 97-5-1 3-6z" fill="#e7c2b8"/><path d="m69 67-8-5-7 2z" fill="#e17da8"/><path d="m197 29v5h-18z" fill="#7c80b8"/><path d="m164 108 11 7-4 1z" fill="#b6b3cf"/><path d="m181 77 2 3 1-3z" fill="#6e4262"/><path d="m45 85 7 4 1-3z" fill="#b998b9"/><path d="m138 99 1 4-2-3z" fill="#101424"/><path d="m213 135 16 2-2-4z" fill="#737faf"/><path d="m32 58h-10l6-3z" fill="#8d9fc8"/><path d="m13 135-5 4 11-2z" fill="#1a5fab"/><path d="m120 94 1 2-1 2z" fill="#040f21"/><path d="m65 73h2l-4 2z" fill="#0c2247"/><path d="m88 16-10-4-17 6z" fill="#098bdd"/><path d="m132 71-2-4h8z" fill="#fcd0a5"/><path d="m144 77-2-2h7z" fill="#c6a9a4"/><path d="m100 127-14 5h16z" fill="#4b97d3"/><path d="m241 21 22-1 8-11z" fill="#29477c"/><path d="m198 16 13-6h-8z" fill="#475692"/><path d="m239 101 1 4-2-2z" fill="#2b4463"/><path d="m117 70 7 2 6-2z" fill="#00439a"/><path d="m91 76-12-1 2 3z" fill="#a793b8"/><path d="m179 67h8l3 3z" fill="#002e72"/><path d="m139 29 11-5-30-2z" fill="#5986d1"/><path d="m244 107-1-1 1-1z" fill="#9a8193"/><path d="m102 55 22-3-22-3z" fill="#c697c7"/><path d="m207 129 8 2 8-8z" fill="#97a5cd"/><path d="m77 137-19-1-1 6z" fill="#1981ca"/><path d="m28 78v-5l2 7z" fill="#030812"/><path d="m13 64-2-1v-2z" fill="#845386"/><path d="m236 97 9-2-16-2z" fill="#e8a08e"/><path d="m197 78 2 2-8-1z" fill="#694f66"/><path d="m204 81-22-1-5 7z" fill="#e3a7a9"/><path d="m233 68-4 2h8z" fill="#ffb646"/><path d="m204 98h2l2-2z" fill="#1e2435"/><path d="m138 88h3l-1 7z" fill="#322e37"/><path d="m214 129h10l-12 6z" fill="#8893c2"/><path d="m251 87h20v12z" fill="#b9746c"/><path d="m25 161 7-21 15 22z" fill="#0e5ea1"/><path d="m96 81-3-1-3 1z" fill="#b990bb"/><path d="m107 101 4-4-1 6z" fill="#c2a6c2"/><path d="m48 93 5-5 4 7z" fill="#dac7d9"/><path d="m19 52-2 2-4-2z" fill="#7187bb"/><path d="m237 140-18-1 11-3z" fill="#616d9e"/><path d="m232 85 15 10-29-8z" fill="#e7947e"/><path d="m216 115-2 7v-13z" fill="#8691b0"/><path d="m78 83 2-1-1-1z" fill="#050e12"/><path d="m75 88-8 8h-12z" fill="#c9c1d7"/><path d="m246 56 1-4h-15z" fill="#b16f78"/><path d="m170 98-4-5 4 10z" fill="#b9a1ad"/><path d="m212 143 7-2-5 3z" fill="#2579af"/><path d="m24 22 12-2-11 9z" fill="#2682d6"/><path d="m41 128h-19l7-8z" fill="#3690d5"/><path d="m173 66 4 1-3-3z" fill="#e7b28d"/><path d="m235 76 1 2-6-2z" fill="#bf7a6a"/><path d="m59 99 11 8 12-4z" fill="#a7aad6"/><path d="m51 74 5-2h-10z" fill="#002263"/><path d="m135 92h-2l1-7z" fill="#44373c"/><path d="m201 115 5-2-1-3z" fill="#0f0e15"/><path d="m165 131-10-2 11-3z" fill="#879fcc"/><path d="m222 76h-7l6 3z" fill="#dc8674"/><path d="m91 6-38-3 5 11z" fill="#0078d6"/><path d="m135 95 2 5-2 1z" fill="#dab7c0"/><path d="m95 10-1-9 16 3z" fill="#006bc0"/><path d="m114 63 2-1 3 1z" fill="#ff8b89"/><path d="m131 85h4l-3-3z" fill="#d7b0af"/><path d="m82 64-1-5-15 5z" fill="#ddc5d5"/><path d="m147 99-2 3v3z" fill="#000509"/><path d="m223 103-6 10-2-10z" fill="#b8a4ba"/><path d="m101 82v4l-1-3z" fill="#1f1e2f"/><path d="m205 123 2-2v-5z" fill="#acb1d2"/><path d="m143 145 12-8-8 2z" fill="#4c74aa"/><path d="m134 102-2-7-1 6z" fill="#dbb8c1"/><path d="m9 140-25 22 11-17z" fill="#1b569c"/><path d="m250 144 21-21-1 19z" fill="#375386"/><path d="m214 110 3 14 3-12z" fill="#9ca1c5"/><path d="m96 65 1-1h2z" fill="#dcc0d7"/><path d="m114 87 1 3 8-6z" fill="#343240"/><path d="m22 69-15 5h23z" fill="#001543"/><path d="m13 80h-5l2-2z" fill="#0f1c42"/><path d="m235 104 2-1-1-1z" fill="#1d1f2b"/><path d="m80 33-17 6 9-7z" fill="#7bb2e8"/><path d="m75 94-13 2 9 3z" fill="#cca9d1"/><path d="m227 112-3-2v-9z" fill="#0d0e17"/><path d="m163 46 17-9 10 4z" fill="#7271a6"/><path d="m191 42v6l15-5z" fill="#83719b"/><path d="m87 69 6-3 1 4z" fill="#003588"/><path d="m69 27 11 3-22 1z" fill="#55a7e8"/><path d="m119 98 2-3 2 1z" fill="#5d5367"/><path d="m99 87-1 7-1-7z" fill="#1e1a27"/><path d="m47 72-4-3h-6z" fill="#325fa4"/><path d="m221 76h18l-7-3z" fill="#2b242c"/><path d="m98 92 7 15 7-2z" fill="#c0acc8"/><path d="m13 86 8-3 10 4z" fill="#a992c4"/><path d="m170 78 2-3h-9z" fill="#a58a96"/><path d="m111 114-7-9 17 2z" fill="#a3a1c7"/><path d="m98 86-1 3v-5z" fill="#050b10"/><path d="m9 75 2 4 4-4z" fill="#576ea6"/><path d="m125 77h4l-1-1z" fill="#d0c0c4"/><path d="m162 62 10 3 7-3z" fill="#ecd9c9"/><path d="m112 134 22 3-11-6z" fill="#4a7cb9"/><path d="m126 85-1 6-1-4z" fill="#e2b8b6"/><path d="m175 13 19 6-13 5z" fill="#4469b1"/><path d="m44 94 6-7-16 6z" fill="#d49ec9"/><path d="m233 85 9-4-23-1z" fill="#f59d6c"/><path d="m136 60v1l-2-1z" fill="#ff9e99"/><path d="m118 162 71-5-55-12z" fill="#27547b"/><path d="m160 143 6-6v6z" fill="#4786c0"/><path d="m216 126-11-1-6 4z" fill="#a1b4d5"/><path d="m179 58 11 3 10-5z" fill="#eea099"/><path d="m102 81 2 2-1 3z" fill="#9a759a"/><path d="m127 53-2-3 8 2z" fill="#ca93bc"/><path d="m114 58-3-3 14-2z" fill="#ddafc1"/><path d="m158 105 3 1-5-6z" fill="#b5a3ba"/><path d="m195 103-3-1v1z" fill="#040203"/><path d="m230 72 13 4 13-4z" fill="#191f2f"/><path d="m151 79 6 5-9 5z" fill="#e8bcb0"/><path d="m101 40-4-6-4 8z" fill="#91ace2"/><path d="m133 74h-4l3 1z" fill="#725b62"/><path d="m234 89-11-7 29 1z" fill="#e69175"/><path d="m61 152h-25l10-15z" fill="#1272bd"/><path d="m186 62h17l-5 4z" fill="#fab58b"/><path d="m188 127 7 3v-4z" fill="#8eb3d9"/><path d="m235 56-12 2 23 3z" fill="#dd9e92"/><path d="m169 114 9-1 3 5z" fill="#bcc0dd"/><path d="m20 64-6-2h10z" fill="#ef4b6d"/><path d="m34 26 19-2-22 10z" fill="#3e8edd"/><path d="m228 122 3-4-3-2z" fill="#93a5ce"/><path d="m188 57h-16l9-4z" fill="#d0a2ba"/><path d="m253 105h-13l1-4z" fill="#b392a3"/><path d="m29 146-9-9 12-3z" fill="#255493"/><path d="m33 70-1 7 2-3z" fill="#042158"/><path d="m167 86 1 9 8-14z" fill="#e2b7b5"/><path d="m10 75h6l1-2z" fill="#052757"/><path d="m150 5-5-6-1 10z" fill="#2c6ebb"/><path d="m271 38v10l-25-1z" fill="#5f4d62"/><path d="m100 98 4 2-5-9z" fill="#ddacc1"/><path d="m165 108 1-4-3-1z" fill="#111117"/><path d="m242 68-6 2 2 1z" fill="#fdac42"/><path d="m136 58h-12l3 4z" fill="#f4c1c8"/><path d="m28 62-4 2 9-1z" fill="#73568a"/><path d="m27 57h3l-4 3z" fill="#afbdd4"/><path d="m217 143 20 19-30-16z" fill="#366c9f"/><path d="m104 84-1-1 1 3z" fill="#25293c"/><path d="m71 60v1h3z" fill="#b67fb8"/><path d="m115 84 1 2h-2z" fill="#17263c"/><path d="m132 39-4 6-17-6z" fill="#9789c4"/><path d="m149 70-3 2h-4z" fill="#ef9c8c"/><path d="m16 106 4 3v-5z" fill="#6b99d0"/><path d="m249 121 22 15v-8z" fill="#7f7ca2"/><path d="m195 162 43-18 14 18z" fill="#414d73"/><path d="m183 94-1 2v-3z" fill="#000105"/><path d="m89 130-28-2 15-3z" fill="#458ecf"/><path d="m18 60v-2l-6 2z" fill="#a5bcd3"/><path d="m82 120-8 6-7-1z" fill="#5e96d3"/><path d="m68 66-5 2h10z" fill="#b487b4"/><path d="m52 70 1 1v2z" fill="#023b88"/><path d="m30 51 7 3 2-3z" fill="#a3c7e7"/><path d="m253 71h9l3-4z" fill="#cb8829"/><path d="m127 71-13-2 7 4z" fill="#003b92"/><path d="m46 68 2 1 3-2z" fill="#d687af"/><path d="m187 122-1-3 3-4z" fill="#bfc7e2"/><path d="m114 103 8-4 5 4z" fill="#c9a8c2"/><path d="m7 33 13 3 2-5z" fill="#4276c4"/><path d="m54 61 3 1 1-1z" fill="#8e91ca"/><path d="m69 71-11 3h19z" fill="#00215e"/><path d="m-6 65 7 9 17-1z" fill="#001031"/><path d="m14 63 5 1-2-2z" fill="#e54b70"/><path d="m69 78-1 2 6-2z" fill="#3b447d"/><path d="m166 101-3-1 2-8z" fill="#0c1117"/><path d="m254 131-8 6 25-2z" fill="#5773a8"/><path d="m218 24-17-4-10 5z" fill="#5670af"/><path d="m41 66 1 1-2 1z" fill="#ee92ab"/><path d="m213 72 2-2 5 1z" fill="#002b6e"/><path d="m107 103-6 7-7-7z" fill="#b0b2d2"/><path d="m145 79h-8l2-2z" fill="#ffbb8d"/><path d="m104 87 1-1-1 3z" fill="#191119"/><path d="m113 7-9 8 21-4z" fill="#2868ba"/><path d="m131 85-13-5 13 1z" fill="#dcbdc1"/><path d="m175 91-2-2-1 2z" fill="#756c78"/><path d="m70 80 1 2-1-1z" fill="#9a98c5"/><path d="m-4 79-4-4 14 1z" fill="#49598c"/><path d="m93 75h13l-8-3z" fill="#262f55"/><path d="m104 70-6 4-10-1z" fill="#002464"/><path d="m227 80 1-2h-7z" fill="#a4573c"/><path d="m140 70 1 3 3-3z" fill="#fda495"/><path d="m170 88 2 3v-2z" fill="#e2b7b7"/><path d="m23 76v3l3-2z" fill="#041018"/><path d="m159 77h-4l-2 2z" fill="#464d73"/><path d="m110 76-2 1h4z" fill="#cfa5bb"/><path d="m186 83-11 7 32 2z" fill="#e3aeb2"/><path d="m102 70 3 4-14-3z" fill="#002a6e"/><path d="m29 15-4 3-6-3z" fill="#2064b7"/><path d="m219 14 13 3 8-8z" fill="#414a81"/><path d="m56 101-12 2v-4z" fill="#9c95c8"/><path d="m52 35h-17l17-7z" fill="#5195df"/><path d="m88 127-7-5h19z" fill="#5b81c0"/><path d="m81 103-14-5 20 1z" fill="#bca3cf"/><path d="m180 66 3 1 1-1z" fill="#e72c4d"/><path d="m208 95-3 1 1 2z" fill="#242126"/><path d="m232 108v8l2-3z" fill="#231c27"/><path d="m19 80 6-2 7 2z" fill="#212135"/><path d="m232 116 5 11-3 2z" fill="#8195c2"/><path d="m40 40 6 3-5 5z" fill="#7491d4"/><path d="m199 5-48-21 56 2z" fill="#285597"/><path d="m36 73 9-1-6-2z" fill="#004091"/><path d="m136 109-13 6-1 6z" fill="#9cafd3"/><path d="m22 80v-5l2 6z" fill="#525579"/><path d="m7 23-23 4v22z" fill="#1d60ac"/><path d="m50 105-6-3-8 4z" fill="#7c96c9"/><path d="m15 3-19-2 5-17z" fill="#002e6c"/><path d="m239 115v-2l1 3z" fill="#8e91a9"/><path d="m22 40-6 4h19z" fill="#6f9ad7"/><path d="m20 78-3-1v2z" fill="#7b79af"/><path d="m107 97-13 3 10 1z" fill="#ccafcf"/><path d="m251 12 20 14-9-20z" fill="#09417c"/><path d="m31 62 12-2-10-1z" fill="#9783b8"/><path d="m118 92-2-6v11z" fill="#534043"/><path d="m123 40-9-7h12z" fill="#7482c6"/><path d="m85 137-5-4 3 6z" fill="#1888c9"/><path d="m178 73h4l-3 2z" fill="#0b1318"/><path d="m34 104 7-2-9-1z" fill="#9ec3e3"/><path d="m102 23-21 1 7 4z" fill="#5678c5"/><path d="m82 73-3 2h10z" fill="#283256"/><path d="m134 97 3-1-2-11z" fill="#e6bcb5"/><path d="m160 57-4 4-10-6z" fill="#dfb9c4"/><path d="m97 120 19 4-16 1z" fill="#7097cd"/><path d="m40 55 2-2-7 1z" fill="#aa9aca"/><path d="m79 88 4-1-6-1z" fill="#625a72"/><path d="m136 92-1-2-1 1z" fill="#dcae9b"/><path d="m158 98 3-1-1-1z" fill="#c0a2aa"/><path d="m171 121 7 4-9 3z" fill="#84b1da"/><path d="m207 66 11-1 3 4z" fill="#fba552"/><path d="m17 99 3-4-13 2z" fill="#9cc2e1"/><path d="m39 66-8 2 3 1z" fill="#b46d91"/><path d="m98 69 7-1-5-1z" fill="#073b8b"/><path d="m103 137 21 4-8-5z" fill="#316fae"/><path d="m200 72-6 1-2-2z" fill="#021b3e"/><path d="m71 76 4 1-9 1z" fill="#b79fc6"/><path d="m212 139-4-7h-9z" fill="#6c8fc3"/><path d="m107 84h1v3z" fill="#15243d"/><path d="m98 87v-5l-4 4z" fill="#1e1d2a"/><path d="m143 71-1-2-4-1z" fill="#ffe6ba"/><path d="m152 103-1 5-3-11z" fill="#bdadc4"/><path d="m140 51 5-1-5-4z" fill="#a076ac"/><path d="m180 96 3 1-1 1z" fill="#23262e"/><path d="m78 68h8l-3 2z" fill="#4e79b1"/><path d="m117 62 5-3-6 1z" fill="#ebd2d7"/><path d="m37 63 5-2 7 2z" fill="#676099"/><path d="m139 70h-7l5 2z" fill="#f0b186"/><path d="m55 81h-1l1 3z" fill="#1e2d4a"/><path d="m84 72h-7l3 2z" fill="#001d5b"/><path d="m71 69-2-1-1 2z" fill="#4572b4"/><path d="m64 23-11-4h25z" fill="#3083d6"/><path d="m218 141-1-5h-17z" fill="#5c7fb4"/><path d="m139 115 4 6h-22z" fill="#93b6dc"/><path d="m16 74-2-7 13 7z" fill="#001542"/><path d="m175 131-2 7-13-1z" fill="#5e93c8"/><path d="m40 64-2 1-1-1z" fill="#cc678e"/><path d="m202 55-14-3 10-1z" fill="#beb2c9"/><path d="m15 49 5-4 6 1z" fill="#656bb0"/><path d="m186 119 14-2 8 7z" fill="#bdc2df"/><path d="m249 127-4-5 3 9z" fill="#0c0c13"/><path d="m224 72 7 2-9 1z" fill="#0c1b2f"/><path d="m87 51h9l-13 6z" fill="#c9aed0"/><path d="m77 73-17-1 10-3z" fill="#003381"/><path d="m36 119 9 7h15z" fill="#4c99d9"/><path d="m18 82-10 5 6-6z" fill="#7488bc"/><path d="m148 34-1-8-4 2z" fill="#7382ca"/><path d="m202 63 9-3-17-1z" fill="#e8ad9c"/><path d="m160 86-6-7-2 7z" fill="#eab9b2"/><path d="m146 130 4 4-16-1z" fill="#6698cd"/><path d="m25 87 1 3-8-2z" fill="#d7a1cc"/><path d="m132 141 13-1-5-6z" fill="#4488c6"/><path d="m66 118 23-1-27-6z" fill="#84bde7"/><path d="m122 65-3 2-2-2z" fill="#ffd0b0"/><path d="m194 73h-4l1 3z" fill="#2c3a53"/><path d="m207 62-13 2 11 2z" fill="#faa975"/><path d="m160 73v2l-7-2z" fill="#242840"/><path d="m111 93v1l3 1z" fill="#00060f"/><path d="m159 85 5-2-7 11z" fill="#e5bdb8"/><path d="m6 48 2-6 6 3z" fill="#4e5a97"/><path d="m182 70 4-2-8-1z" fill="#002c6c"/><path d="m198 100 3-8-3-2z" fill="#e4b4b2"/><path d="m210 117 3 2-1-6z" fill="#080404"/><path d="m84 82 1 2-6 2z" fill="#131723"/><path d="m64 66 3-2 4 4z" fill="#cb7da9"/><path d="m76 67 6 2-3-3z" fill="#ac6da3"/><path d="m28 68 3-3-13 1z" fill="#958fb2"/><path d="m178 107 1-1 1 4z" fill="#b9bcd6"/><path d="m56 77 1 5 3-5z" fill="#3b3b54"/><path d="m26 68-9-3 18 1z" fill="#9587ae"/><path d="m200 111 2 1v-1z" fill="#6c718f"/><path d="m119 52 20-1-14-4z" fill="#ba82b6"/><path d="m-6 89 5-4 7 1z" fill="#8874a5"/><path d="m122 66-3 2 1-2z" fill="#ffe7c1"/><path d="m20 53-2-3 10 3z" fill="#90c1e4"/><path d="m58 18-3-4-10-1z" fill="#1b6dc2"/><path d="m17 94 12-3 7 4z" fill="#a8b8d7"/><path d="m232 27 12-5 8 3z" fill="#424a81"/><path d="m48 132-6-3 1 11z" fill="#276ab1"/><path d="m188 85-5-5-10 6z" fill="#e2a5ac"/><path d="m82 70 5-1-2 2z" fill="#00337e"/><path d="m116 89h2v7z" fill="#362626"/><path d="m137 72 2 2-4-2z" fill="#29457c"/><path d="m208 18 20 8-10-11z" fill="#49609b"/><path d="m12 135h9l-1-3z" fill="#2b6fbd"/><path d="m137 9 9-4-2 7z" fill="#1b77cd"/><path d="m98 58-1 3h8z" fill="#edc3d2"/><path d="m25 8-14 5 17-1z" fill="#0c4e98"/><path d="m148 144-5 1-7-4z" fill="#3b74ab"/><path d="m105 90v-7h3z" fill="#956d89"/><path d="m52 78 1 4 3 2z" fill="#3e4461"/><path d="m95 93-1-3h2z" fill="#504157"/><path d="m115 102-3 1 2-7z" fill="#cba9c1"/><path d="m234 52-10-2 6-2z" fill="#8b6c86"/><path d="m100 110 4 3-9 6z" fill="#95b4dc"/><path d="m111 87 4 4-4-7z" fill="#0e1729"/><path d="m257 55-5 3-9-4z" fill="#ad7a81"/><path d="m52 38 17-8h-13z" fill="#5fa3e6"/><path d="m199 102h1v1z" fill="#141e1e"/><path d="m13 42 12-3-3 4z" fill="#5c8ed1"/><path d="m185 3-17-19-19 13z" fill="#165eaa"/><path d="m56 52-12-1-2 4z" fill="#b395c7"/><path d="m2 80h7l-11 5z" fill="#5b6599"/><path d="m45 54v3l3-2z" fill="#c4cae4"/><path d="m58 89 7 5 15-2z" fill="#cbc8d5"/><path d="m183 65h-11l11-3z" fill="#f5bea0"/><path d="m200 55 11-5 8 2z" fill="#aa86aa"/><path d="m94 77-4-2h9z" fill="#aa89bb"/><path d="m101 69 14 3-18 1z" fill="#002c72"/><path d="m96 28 19 3 18-9z" fill="#5c85cf"/><path d="m225 48 14-2-14-2z" fill="#726b8a"/><path d="m238 127-14 5h11z" fill="#6f8fc7"/><path d="m98 21-11-1 16-3z" fill="#3b80d2"/><path d="m168 51 11-3v3z" fill="#a990b9"/><path d="m246 110 4 1-5-4z" fill="#0e1521"/><path d="m179 95-3-1 5-8z" fill="#e1b1b0"/><path d="m207 86 3 9-16-15z" fill="#dfa6a4"/><path d="m59 74-3-2-4 1z" fill="#001f5c"/><path d="m75 66h-4l3-2z" fill="#f78faa"/><path d="m174 73-1 2h-6z" fill="#1e212f"/><path d="m71 114 12-4-9-1z" fill="#96c4e8"/><path d="m93 139 12-1-23 10z" fill="#2a66a4"/><path d="m60 128 14 3-12 4z" fill="#2e8ad2"/><path d="m121 40-18 1 6-6z" fill="#8b89cd"/><path d="m190 93v9l2-7z" fill="#c5a5aa"/><path d="m138 56-15-2 6 4z" fill="#cfcbdb"/><path d="m189 90h5l-2 6z" fill="#ecb6b4"/><path d="m237 6 6-4 16 6z" fill="#1e3564"/><path d="m30 60h-5l6 2z" fill="#927eb5"/><path d="m115 89 2-1-2 5z" fill="#543f44"/><path d="m101 82-2-3h5z" fill="#bb8eb8"/><path d="m74 84-1-1v-2z" fill="#081723"/><path d="m86 92 1-2-3 1z" fill="#c292a5"/><path d="m74 123h-20v-6z" fill="#61b2e4"/><path d="m3 38-19-19 9 19z" fill="#314c86"/><path d="m172 116 10 8 6-2z" fill="#a5c3e3"/><path d="m164 71 5-2 4 3z" fill="#002d7d"/><path d="m89 79-2-1h5z" fill="#002a6e"/><path d="m146 118 14 1 7 9z" fill="#9eb0d4"/><path d="m28 71 2-4-3-1z" fill="#a967a1"/><path d="m226 5 8 4-2-7z" fill="#2f447b"/><path d="m56 97-21-2 11-3z" fill="#c9b5d7"/><path d="m122 138-3-2-1 8z" fill="#386fae"/><path d="m106 76-2 1-3-1z" fill="#cf8fb9"/><path d="m189 102 2 3-1-3z" fill="#a795a5"/><path d="m249 128v5l-3-2z" fill="#05060e"/><path d="m219 129 10-8 10 2z" fill="#879fc9"/><path d="m233 34 17 1-5-5z" fill="#54537e"/><path d="m113 97v-5l4 9z" fill="#a38294"/><path d="m120 103-6-4-9 1z" fill="#cbabc8"/><path d="m-16 59 22-4-22-2z" fill="#6f537f"/><path d="m66 20 8-4-16 3z" fill="#1b81d7"/><path d="m111 87v3l1-3z"/><path d="m136 75-7 4v-4z" fill="#ce9ca4"/><path d="m50 57h-4l-2 3z" fill="#ed9db9"/><path d="m64 89-8-1 1-2z" fill="#b9afc4"/><path d="m107 90-2 7v-10z" fill="#b87c8a"/><path d="m225 67-3-2 9 1z" fill="#febb73"/><path d="m65 65h6l-1-4z" fill="#c595bf"/><path d="m75 89-1-2h-5z" fill="#af97b1"/><path d="m245 139-6 22 7 1z" fill="#576290"/><path d="m226 108v4l-2 1z" fill="#080502"/><path d="m85 81-7 6 4-1z" fill="#333345"/><path d="m54 78-2 2 4 2z" fill="#181721"/><path d="m249 136-13-4-4 4z" fill="#5f81ba"/><path d="m252 120h-3v-1z" fill="#0a0909"/><path d="m52 60 7 1-4-4z" fill="#c4d4e5"/><path d="m26 51 7-1-1-3z" fill="#8a9cd0"/><path d="m26 103-7 4 14-1z" fill="#7dabda"/><path d="m161 125-3 6-12-4z" fill="#7ea7d3"/><path d="m-9 111 18-1-25-7z" fill="#4478bb"/><path d="m123 62h-3l6 2z" fill="#feb3a3"/><path d="m121 110 5-3-4-11z" fill="#b7a3bf"/><path d="m128 112-15 2 11-7z" fill="#949ac3"/><path d="m193 27 4 4 10-4z" fill="#6d7bb9"/><path d="m105 96-3 1 8 3z" fill="#cfa6be"/><path d="m141 17-19 5 34 2z" fill="#517fca"/><path d="m63 102-9 7-5-4z" fill="#8ba9d9"/><path d="m199 73h5l4 3z" fill="#191f2e"/><path d="m100 87 2 7-2-2z" fill="#5b4b5b"/><path d="m38 76-3-1 6-1z" fill="#314069"/><path d="m122 19-7-8-12 7z" fill="#3471c2"/><path d="m16 60v1l-2 1z" fill="#aa7ab1"/><path d="m44 73 7 2-1-2z" fill="#0b2153"/><path d="m123 79 4 5-14-5z" fill="#e4babe"/><path d="m4 35 3-11 9 4z" fill="#2a6abc"/><path d="m234 53-17 3 8-4z" fill="#ae7687"/><path d="m106 103-5-9 6 6z" fill="#ccadc5"/><path d="m48 100 9-1-14-3z" fill="#afa1cf"/><path d="m148 34h-45l22-7z" fill="#6b8ed2"/><path d="m211 116v-4l-3 6z" fill="#141218"/><path d="m130 68 3-1-2 4z" fill="#f4c8ac"/><path d="m54 85v-1l3 2z" fill="#515881"/><path d="m38 46-7-1 5 3z" fill="#97c2e8"/><path d="m115 83 4 3-3-1z" fill="#8a7c91"/><path d="m212 11 11-4-7 6z" fill="#295799"/><path d="m171 107-4-6 3-1z" fill="#b8a2b7"/><path d="m246 117 2-3-2-2z" fill="#040001"/><path d="m124 1-5 6 20-4z" fill="#0165b6"/><path d="m63 82 2-1-2-1z" fill="#656382"/><path d="m-8 148 42 14-14-22z" fill="#1f4881"/><path d="m98 39 6 5 2-4z" fill="#9b9cd7"/><path d="m47 65h-7l5 3z" fill="#a285b4"/><path d="m133 64 10-2 7 4z" fill="#fdfcf7"/><path d="m198 143-28 7 67 12z" fill="#495d8b"/><path d="m193 90 1 11-3-7z" fill="#d1a6a7"/><path d="m119 87 1-2-2-1z" fill="#32374d"/><path d="m196 88-7 5 4 2z" fill="#ecb6b3"/><path d="m88 118-11 3-2-4z" fill="#7aaedf"/><path d="m38 89 5-1 3 2z" fill="#c089c5"/><path d="m215 99-2-3 11 2z" fill="#dca7a8"/><path d="m216 105-4-3v2z" fill="#2b4975"/><path d="m127 84v-2h-7z" fill="#d3b4b7"/><path d="m230 11-28-16 16-1z" fill="#234885"/><path d="m122 79 1-2-8 1z" fill="#60507c"/><path d="m160 138-7-6 7-2z" fill="#7392c3"/><path d="m63 103 6-3-15-1z" fill="#a5a0d1"/><path d="m124 91 2-2v2z" fill="#e6bfb6"/><path d="m104 80h3l2 2z" fill="#d199bd"/><path d="m132 78 7-1 1 2z" fill="#ffad86"/><path d="m172 78-2 1-1-1z" fill="#814e5f"/><path d="m181 132h8l-9 8z" fill="#608ec1"/><path d="m57 86h8l-3-2z" fill="#8887ad"/><path d="m128 1 27-17-54 16z" fill="#005bad"/><path d="m211 75 9-3h-18z" fill="#101b2d"/><path d="m215 109 2 3-3-1z" fill="#a695ab"/><path d="m69 60-1 2-7-2z" fill="#9b92c4"/><path d="m99 95 2-2v1z" fill="#b5889d"/><path d="m94 46-12 4 23-1z" fill="#bb9cd1"/><path d="m93 95-7-2 7-2z" fill="#d7a9bb"/><path d="m152 122-2-4-8 2z" fill="#9ba6cf"/><path d="m215 33 16 3-13-17z" fill="#506198"/><path d="m82 59v4l3-4z" fill="#ce8dbd"/><path d="m73 61v-3l6 2z" fill="#e5a4c3"/><path d="m59 55 12-6 6 4z" fill="#be92c7"/><path d="m128 8 5 1 1-4z" fill="#2367b9"/><path d="m174 104 3 4v-2z" fill="#232531"/><path d="m117 79v-1h-2z" fill="#0b3474"/><path d="m118 77 2-2h5z" fill="#d1afbb"/><path d="m155 91-2 5 2-1z" fill="#0b1b28"/><path d="m59 82v1l1 1z" fill="#0e2546"/><path d="m27 66-3 2 8-1z" fill="#7979a5"/><path d="m180 110 2-3v2z" fill="#020000"/><path d="m199 105 1 1v-1z" fill="#464142"/><path d="m156 35 7-3-6-1z" fill="#6086ca"/><path d="m86 74-7-2h10z" fill="#002260"/><path d="m62 143 12-1-1 4z" fill="#266baf"/><path d="m87 69-12 4h23z" fill="#002c72"/><path d="m133 75 3-2h4z" fill="#413a52"/><path d="m185 118v-4l-1 2z" fill="#c6c5de"/><path d="m122 88-1-3h-4z" fill="#2b2d3f"/><path d="m-4 111-12 14 22-10z" fill="#2b68ae"/><path d="m214 89-4-9h-9z" fill="#e69e95"/><path d="m151 70-1 3 6-3z" fill="#00429d"/><path d="m21 114-1 7-8-4z" fill="#3b79bf"/><path d="m5 102-21 3v-7z" fill="#5585c1"/><path d="m72 136-14-1v-6z" fill="#2b83cb"/><path d="m252 80-5 2-3-2z" fill="#f59a4f"/><path d="m235 136 7 3v-3z" fill="#536da2"/><path d="m246 76h3l-3 1z" fill="#815448"/><path d="m44 76h-12l6 4z" fill="#0f1521"/><path d="m26 68-2 1 1-1z" fill="#de6ca2"/><path d="m89 114 7-5-14-2z" fill="#a6ceeb"/><path d="m271 74-9 6h-13z" fill="#c76925"/><path d="m41 20 15 1-6-4z" fill="#356dc1"/><path d="m236 77-1 2-6-2z" fill="#e88d63"/><path d="m271 102-20 6 20 6z" fill="#8d7e91"/><path d="m98 10 28-4-15-2z" fill="#0c68b9"/><path d="m161 4 17 20-18-12z" fill="#436eb8"/><path d="m142 85-7-7h14z" fill="#f5d0b5"/><path d="m132 84 6-1-2 3z" fill="#ddada3"/><path d="m249 49h-11l15-5z" fill="#65526c"/><path d="m6 76 4 1-1 1z" fill="#5e71ab"/><path d="m236 112 2-1v-5z" fill="#040a05"/><path d="m101 86-1 1v-2z" fill="#382833"/><path d="m138 121 12 6-22-2z" fill="#83add9"/><path d="m21 80-10 5 14-2z" fill="#8886bc"/><path d="m144 97-3-3 2-9z" fill="#e0baa6"/><path d="m167 100 1 1-1-3z" fill="#9c9099"/><path d="m111 98 1-1v-1z"/><path d="m163 121-17-6h32z" fill="#abbbde"/><path d="m141 3 15-11-30 2z" fill="#145ead"/><path d="m234 111 1 1-1-2z" fill="#394444"/><path d="m175 103h-2l1 7z" fill="#141218"/><path d="m152 141-22 18 50 3z" fill="#43638e"/><path d="m124 98-6 5 7 1z" fill="#caabc4"/><path d="m158 48-3 4h-11z" fill="#b57ead"/><path d="m57 113-13-3-4 4z" fill="#6ba5db"/><path d="m149 7 16-23-7 23z" fill="#3f62a5"/><path d="m227 138-7-2-3 9z" fill="#566fa5"/><path d="m174 80-10 6 14 2z" fill="#e0b4b3"/><path d="m260 2-15 10 26-7z" fill="#15376a"/><path d="m225 108h-2l3-7z" fill="#2e3a53"/><path d="m146 91 1-2-1 1z" fill="#25354e"/><path d="m48 145 29 17-60-11z" fill="#006db4"/><path d="m42 88 2-1-4-3z" fill="#a87dba"/><path d="m110 20h-15l18 7z" fill="#4e7cc8"/><path d="m35 61h3l-5 4z" fill="#6f6ea5"/><path d="m32 129h-12l-5 5z" fill="#3178c6"/><path d="m172 102 1 1-1 3z"/><path d="m99 59-6-3-8 3z" fill="#eab7ce"/><path d="m123 76 2 1h-2z" fill="#e6c0bd"/><path d="m264 122-14 4 12 8z" fill="#6c72a0"/><path d="m108 90-2 1 2-2z" fill="#130e0d"/><path d="m149 30 13-5h-16z" fill="#6879bf"/><path d="m174 77 6 2-2-2z" fill="#494666"/><path d="m79 99 22-1-10-4z" fill="#d3afd0"/><path d="m4 139-20-8 21-1z" fill="#177fca"/><path d="m89 13-13-4-14 8z" fill="#0085dc"/><path d="m37 125 1-6h-14z" fill="#3d92d6"/><path d="m15 144 9 18-40-6z" fill="#163f72"/><path d="m143 83-8-3-7 4z" fill="#f0bfae"/><path d="m128 69-1-2 6 2z" fill="#ffe6c6"/><path d="m180 17-12-6 10-2z" fill="#356bb4"/><path d="m238 127 5 3v-8z" fill="#7685b7"/><path d="m101 84-1 1 1 3z" fill="#392a38"/><path d="m235 99-4 3h2z" fill="#c1949b"/><path d="m221 23 17-6 2 5z" fill="#355896"/><path d="m87 87 1 1-1-3z" fill="#6a6186"/><path d="m241 96 6 4-6 2z" fill="#d99e98"/><path d="m238 117-3 4 1-14z" fill="#130f18"/><path d="m205 101v-4l-2 1z" fill="#373f5f"/><path d="m23 122-2 8-17 3z" fill="#2e87d1"/><path d="m41 81 3 1 1-1z" fill="#4d568a"/><path d="m163 162 2-18 9 12z" fill="#296ca7"/><path d="m64 72-2-2-2 2z" fill="#022e7c"/><path d="m9 97 4-3h-12z" fill="#a5afd0"/><path d="m143 69h-8l4-2z" fill="#ffe8cb"/><path d="m113 102 3-1-2-4z" fill="#d2afc9"/><path d="m174 61h6l1-3z" fill="#f49e94"/><path d="m244 56 9 2-9 1z" fill="#c38a86"/><path d="m227 118-1 4-1-4z" fill="#020f1b"/><path d="m221 129v-15l-6 2z" fill="#99a9cf"/><path d="m60 82-2 1 1 3z" fill="#6d76a1"/><path d="m202 118 3 5 4-4z" fill="#abafcf"/><path d="m224 65-1-4-13 1z" fill="#f1a37c"/><path d="m41-14-5 20 7 5z" fill="#0064be"/><path d="m163 113-14 2-4-5z" fill="#b8c0de"/><path d="m6 62-12-2-8 4z" fill="#7f91b5"/><path d="m66 41 1 5h14z" fill="#9dace0"/><path d="m146 97v-3l-2 4z" fill="#121013"/><path d="m52 67 4-1-6-1z" fill="#9d7eae"/><path d="m236 162 35-19-45 6z" fill="#313f62"/><path d="m58 27 14-1-7-4z" fill="#419ae4"/><path d="m166 52-6 1 6 2z" fill="#b8adc7"/><path d="m124 50 2-6-13 2z" fill="#af8ac2"/><path d="m190 72 9-1-13-2z" fill="#00205f"/><path d="m198 67h4l-2-1z" fill="#b79377"/><path d="m138 62-1-2 3-3z" fill="#fbb9b6"/><path d="m252 60 9 2-18 1z" fill="#e4a178"/><path d="m168 45 12 4 7-3z" fill="#907ea9"/><path d="m213 109-2-6v3z" fill="#10131e"/><path d="m96 145 36 8-44 9z" fill="#165483"/><path d="m222 104 1 1-3 2z" fill="#a18899"/><path d="m203 118-6 8 9-1z" fill="#b0c2de"/><path d="m156 135-12 2 17 2z" fill="#5b84b9"/><path d="m123 131h5l-9-6z" fill="#6399cf"/><path d="m7 91-2-2-3 1z" fill="#b995c5"/><path d="m75 64 4 1 4-2z" fill="#f9aebf"/><path d="m134 97-1-5-1 7z" fill="#1e1e2b"/><path d="m48 38 21-4-11 6z" fill="#6dabe7"/><path d="m125 94 2 3-1-3z" fill="#d7c1c3"/><path d="m94 65 5 2h-4z" fill="#8e3d7d"/><path d="m251 79h8l7-6z" fill="#cc825f"/><path d="m10 78h-11l6-2z" fill="#5b6ca2"/><path d="m109 142 39 12-41 8z" fill="#255381"/><path d="m219 79v1h-2z" fill="#c7633b"/><path d="m79 76-5 2-7-2z" fill="#af9bbe"/><path d="m43 129 13 6-8-8z" fill="#2f72bb"/><path d="m115 89-2 3 1-3z" fill="#7c5551"/><path d="m45 58-1 2-2-2z" fill="#b56c9f"/><path d="m34 114 9-7h-8z" fill="#5a90cd"/><path d="m3 11h8l-9 13z" fill="#0066ba"/><path d="m241 52 6-1v2z" fill="#a36c78"/><path d="m132 98 3 8-5 6z" fill="#b4a7c4"/><path d="m64 84v-3l-3-1z" fill="#3c3e57"/><path d="m167 9-5-5 11 2z" fill="#1f6cbe"/><path d="m56 63 9 2 2-4z" fill="#d989b3"/><path d="m100 138 11 1-5-5z" fill="#3070b0"/><path d="m269 68-23-3 23-4z" fill="#f9a969"/><path d="m50 74-7-2-2 2z" fill="#002062"/><path d="m131 79 2 6-2 7z" fill="#dbb0a8"/><path d="m17 111-9 4 1-5z" fill="#4271bb"/><path d="m229 59 3 2 4-1z" fill="#efa98b"/><path d="m114 89 5 6-1-5z" fill="#362a2e"/><path d="m198 33-13 2 8 1z" fill="#8276a8"/><path d="m85 81 1 3-2 3z" fill="#020c16"/><path d="m96 90-1 3v-2z" fill="#916a7f"/><path d="m271 102v-19l-22 20z" fill="#c08a86"/><path d="m58 85-4 3h15z" fill="#a89eb9"/><path d="m225 136 10-2v3z" fill="#687aab"/><path d="m19 146 8-7-10-3z" fill="#264f8b"/><path d="m72 63 8-1 6-5z" fill="#d3ccdc"/><path d="m38 73 1 4 3 3z" fill="#232d50"/><path d="m233 112v2l-1-2z" fill="#0b080c"/><path d="m7 4 20-10-10 11z" fill="#00387b"/><path d="m89 89-5-5 4 2z" fill="#1c1821"/><path d="m52 52-1-5-8 5z" fill="#9789c2"/><path d="m204 137-5-3-12 5z" fill="#6581b4"/><path d="m24 29 2 5 7-2z" fill="#4280d3"/><path d="m199 104-1 1 1-3z"/><path d="m145 56-5-1 5-1z" fill="#ed939f"/><path d="m166 77-5 1 9 1z" fill="#83697a"/><path d="m125 98 1-2-2-2z" fill="#d6bcc4"/><path d="m44 41 3-7-11 9z" fill="#6697da"/><path d="m44 92 4 1 1-4z" fill="#e6b3cd"/><path d="m72 42h-14l21-6z" fill="#88b0e4"/><path d="m23 62 2 2 1-2z" fill="#8d5488"/><path d="m247 108 3 3-4 1z" fill="#26324a"/><path d="m206 114 2-1-1 1z" fill="#3c3a4f"/><path d="m171 57-6 2 6 2z" fill="#e3b4b7"/><path d="m135 92v-7l2 3z" fill="#e7b4a2"/><path d="m113 104h-23l14-4z" fill="#bcb4d2"/><path d="m49 44 12 4h-12z" fill="#8a91d0"/><path d="m156 37v-5l-13 1z" fill="#778ccd"/><path d="m62 62-3 2 7-2z" fill="#f390ac"/><path d="m201 76h-10l5 2z" fill="#bf8b94"/><path d="m255 77h10l3-6z" fill="#684941"/><path d="m179 67-9 2 8 1z" fill="#023075"/><path d="m180 101 1 7-4 6z" fill="#b0a3bc"/><path d="m2 85-18 7 11-16z" fill="#6c6492"/><path d="m226 48-10 3 9 1z" fill="#927594"/><path d="m111 93 1-3 1 3z" fill="#01050a"/><path d="m128 36 12 4 8-3z" fill="#8598d7"/><path d="m52 88-3 1 3 1z" fill="#ccacc6"/><path d="m81 27-8-5-3 2z" fill="#4b8bd8"/><path d="m99 6-36-2 18-4z" fill="#0072ce"/><path d="m154 44-9 4-10-3z" fill="#937fb5"/><path d="m114 129-10 5 13-1z" fill="#467dbd"/><path d="m165 103-2-4 1-5z" fill="#161116"/><path d="m123 79 9 5-4-4z" fill="#e0c3c0"/><path d="m241 1 14-4-26-2z" fill="#2b3154"/><path d="m208 27-3 7 11-8z" fill="#686ba3"/><path d="m45 14-6 4-10-3z" fill="#245da8"/><path d="m129 86 3-5v5z" fill="#dfbab5"/><path d="m180 97 1-2 1 1z" fill="#373948"/><path d="m53 58-3-4 4 2z" fill="#d3b9d4"/><path d="m202 101-2 2 2-4z" fill="#c1b4c5"/><path d="m57 90-1-2-6 3z" fill="#c3c7d4"/><path d="m202 87h-21l12-7z" fill="#e1aaab"/><path d="m186 105-2-3 1 8z" fill="#b09fb3"/><path d="m117 102-3 3 12-1z" fill="#bba1c3"/><path d="m226 77-3 1-1-1z" fill="#f1977a"/><path d="m47 42 15 5-2-5z" fill="#89a0db"/><path d="m166 92 3-5-2-1z" fill="#cfadad"/><path d="m163 77-7 2-5-2z" fill="#655874"/><path d="m133 66 8-5h-7z" fill="#faf4eb"/><path d="m33 145 5-9 5 1z" fill="#1466ad"/><path d="m207 32 5 8h-19z" fill="#60659d"/><path d="m137 75h9l-5 2z" fill="#d0aca4"/><path d="m76 58 3-2-7 1z" fill="#d2dfec"/><path d="m254 108 17 11-21-3z" fill="#928ca9"/><path d="m167 5v-21l6 19z" fill="#0766b6"/><path d="m271 81v-11l-21 4z" fill="#0c111e"/><path d="m122 74 3-1 2 1z" fill="#071f43"/><path d="m39 73-5-1 2-1z" fill="#0063af"/><path d="m193 6 10 4-12 9z" fill="#3a5d9d"/><path d="m203 101 1 1-1-3z" fill="#403139"/><path d="m224 111 2-5-2 2z" fill="#130f13"/><path d="m166 96-2-4-1 2z" fill="#192131"/><path d="m249 127-3-2 2-8z" fill="#030203"/><path d="m76 71 3-2h-6z" fill="#024699"/><path d="m170 93-3 3v-12z" fill="#e1b9b6"/><path d="m119 98-1-5-1 3z" fill="#2e2d39"/><path d="m167 96 1 1-3-1z" fill="#494e5a"/><path d="m189 96 1 3-2-1z" fill="#202431"/><path d="m222 86 9-3-21-3z" fill="#ee997e"/><path d="m6 96 9-8-3 5z" fill="#aaa7c9"/><path d="m196 61 6 5-14-4z" fill="#f3b291"/><path d="m35 19 13 4v-4z" fill="#3772c4"/><path d="m58 73h-12l6-2z" fill="#013681"/><path d="m235 141-2 20-9-16z" fill="#4d5c8a"/><path d="m213 55h6l-3 2z" fill="#d27c85"/><path d="m243 34-8 7 16-7z" fill="#64587b"/><path d="m89 84-5 7 2-9z" fill="#463c51"/><path d="m173 85-9-2 8 8z" fill="#dcb3b2"/><path d="m224 85 6 3-13-2z" fill="#e29287"/><path d="m30 9-12-4-12 3z" fill="#004691"/><path d="m148 114-4 4-6-4z" fill="#a5c1e0"/><path d="m271 106-8 4-16-6z" fill="#9f8093"/><path d="m189 71-3 2h6z" fill="#011a42"/><path d="m62 106 13-1 1 5z" fill="#9cb8df"/><path d="m85 90-2 2v-1z" fill="#bfa2bb"/><path d="m216 40h11l10-8z" fill="#5c5a88"/><path d="m153 79-11 5-1-5z" fill="#efd3be"/><path d="m241 54 2 3-11-2z" fill="#cf7c81"/><path d="m104 64-5-2h7z" fill="#d56e91"/><path d="m178 66-3 4 1-4z" fill="#103976"/><path d="m172 55-26-1 9 5z" fill="#d1b4c7"/><path d="m119 94-2-2 1-3z" fill="#281c21"/><path d="m205 106-1 11 3-7z" fill="#0b0b0f"/><path d="m160 8-6 3 14 7z" fill="#4f6fb4"/><path d="m175 58 9-3 5 3z" fill="#df9ca9"/><path d="m101 106 4 8v-8z" fill="#a4acd0"/><path d="m240 113 2-5 3 11z" fill="#9f96b0"/><path d="m97 73h-5l2 1z" fill="#001a4d"/><path d="m84 36 2 4 10-4z" fill="#8dbfec"/><path d="m196 24 3 5 8-5z" fill="#6079ba"/><path d="m61 67h3l1 2z" fill="#c7b1c5"/><path d="m74 80 2 4-3-3z" fill="#1e2134"/><path d="m211 43 6 6 8-1z" fill="#827599"/><path d="m125 109 13-3-21-1z" fill="#ada1c1"/><path d="m106 46-16-3 6 4z" fill="#a7addb"/><path d="m24 76-4-2h7z" fill="#273e6b"/><path d="m105 37 8-5 7 6z" fill="#7d89cc"/><path d="m152 81-9 6-6-7z" fill="#ebc5b1"/><path d="m119 116 5 8-16-7z" fill="#8da7d3"/><path d="m93 79h3v-1z" fill="#112967"/><path d="m68 67 1-2h-7z" fill="#e2769e"/><path d="m117 88-2 4 1 5z" fill="#4c414d"/><path d="m92 119-7 3-1-3z" fill="#7394cb"/><path d="m241 11h8l-14 5z" fill="#284479"/><path d="m9 101 1-3-5 3z" fill="#81aed8"/><path d="m224 99 3 6v-6z" fill="#0f223b"/><path d="m102 36-3 3-2-7z" fill="#7fa2e0"/><path d="m52 82-6-3h3z" fill="#2f2f47"/><path d="m3 105-10 5-9-7z" fill="#425b97"/><path d="m26 95 8 4 1-3z" fill="#b2cbe4"/><path d="m65 81-1 1 1-2z" fill="#8683b0"/><path d="m25 34 9 6h-8z" fill="#5881ce"/><path d="m187 24-7 6-9-2z" fill="#507bc2"/><path d="m48 59v-1h-3z" fill="#fb8ba6"/><path d="m39 45-6-2-3 2z" fill="#83a0d9"/><path d="m49 136v-2l6-1z" fill="#3572ba"/><path d="m40 103 3-5-4-1z" fill="#a2abd1"/><path d="m75 59-6 2 3-2z" fill="#d384b5"/><path d="m143 75-1-2h5z" fill="#2f3553"/><path d="m60 83 7 2-2-2z" fill="#696d99"/><path d="m30 110-18-2 10 6z" fill="#4f84c4"/><path d="m53 80 3 1-1-3z" fill="#1a1722"/><path d="m143 134 4-5h-21z" fill="#6d9ad0"/><path d="m51 55 2 3-7-3z" fill="#c1cddf"/><path d="m210 76-3 2-4-2z" fill="#c4838a"/><path d="m209 103 1 1-2-1z" fill="#bdbdd7"/><path d="m160 39-1-3-8 2z" fill="#8487c6"/><path d="m213 78h-5l3 1z" fill="#452c47"/><path d="m206 42-15-2 7 4z" fill="#726996"/><path d="m36 89-2 3-6 1z" fill="#a79dc5"/><path d="m123 53-12-2-1 4z" fill="#c59bc3"/><path d="m57 66-4-2v2z" fill="#bf649c"/><path d="m46 57-2-4-4 4z" fill="#c4acd3"/><path d="m7 45-11 3-12-7z" fill="#414c82"/><path d="m211 141-8 21h23z" fill="#496a97"/><path d="m165 110 13 3-8 3z" fill="#bdb8d6"/><path d="m207 145 26 17-15-1z" fill="#216490"/><path d="m103 92v-4l2 5z" fill="#37303d"/><path d="m243 78-6 2-3-2z" fill="#ee8235"/><path d="m122 90-1 2 2 4z" fill="#ac8c87"/><path d="m203 49h7l-4 4z" fill="#a79bba"/><path d="m200 54h7l-5 2z" fill="#d597aa"/><path d="m145 58-3 2h5z" fill="#e4ebed"/><path d="m74 64 6-3 2 2z" fill="#dec9d4"/><path d="m54 107-3 5 13 2z" fill="#77b2e1"/><path d="m224 110 1 12 2-7z" fill="#0a0b10"/><path d="m113 64 3 1-4 1z" fill="#f7e8d9"/><path d="m188 56 1-4-13 1z" fill="#bea8c1"/><path d="m219 101-3 2 8 1z" fill="#c4a6b1"/><path d="m138 55 3 3h-4z" fill="#dab6c9"/><path d="m96 58h-8l3 3z" fill="#ff9bb6"/><path d="m243 145-33 6 35 11z" fill="#3e4970"/><path d="m237 66-2 3-10-1z" fill="#ffb65c"/><path d="m163 77-6 2 3-2z" fill="#917881"/><path d="m177 136h-10l12 5z" fill="#5688c1"/><path d="m186 78v1h-3z" fill="#4b385a"/><path d="m194 20h-19l3 6z" fill="#4b70b6"/><path d="m100 14-6-2 2 5z" fill="#187fd4"/><path d="m116 90-2-2v-4z" fill="#1f1c1f"/><path d="m108 138h9l-8 3z" fill="#31629e"/><path d="m68 88 4 4 2-2z" fill="#cab4c7"/></g></svg>