<svg height="680" width="1024" xmlns="http://www.w3.org/2000/svg"><path d="m0 0h1024v680h-1024z" fill="#2b140e"/><g fill-opacity=".501961" transform="matrix(4 0 0 4 2 2)"><path d="m184.600826 71.443804-30.035138 50.085132-96.477334-64.619422 81.936508-37.912118z" fill="#ff956e"/><path d="m271 180.078027-71.646392-28.804479-2.163485-11.627141 34.817109-26.403083z" fill="#ff8d69"/><path d="m124.466301 24.034758 5.733681 44.730094 54.937961 14.019821 4.631143-6.625576z" fill="#ffa376"/><path d="m-.87907-16-1.737134 201 96.770451-9.294325-35.334347-191.705675z"/><path d="m149.411542 31.109024-165.411542-24.757748 270.557862-22.351276 16.442138 179.154865z"/><path d="m116.102338 122.101395-2.551401 28.548586-26.540744-1.667499 2.517094-42.734822z" fill="#e24f2d"/><path d="m154.218121 26.728417 8.273427 26.950487-57.959315 44.833182-28.799706-64.269054z" fill="#c7603d"/><path d="m170.770961 104.548885-65.432932-75.838914 6.567466 38.233318 35.030559 91.026379z" fill="#94201e"/><path d="m271 76.194377-16.850363-92.194377-46.391192 17.806919-50.33227 171.490849z"/><path d="m112.33495 94.370267 2.819036-31.736476-41.884236 15.719566 12.680394-18.113682z" fill="#fdb885"/><path d="m202.632153 131.752163 47.510601 1.447119 18.75057 51.800718-72.142484-40.557189z" fill="#cb634a"/><path d="m153.449168 185h-41.831341l6.750331-91.037783 17.062422 2.527044z"/><path d="m142.158357 95.746508-4.66124-4.067998 39.917967-9.505195-30.639605 21.35519z" fill="#e5a3a9"/><path d="m162.079654 21.808384-18.182692 38.105138 69.761824-75.913522-169.978819 50.564554z"/><path d="m172.223048 81.136421-3.231259 16.297033-22.466177 3.065484 124.474388 19.862598z"/><path d="m155.73271 58.193062 1.322023-12.181834 32.420206 36.506137-47.565984-15.348685z" fill="#ffbb92"/><path d="m263.156185 144.863105-85.079558 19.166234 63.549414 20.970661-14.353523-75.440713z" fill="#70120f"/><path d="m96.606378 150.452859-82.124045-166.452859-30.482333 201 217.628577-24.960889z"/><path d="m-6.320385 147.366713 131.397657-53.387496 1.961442 34.34453-137.620142-144.323747z"/><path d="m140.818828 115.925641 7.084564 20.131853 33.94222-24.680977-6.110659-11.169697z" fill="#a6391f"/><path d="m-14.67163 20.650008 142.621326 6.768244 6.385242 5.98325 59.952399-49.401502z"/><path d="m109.655141 36.129349 14.10527 48.147181-33.949697-100.27653-105.810714 34.988565z"/><path d="m157.382567 122.359414 4.498017 62.640586 109.119416-137.069846-5.739874-6.083334z"/><path d="m141.967323 26.027745-18.11532 24.576299 29.351932-10.824611 8.007156-10.706107z" fill="#d09e68"/><path d="m91.590309 60.931894-19.877947 16.206438-.576374-39.604168 86.360708 39.682028z" fill="#a52d1e"/><path d="m135.88818-16 135.11182 10.298345-10.342636 79.212623-82.882824-4.088786z"/><path d="m109.775916 96.450677-14.553027-10.011658 50.944082-20.456716-22.646418 22.499643z" fill="#d07562"/><path d="m213.743869 160.447873-11.929197-11.896308-4.241151-12.333367 29.785436-6.662416z" fill="#da9470"/><path d="m194.42904 185 8.931806-2.776058 30.909064-23.739301-24.221659-1.372282z"/><path d="m108.609582 71.179905 4.641796-3.934359-42.422574-.557269 3.114087 10.179065z" fill="#eea46d"/><path d="m99.520359 34.648047 2.639181 7.609712-13.679214.952585-13.461762-11.222457z" fill="#c2955e"/><path d="m127.74772 31.431743 15.709898 17.640298-40.155898-21.160663 28.091633-2.356935z" fill="#c6894d"/><path d="m120.399714 107.73846 23.778689 46.181083 10.042253-50.009301-26.754686-5.821272z" fill="#630a08"/><path d="m168.08554 185-81.675034-2.238115 116.130932-14.136002-3.343806-22.537843z" fill="#99281a"/><path d="m73.039069-16-89.039069 176.560607 113.493639 24.439393-31.418764-100.905585z"/><path d="m215.531603 129.318084 46.740471-145.318084-127.024813 201 66.872805-50.40636z"/><path d="m83.860454 138.501077 9.332887-36.61254 28.865168 32.109132-13.109812 18.295099z" fill="#943620"/><path d="m150.387824 102.939466 34.659864 5.994815-13.850517 13.490263-7.73681-5.822646z" fill="#b33f2d"/><path d="m243.572094 150.03244-12.329852 34.96756-6.636797-18.537028 39.691415 8.529704z" fill="#d1876b"/><path d="m158.360341 80.910045 29.495901-2.82639-18.309917 3.953083-25.915283 8.237957z" fill="#4e0000"/><path d="m164.369938 94.552982-9.425564-6.12257 16.309279-7.94109 1.537231 11.54705z" fill="#dfabb6"/><path d="m148.28259-16 122.71741 12.598104v151.456045l-107.011822-96.761707z"/><path d="m82.43136 77.688483 35.765086 63.430979 6.124753-6.578147-30.937371-62.352104z" fill="#4e0001"/><path d="m254.614486 178.478112-5.394171-51.335871-37.619033 22.821542 59.398718 6.514922z" fill="#af4a32"/><path d="m271 117.035203-92.297428-34.662368-14.667614 16.077376 40.003052 13.116847z"/><path d="m90.713153 83.669326-14.274478-7.679174-56.145745-91.990152 57.474241 201z"/><path d="m-16 151.542564 193.126411 33.457436 49.845052-189.06424-58.771057 156.621388z"/><path d="m177.642611 76.536487 10.496849-3.403885-46.05339-6.964973 29.435798-12.04368z" fill="#ecb08b"/><path d="m243.760344 171.211998-30.498082-35.108541 9.054133 26.851667.698319 3.507884z" fill="#8b1314"/><path d="m154.471054 83.024965-31.192819-6.8755-14.587778-52.025594-4.698852 2.777052z" fill="#c54434"/><path d="m86.333327-16 135.478929 43.390036-167.745588-1.771059 54.929583 11.140748z"/><path d="m239.044521 118.617958-11.998426-5.050256-9.441697 6.816547 12.707697 10.762452z" fill="#901b0f"/><path d="m162.055454 103.055532-17.39458 23.097793 8.269039 11.786966 12.709588-27.258743z" fill="#a9502b"/><path d="m106.46109 44.0898-34.415247 29.706741-4.446629-9.514638 2.950414-16.643609z" fill="#933823"/><path d="m163.421551 57.256911 1.994786-35.07965-15.897928 24.829735 40.687083-13.672246z"/><path d="m111.45349 53.627468 5.868605 24.494541 2.400517-2.792322-12.539589-57.105102z" fill="#490a08"/><path d="m101.702497 67.205141 5.308842 29.082835 20.51518-5.277508 3.416401 11.269487z" fill="#c18866"/><path d="m145.521944 75.718641 48.744322 7.526489-79.568525-3.112095 43.336729 16.376663z" fill="#9b2323"/><path d="m164.106503 144.050877 12.943843-33.576722-15.514113 6.567567-3.488773 28.827845z" fill="#0b0000"/><path d="m121.344101 92.21873-23.782397 12.816155 22.137611-1.817097 27.012251 4.989829z" fill="#130103"/><path d="m134.638451 114.351777-7.465892-30.557637 15.576428-.294905-20.888911 22.732906z" fill="#600f11"/><path d="m17.700175 47.425627 106.540717-26.245368 10.862439 11.887759 44.079713-49.068018z"/><path d="m116.886242 27.307602 20.451543 10.277974-3.838405 17.149756-4.331223-28.866238z" fill="#d1a470"/><path d="m132.847747 81.651613-13.598511-3.486653 17.299577-2.98453-11.191789 6.922147z" fill="#e09a93"/><path d="m252.342577 184.801473 12.887377-100.9415-14.96713 57.943596 10.322311 6.827481z" fill="#020000"/><path d="m172.520455 91.068044-16.209408 12.949445 45.797466-5.381238 2.960625-22.97869z"/><path d="m125.845314 121.72975-11.0787 31.666142-130.766614 16.159132 175.521007 6.041854z"/><path d="m171.421012 103.651133-25.590315-.346242 5.591765-5.315136 10.251175 19.205609z" fill="#c96044"/><path d="m87.348173 110.440699 26.959426 24.757876-1.278875 18.682706-23.473672-17.053381z" fill="#9d442b"/><path d="m112.185292 77.170455-2.806594-8.238193-19.268994-5.223978-16.398747 9.635363z" fill="#f0a871"/><path d="m-16 6.791653 117.803776 89.026128-76.223631 75.02493-25.433152 14.157289z" fill="#000001"/><path d="m189.486961 164.134556 37.54774-113.593941 43.965299 52.907609-118.696127 27.948111z"/><path d="m153.284002 42.237608-6.951374 19.56337-3.214149-7.766998-2.681374-4.26388z" fill="#b73327"/><path d="m170.214964 64.708484-9.74698 13.787245 24.489395-2.35668-.040254-4.687848z" fill="#feb573"/><path d="m151.648716 50.01225 16.783021 5.8725-19.107261 29.357956 15.455843-41.186575z" fill="#d78b6a"/><path d="m202.045279 151.241462 31.915836-15.707381-13.175964-8.370205-6.083896 27.265044z" fill="#d89270"/><path d="m233.107938 156.750188 20.189332 2.295514-1.932806 18.387829 4.426247 7.566469z" fill="#cd9270"/><path d="m183.600939 76.656689 5.467542.635302-2.10137 8.308522-13.573958-5.907264z" fill="#a22711"/><path d="m132.329255 108.667942 6.874345-4.241527 16.305148 53.190865.402156-38.69738z" fill="#8f311a"/><path d="m161.430542 34.028083-13.776209-8.539433-1.45827 22.058965 7.449118-15.089927z" fill="#d08e60"/><path d="m205.04984 158.307192 5.279175 21.685855-15.155048 5.006953 35.101774-25.049382z" fill="#050000"/><path d="m100.685738 18.425455 13.199643 12.144423 33.183148-46.569878-163.068529 17.607607z"/><path d="m-16-16 90.985474 199.739306-8.91997-137.014036 15.457793.927763z"/><path d="m220.11051 123.960446-38.125759-55.697707-8.445075-3.406822 37.476126-80.855917z"/><path d="m151.402623 42.357754 13.037999-14.582292 8.70045-14.174879-21.21624 38.937581z" fill="#090000"/><path d="m88.581153 157.047 13.641041-42.712714-21.899854 26.20093 8.456972-1.820144z" fill="#7a3416"/><path d="m244.754232 130.272457 2.294623-3.24509 4.317126 8.097087-1.562039 8.365047z" fill="#9b6f4b"/><path d="m100.668816 36.653837-9.627711 3.858489-6.455935-2.593341 3.201731-5.476256z" fill="#c49569"/><path d="m78.908587 65.946873 48.368025 24.109491.31908 22.73409 2.531935-15.872317z" fill="#c26346"/><path d="m244.227256 135.343496 14.362065 36.474978 6.089409-29.957658-33.607646 15.083666z" fill="#9f2e1c"/><path d="m125.946603 71.19896 3.813593-26.754747 2.719985 2.664413-28.771328-24.649773z" fill="#b74b24"/><path d="m.628148-16 111.962017 55.943209-18.351589-26.455007-62.976536 64.271009z"/><path d="m151.297017 84.303693 17.337056-4.212411-2.749738 3.450352-10.22033 1.188783z" fill="#320000"/><path d="m159.132485 62.170463-15.067059.124228-10.199444-12.485236 18.236652 27.724222z" fill="#cd9092"/><path d="m202.255347 149.940743 7.406942 10.832252 8.279614-4.825327-5.95847.099483z" fill="#9e3120"/><path d="m149.283079 102.78166 6.298699-6.868009-19.911655-10.115402 2.487454.873478z" fill="#c89085"/><path d="m237.871797 142.291317-.597771-6.474829-4.633043-4.861589 6.430568-16.215713z" fill="#63000b"/><path d="m121.858137 74.728743-14.089883-14.237075-6.270175-15.150068 34.937228 30.387747z" fill="#9e2324"/><path d="m203.127755 134.514349 23.189869-3.006037-25.258941 22.18999-.198515-21.417107z" fill="#c38363"/><path d="m150.974922 90.342741 20.054409-1.439041-4.458994 8.18658 7.359243-14.707929z" fill="#e6abad"/><path d="m170.657158 92.673423 2.618885-6.278528 81.079913-16.599375-44.979606 64.587297z"/><path d="m271 79.799707-36.072451-95.799707-20.769453 68.838044 28.937791 79.714455z"/><path d="m116.476388 101.847906 9.016774-9.859367-18.216039 6.141208 46.545434 86.870253z"/><path d="m155.632555 82.583149-12.333318 8.028111 20.714786-7.317092-13.636337.685319z" fill="#1f070c"/><path d="m225.09769 130.5485-6.88596 15.399259 18.411402 2.936183-.966171-15.981733z" fill="#bf6751"/><path d="m150.322008 63.02948 23.452186-5.555691 2.808777 20.328232 5.096335-1.295062z" fill="#efae83"/><path d="m95.003511 101.013399-5.30709 13.133678 19.806244 9.327996 3.384096-6.281657z" fill="#681d0e"/><path d="m154.006229 56.948729 1.42321-12.324945 5.502704.354257 3.656231 15.877802z" fill="#dd905e"/><path d="m69.914166 48.404493-3.206239 14.162502 7.800859 8.554847 6.956772-13.12234z" fill="#902f2a"/><path d="m171.781708 81.673341-1.043261 9.980141-8.491976 7.585685-2.120146-4.139233z" fill="#c6978e"/><path d="m101.078158 79.362424-24.499399-3.484883 13.088925-1.490458 3.411321 19.222858z" fill="#7a1611"/><path d="m204.483516 151.996498-6.91391-2.52454.82085-11.525605 17.458806-8.157849z" fill="#be8063"/><path d="m196.602317 153.324401 1.321096 14.179391-3.623908-2.002843-5.233514-11.78161z" fill="#8a3321"/><path d="m215.107324 185h-22.090058l-12.35158-20.169313 7.472674 1.170385z" fill="#a7321e"/><path d="m150.6394 125.854092-11.86777-22.805695 12.643279-1.901559 5.800504 12.592151z" fill="#7f1916"/><path d="m161.684119 82.566859-6.543833-11.433793 16.779006 3.114075-24.047233 3.829587z" fill="#ce4c34"/><path d="m209.123493 185-16.270837-22.159725-4.776441-17.13972-2.940092 14.108549z" fill="#260000"/><path d="m148.631183 100.743224 49.763079 2.399022 2.102371-38.990662-18.126062 31.918307z"/><path d="m164.943594 185 34.055694-41.543637-38.188932-19.54941-4.422431 8.469481z"/><path d="m132.876519 31.616231-10.817724-16.102941 102.188791 39.444693-18.338498-55.407349z"/><path d="m225.122215 163.301955 21.85442 20.477091-24.504119-7.814944 1.969638-9.606009z" fill="#b9554e"/><path d="m164.672326 125.276493 13.765407-6.723617.234122-11.626352-14.088465 13.335774z" fill="#5b0406"/><path d="m87.042686 47.501321-17.98382-7.013816 8.372727-8.412669 32.083649 35.01358z" fill="#872b11"/><path d="m-16 163.42899 60.486568-154.338487 44.136028 102.410232-14.548881 71.671464z"/><path d="m174.790933 77.609605 12.354656-5.265057-26.000592-11.997598-10.186887 3.707616z" fill="#f0b081"/><path d="m103.708632 119.284495-5.188377 32.328165-12.978006-.268038 24.458988-26.224735z" fill="#7f2411"/><path d="m213.289507 141.686412 1.202846-8.445809 3.681821 6.630448 19.100022 26.029089z" fill="#ab3626"/><path d="m149.234139 92.710954 6.355267-2.247968-22.225976-12.998288 34.059309 20.207962z" fill="#932d26"/><path d="m156.737508 128.16985-6.002573 3.350119 4.277953 11.762445-4.43444 1.988631z" fill="#a2532d"/><path d="m150.056396 100.971864-7.838446 2.111412 30.878503.247063 13.813796 9.85026z" fill="#a63e28"/><path d="m98.978731 67.249286 1.113918 23.855685 25.387096 2.325886-29.426804-21.847665z" fill="#ba7d57"/><path d="m112.993764 62.60986-17.548282 13.111992 14.429625 2.825829 1.356753-6.774921z" fill="#e4a786"/><path d="m155.289636 29.093907 5.925569 3.053697-16.037489-1.660903 10.796983-3.0184z" fill="#c08a65"/><path d="m108.035086 32.502619 2.941465 10.960782 2.15086-2.591236 2.475298 24.188488z" fill="#210600"/><path d="m96.722407 146.676814.005917-1.529145 16.526414 6.474776-1.896667-29.349945z" fill="#ac3b2f"/><path d="m129.956684 106.587775 6.700608-2.412285-6.206351-6.579322-1.416212 29.865613z" fill="#020000"/><path d="m133.93429 28.0169.063962 7.632998 28.93125-51.649898h-165.242227z"/><path d="m136.66847 140.266259 14.627991 16.933497 6.305796-20.255116 4.189252 12.434056z" fill="#560c03"/><path d="m148.516663 99.610421-6.618888 3.319865 5.644285-23.959004-15.299199 18.803685z" fill="#b04c40"/><path d="m121.046246 31.880735 15.479001 33.012549 17.725812 12.981532-25.770053-11.740782z" fill="#ca5e3e"/><path d="m170.955237 54.410903 4.748951 6.470932-8.79327-4.541077-22.481283-5.513708z" fill="#b64d36"/><path d="m84.58987 63.164085 18.288069 14.482286 6.414615-4.613315-28.647557-1.170324z" fill="#eaad76"/><path d="m233.871903 164.254727-15.912355-9.560776 7.632335 22.817192-25.991706-19.520216z" fill="#160000"/><path d="m9.035207 32.686773 89.793121 66.241623-91.978202 64.602714 67.373587-94.248394z"/><path d="m92.047084 154.914816 16.655062-7.00581.458884 37.090994-62.58468-71.232839z"/><path d="m138.521502 130.992739-19.848383-22.26773 11.553533 21.645327 57.18004 23.630206z" fill="#1f0100"/><path d="m80.075951 75.652763 2.571209 8.74774 3.708691 7.9966 8.977748-10.42247z" fill="#290000"/><path d="m94.555099 62.267525 7.212072 5.214966-27.168642 1.108502-1.894012 6.112356z" fill="#d48354"/><path d="m271 155.134866-45.881169-54.644904 45.881169-.769052-20.849603 42.832133z"/><path d="m168.178035 78.421045-21.629478 1.17594-22.241043 1.992426-7.490011 7.905694z" fill="#a92d28"/><path d="m186.809606 80.645357-19.16465 19.913736 7.649173-19.410686 12.907143 7.489036z" fill="#0b0000"/><path d="m100.689068 67.995291 4.461531-3.313052 15.759692-.161567-21.143023-5.736232z" fill="#99201c"/><path d="m120.88812 26.40533 5.814076.031555 12.492082 12.579327-25.70096-8.534674z" fill="#ca925c"/><path d="m221.722661 116.920532.94847.821628 14.498789-.427063-23.855802 16.843215z" fill="#9c3a21"/><path d="m180.20869 54.217932-16.852971-1.854234 6.051521-37.57127-14.534552 25.889852z"/><path d="m95.061543 51.040285-4.915933-18.865278-2.555281.544025 19.127902 4.272814z" fill="#a27a4d"/><path d="m13.760067 42.526102-10.981817-11.018526-18.77825 12.76811 20.493129 1.504784z" fill="#000b20"/><path d="m149.533765 93.542987 4.609537 1.928978 13.540687-14.654983-21.307638 23.069447z" fill="#cc9e9a"/><path d="m187.565664 182.444716-124.421266-20.447706 96.900053-8.852633.91466-36.629381z"/><path d="m128.857283 86.566855-.1991.835031 1.788952 6.201139 9.644919-8.883982z" fill="#51050a"/><path d="m248.330687 150.835085 7.39701-1.634125-11.722035-16.575171 7.317397 29.42129z" fill="#a55c3b"/><path d="m235.503774 185h19.726085l-1.355559-34.159558 15.13671 2.326972z" fill="#921c1b"/><path d="m116.837429 64.7679-5.082764-2.950655 6.103736 13.469355-4.973973-21.966625z" fill="#5e0810"/><path d="m86.676462 118.351615 21.134641 11.694608-25.046442 9.065497 13.40048-28.579057z" fill="#8b4524"/><path d="m142.047579 39.585758 12.882323 16.184709-14.846197-2.535633-2.935506-17.636957z" fill="#bc573a"/><path d="m147.186155 114.286517-6.564682.769656.271053-7.477965-3.072165.45983z" fill="#a75438"/><path d="m131.388657 75.0023-7.764949 3.996164 1.32736-.520753 7.351103 3.210615z" fill="#e09a96"/><path d="m155.577133 59.664523-1.099867-12.441186 6.68414-2.908402 3.50297 19.185402z" fill="#de9266"/><path d="m223.299499 149.125359 40.706508 2.053201-24.973377-8.053355-3.721042 19.755541z" fill="#a23622"/><path d="m219.831512 185 2.999024-17.466116-13.942708-6.356448-9.87054 23.822564z"/><path d="m201.861005 134.341734 22.990317-6.201447 8.437833 5.073832-28.22439 9.075753z" fill="#c38164"/><path d="m120.438319 76.7982 15.979091-1.911681-31.841471-46.581774 10.730767 16.946146z" fill="#b0312d"/><path d="m95.089804 109.641321 2.353784-25.265635-.556857 3.190771 14.03798 12.109417z" fill="#360503"/><path d="m107.022065 31.68008 8.713628 31.435406-6.184532-26.725157-125.551161-26.474912z" fill="#010301"/><path d="m149.54843 55.133971 45.468607-71.133971 21.280648 126.291883-60.182606-75.923887z"/><path d="m149.755653 102.001976 72.528454-1.101432-62.297102-1.508054-5.109246-1.634827z" fill="#030302"/><path d="m79.843866 76.937639 6.791058-.526817 13.508928 3.97974-7.938884-8.649902z" fill="#af3521"/><path d="m149.045991 99.141966 20.833734 13.59634 3.003983-5.668311-21.15878-.954204z" fill="#bf513a"/><path d="m118.411589 140.642879 12.831772-9.797412 22.213583 36.978551-53.313498 17.175982z"/><path d="m148.836091-9.748017-35.510656 39.944323-30.620437-36.94866-2.651757 41.960218z"/><path d="m154.843823 68.533655-13.843972 2.498446 5.100811-7.158691 17.896859-6.157777z" fill="#d8a19c"/><path d="m201.818731 134.46203 16.44107 20.20747-8.491374.853045 1.185867-18.021291z" fill="#de9a6e"/><path d="m121.576807 92.32031 4.377015 3.714074-2.305556 8.890793-16.935 1.781518z"/><path d="m152.702097 29.096565 4.805724-.181963.996109 6.053495-28.496939 11.146732z" fill="#c98659"/><path d="m213.040525 157.064884 19.709334 2.191616-.194118 25.7435 6.046352-14.680411z" fill="#4e0309"/><path d="m68.783878 66.989556 19.9205-8.589069-8.721072 12.051307-8.813938-25.057276z" fill="#9a352c"/><path d="m238.946627 116.883983-15.347103 9.035868 14.395146 9.53144 3.131112-3.514632z" fill="#700d10"/><path d="m271 3.838739-113.418242-12.051452 19.097828 75.671511 39.95411 6.408955z"/><path d="m89.801244 58.262052-14.187325-7.140026 31.170904-7.747727-4.494289 26.158553z" fill="#a54f2b"/><path d="m224.648262 152.462581.096541-14.975658-5.15628-6.906327-1.51002 2.343321z" fill="#cb8768"/><path d="m227.251224 165.041478 18.484442 19.958522 8.497103-23.978811-26.396801 20.575894z" fill="#ba8e77"/><path d="m129.09082 42.240571 9.889489 7.92952-.154804-19.359324.288081-1.473136z" fill="#cb9c70"/><path d="m245.025743 162.232824-12.151205-3.913815 18.048525-8.589862 4.182675-5.547162z" fill="#c86c47"/><path d="m149.709852 119.653925-18.75144-24.221675 15.152321 6.634096 2.427505-.083257z" fill="#731214"/><path d="m219.92325 123.192571 4.792048 6.472031 10.560706-7.965771-6.513649-8.842998z" fill="#973420"/><path d="m216.623736 155.028968 31.018982-25.803163 4.690125 4.66864-14.468206 6.228542z" fill="#a85037"/><path d="m155.743883 144.302001-8.643866 12.383138 9.101058-2.753754 4.457193-4.956258z" fill="#360001"/><path d="m110.913803 95.203714 11.689551-2.714065-7.590643-7.299279-10.21889 7.145309z" fill="#c18869"/><path d="m164.069238 91.741883 8.515006-8.162822-16.704452 3.338443-.614529 2.176429z" fill="#efabb3"/><path d="m30.236664 87.426006 16.717304 16.57-13.24367-1.658605-12.775629-13.708955z" fill="#010814"/><path d="m145.822671 54.352859-4.643761 10.074824 10.22951-2.319826-.96439-21.357984z" fill="#ba483a"/><path d="m151.146792 95.385309 9.457847 25.614536-13.405921 11.15215 13.560028-5.272112z" fill="#9f4c30"/><path d="m231.215152 107.777807-19.472561 23.164405-53.07729 15.548018 35.426482-48.793138z"/><path d="m189.283823 87.828377-18.273909-8.650184-33.635277 4.804278 41.285147-2.657232z" fill="#7b1317"/><path d="m180.593255 67.150097-15.149127 9.842881 9.416841 2.078748 2.163535-7.422769z" fill="#f0b77c"/><path d="m69.077006 74.510667 6.081345-7.966964-9.699415-8.002922 14.663849-.475734z" fill="#721c15"/><path d="m233.433026 147.727501-10.722813 1.94819 7.053049-4.241086 8.456297.369425z" fill="#bb7d5b"/><path d="m237.720577 84.098605 1.719992 44.610084 28.976301-8.618572-9.638503 32.86248z"/><path d="m198.280989 166.977768-.279856-7.173428-4.76152-3.475439-.828619 4.894167z" fill="#99472f"/><path d="m87.835298 110.734687 7.968687-22.322273-83.672023 91.102116 74.247604-46.277246z"/><path d="m113.711603 38.267817 14.064979-8.981319-17.891533 9.628963-2.996887-16.514569z" fill="#a35325"/><path d="m163.128058 54.369285 37.811315-13.451522 9.934512-56.917763h-37.184771z"/><path d="m92.157094 103.532752-4.595091 13.232243 14.405664 6.354073-.607357-2.192527z" fill="#783e1e"/><path d="m139.915032 15.80567-136.306002-25.204935 74.213144 47.083019-19.399263-.706674z"/><path d="m149.854721 95.108685 10.130146 3.084008-10.098744.526765-8.645651-9.685603z" fill="#cf9e96"/><path d="m74.025065 42.772175-83.585845 4.578211 65.372149 44.381609 18.250723-56.214173z"/><path d="m198.483367 173.299666 9.773957-19.463073-12.902748-2.588433 18.356182 33.75184z" fill="#590506"/><path d="m159.247014 108.767672 3.7216-3.078239.548664-1.121836-14.101085-3.724139z" fill="#c75f41"/><path d="m84.387494 75.115607 4.122395-4.776053-.130522-3.960257-9.296968 3.571296z" fill="#f4bd82"/><path d="m121.983972 126.984637-15.29493-27.799892 13.895537 44.944981 2.117339-10.18546z" fill="#2b0002"/><path d="m163.560231 112.792834-22.094529-3.557299-3.14562-2.401006-18.284542.689981z" fill="#8b2b20"/><path d="m118.565002 86.456604 11.041201 3.931325-2.21104 8.182818-18.600153-34.086088z" fill="#c65d57"/><path d="m114.44269 133.568981-.628631 19.064038-13.617026-7.162437 8.33703-13.195194z" fill="#a4392d"/><path d="m227.279235 122.300063-13.785771 13.159122 1.452495 2.822676 6.092901-20.682896z" fill="#a2472a"/><path d="m219.490841 160.874222 34.950691 24.125778-32.052233-22.965614 6.201366 17.383583z" fill="#7f1e1d"/><path d="m242.105139 142.020473-11.149464 3.170037 13.165357 39.80949-15.752258-46.351549z" fill="#ac3829"/><path d="m169.317574 60.799531-18.81803 18.14715-.635216 5.940967 10.63158-29.931333z" fill="#e19a7e"/><path d="m152.742826 151.677695-7.867927-1.151662-7.324445-11.298729.003552-2.000439z" fill="#691b0b"/><path d="m126.622352 41.882969-4.830349-11.137982-11.19641 6.501596 1.709371 7.598553z" fill="#b75625"/><path d="m166.877438 106.168316-7.096849 13.256528 17.395462-17.867942-23.794829 6.979172z" fill="#a73f29"/><path d="m142.117378 64.761318 16.164278-14.913362 3.118705 12.017557-11.058-3.20262z" fill="#d67f5e"/><path d="m154.123546 45.332128 64.584043-18.5984-45.337782-12.563271-16.616859 20.862191z"/><path d="m111.701366 84.692801-12.303968-1.063341 9.316369 13.974861-6.986368-5.579367z" fill="#a15e41"/><path d="m132.942615 31.441322 2.380691 10.06083-7.928824-15.711205-11.668862 2.840641z" fill="#c99867"/><path d="m237.995877 157.57053 8.808902 8.286809 3.208435 4.862514-2.177345 14.280147z" fill="#da926f"/><path d="m115.814192 58.363279-13.475591-17.143209-5.160969 11.613924-17.795762-16.52635z" fill="#9d5127"/><path d="m170.589843 91.668884-19.013049 3.131468 11.873216.80474-12.554978-2.777461z" fill="#a74939"/><path d="m191.38301 182.263928 37.885436.716946-48.005866-24.302838 11.073208-4.856763z" fill="#410606"/><path d="m127.289279 27.917173-5.183145 13.726863 25.162469 20.84612-12.491152 2.887548z" fill="#ca764b"/><path d="m153.268796 136.438705 92.980399-69.25393-7.611766 36.070875-63.973768 50.013361z"/><path d="m139.67589 73.382203 53.435199 8.50976-5.375279-2.263709-48.058045-1.178292z" fill="#b84b35"/><path d="m-16 .451296 285.103515-16.451296-136.564396 46.795166-13.69986-15.051506z"/><path d="m107.479332 124.198931 6.988258 22.265717 1.168574-18.957836-8.116991-6.612508z" fill="#8c1f1c"/><path d="m95.306363 98.116679 4.23923 8.245684 40.40437 5.947925-11.640316 5.578783z" fill="#210101"/><path d="m174.187051 112.347898-5.99305 13.465666-5.662374 2.348752 3.920781-15.46838z" fill="#420507"/><path d="m213.913165 151.302411 3.430339-2.459292-5.280772-4.239462-6.345888 7.191125z" fill="#e89d70"/><path d="m179.634642 108.864343-7.386088-15.093539 1.14632-8.734612 78.019142-.898603z"/><path d="m78.356458 37.306979-1.780733 11.782969 12.664411-2.09741-9.239111-8.223794z" fill="#7b240d"/><path d="m160.069685 169.976903 38.038812-21.636551-4.766008-8.245362-33.356365-17.67474z"/><path d="m137.893849 106.193978-53.77066-5.446465 40.611121 3.132663 6.022583 3.256838z" fill="#160401"/><path d="m131.663964 28.507333-11.113256 3.5923-7.133163-.564579 3.104909-3.707978z" fill="#be814d"/><path d="m168.403645 94.796679-7.849105 8.845348 50.368511-6.772127 42.951448-51.226361z"/><path d="m96.158075 74.186684 5.730364-3.987413-19.732701-8.404836 9.77217 1.426291z" fill="#d37344"/><path d="m84.06804 145.732589 7.005384-1.28009-3.402849-6.644011-2.437775.844426z" fill="#3b0500"/><path d="m119.047165 52.107812 25.959577 22.171934 5.982649-2.712596-22.258237-1.24963z" fill="#c04234"/><path d="m110.284502 87.858229 18.017178 4.608024 1.322754 9.452911-4.245929-10.957019z" fill="#b66f5e"/><path d="m145.673301 110.161912-2.965217-2.564428 1.108878 5.961936 5.541425-1.736998z" fill="#49070a"/><path d="m209.495913 160.263984-4.013981-9.148384-3.592886 33.8844h-3.64625z" fill="#440605"/><path d="m67.200401 40.250161 23.810122 10.833071 16.899943 11.847892-19.111162-16.116146z" fill="#882918"/><path d="m125.013082 92.641663-5.593427-2.345038-5.008761-20.507077-4.45569 12.277341z" fill="#d4674c"/><path d="m77.718252 76.136775 12.604717-11.375716 4.267079-1.617096-20.393649 11.672415z" fill="#db9d6b"/><path d="m251.398511 153.55716 4.044254 4.66876-2.905234 26.77408 18.462469-69.361751z" fill="#96231b"/><path d="m120.651927 57.104846-50.027199 7.286244-1.507687 1.282662 3.631008 1.868634z" fill="#ac3d2f"/><path d="m136.91214 74.38957 3.499316 4.534157-8.207431-2.418217-7.205031 2.646313z" fill="#d87d7f"/><path d="m186.255651 164.585099 30.116191 20.414901h-22.50943l-13.175804-18.163486z" fill="#902a1b"/><path d="m213.691195 140.908761-.177726-2.890532 5.920174 2.717496-.105941 17.222717z" fill="#bd412b"/><path d="m154.781803 127.539622-4.807433 18.293438 2.698931-1.473869-4.912133-19.190283z" fill="#a34a27"/><path d="m104.935967 72.294055-3.929023-1.879496.339815-3.042615 10.103409-1.244825z" fill="#eaae8e"/><path d="m151.958412 81.1145-3.899251 4.259476 3.113305.686823-2.320237-19.898326z" fill="#b46a64"/><path d="m215.591727 142.477567-10.564245-2.311314-7.286937 5.533931 1.899476 6.906322z" fill="#c06f50"/><path d="m100.710317 49.993574-.889645-15.307338 6.156118 10.796594-29.964425-13.297689z" fill="#ad6d40"/><path d="m187.33262 76.935304-2.190485 2.247622-2.153276 7.859454-1.347625-11.179654z" fill="#a94925"/><path d="m230.909994 161.418707-18.956061-.840645-11.316244 24.421938 21.247159-25.565743z"/><path d="m241.601362 145.901044-7.273834 1.426415-3.945391-.36864 5.202146 16.163446z" fill="#a44b2f"/><path d="m217.369407 142.728509 6.767586 6.851205-3.978892 1.100214 5.659081 23.033489z" fill="#841619"/><path d="m98.466159 117.740032-4.060375 2.92263-6.450691 13.556828.28761-20.1933z" fill="#904f2a"/><path d="m109.098298 26.704875 56.010425-42.704875 13.624759 26.139744-67.232742 18.926146z"/><path d="m158.738754 123.381756-21.094121 6.635193 8.434294 4.496098 3.803349-25.968582z" fill="#812610"/><path d="m160.546427 83.021723-14.706032 6.329106 5.895234-1.403143 1.976923-.342967z" fill="#1e080a"/><path d="m224.198433 118.258279 37.501405-69.00613-88.165665-10.907698 19.25626 49.986913z"/><path d="m229.656534 159.200793 28.046622 25.799207h-30.481799l8.531846-27.521789z" fill="#8c151c"/><path d="m140.482917 122.93975-11.521021.405406-1.124702-16.656434-5.084261 2.924973z" fill="#57080a"/><path d="m86.241792 35.206407 14.73793.092861-9.440836 6.32184-4.383159-3.654247z" fill="#bf8c61"/><path d="m147.331081 27.665367-.645465 5.043975-13.73279 33.698141 10.049205-37.909378z" fill="#b96943"/><path d="m159.77127 99.136559-28.162916-16.806537 28.717571 14.322334 2.772173-.724474z" fill="#a8483e"/><path d="m220.488649 79.811869-67.03601 22.733628 6.759798.189631 6.313421-.000639z" fill="#000100"/><path d="m144.247428 42.626309-2.68478 3.584265 15.691386-13.454265-2.571068-5.239473z" fill="#d28b5d"/><path d="m119.067961 73.351422-.915822-3.725515 11.688264 7.285946-11.115987-1.114971z" fill="#a3323f"/><path d="m117.806661 78.405051 9.150782-.814323-6.601585 1.656797-.762591 7.267007z" fill="#ce876b"/><path d="m152.60466 94.631291-8.49392-2.373852 6.585042 4.400973-.48063 4.829807z" fill="#deaba8"/><path d="m69.599217 49.212599-.74136 10.332885 16.258349-8.417678 6.226039-.818529z" fill="#9d4734"/><path d="m153.147464 28.431489-4.04699-1.844158 60.631151-13.184879-33.664679-19.501857z"/><path d="m263.25501 121.21828-31.045207-5.306996-75.795966-88.136452 107.145682-43.774832z"/><path d="m154.608857 41.750389-3.330185 34.572257 7.040559.787489-6.304336-8.480824z" fill="#d8857d"/><path d="m172.902768 78.494669-10.496011-10.043971 2.793276-3.972064 20.874675 8.486159z" fill="#f8b37a"/><path d="m172.441393 84.80299-24.211155 6.427276 11.993452-5.071207 13.926636-2.286342z" fill="#e699a0"/><path d="m117.73325 54.781543-10.060013-34.198444.961037 2.579547-2.887894 1.096573z" fill="#913d1e"/><path d="m151.395426 53.461479-.214451-8.052097 4.575281-12.348763-12.949515 28.962467z" fill="#a73328"/><path d="m104.383506 86.999771 3.419188-21.727859-4.269976 27.633954 22.01683-.613584z" fill="#c08969"/><path d="m100.462664 148.873154-18.475356 17.816172-.157427-14.481358 57.407986 10.891756z" fill="#020100"/></g></svg>