<svg height="680" width="1024" xmlns="http://www.w3.org/2000/svg"><path d="m0 0h1024v680h-1024z" fill="#ae994d"/><g transform="matrix(4 0 0 4 2 2)"><g fill-opacity=".501961"><ellipse fill="#383d0c" rx="1" ry="1" transform="matrix(44.80495427 -37.34228387 33.39120126 40.06426739 233.298432 130.095507)"/><ellipse fill="#e3c975" rx="1" ry="1" transform="matrix(116.78483188 -18.38615674 4.40924309 28.00654432 106.841714 41.337679)"/><ellipse fill="#eabe3d" rx="1" ry="1" transform="matrix(166.94649939 106.83928231 -28.21100115 44.0823617 78.229727 169)"/><ellipse fill="#636a00" rx="1" ry="1" transform="matrix(67.53661832 29.64845832 -4.25595593 9.69469872 141.119253 132.251395)"/><path d="m-.5-.5h1v1h-1z" fill="#3d2816" transform="matrix(5.55506239 18.16979036 -53.55306633 16.37281546 239 46)"/><path d="m211 106-19 37 41 3z" fill="#0f0d00"/><ellipse fill="#a3957f" rx="1" ry="1" transform="matrix(-11.12579225 25.02518014 -53.68139715 -23.86588505 140.539575 89.917782)"/><path d="m118 84-22-14 40-11z" fill="#4b3513"/><ellipse cx="167" cy="135" fill="#645c07" rx="40" ry="13"/><path d="m230.770841 146.905643-5.490063 6.112545-59.351091 15.542511-69.413262-14.745143z" fill="#d2c24f"/><ellipse fill="#e1c05e" rx="1" ry="1" transform="matrix(15.80894504 11.41683086 -26.04648204 36.06669908 56.826682 72.218898)"/><ellipse fill="#928575" rx="1" ry="1" transform="matrix(.67520287 15.64749098 -73.35912151 3.16551 216.055251 69.405286)"/><path d="m245 155-31 8 49 6z" fill="#ded243"/><ellipse cx="108" fill="#c9b96e" rx="67" ry="67"/><ellipse cx="7" cy="122" fill="#b79839" rx="27" ry="102"/><path d="m219 118h31v16h-31z" fill="#b29364"/><ellipse fill="#555a12" rx="1" ry="1" transform="matrix(12.07486741 -4.56538037 18.33389324 48.49088399 254.009872 0)"/><path d="m271 152-60 5 44-24z" fill="#304900"/><ellipse cx="168" cy="105" fill="#c9c3a5" rx="25" ry="7"/><path d="m190 75 34-48-95 3z" fill="#dcbb79"/><path d="m177 159-21 7 36-1z" fill="#d8e7d9"/><path d="m160.515159 145.936781 22.377544-5.96229 4.163154 8.36976 39.932435 36.655749z" fill="#5f9300"/><path d="m163 61 48 29-51-2z" fill="#796035"/><path d="m168 162-165-98 76 99z" fill="#dfbb50"/><path d="m129.506486 68.131774-5.848161 45.251782 37.23703-52.150492-1.842681-21.844934z" fill="#c4b78f"/><ellipse fill="#ebe5d3" rx="1" ry="1" transform="matrix(27.77044517 -17.47389089 .82449145 1.31032607 85.283638 67.646617)"/><path d="m204 133-32-78 8 68z" fill="#ae9868"/><path d="m216 76h40v45h-40z" fill="#745f48"/><ellipse fill="#cead7b" rx="1" ry="1" transform="matrix(-43.28220869 -7.32601555 .93115909 -5.50130175 100.038955 91.501924)"/><path d="m187.601803 147.693583-15.995193-8.528642-5.859288 3.425489 16.710885 6.388866z" fill="#c6e026"/><path d="m-.5-.5h1v1h-1z" fill="#6c5e3a" transform="matrix(.48829532 -6.98294835 26.93422936 1.88342479 152 169)"/><path d="m245 32-47-48-150 19z" fill="#b1a862"/><path d="m198.639502 35.926657-4.575705-2.022802-62.087839 15.261393 73.812352-24.847611z" fill="#efe1a5"/><ellipse fill="#090e06" rx="1" ry="1" transform="matrix(4.52711757 -1.06945037 3.91033712 16.55294749 212.736069 128.537768)"/><ellipse rx="1" ry="1" transform="matrix(-5.20779131 .5147296 -.30351248 -3.07079612 114.501089 72.408739)"/><ellipse fill="#cbae4f" rx="1" ry="1" transform="matrix(-23.99285348 -5.09584918 10.84196907 -51.04738506 38.590217 68.280974)"/><path d="m202.146874 179.183792-13.51782-18.745174 16.129614 4.920246 61.07366-38.545188z" fill="#3f5900"/><path d="m93 80h-22l34-23z" fill="#9b7f20"/><ellipse fill="#4d3a17" rx="1" ry="1" transform="matrix(-17.89283939 6.35342919 -1.63754233 -4.61172714 231.938175 47.571463)"/><path d="m159 63h13v7h-13z" fill="#26323e"/><ellipse fill="#746407" rx="1" ry="1" transform="matrix(-1.54389041 3.90524663 -20.57427318 -8.13378155 91.566879 112.228987)"/><path d="m99.703089 106.318091 26.393619 37.025766-1.373414-2.703827 17.382082-30.989208z" fill="#807637"/><ellipse fill="#c5c294" rx="1" ry="1" transform="matrix(-22.70355356 3.41477805 -.27979041 -1.86021943 219.049554 69.94265)"/><path d="m100 101h24v9h-24z" fill="#ccb781"/><path d="m193 149-28-25 51 20z" fill="#524509"/><path d="m259.729232 30.617426 11.270768 4.037538-58.469352 11.344062-2.084417-6.330073z" fill="#a77a13"/><path d="m-.5-.5h1v1h-1z" fill="#a7b856" transform="matrix(-16.03811744 -8.171829 1.3619715 -2.67301957 206 161)"/><path d="m200 115 14-36-28 8z" fill="#7c5f2c"/><path d="m185 167h62v3h-62z" fill="#486d00"/><path d="m126.896098 123.850115 26.128623-31.870333-48.993654-11.524789 50.82837 48.071962z" fill="#b0a170"/><path d="m246 135 11 38 14-72z" fill="#608c00"/><ellipse fill="#ae8f63" rx="1" ry="1" transform="matrix(22.14546824 -5.55805926 1.75650718 6.99860728 184.156103 52.174553)"/><path d="m-.5-.5h1v1h-1z" fill="#cda341" transform="matrix(-12.58005852 8.16958553 -3.81247325 -5.87069398 238 159)"/><path d="m224.648532 148.042903 44.873246 14.229217-38.103254-22.750266 4.930701-5.236657z" fill="#44300a"/><ellipse cx="211" cy="151" fill="#d1ae42" rx="7" ry="7"/><path d="m-.5-.5h1v1h-1z" fill="#605136" transform="matrix(-.31401574 5.99177721 -8.98766581 -.47102361 148 69)"/><ellipse fill="#b0902d" rx="1" ry="1" transform="matrix(-29.91165264 -70.69123553 16.30025516 -6.89714314 0 150.06408)"/><ellipse cx="255" cy="59" fill="#91947f" rx="18" ry="12"/><path d="m204.349768 61.009858 50.513989.541948-81.881572 6.123243 35.613027-14.252618z" fill="#b2aa8e"/><path d="m165 37-14 21-15-3z" fill="#f3daa2"/><path d="m149.104376 146.532121-48.471728-2.578794-43.786195 41.046673 120.539812-29.787008z" fill="#dab345"/><ellipse fill="#8e874b" rx="1" ry="1" transform="matrix(-10.49064167 -10.8551826 45.33637089 -43.81387575 8.778075 2.651497)"/><path d="m254.556309 29.667117-45.320222 3.458721-53.199089 10.060969 3.399359 8.676726z" fill="#e6b851"/><ellipse cx="238" cy="124" fill="#caad70" rx="6" ry="6"/><path d="m105 69 8 15-14-9z" fill="#7d5823"/><path d="m209.201614 122.513525-10.491209 13.527177-7.649522-22.644023-38.484875 16.207074z" fill="#84723b"/><ellipse cx="109" cy="41" fill="#d6bb5f" rx="45" ry="15"/><ellipse fill="#af9f56" rx="1" ry="1" transform="matrix(13.15088573 12.6157127 -32.35181804 33.72421935 33.742636 18.783018)"/><path d="m123.557767 117.185814-57.397776-18.454902 32.404857 18.771974 35.686103 26.616231z" fill="#756b16"/><path d="m62.531383 90.421328-6.099994-.251829 1.553224-7.378232 12.445688-9.593886z" fill="#ebd3a2"/><path d="m271 72-29-2 6 38z" fill="#787050"/><path d="m170.763833 90.694959-10.883677 4.161496-3.581473-14.720008 30.4824-15.56848z" fill="#9b7b3b"/><path d="m109 99-11 12-36-23z" fill="#a88333"/><path d="m-.5-.5h1v1h-1z" fill="#e0bc4f" transform="matrix(13.1511344 -26.96382139 23.3686452 11.39764982 93 134)"/><path d="m189 150 15 15-20-6z" fill="#3c6b00"/><ellipse cx="188" cy="73" fill="#aea069" rx="49" ry="5"/><path d="m179 141-15-3 6 5z" fill="#d0e031"/><path d="m138 101 22 17 27-30z" fill="#baaf8f"/><path d="m138 134h25v12h-25z" fill="#615900"/><path d="m117 50 5 29 13 3z" fill="#97754e"/><path d="m130.180332 62.736219 36.54733 16.613735-50.334575 8.520411 34.625495 12.845738z" fill="#b6b082"/><path d="m184.376072 111.8562-63.418023 20.131196 5.32984-26.820766 28.650246 25.638057z" fill="#8f8449"/><path d="m259.882292 119.687477-11.670852 11.087219-13.765042-8.258501 13.124924 2.869032z" fill="#b8ac66"/><path d="m117 51 23 6-41 13z" fill="#ae987d"/><path d="m222 67h34v3h-34z" fill="#c3c7a7"/><path d="m230.939334-16 33.040765 59.826696-15.046733-16.380728-62.487206-8.366454z" fill="#a2974d"/><path d="m79 72 12-14 13-2z" fill="#e5ead9"/><path d="m153 162h38v6h-38z" fill="#c3c08c"/><path d="m-.5-.5h1v1h-1z" fill="#8c8355" transform="matrix(-2.28970794 -11.7795262 17.6692893 -3.43456192 226 105)"/><path d="m222 140-9-40 12 17z" fill="#685a25"/><path d="m203 26h23v9h-23z" fill="#daca88"/><path d="m210.997999 62.094113 23.640757-2.227198 22.529423 1.431569-50.711559-13.538585z" fill="#7c694c"/><path d="m209.454151 97.346613 2.504404 6.181547 5.44606 13.698388-17.837476 3.135528z" fill="#46380f"/><path d="m202.770881 148.575778 10.557068-24.125025-32.02802 18.437538 12.73002 8.750501z" fill="#4b4110"/><ellipse fill="#1d2912" rx="1" ry="1" transform="matrix(-2.54089272 3.56737218 -3.86238247 -2.75101644 112.77647 72.053202)"/><path d="m246.409178 45.995022 4.6225-18.53607 15.024122 2.782016 4.9442-1.791502z" fill="#6c6213"/><ellipse cx="126" cy="19" fill="#c1af61" rx="78" ry="16"/><path d="m-.5-.5h1v1h-1z" fill="#8fc72d" transform="matrix(.17364818 -.98480775 49.24038765 8.68240888 223 165)"/><path d="m84 86 13-16 5 24z" fill="#c4b379"/><path d="m113.185929 36.856292-66.421881 33.750877 43.553325 64.697689-46.963266-38.338315z" fill="#dcbd5a"/><ellipse fill="#87641d" rx="1" ry="1" transform="matrix(8.6885933 1.71098367 -.72106927 3.66168171 168.675622 82.825229)"/><path d="m184 143 20-15-47 1z" fill="#6d5f19"/><path d="m191 166h46v3h-46z" fill="#406400"/><path d="m193 151h15v4h-15z" fill="#d3b869"/><path d="m125 51 36 16-4-13z" fill="#d2bd8a"/><path d="m196.316624 161.290801-10.586052-8.063485-25.617306-19.546097 6.668144 20.326882z" fill="#91a100"/><path d="m143 169h81v1h-81z" fill="#847c28"/><path d="m251.455733 153.406291 19.544267 31.593709-31.361756-32.384786-22.50055 12.445335z" fill="#9b9026"/><path d="m218.405882 141.610389-6.086017-34.368753-.474743.043229-3.790574 34.977896z" fill="#111608"/><path d="m126.584882 82.739063 33.081303-14.601408-9.978028 12.742193 36.257981 17.917666z" fill="#a79360"/><path d="m-.5-.5h1v1h-1z" fill="#e1e3da" transform="matrix(-9.33580426 3.5836795 -1.4334718 -3.73432171 178 162)"/><path d="m161.704884 58.113076 10.789735 6.731909-5.254796-7.526481 1.634963-8.25163z" fill="#b68825"/><path d="m236.811645 155.999241 2.868525-14.534156-6.278457 9.121553-29.786759 12.778201z" fill="#384700"/><ellipse fill="#5c2e11" rx="1" ry="1" transform="matrix(-.09289107 -.99567628 15.05728178 -1.40476075 224.047614 91.805028)"/><ellipse fill="#d7b345" rx="1" ry="1" transform="matrix(37.02818723 4.82353289 -.77886304 5.97899652 140.203364 151.702741)"/><path d="m-.5-.5h1v1h-1z" fill="#c5b590" transform="matrix(15.16005457 -52.86939328 1.92252339 .55127471 184 80)"/><path d="m105 56h3v26h-3z" fill="#845e34"/><path d="m151.755789 74.442584 30.114011-3.676375 13.562285 20.472815 18.503217-5.748245z" fill="#8c7747"/><path d="m127.782558 67.839495 42.280836-26.597307-5.108006 14.542463-1.578431-4.701755z" fill="#c99f56"/><path d="m-.5-.5h1v1h-1z" fill="#836b3e" transform="matrix(1.85410197 -5.7063391 25.67852594 8.34345885 235 135)"/><path d="m195 50 16-6-10 12z" fill="#99815b"/><path d="m228 64h21v2h-21z" fill="#6f5333"/><path d="m136.777875 80.634067-35.884558 14.139084 2.651105-29.521566-7.993363 19.312258z" fill="#bca562"/><path d="m-.5-.5h1v1h-1z" fill="#fabe3a" transform="matrix(-24.45369002 5.19779227 -1.24747014 -5.8688856 171 43)"/><path d="m118 48-5 17h-11z" fill="#cbb38e"/><path d="m233 77h10v2h-10z" fill="#361b00"/><path d="m204.363149 25.912021-23.587348 13.577132-1.020022-1.546086 12.36555-7.919486z" fill="#ebdebd"/><path d="m107 105h12v2h-12z" fill="#e3e1cc"/><path d="m-.5-.5h1v1h-1z" fill="#efe6b6" transform="matrix(18.36861673 -13.84174553 1.80544507 2.39590653 157 44)"/><ellipse fill="#c3a139" rx="1" ry="1" transform="matrix(19.71289289 29.89424806 -12.330531 8.13101024 31.745573 156.788876)"/><path d="m247 23h3v11h-3z" fill="#d7c482"/><path d="m184.231666 145.33619 27.626777 20.67837-11.604394-7.270707-35.000681-22.54619z" fill="#a2ab46"/><path d="m160.938623 143.230898 22.742104 4.276861-20.194614 2.106939 5.821931-.090649z" fill="#5f6500"/><path d="m117 96h13v2h-13z" fill="#886238"/><path d="m199.533478 95.387783-11.508892 9.435159-32.200523-21.617861 42.111698 19.753597z" fill="#a88e58"/><path d="m187.699145 107.866883-16.321325 3.440035 8.852112 10.605857 24.074969 4.576816z" fill="#a28d55"/><ellipse fill="#bca046" rx="1" ry="1" transform="matrix(3.00251979 -32.29136709 13.20165421 1.2275178 6.430266 70.057709)"/><ellipse cx="133" cy="103" fill="#d2ccab" rx="29" ry="1"/><ellipse cx="232" cy="84" fill="#5a2903" rx="8" ry="2"/><path d="m225 42h20v10h-20z" fill="#4f3c1b"/><path d="m-.5-.5h1v1h-1z" fill="#9f7f50" transform="matrix(46.54259923 6.54113575 -.1391731 .99026807 130 98)"/><path d="m211.128835 153.346751 14.933604-1.267714-8.424761-6.743719-26.360439 6.041552z" fill="#bf9d3c"/><path d="m133.532886 64.090843-15.664874-16.131885 25.303816 16.596943-34.953898 17.039967z" fill="#a29463"/><path d="m202.752209 101.70644-13.796712-14.400317-2.801844-2.60576 6.300154-5.92482z" fill="#6c5836"/><ellipse fill="#d5be63" rx="1" ry="1" transform="matrix(-17.24248435 -5.45271431 3.70063311 -11.70208172 131.243456 42.831881)"/><ellipse fill="#302e00" rx="1" ry="1" transform="matrix(.39340037 -1.31146457 26.26801851 7.87962437 235.279052 148.607098)"/><path d="m127.906511 129.167543 20.842036-22.553088-5.467754-45.545509 11.068246 55.988385z" fill="#a9a377"/><path d="m112 39-61 18 36 6z" fill="#d8bc60"/><path d="m-.5-.5h1v1h-1z" fill="#78632f" transform="matrix(.58474341 1.91260951 -10.51935232 3.21608875 208 68)"/><path d="m236.467493 89.67252-10.579682 9.208263 20.644857-2.412449-6.799679 12.961739z" fill="#614326"/><path d="m252.599924 109.680176-32.954617-1.961777-3.332842-8.189468.545453 34.118246z" fill="#716333"/><ellipse cx="138" cy="71" fill="#bfc8aa" rx="7" ry="4"/><path d="m170 145-35-23 9 18z" fill="#675907"/><path d="m115 108h22v2h-22z" fill="#877330"/><ellipse fill="#b09855" rx="1" ry="1" transform="matrix(.27705012 -1.94041434 21.48737928 3.06794324 152.179801 165.843062)"/><ellipse fill="#6c3c11" rx="1" ry="1" transform="matrix(5.16641165 -3.26075813 .53373102 .8456543 126.502607 65.579611)"/><path d="m-.5-.5h1v1h-1z" fill="#ab9878" transform="matrix(17.39739577 19.32176546 -1.48628965 1.33826121 179 79)"/><path d="m-.5-.5h1v1h-1z" fill="#5d3221" transform="matrix(14.09538931 5.13030215 -.34202014 .93969262 255 74)"/><path d="m-.5-.5h1v1h-1z" fill="#e3cbad" transform="matrix(20.37621025 5.08035981 -.2419219 .97029573 88 89)"/><path d="m143 119 5 29-14-16z" fill="#756c1b"/><path d="m241.611782 8.575574 3.282284-18.716534 26.105934 56.865956-39.425389-62.724996z" fill="#6e6925"/><path d="m196.399333 114.064677-4.76961-8.543667 14.303827 8.465754-4.509186 6.285123z" fill="#755d06"/><path d="m254 58h2v3h-2z" fill="#591305"/><path d="m114.305613 98.344106-42.980571-10.412496 7.14999 3.981373 3.680438.59471z" fill="#c8b48e"/><path d="m202.565376 162.304463 29.236767 1.165589 33.325998 5.772899-47.148544-4.736424z" fill="#acb359"/><path d="m90.990456 102.364668 1.000783-6.736106-7.669702-6.835511-.30652 23.710603z" fill="#977326"/><ellipse fill="#b6b92d" rx="1" ry="1" transform="matrix(.36036833 -1.65365018 6.92933691 1.51006155 166.638983 139.253867)"/><path d="m226.542153-16-23.981884 48.299655 15.650413-9.958161-72.643683-13.137446z" fill="#b2a45c"/><path d="m26 73h33v52h-33z" fill="#d3b34e"/><path d="m-.5-.5h1v1h-1z" fill="#0d0c02" transform="matrix(7.94652834 -4.22524407 2.34735781 4.41473796 208 119)"/><path d="m220.479108 162.856669-17.04078-1.225316 36.270102-10.895901 1.306064.591466z" fill="#405202"/><path d="m-.5-.5h1v1h-1z" fill="#5d3f14" transform="matrix(5.99634496 .20939698 -.10469849 2.99817248 124 77)"/><path d="m-.5-.5h1v1h-1z" fill="#5c350b" transform="matrix(.2419219 -.97029573 27.16828034 6.77381308 255 80)"/><path d="m223 168h26v2h-26z" fill="#346300"/><ellipse fill="#968e5c" rx="1" ry="1" transform="matrix(.18993552 .98179657 -20.48150659 3.96229285 214.624425 82.973685)"/><path d="m-.5-.5h1v1h-1z" fill="#3e7100" transform="matrix(.17364818 -.98480775 53.17961866 9.37700159 215 166)"/><path d="m236.829762 143.867319 10.510446-19.806845-3.709004 9.785159 6.330059 23.59584z" fill="#5c4727"/><path d="m151 103-31-20h14z" fill="#c4bb92"/><path d="m200 49 6-14-3-11z" fill="#e0cc8e"/><path d="m182 72 6-13 28-3z" fill="#c6ac87"/><path d="m-.5-.5h1v1h-1z" fill="#e1e6cd" transform="matrix(-4.14518786 2.79596452 -.5591929 -.82903757 111 93)"/><ellipse cx="105" cy="57" fill="#954f01" rx="2" ry="2"/><path d="m-.5-.5h1v1h-1z" fill="#b8bf9b" transform="matrix(-16.91446717 -6.15636258 1.02606043 -2.81907786 255 64)"/><ellipse cx="165" cy="88" fill="#dbd591" rx="2" ry="2"/><path d="m178 77 4-11 2 10z" fill="#8e6d18"/><path d="m-.5-.5h1v1h-1z" fill="#594d2f" transform="matrix(20.57201522 -12.3609138 3.09022845 5.1430038 249 109)"/><path d="m270.9428 9.762058-31.598037 31.456961 4.543028-25.682106-12.273077 24.473947z" fill="#b89e4a"/><path d="m159.494113 163.581945-100.018615-5.785278 22.894966-45.04849 61.136833 35.712149z" fill="#d8b54a"/><path d="m-.5-.5h1v1h-1z" fill="#868d6d" transform="matrix(-.44990211 1.94874013 -40.92354272 -9.44794428 255 84)"/><path d="m238.274502 98.48472 1.288382-1.023514-23.298098 3.381049-2.270312 2.756703z" fill="#948663"/><path d="m148.293094 129.545556 37.849369-8.307321-3.20349 13.925435-27.081843-20.715858z" fill="#86743a"/><path d="m182 95-11 12-1 15z" fill="#bdbea0"/><ellipse fill="#cfac42" rx="1" ry="1" transform="matrix(-35.42857745 -34.6639937 9.53220574 -9.74245761 49.159979 134.947115)"/><path d="m166 80h4v12h-4z" fill="#91690e"/><path d="m-.5-.5h1v1h-1z" fill="#32301c" transform="matrix(1.69047305 -3.62523115 2.71892336 1.26785479 119 69)"/><path d="m-.5-.5h1v1h-1z" fill="#b3b28f" transform="matrix(.1391731 .99026807 -27.72750592 3.89684683 170 115)"/><path d="m-.5-.5h1v1h-1z" fill="#ab7c39" transform="matrix(.20791169 -.9781476 18.58480441 3.95032213 98 93)"/><ellipse fill="#b9ab6a" rx="1" ry="1" transform="matrix(.43896407 7.84163731 -54.72990708 3.06370489 108.086629 6.150375)"/><ellipse fill="#557600" rx="1" ry="1" transform="matrix(6.37211236 1.06230023 -1.9446516 11.66481763 253.894816 139.305316)"/><path d="m82 73-3 9h-11z" fill="#a86d28"/><path d="m183 73h41v4h-41z" fill="#bfac71"/><ellipse fill="#6e6909" rx="1" ry="1" transform="matrix(-24.07084926 -6.85752395 .65744232 -2.30771268 99.042879 114.23964)"/><path d="m-.5-.5h1v1h-1z" fill="#2a2e31" transform="matrix(9.52627944 5.5 -2 3.46410162 167 67)"/><ellipse cx="151" cy="68" fill="#675642" rx="3" ry="3"/><path d="m65.331408 81.754406-1.842699 4.847805-4.958704.824264 5.298333-10.225218z" fill="#e3d7be"/><path d="m257.053082 126.568639-17.309987-12.532629-21.696739 18.362821 5.556695-13.229465z" fill="#8a7a3f"/><path d="m215 123 11 19 8-5z" fill="#695823"/><path d="m221.364151 37.112851-5.566544 16.606578-3.818745-10.961063-35.504877 27.444252z" fill="#9f824d"/><path d="m-.5-.5h1v1h-1z" fill="#815518" transform="matrix(-17.38666487 4.65874281 -.25881905 -.96592583 210 81)"/><ellipse fill="#c4c5a9" rx="1" ry="1" transform="matrix(-14.19954057 3.12155136 -.21470776 -.97667834 168.13834 105.02073)"/><ellipse cx="127" cy="61" fill="#a5874e" rx="20" ry="1"/><path d="m210 46h24v9h-24z" fill="#5d4c2d"/><path d="m91.909586 114.622811-21.435926-10.621042-2.357231-3.372588-7.184164-8.281489z" fill="#867112"/><path d="m78 23h94l-25 26z" fill="#cdb862"/><path d="m270.918534 95.989229-21.222852-14.082228.878525 27.168162-13.431432-7.30537z" fill="#837a51"/><path d="m68.794681 93.4116-7.987601-.556226 11.186496-18.638387 2.441633 28.369505z" fill="#c59f61"/><path d="m-.5-.5h1v1h-1z" fill="#7f6339" transform="matrix(.62932039 .77714596 -7.77145961 6.29320391 198 69)"/><path d="m223.131345 58.702705 9.498117 22.375265-6.741386-8.096743 27.576814 5.50924z" fill="#9a956f"/><path d="m240 40-10-4-5 6z" fill="#8d5c00"/><path d="m83.404907 87.380065 16.133062-13.473392 28.596358 4.401768-42.706789-1.265441z" fill="#928756"/><path d="m-.5-.5h1v1h-1z" fill="#e1dec9" transform="matrix(.74314483 .66913061 -10.0369591 11.14717238 214 31)"/><path d="m246.834943 25.785698-7.638177-41.785698-53.78037 12.71064 50.482312 11.895967z" fill="#98904f"/><path d="m120.816908 176.179874 87.993919-9.392585-15.059522-7.098256 4.728094 25.310967z" fill="#425b00"/><ellipse cx="154" cy="57" fill="#f7eed9" rx="2" ry="2"/><path d="m207.534552 154.753612-11.858508 26.974192 11.36473-3.390035-7.501813-23.166506z" fill="#9f9247"/><path d="m-.5-.5h1v1h-1z" fill="#654d00" transform="matrix(.66913061 -.74314483 9.66088273 8.69869788 122 134)"/><path d="m71 106 2 23 44 2z" fill="#debb52"/><ellipse fill="#6c4f24" rx="1" ry="1" transform="matrix(-.27948466 2.09599151 -7.58459622 -1.0113487 110.731497 80.28183)"/><path d="m217 87h32v2h-32z" fill="#7d7d60"/><path d="m253 152h3v5h-3z" fill="#110f00"/><path d="m123.88275 130.84938-23.085239-13.315483 22.229956 8.03182 28.47337-24.153961z" fill="#837d37"/><path d="m214 168-19 17 76-7z" fill="#d8a941"/><path d="m-.5-.5h1v1h-1z" fill="#d2d7bf" transform="matrix(-8.22190912 -3.66062979 .40673664 -.91354546 182 161)"/><path d="m183 150h6v10h-6z" fill="#4f8600"/><path d="m199.598266 143.762742 35.845797 2.16968-7.008152-2.94786-9.877133-7.844833z" fill="#2d2f00"/><path d="m-.5-.5h1v1h-1z" fill="#573e18" transform="matrix(24.14814566 6.47047613 -.25881905 .96592583 255 94)"/><path d="m-.5-.5h1v1h-1z" fill="#8b7f5f" transform="matrix(-.22495105 -.97437006 26.30799175 -6.07367847 220 95)"/><path d="m171 54h31v3h-31z" fill="#9a845f"/><path d="m245 58-15-9 3 9z" fill="#715f49"/><ellipse cx="186" cy="57" fill="#ceb891" rx="2" ry="13"/><path d="m193.773423 168.782248-.389286-5.004145-40.449577 10.470976 22.80011-10.614528z" fill="#a8b85e"/><path d="m-.5-.5h1v1h-1z" fill="#84672a" transform="matrix(-.22495105 .97437006 -34.10295227 -7.8732869 152 169)"/><ellipse fill="#bca85b" rx="1" ry="1" transform="matrix(-3.29946398 -12.0241153 25.93013792 -7.11533063 48.96477 23.323069)"/><path d="m160 145h5v2h-5z" fill="#bbb800"/><path d="m266.6433 182.004147 3.251125 2.995853-28.67019-32.900339-6.54509 6.265556z" fill="#b19a38"/><path d="m166 111h15v10h-15z" fill="#a1905c"/><path d="m-.5-.5h1v1h-1z" fill="#605b12" transform="matrix(-21.64994796 -24.90541615 .75470958 -.65605903 124 129)"/><path d="m177.465944 37.071523 12.800675-1.247581 11.609983-6.224809-3.479658-3.044528z" fill="#e6d7ac"/><path d="m187.577333 87.585628-6.1794.413937 28.893229 26.911263-17.135339-22.498288z" fill="#87753f"/><ellipse fill="#cba223" rx="1" ry="1" transform="matrix(-.70750385 -.70670949 6.52672078 -6.53405701 97.282225 64.134009)"/><path d="m-.5-.5h1v1h-1z" fill="#8a680e" transform="matrix(-4.22618262 9.06307787 -.90630779 -.42261826 183 68)"/><path d="m223 33 9-9-7 18z" fill="#ba9f4c"/><path d="m220 73h27v1h-27z" fill="#b8bd95"/><path d="m212.86162 30.847571 4.122887-28.827422-16.064769 34.040861 22.992803-23.92813z" fill="#b7a651"/><ellipse cx="245" cy="71" fill="#795f3e" rx="23" ry="1"/><path d="m221.304776 85.253317-17.828204 2.667044-4.286534 14.935015 31.281364-25.173553z" fill="#715329"/><path d="m63.920584 81.650333.468462-2.833152 7.058564-5.074158 4.065668-.533309z" fill="#e0cfac"/><path d="m154.303631 120.307232 17.333565-27.58274 31.562917-19.869377-31.107495 15.26187z" fill="#ac935e"/><ellipse cx="234" cy="97" fill="#603d1f" rx="14" ry="2"/></g><path d="m152.393199 142.68236q20.797242-9.832991 28.15135-40.136595" fill="none" stroke="#7b621c" stroke-opacity=".501961" stroke-width=".5"/><path d="m-.5-.5h1v1h-1z" fill="#916836" fill-opacity=".501961" transform="matrix(-.20791169 -.9781476 6.84703321 -1.45538184 171 102)"/><path d="m237.84932 137.134822-.732428-1.067373-.759454-9.104739 11.310063-2.040896z" fill="#a4936f" fill-opacity=".501961"/><ellipse fill="#699901" fill-opacity=".501961" rx="1" ry="1" transform="matrix(-.10894696 .99404756 -25.92082902 -2.84090583 222.646744 166.09613)"/><path d="m157 98-3-15 7 11z" fill="#cca15a" fill-opacity=".501961"/><ellipse fill="#a3944f" fill-opacity=".501961" rx="1" ry="1" transform="matrix(-4.30507324 -5.72928765 51.46229214 -38.66954321 36.728713 0)"/><ellipse cx="27" cy="76" fill="#c9ab4c" fill-opacity=".501961" rx="12" ry="36"/><path d="m237.951106 10.426621-50.892529 13.044541 45.591911-1.851356-21.095629 14.939543z" fill="#b4a251" fill-opacity=".501961"/><path d="m167.667491 85.563863-33.771451 5.993352-15.888076 6.48616 24.1214-5.456523z" fill="#ac9b6b" fill-opacity=".501961"/><path d="m-.5-.5h1v1h-1z" fill="#ae964b" fill-opacity=".501961" transform="matrix(49.16696593 16.92954403 -.32556815 .94551858 120 92)"/><path d="m211.300469 101.246385q-4.285408-2.01878-48.322297 6.8748" fill="none" stroke="#9a8045" stroke-opacity=".501961" stroke-width=".5"/><path d="m89 108 12 2-4-5z" fill="#ad9b4a" fill-opacity=".501961"/><ellipse cx="104" cy="91" fill="#cfb88e" fill-opacity=".501961" rx="5" ry="3"/><ellipse cx="224" cy="149" fill="#b8a544" fill-opacity=".501961" rx="4" ry="2"/><path d="m188 59-18 15 11-18z" fill="#c5a87f" fill-opacity=".501961"/><ellipse cx="169" cy="163" fill="#e0d2bc" fill-opacity=".501961" rx="5" ry="2"/><path d="m110 58h10v2h-10z" fill="#dac9bd" fill-opacity=".501961"/><path d="m229.732583 54.793918-17.520924 10.121193-7.437347-10.999882-25.25822 3.676964z" fill="#97845e" fill-opacity=".501961"/><path d="m-.5-.5h1v1h-1z" fill="#481b02" fill-opacity=".501961" transform="matrix(-.13951295 1.9951281 -1.9951281 -.13951295 118 54)"/><path d="m168 69-13-4 13 10z" fill="#968d69" fill-opacity=".501961"/><path d="m139 76h20v6h-20z" fill="#bbb184" fill-opacity=".501961"/><path d="m246.276463 36.978736 1.169814 17.928862 23.553723-4.339527v28.813326z" fill="#7b724e" fill-opacity=".501961"/><path d="m-.5-.5h1v1h-1z" fill="#3b5600" fill-opacity=".501961" transform="matrix(-.62932039 .77714596 -36.52586019 -29.57805838 205 167)"/><path d="m-.5-.5h1v1h-1z" fill="#b0c700" fill-opacity=".501961" transform="matrix(-4.24024048 -2.64959632 2.11967706 -3.39219238 174 152)"/><path d="m-.5-.5h1v1h-1z" fill="#a1936b" fill-opacity=".501961" transform="matrix(-2.24951054 9.74370065 -.97437006 -.22495105 237 138)"/><path d="m183.668788 34.957525 25.700951-20.840536-47.265061 16.158826 23.524461-18.072058z" fill="#bdac58" fill-opacity=".501961"/><path d="m-.5-.5h1v1h-1z" fill="#bcc728" fill-opacity=".501961" transform="matrix(-1.94874013 .44990211 -.89980422 -3.89748026 190 157)"/><ellipse cx="113" cy="72" fill="#13190a" fill-opacity=".501961" rx="4" ry="4"/><ellipse fill="#ab8d2d" fill-opacity=".501961" rx="1" ry="1" transform="matrix(-18.30277 -29.50199746 4.98707652 -3.09393676 5.141473 166.945472)"/><path d="m-.5-.5h1v1h-1z" fill="#c4b882" fill-opacity=".501961" transform="matrix(-.7313537 .68199836 -7.50198196 -8.04489072 191 110)"/><path d="m245 27h6v3h-6z" fill="#d4c384" fill-opacity=".501961"/><path d="m58.019494 84.489086q46.618355 14.881367 76.668727 15.92581" fill="none" stroke="#cfc299" stroke-opacity=".501961" stroke-width=".5"/><path d="m208.072681 125.842487 5.168479 3.338414-35.876766-28.544316 37.986431 35.161412z" fill="#71633b" fill-opacity=".501961"/><path d="m-.5-.5h1v1h-1z" fill="#6e471c" fill-opacity=".501961" transform="matrix(16.42073905 -4.39992377 .25881905 .96592583 222 79)"/><path d="m256.041768 43.050466-3.0364-16.56476-4.260559 7.82427 22.255191 45.158671z" fill="#695e17" fill-opacity=".501961"/><path d="m197 111h9l-16-14z" fill="#8d781b" fill-opacity=".501961"/><path d="m-.5-.5h1v1h-1z" fill="#847433" fill-opacity=".501961" transform="matrix(1.95340893 5.67311145 -4.72759288 1.62784077 162 75)"/><path d="m184.248198 117.679999-15.154878 20.839181 2.693796.262626 10.053805-10.714922z" fill="#6e5b17" fill-opacity=".501961"/><ellipse cx="138" cy="114" fill="#8b783e" fill-opacity=".501961" rx="19" ry="1"/><path d="m101 100h18v2h-18z" fill="#a99141" fill-opacity=".501961"/><path d="m223.738131 99.024794 36.946827-29.428287-17.159283-4.217455 23.907038.689889z" fill="#7a653e" fill-opacity=".501961"/></g></svg>