<svg height="576" width="1024" xmlns="http://www.w3.org/2000/svg"><path d="m0 0h1024v576h-1024z" fill="#0c80d8"/><g fill="none" stroke-opacity=".501961" stroke-width=".5" transform="matrix(4 0 0 4 2 2)"><path d="m71.493102 13.212509q75.45239-17.671151 199.506898-13.792386" stroke="#6fc0ff"/><path d="m271 2.034595q-85.56685 1.024709-154.043943-1.021239" stroke="#8ac2ff"/><path d="m31.374706 2.736103q3.525593-2.027362 239.625294 2.426779" stroke="#5bb4ff"/><path d="m123.239513 63.637662q-25.157282 37.317849-18.401143 54.158914" stroke="#c783bf"/><path d="m211.707155 5.451802q-7.107246-10.058341-100.576809 2.564627" stroke="#8dc3ff"/><path d="m108.915363 6.363737q67.195616 7.819065 115.198562-20.419171" stroke="#90c8ff"/><path d="m123.922155 64.953351q-16.353728 21.290564-26.365995 73.435958" stroke="#9b6aae"/><path d="m63.818615 135.776119q15.496156-28.734638 35.503459-57.929732" stroke="#481c69"/><path d="m75.591901 140.034468q-18.741698-12.493726 20.544194-64.095376" stroke="#9a5ba0"/><path d="m61.20438 14.263487q100.222326-12.938424 200.755005-10.416524" stroke="#5cb7ff"/><path d="m155.726287 60.676882q-50.653537 45.816103-62.240255 39.422033" stroke="#979acb"/><path d="m101.141368 71.10441q-28.018736 35.982212-34.29824 66.644459" stroke="#77418e"/><path d="m237.225118 8.164183q-151.232101-1.482898-171.078245 8.682211" stroke="#50b4ff"/><path d="m235.975193 106.363389q-18.68949 52.636611-59.743044 32.50049" stroke="#33196b"/><path d="m112.485018 114.166536q-17.363171-18.564513 8.306838-48.413266" stroke="#bc83bf"/><path d="m158.311052 37.443872q-23.753772 80.986325-58.37402 62.093212" stroke="#827dc3"/><path d="m72.072351 14.069331q22.838955-19.637839 170.127718-1.807053" stroke="#59b3ff"/><path d="m177.308328 132.325871q30.302548 26.674129 54.123438-15.77908" stroke="#302377"/><path d="m107.760686 2.795429q134.536049 24.268987 163.239314-17.801301" stroke="#65b5ff"/><path d="m97.411723 72.52403q-27.872004 35.632957-22.76754 43.044559" stroke="#a86db2"/><path d="m254.175247 9.358758q-205.811499 14.097425-223.960201-15.539475" stroke="#40adff"/><path d="m120.606739 65.461822q-15.02043 28.649267-19.068494 52.519496" stroke="#b487c5"/><path d="m63.98443 135.326386q33.296092-51.792859 40.372327-64.394532" stroke="#2c257a"/><path d="m50.645882-16q5.410652 51.856775 202.588181 19.233991" stroke="#48afff"/><path d="m227.435791 123.899455q-9.548024 35.100545-53.085587 12.17266" stroke="#281163"/><path d="m101.404037 122.0575q13.507388-42.288428 19.973314-52.730837" stroke="#9158a0"/><path d="m115.705023 12.815778q96.462392-28.815778 155.294977 3.305885" stroke="#54abfe"/><path d="m228.349533 140.162862q-52.285517 18.837138-47.80906-36.04933" stroke="#271c70"/><path d="m78.618521 96.986058q45.496228 13.5614 79.412752-41.792129" stroke="#818bc8"/><path d="m200.742665 2.649758q-35.635513-3.563817-71.570165 2.03866" stroke="#97c3ff"/><path d="m102.286273 107.764466q5.737418-40.522946 19.32323-36.758689" stroke="#aa88ca"/><path d="m128.475852 103.630275q24.89712-35.293244 17.236299-44.062508" stroke="#a273b9"/><path d="m104.475439 70.799013q-42.146073 53.576102-35.221334 66.43965" stroke="#503486"/><path d="m238.099189 106.953746q-38.794354 31.428153-32.373553 52.046254" stroke="#512773"/><path d="m182.164706 114.459229q-2.945249 30.586296-5.663189 35.795376" stroke="#0a0051"/><path d="m256.0137 1.284233q-124.790604.803196-184.904769 8.010879" stroke="#59b0ff"/><path d="m186.369748 110.009276q9.221364 34.084407-1.99865 43.526609" stroke="#38165d"/><path d="m73.95088 110.112323q15.440928-23.309203 24.378575-37.073829" stroke="#ab79bc"/><path d="m115.20759 156.211071q-32.393742-11.828457 7.664961-83.445589" stroke="#5b4595"/><path d="m-1.631691-16q127.15187 63.364382 222.120891 19.196375" stroke="#40aeff"/><path d="m171.339715 159q42.637439-29.027629-21.445535-103.68173" stroke="#4e50a1"/><path d="m179.955259 130.849523q33.189414 28.150477 56.871837-27.787665" stroke="#393b8f"/><path d="m98.672198 75.811371q-19.408462 27.245264-32.503455 58.910473" stroke="#523785"/><path d="m254.265375-1.486203q-23.262525 28.177027-203.889873.310049" stroke="#43abfd"/><path d="m77.631775 96.888588q12.410903-8.675404 20.315349 8.829928" stroke="#c4b3d1"/><path d="m-16-16q204.443334 69.009679 223.993922 6.507884" stroke="#42afff"/><path d="m112.327867 78.386394q35.348447 11.964467 33.593797-19.13163" stroke="#a5a0d7"/><path d="m155.168336 38.895467q-5.158068 18.869571-25.004378 66.344144" stroke="#8381c9"/><path d="m200.839204 153.436636q16.214086-27.580314 33.76804-41.87805" stroke="#6e3886"/><path d="m161.039012 58.39369q-6.683434 89.960219 78.750732 79.569408" stroke="#14429d"/><path d="m68.573161 37.867303q108.60557-24.571631 154.250402-25.440793" stroke="#3bafff"/><path d="m227.183421 146.390289q-18.829165-43.042989-50.265186-4.085125" stroke="#182c83"/><path d="m232.702786 109.177876q-13.216059 49.822124-55.584768 31.695198" stroke="#3e2476"/><path d="m109.781455 112.850696q-6.100622-35.625339 13.39702-43.335791" stroke="#a07dbd"/><path d="m224.419754 1.160905q-104.283155 12.839295-164.328882 1.859461" stroke="#52b0ff"/><path d="m242.705729 6.589815q-143.3522-2.885109-170.502882 3.58148" stroke="#4aacfd"/><path d="m62.67371 134.384883q21.545679-31.180666 37.185384-50.957505" stroke="#1a257a"/><path d="m150.539044 130.915469q28.071258-61.368034 9.751516-67.654246" stroke="#2f3797"/><path d="m94.675217 104.688724q24.317274-8.198045 61.262966-48.328358" stroke="#7d94cc"/><path d="m210.485634 19.469307q-16.600608-35.469307-110.744227-2.473478" stroke="#66b3fe"/><path d="m228.206849 138.371679q-49.377754 20.628321-48.234153-24.7653" stroke="#26247a"/><path d="m52.83106 137.512737q10.358474-10.459629 19.290883.405066" stroke="#230d4b"/><path d="m70.57218 119.215692q27.23146-58.191702 68.854907-13.435754" stroke="#6a61b0"/><path d="m94.737315 141.553166q21.665857-52.687132 28.101948-75.712416" stroke="#4b4497"/><path d="m175.487805 159q24.628527-12.967302 1.896541-64.380361" stroke="#5c4390"/><path d="m158.133356 48.020784q-13.87708 32.24969-26.644611 55.71255" stroke="#6c5aad"/><path d="m260.111989-.784362q-181.195592 51.285253-204.082287-10.211768" stroke="#3ea8fb"/><path d="m229.170721 135.356041q-42.487375 23.643959-51.136161-32.477712" stroke="#27388f"/><path d="m235.276836 108.333157q-39.37121 31.278898-27.06001 50.666843" stroke="#323180"/><path d="m152.480133 67.663706q-27.567817 26.318194-12.166735 37.530245" stroke="#9170ba"/><path d="m208.308862 18.044415q-45.482388 40.341571-213.723136-34.044415" stroke="#2da9fe"/><path d="m152.595166 50.723663q16.411272 13.461201.899538 80.123178" stroke="#35409b"/><path d="m226.617572 122.529425q-.21833 26.647535-8.438609 36.470575" stroke="#000059"/><path d="m176.361784 159q6.877761-27.66462 6.252749-48.446049" stroke="#141567"/><path d="m80.186555 89.216553q8.810847 19.84949 57.313888 6.81419" stroke="#8387c3"/><path d="m178.551688 134.896131q29.996612 24.103869 50.529831-9.633626" stroke="#2a2479"/><path d="m164.948432 91.465483q-7.190976 67.534517-115.286721 39.244631" stroke="#174ca2"/><path d="m78.469449 95.770474q34.663844 17.078845 40.468946-31.459716" stroke="#9395d1"/><path d="m76.028819 109.724972q5.89286-27.11812 24.353024-39.701943" stroke="#8863ad"/><path d="m259.96779 2.87455q-188.424497 25.019477-234.444279-13.283721" stroke="#36a7fb"/><path d="m60.769577-16q46.840395 87.315757 155.434482 30.545979" stroke="#2dabfd"/><path d="m258.485999-10.527288q-9.716835 43.206056-205.086639-2.287088" stroke="#55abfb"/><path d="m199.919287 159q22.598639-37.317587 31.825273-43.689433" stroke="#895aac"/><path d="m184.505856 119.376391q13.783615 7.217363.901984 39.623609" stroke="#0e0b57"/><path d="m202.919836-13.96969q-57.349251 78.484126-108.694853 21.211237" stroke="#3eaffe"/><path d="m99.847403 125.050327q12.10122-16.977285 25.160881-63.928603" stroke="#374097"/><path d="m215.830995-16q-9.910314 28.930169-102.753443 55.460486" stroke="#4ab0fe"/><path d="m147.385216 83.56719q-12.252728-13.677015-45.935346 23.713532" stroke="#8c9acb"/><path d="m59.777662 131.903813q13.521006 4.67664 14.166635 9.335408" stroke="#300138"/><path d="m197.572067 45.59779q-19.166581-60.598697-152.986232 3.568886" stroke="#1babfc"/><path d="m105.057683 107.391579q3.685287-37.742878 15.973454-36.226858" stroke="#a484c7"/><path d="m178.040507 95.560606q4.407625 12.609594 16.618074 24.80503" stroke="#978cd1"/><path d="m96.461597 106.264153q14.460756-5.696586 21.631305-40.763284" stroke="#9894d0"/><path d="m183.135168 39.527979q-8.969299-47.903707-76.510568-34.814695" stroke="#57b7ff"/><path d="m129.539248 43.434081q29.688566 5.398722 61.728395-19.354149" stroke="#4db7ff"/><path d="m202.918102 37.789772q-90.270203-48.549085-150.722425-8.208118" stroke="#2aadfd"/><path d="m156.836783 45.48548q-28.299665 51.665696-17.509903 57.476257" stroke="#8176bf"/><path d="m117.864205 27.609106q63.214891-43.609106 82.77744-20.006375" stroke="#65b3fe"/><path d="m100.977274 71.198981q-26.80578 58.156732-39.896304 60.81313" stroke="#373d90"/><path d="m155.254727 59.452559q-22.796091 55.408384-48.418571 36.765607" stroke="#5553a9"/><path d="m183.42643 104.289655q18.139554 29.878897-8.995264 39.818855" stroke="#463b86"/><path d="m97.264198 71.244879q-23.23414 36.472453-24.65929 43.375674" stroke="#977bc2"/><path d="m146.678362 52.781513q25.536874 7.150789 10.302316 62.355667" stroke="#37419e"/><path d="m193.855569-1.713936q-21.936788 26.67223-120.298811-7.307136" stroke="#54b1fe"/><path d="m99.057389 122.734631q3.613903.592033 22.352348-54.994863" stroke="#6f5ba8"/><path d="m44.898845 4.824164q11.694963 53.41657 176.714698 8.157556" stroke="#1fa5fa"/><path d="m177.860011 143.317455q-.744916-23.177066 20.921962-18.030631" stroke="#061d73"/><path d="m233.808774 110.830228q-17.716167 16.098951-28.199704 32.937078" stroke="#583b86"/><path d="m229.413218 118.617475q-12.897001 14.967317 5.929015 40.382525" stroke="#170e68"/><path d="m99.893386 108.731311q-6.312282-19.917534-23.026115-13.642593" stroke="#94acd7"/><path d="m192.968464 35.242911q-58.406592-48.772088-92.615586-32.417292" stroke="#51b0fb"/><path d="m85.390435 104.177583q-24.239082 21.924736-15.02831 33.377257" stroke="#05196e"/><path d="m162.848645 157.92157q42.440777-11.076793 18.355392-41.583468" stroke="#232272"/><path d="m189.585107 27.158329q-103.729226 47.699573-124.693357-26.533481" stroke="#25a9fc"/><path d="m108.583696 143.226144q-2.455757-3.727599-22.047858-6.393326" stroke="#552f7a"/><path d="m173.533696 17.781869q-51.829054-30.757322-133.79085-14.831009" stroke="#6cb5fd"/><path d="m149.26102 128.199455q9.546789.004077 11.306063-65.548561" stroke="#273f9b"/><path d="m231.039695 116.005952q-9.652942-.267401-21.535572 33.554398" stroke="#8b6fc0"/><path d="m225.40601 123.795161q-9.140752 17.696389.861039 20.632463" stroke="#260e66"/><path d="m99.354259 75.239675q-17.632782 24.8139-25.924108 36.445652" stroke="#896ab5"/><path d="m230.770851-.851565q-47.918873.654594-154.351233 37.937474" stroke="#38abfb"/><path d="m160.43551 159q39.237561-20.962237 16.584897-60.102954" stroke="#393d90"/><path d="m156.774942 116.03371q25.937573-41.489491-11.656441-60.767974" stroke="#1e3ea1"/><path d="m199.427645 32.770671q-81.593191 2.992727-165.748727-34.555653" stroke="#2aa6f9"/><path d="m142.814755 107.67856q-40.906932-19.719846-26.087286-39.303992" stroke="#7e7fc5"/><path d="m54.507983 23.864146q161.779541 38.935628 191.980928-18.839311" stroke="#18a1f8"/><path d="m175.919582 87.187719q11.246309 30.220431 16.804873 36.931396" stroke="#7a80c9"/><path d="m159.738125 109.412246q14.830582-49.913839-10.190155-57.608956" stroke="#4954ab"/><path d="m160.426423 41.829856q-30.863108 52.983328-19.37973 63.937201" stroke="#6b75c1"/><path d="m221.485163 120.256519q-25.571592 27.793628-10.721975 38.743481" stroke="#33206c"/><path d="m205.42167 4.541634q-46.279571-4.382906-80.209805 4.570622" stroke="#6bb2fb"/><path d="m188.670501 18.834003q-48.246984 46.910731-147.717155 9.288142" stroke="#10a7fa"/><path d="m-16 137.109922q66.533828 21.890078 98.821885-29.327929" stroke="#0243a3"/><path d="m100.723236 119.027715q17.501634-52.367135 21.534536-52.405178" stroke="#917ec2"/><path d="m116.473365 100.619075q-11.156428 2.642353-18.123392 38.752331" stroke="#172f89"/><path d="m187.147275 37.568621q-2.221574-41.478747-145.04646-35.42527" stroke="#3cacfb"/><path d="m156.017737 47.717554q12.747625 36.867383-88.668062 54.729098" stroke="#5b7fc7"/><path d="m191.637225 35.382061q-36.804668-51.382061-71.183144-24.41184" stroke="#5ab5fd"/><path d="m151.517693 65.410681q-7.489705-9.723275-12.133895-.115037" stroke="#beb8e6"/><path d="m183.264307 117.558537q17.019956 18.981973-5.672992 26.644148" stroke="#212371"/><path d="m225.139286 126.725492q4.754018 32.274508-10.256677 32.086083" stroke="#00025e"/><path d="m181.979985 70.317556q-4.915969-86.317556-141.935978-39.012297" stroke="#09a4f8"/><path d="m19.616008-2.549693q174.733741 59.096811 176.890164 74.816445" stroke="#19a1f7"/><path d="m121.859672 159q3.163373-22.061077-84.551764-27.01473" stroke="#204798"/><path d="m38.435294 35.586999q115.855037-3.288478 201.814592 7.595293" stroke="#0ba1f7"/><path d="m246.846201 13.199727q-43.150914-15.45014-190.653721 27.114003" stroke="#2aa4f7"/><path d="m76.419669 102.146084q8.561907.178303 13.666844-22.937938" stroke="#ab86c3"/><path d="m141.307635 104.833219q-53.536484-22.161414-60.538649-18.91323" stroke="#414da0"/><path d="m198.685787 24.026817q-67.658207 46.072945-166.863037 1.530779" stroke="#05a1f6"/><path d="m120.350917 68.034724q-8.135861 7.853978-19.904194 38.082521" stroke="#968ccc"/><path d="m184.139224 98.365966q-6.373162 13.934659-5.831856 24.202289" stroke="#878bd3"/><path d="m139.291265 127.503935q77.301767 31.496065 96.545133-22.656759" stroke="#1f489d"/><path d="m177.736957 143.973112q8.774354-8.804186 3.766339-32.000156" stroke="#182478"/><path d="m271-2.252607q-153.195814 21.700911-200.429886 12.649117" stroke="#3aa7f9"/><path d="m-16 138.673923q75.0584 11.904618 100.415521-37.098863" stroke="#0048aa"/><path d="m73.541315 136.287524q-7.7592-12.045161-15.765267-3.520329" stroke="#9d6bad"/><path d="m146.581642 72.149681q-2.712005 10.185239-23.856328 11.351615" stroke="#95b6e6"/><path d="m218.000473 152.978025q-3.443323-2.269077 9.589843-29.023569" stroke="#1b105d"/><path d="m44.301913-16q100.599317 109.710555 161.817764 16.411752" stroke="#25a4f8"/><path d="m159.269961 111.694587q16.056963-16.245376-9.50046-43.446127" stroke="#0238a0"/><path d="m136.569436 47.201141q73.029517-31.432786 131.053696-51.594608" stroke="#45a5f7"/><path d="m37.493038 33.297081q164.301543-49.297081 176.391707 57.839854" stroke="#029ef3"/><path d="m139.849102 106.141351q-.306047-12.254353-14.181903-8.190116" stroke="#b888ca"/><path d="m189.923835 124.209246q5.122028-7.782782-12.728219-29.023" stroke="#7a8ad2"/><path d="m228.233238 115.355477q-14.494377 27.476799-26.228399 41.724518" stroke="#7c60b4"/><path d="m101.289887 118.843386q6.377045-49.903563 22.778652-54.721517" stroke="#8078c3"/><path d="m35.458728.7861q140.310154 68.306222 171.547845-16.7861" stroke="#28a4f8"/><path d="m227.393302-11.898731q-43.564196 20.175018-107.982493 20.659338" stroke="#6fb2fc"/><path d="m.114786 143.888441q16.533691-31.941518 76.405737-3.943165" stroke="#0047a6"/><path d="m23.346166-8.696033q41.213429 116.660881 169.814328 17.470595" stroke="#009cf3"/><path d="m191.142037 110.377518q-1.305457-126.377518-151.848111-70.516033" stroke="#009cf2"/><path d="m177.605747 141.598632q30.071738 17.401368 39.169574-17.934606" stroke="#21206d"/><path d="m105.047362 141.345517q-2.808936-10.61488-18.190443-2.968512" stroke="#8255a0"/><path d="m79.335832 158.695941q-5.582428-32.550709-21.503626-25.722778" stroke="#392062"/><path d="m127.076085 101.528666q32.691309-30.478074 26.920521-52.930491" stroke="#3c49a7"/><path d="m160.566285 104.493238q10.145197-46.794822-11.760637-54.069955" stroke="#515db3"/><path d="m33.13212 39.443569q128.458956-55.443569 163.613107 70.659024" stroke="#069ef3"/><path d="m51.302206 143.732586q-67.302206 3.24013-48.350953-68.583933" stroke="#0054bf"/><path d="m72.548163 113.337084q16.362379-15.419614 24.84712-39.781666" stroke="#755faf"/><path d="m176.639006 134.650157q43.107129-22.682161 53.92924 24.349843" stroke="#123690"/><path d="m186.720903 37.248473q-5.731018-30.551656-128.382197-22.251989" stroke="#36acfa"/><path d="m77.917382 88.732017q18.587265-4.230572 33.491462 8.332089" stroke="#183d90"/><path d="m87.911177 139.297164q15.637192-9.98161 30.340106 19.702836" stroke="#5d3a89"/><path d="m180.887583 115.363581q-3.711147 43.636419 46.010755 25.834351" stroke="#0e2178"/><path d="m193.639721 13.061292q-60.636139 50.474401-146.131401 15.719575" stroke="#00a1f6"/><path d="m74.724614 109.854922q5.873147-26.669363 25.882936-39.267392" stroke="#7268b6"/><path d="m35.210592 41.837702q119.281949-34.324136 150.522063 31.032027" stroke="#0aa4f7"/><path d="m-.378898 132.098972q25.007301 26.901028 88.191584-48.599889" stroke="#0058ba"/><path d="m146.796778 56.151813q40.873668 14.539185.739411 75.065446" stroke="#1e45a6"/><path d="m-5.235656 159q23.122581-57.671897 78.322652-19.416992" stroke="#0048a6"/><path d="m192.584068 125.046502q-5.320264-4.353967-12.653635-26.079122" stroke="#7e76c1"/><path d="m112.70012 140.777205q-128.70012-2.408478-104.101112-94.51767" stroke="#005aba"/><path d="m128.241969 102.496897q25.199479-35.710799 25.94109-55.945776" stroke="#6967b8"/><path d="m215.06543 20.3086q-52.377311-36.3086-84.840677-11.788789" stroke="#6cadf8"/><path d="m193.510344 159q-5.976169-17.980672-15.9014-63.249159" stroke="#3c4193"/><path d="m105.79544 102.497281q13.367867-23.179757 17.392053-38.724286" stroke="#7f71ba"/><path d="m224.333915 26.895171q-162.161655 55.397225-197.66314-25.881118" stroke="#0096ef"/><path d="m181.098622 58.398155q-127.882437-72.445114-140.104464-50.021918" stroke="#28a4f7"/><path d="m99.584872 127.459669q5.929739-11.894001 23.02035-51.628752" stroke="#244099"/><path d="m155.08619 47.248084q-26.704491 47.347138-18.471294 61.491315" stroke="#6d85c9"/><path d="m122.614033 71.302895q-22.059709.807448-11.583634 40.060701" stroke="#8a82c5"/><path d="m118.238953 6.681227q17.197731-4.853571 83.574028-5.350234" stroke="#72b1fb"/><path d="m195.475645 121.039069q-4.058132 7.357829-27.617874 37.960931" stroke="#1b2d7c"/><path d="m160.749864 102.315172q-1.740695-27.61905-1.082689-46.57145" stroke="#163996"/><path d="m179.276787 128.701567q6.270459 30.298433 51.644583 8.896496" stroke="#192c85"/><path d="m74.294799 142.110124q-90.294799 12.258154-69.974549-112.887205" stroke="#0060c7"/><path d="m79.500992 84.17354q14.561128 8.734604-9.750275 42.513624" stroke="#183384"/><path d="m70.25811 141.379248q-86.25811 4.745862-61.922304-102.039327" stroke="#005fc6"/><path d="m215.484575 96.739326q-3.267324-112.739326-178.004181-66.490454" stroke="#029cf2"/><path d="m201.837129 159q4.178019-18.412903 26.577175-39.420727" stroke="#614c9f"/><path d="m-12.193998 157.893449q50.513102-101.895528 127.769704-58.647822" stroke="#005ab9"/><path d="m190.355676 80.016081q-25.906725-96.016081-151.634291-33.752114" stroke="#009cf3"/><path d="m157.656562 139.92499q-.272529-16.812768-18.658729-9.196983" stroke="#303a8f"/><path d="m66.768405 66.248579q137.203811-53.14626 165.170572-20.781045" stroke="#0da0f4"/><path d="m74.130724 140.905161q-57.622717-45.904634-79.620047 12.478299" stroke="#014caa"/><path d="m3.423631-1.564903q197.427826 5.629396 199.268263 83.935866" stroke="#1a9ff5"/><path d="m199.956107 55.815918q-38.263723-71.815918-138.269274 16.888268" stroke="#009df2"/><path d="m100.418147 106.042404q-12.474472-16.450704-25.110619-4.98271" stroke="#92a3d3"/><path d="m107.774651 77.476539q34.749794 19.250566 51.644941-28.148728" stroke="#6f8cd3"/><path d="m239.335468 6.849958q-185.643489 6.701899-224.396916-17.100582" stroke="#45a5f6"/><path d="m15.803483 159q-31.803483-59.371302 6.350018-118.304716" stroke="#0059c3"/><path d="m164.766826 7.017143q-37.287943 24.002451-47.509357 19.460894" stroke="#4cadfb"/><path d="m186.269585 119.576604q11.855778 7.610064-.010934 36.88436" stroke="#12287a"/><path d="m80.245318-2.21898q51.391146 63.720642 119.232917 33.135541" stroke="#23a3f6"/><path d="m192.392627 76.812073q-25.851808-92.812073-160.329004-46.224179" stroke="#029cf3"/><path d="m92.408222 88.059703q-9.167183-.349867-19.275539 24.855905" stroke="#9888c7"/><path d="m236.752305 33.010934q-73.055994 41.414651-197.439239 6.634453" stroke="#0099ef"/><path d="m179.672937 109.717571q8.42747-4.520027 12.141776 12.419471" stroke="#8e89cf"/><path d="m117.877527 90.149395q43.911501-30.474357 40.248908-43.472676" stroke="#6794d5"/><path d="m137.318927 45.548929q12.860709-4.564143 52.210766-18.175485" stroke="#4eacf7"/><path d="m178.107566 104.662317q1.936955 24.745514-.373062 27.06045" stroke="#7068bc"/><path d="m179.004906 14.745216q-111.711325-30.745216-135.095407-8.218571" stroke="#60aef9"/><path d="m223.625598 148.698445q-10.590109-16.385659 5.96729-24.054024" stroke="#2e2378"/><path d="m154.570157 66.382789q-7.957749-8.174305-14.221121-3.741998" stroke="#aea3de"/><path d="m158.931406 57.9573q8.039592 30.777377-7.634171 74.283527" stroke="#2245a0"/><path d="m104.370335 73.913221q-9.771758 19.690295-35.726936 52.227289" stroke="#0b3d98"/><path d="m91.56985 78.216081q-9.425685 24.261886 19.241526 25.288897" stroke="#8590cb"/><path d="m271-.974596q-202.958572 38.983022-206.486983 34.081625" stroke="#3ca2f4"/><path d="m178.931407 139.453104q40.378354 19.546896 49.720895-15.991628" stroke="#262880"/><path d="m34.32676 42.982413q196.012901-8.802234 234.256583 21.04746" stroke="#0095ee"/><path d="m-4.651746 146.679304q83.476363-41.720997 5.661149-98.403889" stroke="#005dc4"/><path d="m77.18217 144.950645q-19.651954-18.851504 7.361577-38.925117" stroke="#0f2d81"/><path d="m7.887591 75.378266q-20.326249 72.993598 45.18933 66.653036" stroke="#0058c1"/><path d="m155.717527 65.93461q-2.407096 8.470649-18.351556 25.424982" stroke="#073aa5"/><path d="m19.383773 45.657621q-35.383773 97.832881 48.018161 92.818606" stroke="#0060c6"/><path d="m116.611269 67.704539q-5.40931 47.397188-39.588953 30.947101" stroke="#8592ce"/><path d="m127.659047 1.741054q45.766422.975555 77.502555 1.195929" stroke="#73b0f9"/><path d="m240.508422-16q-162.366619 106.020274-198.820867 49.286165" stroke="#049df1"/><path d="m157.690362 133.473128q-1.017816-10.656538-17.333479-4.243883" stroke="#7463ad"/><path d="m225.43563-.108619q-30.559215 5.683774-165.711682 15.689333" stroke="#3da6f6"/><path d="m139.861816 102.859348q-4.157886-12.157948-19.063954-2.301103" stroke="#9d8ed3"/><path d="m105.367108 91.336913q11.221685-13.996672 16.050793-24.148696" stroke="#9f93d8"/><path d="m187.93721 112.984348q-19.02682 15.843944 3.788509 27.153278" stroke="#213387"/><path d="m271 53.349548q-212.769705-.366003-228.336648-22.131413" stroke="#0094eb"/><path d="m.507472 145.378332q79.941896-39.686963-2.767561-110.234635" stroke="#0060c6"/><path d="m40.148189 34.807817q4.683379 14.420669 177.730099-21.907435" stroke="#009bf2"/><path d="m70.205041 130.018197q7.09561 3.741489-.422359 28.981803" stroke="#9694cb"/><path d="m196.591066 122.505946q-28.5136 7.283277-12.164612 28.663601" stroke="#112b7c"/><path d="m76.226564 99.316521q10.57436-10.481866 18.665031.756641" stroke="#9ea7d4"/><path d="m230.948965 113.850925q-20.247811 19.244652-17.36585 45.149075" stroke="#7468bb"/><path d="m222.151633 120.39944q-23.252754 27.971262-23.267322 38.60056" stroke="#322e7c"/><path d="m204.248997 64.998768q-39.495812-44.238594-145.533386 11.278703" stroke="#009aef"/><path d="m94.553685 143.849598q-110.553685 4.639601-71.853459-99.794962" stroke="#0065c8"/><path d="m31.247744 15.175037q29.788508 77.230377 230.994671-31.175037" stroke="#0095ee"/><path d="m187.625896 24.598342q-42.372534 34.89628-64.301911 10.190698" stroke="#40a9f6"/><path d="m125.430183 7.792877q138.676822-23.792877 145.569817 9.038871" stroke="#71aff8"/><path d="m121.310158 81.86545q-18.143056 39.380145-22.33212 52.099399" stroke="#1d4ca2"/><path d="m126.589076 104.020819q6.305804-5.604197 14.841526 8.35892" stroke="#65b3e2"/><path d="m71.669653 115.895817q15.282141-14.656272 34.092412-45.460654" stroke="#414ba5"/><path d="m-6.364173 46.771906q72.832543 65.638764 1.091206 98.813482" stroke="#005dc3"/><path d="m211.511725 98.135939q-14.218741-78.328112-202.567248-74.490706" stroke="#0096ef"/><path d="m65.706206 143.361189q-81.706206 4.267008-52.969896-81.959263" stroke="#005fc5"/><path d="m175.211481 17.097251q-38.715923 13.590459-51.674249 20.72032" stroke="#44abf9"/><path d="m223.139524 19.899387q-156.588511 67.833151-185.415467 8.621228" stroke="#0095ed"/><path d="m10.695877 153.788279q-26.695877-40.944543 18.74887-84.330237" stroke="#0058c0"/><path d="m112.323608 117.113786q-15.04529-39.414624 10.237478-50.434207" stroke="#7687cc"/><path d="m104.349196 114.516468q13.067574-28.657053 18.391455-42.772439" stroke="#5a57a6"/><path d="m101.840974 71.984413q-24.789652 8.126278-9.66171 26.705865" stroke="#716bb5"/><path d="m143.429153 126.328013q30.016624 24.107185 85.21959 16.581255" stroke="#14479c"/><path d="m227.735396 126.734211q-5.376798 28.853738-21.179367 32.265789" stroke="#001282"/><path d="m6.379383-10.703207q67.806421 86.218704 203.834683 25.910382" stroke="#0097f0"/><path d="m220.201215 32.268204q-38.15174 9.272256-170.798507-4.07825" stroke="#1aa0f4"/><path d="m155.034454 120.669447q31.019266-50.090057-8.328397-61.875398" stroke="#154bad"/><path d="m117.088403 4.885818q45.926053 13.442432 102.601038-20.885818" stroke="#66aef9"/><path d="m145.66779 76.998258q-3.269306-28.765917 15.949968-29.101717" stroke="#7281cc"/><path d="m178.086921 106.593388q3.892596 5.85959 13.286006 16.401329" stroke="#8076be"/><path d="m60.660619 128.056395q15.402637-1.200503 14.108194 20.968722" stroke="#718dd0"/><path d="m146.915504 59.712432q3.086654 19.340321-49.755623 44.040555" stroke="#6f9bd4"/><path d="m-3.608863 158.781357q-.928291-60.455783 75.44503-31.750867" stroke="#0059bf"/><path d="m187.302875 121.107321q6.331049 21.427464-11.54132 19.687543" stroke="#152d7c"/><path d="m69.342407 155.854693q-43.82045-13.879903-75.5802-171.854693" stroke="#0064ca"/><path d="m204.469839 79.963552q-14.409296-95.963552-167.828297-41.613868" stroke="#099ef3"/><path d="m91.298486 135.918509q11.828572 3.57803 21.515173 11.524803" stroke="#4c3d8b"/><path d="m217.590433 64.94798q-43.176578-80.94798-138.179815 18.205229" stroke="#059cf0"/><path d="m88.427311 82.134034q.71165 19.323212-12.927569 19.567937" stroke="#9080c1"/><path d="m267.345664-3.663343q-62.628694 26.377688-81.657014 8.913602" stroke="#599ff2"/><path d="m183.283942 25.841264q-107.312533-41.841264-127.682269-1.900569" stroke="#25a7f8"/><path d="m-3.433499 149.928962q28.90863-12.753334 17.881539-112.683005" stroke="#005dc4"/><path d="m188.943447 35.322468q-12.427943-26.6149-124.447142-19.124897" stroke="#29a7f6"/><path d="m137.023866 89.640188q10.74402-9.337442 20.939579-41.737092" stroke="#4c58b2"/><path d="m23.653132 37.744629q-39.653132 98.646155 39.305919 99.523051" stroke="#0062c8"/><path d="m99.489048 134.892282q-.254734-15.117125 19.944193-42.310742" stroke="#113f99"/><path d="m120.844802 22.616185q19.462531 27.674458 129.885397-38.616185" stroke="#35a2f4"/><path d="m181.509698 77.583015q-21.877156-93.583015-137.597983-42.682376" stroke="#049ef3"/><path d="m64.571555 136.768357q12.277313-27.026862 19.147201-30.612302" stroke="#022678"/><path d="m4.500586 38.900365q74.80167 69.129372-.987788 106.305504" stroke="#0062c8"/><path d="m148.379051 56.414178q35.744061 14.230655 8.457954 44.978486" stroke="#334fa9"/><path d="m109.755902 142.696374q-.322302-2.584713-23.488386-3.669105" stroke="#414390"/><path d="m111.358295 113.319425q-4.114569-27.851794 12.311446-42.528426" stroke="#6d69b2"/><path d="m233.517516 159q-17.985909-27.696431-5.038866-37.708614" stroke="#191c75"/><path d="m184.894777 121.892734q-9.881633 36.126465-18.089427 37.107266" stroke="#0a2577"/><path d="m141.30085 61.973241q1.52067-2.313207 7.385112-.203787" stroke="#d1d4f1"/><path d="m-15.823534 150.205306q85.860327-24.841457 18.489366-103.097093" stroke="#0060c5"/><path d="m92.446769 73.672441q-2.612014-80.568649-108.446769-69.700984" stroke="#0096f3"/><path d="m111.864135 148.962248q-10.143961-20.718017-21.850458-11.657074" stroke="#6d69b6"/><path d="m234.524432 112.83764q-8.90406 4.113595-26.170046 44.317544" stroke="#5048a1"/><path d="m98.620023 105.148156q-6.449276-12.550144-19.676758-9.840481" stroke="#97a9d4"/><path d="m189.665063 109.770266q-25.356334-125.770266-131.603607-68.160681" stroke="#039bf0"/><path d="m157.456919 104.339156q15.06061-31.517632 9.161028-38.217016" stroke="#3f53ab"/><path d="m70.896199 133.730062q-7.914672-.533864-13.612444-.5039" stroke="#3e2057"/><path d="m207.321495 2.275071q-48.523121 26.427545-79.90821 17.79598" stroke="#49a7f5"/><path d="m66.648715 36.466273q108.932213-12.420422 139.128105-52.466273" stroke="#35a7f7"/><path d="m190.259938 80.919206q7.687072-77.370225-183.895983-58.370191" stroke="#0095ee"/><path d="m177.982745 12.559052q-28.208532 2.846198-79.156193-28.559052" stroke="#64b2f9"/><path d="m134.202415 10.086406q56.6545-21.043217 63.767601-2.919413" stroke="#71aff7"/><path d="m115.308191 94.430583q12.112073-17.039018 26.662119-13.087895" stroke="#7aaedf"/><path d="m39.675862 34.17577q24.20955 56.872618 166.664377-10.762368" stroke="#0093ea"/><path d="m125.492087 36.046279q32.337573-8.053281 56.512911-23.131094" stroke="#46a9f6"/><path d="m40.884408 71.000231q-56.884408 41.917757-29.026397 84.167664" stroke="#005dc4"/><path d="m6.053846 43.418115q-22.053846 105.454699 51.260837 95.684623" stroke="#0060c7"/><path d="m114.738921 89.268936q-5.831529-10.143946 4.779832-22.701793" stroke="#9a92d8"/><path d="m271-8.605016q-71.274359 37.014702-82.858557 10.94815" stroke="#5a9ff1"/><path d="m65.585648 83.54659q105.046368-96.217236 152.925429 6.379562" stroke="#0094eb"/><path d="m83.001749 89.747234q-.825301-3.958076 4.271492-4.099312" stroke="#00075f"/><path d="m237.62276 76.61167q-13.54195-92.61167-193.92777-22.162532" stroke="#0095ec"/><path d="m143.067847 65.888607q25.063575 5.361787 15.364076 47.925757" stroke="#1849a7"/><path d="m186.832668 136.44131q6.792552 20.785941 42.266037 4.950066" stroke="#001b65"/><path d="m179.763387 121.467291q14.202151 1.946692 11.209882 25.304239" stroke="#0c2779"/><path d="m-6.498205 144.912041q74.657867-10.617578 33.62994-69.982692" stroke="#005dc3"/><path d="m78.030785 127.761198q-94.030785-5.895622-65.598371-89.22359" stroke="#0064c7"/><path d="m32.528776 33.915125q106.819447-49.915125 166.749415 52.200227" stroke="#0299f0"/><path d="m123.537367 101.271142q10.784375-9.245396 16.078806 5.685296" stroke="#7d6ab7"/><path d="m241.549354 7.500756q-180.74711 94.77599-224.128066 12.433747" stroke="#008be6"/><path d="m192.781876 119.312704q-15.013009-.045457-14.57609-8.651792" stroke="#7b7cc7"/><path d="m107.523004 91.95726q-70.832499 67.04274-123.523004-5.466775" stroke="#0061c0"/><path d="m169.271743 80.878796q1.762067-4.523681-.495516-8.170339" stroke="#8b99e3"/><path d="m202.611001 159q21.700702-46.780548 28.109822-43.632134" stroke="#6f6abb"/><path d="m58.147977 133.217717q4.659459-7.773767 16.265971 4.498443" stroke="#63448e"/><path d="m73.979339 93.144065q32.533582-105.165147 92.044641-76.327258" stroke="#009aef"/><path d="m8.396925 40.140851q79.511316 78.868312-22.328064 112.795399" stroke="#0064c9"/><path d="m113.178162 33.893199q60.153895 13.757734 85.518363-2.457251" stroke="#33a2f3"/><path d="m208.949126 144.762715q4.125694-25.785492 17.200501-23.501917" stroke="#303b8c"/><path d="m-5.474049 147.302634q71.933832-57.349115 2.69588-98.34067" stroke="#0060c6"/><path d="m177.425074 123.252232q4.072779-.801869-.064468-34.610148" stroke="#6673c3"/><path d="m.108756 136.583118q43.631901 22.416882 51.343666-34.605488" stroke="#0058c0"/><path d="m-9.781564 146.064192q81.89408-92.392073 127.43753-41.48922" stroke="#0261bf"/><path d="m196.010435 122.357111q-7.875063 11.685867-13.833178 36.642889" stroke="#15317c"/><path d="m121.988115 92.243925q34.883521-21.938121 10.009663-74.551836" stroke="#37a8ed"/><path d="m81.158884 87.408576q23.073724 8.557684 20.765534-16.246756" stroke="#0f439e"/><path d="m79.283789 107.229654q22.962515-29.819394 21.261253-35.624499" stroke="#5556a7"/><path d="m87.460512 77.800283q-23.282158-75.369164 35.679973-76.805452" stroke="#05a0f3"/><path d="m19.110602 33.722931q-35.110602 92.530798 2.67451 110.261565" stroke="#0060c7"/><path d="m236.791197 108.40346q-16.30835 28.892582-29.664209 50.59654" stroke="#20358b"/><path d="m210.891617 134.166566q10.520201-8.407877 15.563175 7.345478" stroke="#182077"/><path d="m52.711952 11.252401q1.288848 81.731224 91.805462 46.265556" stroke="#0097ec"/><path d="m94.671518 74.344117q-9.861166 29.192191-22.724242 25.940839" stroke="#857fc4"/><path d="m239.121431 36.764038q-24.028 52.760213-218.888887-35.702857" stroke="#0090eb"/><path d="m160.942244 135.447784q-14.722017-8.495562-22.421916-5.55" stroke="#223e94"/><path d="m159.194944 42.335299q-17.165479 2.383084-23.182677 4.300631" stroke="#5eb1f9"/><path d="m69.962944 12.68838q45.156373-28.68838 111.715859 28.214038" stroke="#2ca5f6"/><path d="m80.329688 97.883573q29.046943 3.21166 61.320482.270966" stroke="#728ece"/><path d="m104.204965 89.429034q21.104386-48.294839-68.661779-73.422119" stroke="#0098ef"/><path d="m126.495098 102.278209q13.372052 5.465239 15.191029.841982" stroke="#6ca8db"/><path d="m75.820931 109.55241q15.408332-30.358347 23.558179-37.73283" stroke="#7c72be"/><path d="m181.777067 112.149526q-2.753258 41.174009-1.011695 42.931943" stroke="#03297c"/><path d="m-16 34.817314q98.170836 49.986541 1.457046 124.182686" stroke="#0062c7"/><path d="m81.206553 142.878616q-97.206553-5.788007-52.575022-109.951642" stroke="#0068ca"/><path d="m151.329077 55.680511q25.819546 30.172615 4.709842 63.064525" stroke="#184aac"/><path d="m20.031027-7.476505q32.654145 86.482957 249.592543 36.253122" stroke="#0091ec"/><path d="m264.212594 21.629164q-187.319339-15.076372-199.521516 60.777692" stroke="#0092eb"/><path d="m191.030667 122.83055q2.082119-12.520773-11.102221-13.413265" stroke="#8791d2"/><path d="m127.465721 100.682176q27.583142-27.968148 28.863531-56.931171" stroke="#4c5cb4"/><path d="m144.926261 71.137511q3.293667 10.859063-19.350921 12.069995" stroke="#84a9e1"/><path d="m241.015098 15.241526q-78.926782 6.320187-203.734178-15.010209" stroke="#1d9df3"/><path d="m252.755165 24.850387q11.338474 118.120737-25.747373 116.800092" stroke="#0069cb"/><path d="m56.996116-6.770477q14.587324 101.289067 92.95858 54.365924" stroke="#0095ec"/><path d="m227.593812 7.468718q18.427478-.919801 33.528049-10.037668" stroke="#77a5f3"/><path d="m156.945796 62.511001q3.279226-23.976154-26.15798-18.274463" stroke="#5698e6"/><path d="m142.470636 63.157543q17.041027 15.162513 21.908995 31.07368" stroke="#0648a6"/><path d="m151.530729 126.926682q2.188552-.845594 8.91608 9.835069" stroke="#7e85c8"/><path d="m255.02519 54.139213q-173.072075-46.865118-188.300215 40.935729" stroke="#0091e9"/><path d="m199.466248 3.375098q-94.396502 6.363704-94.057714-19.375098" stroke="#65adf7"/><path d="m75.453747 122.220075q-75.661659-36.735337-82.714039 36.779925" stroke="#005ec2"/><path d="m99.282975 123.464168q14.373627-34.469747 22.59975-51.130254" stroke="#5f61af"/><path d="m100.41386 120.879257q19.34025-21.946094 21.707634-41.497358" stroke="#2251a8"/><path d="m112.271071 106.488271q2.003146-21.376361-32.664314-19.209429" stroke="#1e4398"/><path d="m177.428456 92.802502q5.596155 19.568616 14.801695 30.709567" stroke="#7680cb"/><path d="m242.917831 20.760072q28.082169 82.060035-13.713067 121.517702" stroke="#006bcd"/><path d="m119.312609 13.084193q28.597446-24.527532 81.896788-4.245572" stroke="#65abf6"/><path d="m152.320349 134.560592q13.600083-69.955444 7.880348-74.574436" stroke="#2a51a9"/><path d="m224.475134 134.144707q46.524866-.799387 23.95957-75.785206" stroke="#0062c4"/><path d="m145.748766 70.502175q-16.48698 8.335161-14.475612 16.403038" stroke="#6fb8eb"/><path d="m141.303987 104.237071q-9.734488-13.382018-16.158134-4.662374" stroke="#8f86cc"/><path d="m159.079169 137.48383q-4.77673-9.39748-17.634712-9.415339" stroke="#283b93"/><path d="m6.251499 144.254831q69.82006-14.263022 19.970739-90.61806" stroke="#0064c8"/><path d="m168.554011 87.777594q-8.719887-1.785884-2.72817-19.205881" stroke="#6a74c3"/><path d="m176.791882 119.68462q-5.672311 21.253618 14.504012 19.962046" stroke="#003e95"/><path d="m89.064693 140.895538q-89.836886 4.499267-64.59499-98.806553" stroke="#0068ca"/><path d="m148.03853 126.575946q5.272105-.344763 8.520004.161553" stroke="#8e89d1"/><path d="m104.127453 92.245499q14.667579-13.753287 17.362255-25.898276" stroke="#918dd5"/><path d="m184.105108 110.711866q2.308957-1.421829-2.167868-8.775003" stroke="#b0a7e7"/><path d="m46.511423 5.097976q-30.719814-17.599922-62.511423-.991948" stroke="#8bb0f7"/><path d="m166.035054 159q21.962281-2.155879 20.99348-49.17228" stroke="#37469e"/><path d="m16.263512 3.597717q38.659611 70.278095 201.530767 38.990841" stroke="#0091e9"/><path d="m192.851653 121.098796q12.555216 27.483341 78.148347 1.503323" stroke="#084fae"/><path d="m74.381204 142.003951q1.248864-4.614881-11.79511-9.035673" stroke="#2b205a"/><path d="m22.451635 31.084464q-30.744813 85.021232-3.788606 123.345408" stroke="#0062c8"/><path d="m235.503937 16.60278q16.639624-1.272399 9.979578-29.943314" stroke="#529ff6"/><path d="m2.095879 16.260649q21.986768 96.010166 62.426635 142.739351" stroke="#06c"/><path d="m136.636391 47.912888q-67.559775 55.532137-123.707921-46.163523" stroke="#008ee8"/><path d="m131.068915 42.616232q-71.039592 58.724408-99.541852-21.307648" stroke="#0095eb"/><path d="m81.131356 91.753748q.322467.937707 7.071065-8.010279" stroke="#1b2b7a"/><path d="m25.462341 75.394353q-41.462341 51.043979-13.13592 83.605647" stroke="#005bc2"/><path d="m218.340959 122.358588q-7.695291 28.882643-37.264628 36.641412" stroke="#373686"/><path d="m216.445173-.082316q-27.869337 14.210694-51.37951 120.662885" stroke="#0092e9"/><path d="m2.610249 6.88474q-18.610249 128.594215 61.748698 128.310249" stroke="#0066cb"/><path d="m95.779728 73.812487q-3.157656 3.580115-11.971142 11.042819" stroke="#7b71c5"/><path d="m190.743294 14.142052q-131.325257 87.832317-160.146933-23.181222" stroke="#0097ed"/><path d="m138.680236 79.592035q-13.27938-82.007464-102.464261-33.26766" stroke="#0096ed"/><path d="m211.922289 152.777488q3.135809-28.050518 19.206405-37.174083" stroke="#6e6ec1"/><path d="m192.049429 132.335405q-19.942489-3.584862-13.437732 18.236261" stroke="#072b7f"/><path d="m119.66412-16q10.287928 84.678447 74.54626 49.46369" stroke="#33a2f3"/><path d="m7.518202 27.093737q200.406804 15.617642 196.866288 63.800103" stroke="#0093ea"/><path d="m66.725295 73.667752q77.547397-82.691895 145.816352 8.013181" stroke="#0096ec"/><path d="m155.750992 43.12448q-18.222182 58.779411-34.718867 56.634254" stroke="#6573c3"/><path d="m223.89841 124.294257q-6.877454 19.274683-14.393901 28.477187" stroke="#3e368d"/><path d="m54.932528 6.77168q154.546923-3.484793 108.239173 127.76712" stroke="#0497ec"/><path d="m38.464997 41.872124q32.962218 52.824515 175.89239-24.78473" stroke="#0092e8"/><path d="m172.531223 13.879216q-41.781263-20.630894-97.895047-.668701" stroke="#50acf7"/><path d="m250.709006 149.608687q7.344054-131.451104-29.629938-142.373154" stroke="#006fd2"/><path d="m202.182902 6.717644q-49.92875-.410848-84.615227 18.741125" stroke="#39a5f5"/><path d="m53.852329 123.258438q-37.990083 35.741562-58.013106-6.932436" stroke="#0058bf"/><path d="m140.646129 107.567141q-4.986305-20.67395-20.251111-5.712512" stroke="#898cd3"/><path d="m105.207425 139.684671q-6.249375-6.355092-11.106316-1.28345" stroke="#815ca9"/><path d="m19.608375 45.704474q58.561325 80.655711-18.463632 99.585137" stroke="#0066c9"/><path d="m165.046337-5.913886q-24.363447 16.395915-36.785529 14.286242" stroke="#7eb5f9"/><path d="m61.248593 124.658236q-65.245507-20.117677-59.653155 34.341764" stroke="#005cc1"/><path d="m181.160646 33.723778q-17.772898-4.258955-49.057666-2.652569" stroke="#44a5f3"/><path d="m240.074547-16q-107.783454 147.922931-69.568446 175" stroke="#008be4"/><path d="m194.38745 152.845453q10.221328 6.154547 35.20134-39.901292" stroke="#666abe"/><path d="m215.167635 126.792415q-10.791045 32.207585-36.332512 12.513157" stroke="#1e2e79"/><path d="m36.190181 7.260915q117.173521 25.609654 49.43463 110.566192" stroke="#0091e9"/><path d="m27.168775 142.094873q49.472781-35.369651-14.833926-106.980048" stroke="#0069cc"/><path d="m22.703524-2.494337q31.439153 103.794756 200.696124 33.383301" stroke="#008ee7"/><path d="m118.934217 8.467199q16.984434-8.006115 53.566-8.134889" stroke="#73aff8"/><path d="m72.582893 140.518299q-12.453989-15.513243 9.095152-30.313742" stroke="#0b3183"/><path d="m138.862723 89.834392q26.105652-27.22234 9.175038-37.804272" stroke="#1b4aad"/><path d="m133.85938 80.662014q3.574432-71.536774-116.333446-57.589477" stroke="#0092ec"/><path d="m240.998871 159q29.758474-10.914315-2.750511-140.031226" stroke="#006cce"/><path d="m255.205272 2.450478q.298964 125.422071-34.842849 148.859924" stroke="#006fd0"/><path d="m190.142653 8.850415q16.898718 10.71974 50.798875-24.850415" stroke="#5aa1f3"/><path d="m101.542614 108.441382q2.634303-1.465021 21.077395-39.627776" stroke="#7772bd"/><path d="m42.959369 70.509838q161.353751-46.329328 211.982912-15.881807" stroke="#008fe7"/><path d="m231.798791 9.766827q-.35392-3.095979 31.275418-25.766827" stroke="#80abfa"/><path d="m59.403771-5.930748q-2.829364 99.13248 86.186786 58.256519" stroke="#0094ea"/><path d="m72.773156 115.353598q14.974398-21.441646 23.783916-39.934775" stroke="#6d65b7"/><path d="m73.677369 159q-44.440556 0-77.910408-152.902981" stroke="#06c"/><path d="m155.864928 111.228295q10.747352-24.541106 8.220426-42.510064" stroke="#4965bb"/><path d="m56.751975 54.865299q120.791424-70.865299 155.491877 40.276321" stroke="#0094eb"/><path d="m.844172 145.085947q74.662325-49.915015-10.009241-95.353664" stroke="#0062c6"/><path d="m64.542615 128.853245q11.476251-2.728531 12.27856 30.146755" stroke="#7390d2"/><path d="m10.293008 140.035436q73.682471-25.321302 11.027575-98.873733" stroke="#0069cc"/><path d="m256.930329-7.735635q-19.895511 135.978288-70.205863 154.621926" stroke="#0075d5"/><path d="m145.63045 131.41727q28.933789-30.459224 12.06932-56.145118" stroke="#0c45a6"/><path d="m-9.748217 157.454193q64.041896-129.933488 11.016858-149.2992" stroke="#0069ce"/><path d="m136.305654 13.611589q-8.989108 32.370957 24.042575 34.165321" stroke="#45a3f0"/><path d="m75.685012 121.663045q-56.860616-40.359818-79.586086 30.137821" stroke="#0061c3"/><path d="m101.652309 106.05892q11.493666-16.309087 13.898592-37.820665" stroke="#8686c9"/><path d="m111.346696 74.007299q9.377253-.583392 9.133849-7.743499" stroke="#a3b1f1"/><path d="m54.619882 9.960771q-14.318687 69.886796 62.342343 57.164538" stroke="#0097ec"/><path d="m123.289258 35.192147q9.065969 20.010514 66.608-7.93393" stroke="#3ea5f2"/><path d="m98.229681 140.322557q-114.229681 14.297179-93.857601-128.969513" stroke="#006bcd"/><path d="m178.764009 127.976257q-1.844996-13.65999 3.792995-26.204971" stroke="#7684d1"/><path d="m72.433732 125.919279q-50.510844-38.119765-76.753871 33.080721" stroke="#005fc1"/><path d="m192.064507 119.679159q-13.291763-1.428557-6.944328-14.609249" stroke="#7d83cc"/><path d="m241.170957 58.353626q-172.10685-43.49096-179.104358 13.689569" stroke="#0093ea"/><path d="m113.197791 4.534784q-79.490719-12.180741-60.132813 56.986773" stroke="#0095ef"/><path d="m90.220988 91.714387q-14.291057-1.34096-10.608947 12.655258" stroke="#9284bd"/><path d="m144.512893 82.496562q-3.951066-27.13166 13.439404-36.70895" stroke="#6b79c6"/><path d="m90.111983 138.743668q16.631609-1.508605 33.345639 20.256332" stroke="#3a3b89"/><path d="m178.291774 81.370629q-5.928441-5.125391-15.465583-11.681888" stroke="#5883d4"/><path d="m240.91304 16.248323q13.636412-27.351259 30.08696-10.685338" stroke="#5ca2f4"/><path d="m176.389748 122.713895q-.896723 11.416596 13.944673 10.315636" stroke="#0d358a"/><path d="m98.369409 81.141737q-3.101761 11.212987 19.027804 17.645722" stroke="#1d489f"/><path d="m1.599856 150.72418q-6.891362-60.997152 58.316775-40.785167" stroke="#005fc5"/><path d="m112.796652 112.564009q-9.979391-6.686587-5.194349-14.706016" stroke="#8e9acc"/><path d="m241.413089 26.587209q-46.576136 68.635561-80.463967 21.332353" stroke="#0096ec"/><path d="m135.480954 76.146013q6.466211-7.666798 12.215122-.338302" stroke="#7aa4e0"/><path d="m187.656889 28.419528q-19.458207-5.089278-66.025833 7.080388" stroke="#3ba6f4"/><path d="m117.991197 71.39494q-13.507656 4.463633-2.041979 15.011827" stroke="#9799dd"/><path d="m257.989231 158.804262q-23.022913-126.062957-2.847539-154.837203" stroke="#006fd1"/><path d="m244.853493 66.389191q26.146507 77.705675-25.030053 78.201086" stroke="#0065c7"/><path d="m117.661926 121.123827q73.802264 18.237453 113.855925-135.112941" stroke="#0088e1"/><path d="m155.947902 124.87085q-6.060513 3.596422-5.742579 6.256811" stroke="#7f8ad3"/><path d="m73.740501 138.758511q-2.844278-12.887261-10.677899-8.824398" stroke="#897ec0"/><path d="m122.400476 84.262863q-16.435476 6.638523-20.104557 12.786473" stroke="#2048a0"/><path d="m159.739174 3.141266q-10.247105 16.318085-45.384201-12.073546" stroke="#6db0f8"/><path d="m102.919449 12.585568q-16.124026 3.627732-32.987104-6.509065" stroke="#53acf6"/><path d="m57.32708 133.707552q11.836228 3.313116 22.671925-27.11756" stroke="#103485"/><path d="m102.253372 111.282912q15.827734-4.184248 14.477975-27.633181" stroke="#24479f"/><path d="m127.255088 96.733488q2.925339 3.45431 10.97023 6.804064" stroke="#624999"/><path d="m137.66449 86.622154q24.443954-12.578849 15.326806-32.622331" stroke="#1c50b1"/><path d="m237.637907 105.324964q-55.197052-121.324964-181.609235-26.878141" stroke="#008fe6"/><path d="m43.393995 12.755353q89.77918 6.623404 54.652833 90.243067" stroke="#0094eb"/><path d="m189.690003 34.846988q-24.780273-27.47647-62.719198-15.34273" stroke="#3aa8f4"/><path d="m120.523719 29.291882q60.875885-30.422407 100.259511-5.139246" stroke="#319ff2"/><path d="m111.29439 2.749104q-72.847592-8.416319-50.778229 69.190969" stroke="#0096ee"/><path d="m122.662396 71.849833q-1.809953.989387-8.169171-.386712" stroke="#b4b5f2"/><path d="m71.738181 114.39168q7.641004-.921054 30.029143-44.274325" stroke="#4d53a6"/><path d="m157.244318 134.290071q2.705211-3.291384-7.096232-9.663654" stroke="#7c7ec4"/><path d="m55.249682 150.147884q-19.112834-6.213714-50.024564-139.642885" stroke="#0068cd"/><path d="m147.460554 81.094856q-20.966136-1.372591-20.151425 3.011064" stroke="#82acde"/><path d="m139.65907 106.769968q-12.517063-6.208054-15.392889-4.428061" stroke="#61ace0"/><path d="m7.805397 45.13229q69.871407 72.909777-8.180503 103.339118" stroke="#0066ca"/><path d="m138.147611 68.054549q2.319299-12.423293 13.271394-4.347566" stroke="#87b0e9"/><path d="m62.257537 143.267792q-78.257537-5.866113-46.211447-95.784125" stroke="#0065c9"/><path d="m186.793171 24.230811q-109.199086-22.585192-124.777434-4.764903" stroke="#2fa4f3"/><path d="m-3.324822 134.632039q54.413188 24.367961 55.503456-34.265656" stroke="#005ec3"/><path d="m43.458812 61.422901q153.987879-77.422901 194.613621-6.134507" stroke="#0092ea"/><path d="m74.249473 139.925468q-10.424956-12.670011-14.569351-7.380549" stroke="#402b6e"/><path d="m60.017069-15.178723q-.377285 94.381189 84.797645 66.765805" stroke="#0095ec"/><path d="m258.997782-16q-121.332564 134.133856-94.419245 161.488122" stroke="#0086e1"/><path d="m271 140.010898q-58.572576-20.794204-67.050469 5.575406" stroke="#0b4aa6"/><path d="m186.87727 120.656951q-9.515346 4.357793-8.051874 38.343049" stroke="#04297a"/><path d="m158.605438 55.121403q54.359062 44.821071 71.694253-22.231312" stroke="#0093e9"/><path d="m60.908317 133.332268q2.755564-.269257 11.399601 5.295242" stroke="#1c255e"/><path d="m37.698079 1.0024q14.733925 4.923782 29.961611-13.265327" stroke="#7cacf6"/><path d="m222.780197 55.688586q-67.460629-65.41911-153.010059 32.805888" stroke="#0196ec"/><path d="m239.05962 101.63941q-6.234709 13.625791-18.059996 50.384711" stroke="#0049a8"/><path d="m158.088117 85.604372q18.098556.900583 10.492624-16.055815" stroke="#5781d3"/><path d="m185.848334 159q70.441822-130.112799-161.394039-173.53579" stroke="#0090e7"/><path d="m244.365116-3.491885q23.40022 92.301144-69.435438 161.517984" stroke="#0075d4"/><path d="m122.211664 75.764989q-15.657428 29.871239-9.714641 35.044804" stroke="#4357a9"/><path d="m187.613291 120.643084q8.280527 14.615907-3.743554 31.73819" stroke="#132b75"/><path d="m87.597149 77.225859q2.246301-17.33609 1.170937-82.893095" stroke="#019ff1"/><path d="m43.815414-16q-59.815414 83.054696.646613 169.098867" stroke="#006bd0"/><path d="m183.728141 89.287838q-8.910983-105.287838-145.069809-42.673558" stroke="#0198ed"/><path d="m227.64361 143.197102q43.35639-2.014484 18.909141-78.993853" stroke="#0068c9"/><path d="m155.245217 43.628501q-14.194583 35.567411-12.1032 37.316397" stroke="#707cc9"/><path d="m243.577325 17.12647q3.161917-18.658622-23.211674-17.726078" stroke="#4c9cf3"/><path d="m200.137935 23.214819q-28.90388-32.867296-153.83098 58.334523" stroke="#0093ea"/><path d="m76.615097 12.763889q.880509-2.50523 9.713122-.826295" stroke="#8ec0f9"/><path d="m249.253266 159q6.198832-139.109601-29.89915-155.399697" stroke="#0072d3"/><path d="m245.75419 12.621952q-3.411716 4.5846-8.094702 1.652994" stroke="#88b3ff"/><path d="m227.388551 123.542477q-10.258202 15.130321-8.067948 35.457523" stroke="#1e2774"/><path d="m96.092513 70.225508q-40.094547-61.516989 19.817228-75.733616" stroke="#02a1f2"/><path d="m2.348436 99.1057q-13.227905 50.947019 46.145471 43.641869" stroke="#005ac1"/><path d="m63.401264 144.597799q-79.401264-.300168-52.694011-62.643333" stroke="#0060c5"/><path d="m258.414212-16q1.056135 27.810425-23.728019 17.130131" stroke="#6ea7f6"/><path d="m177.290892 153.81862q-22.38495-99.907867 74.275164-169.81862" stroke="#008be3"/><path d="m246.511175 16.185329q23.673603 104.811007-19.622165 127.777646" stroke="#006dcd"/><path d="m72.628706 113.874155q4.893636-14.564789 11.570933-22.872346" stroke="#8989cd"/><path d="m250.867932 5.819403q20.132068 70.203274-66.693748 147.558706" stroke="#0074d3"/><path d="m131.633306 153.108892q19.564157-150.809266 128.30109-104.706463" stroke="#008ee3"/><path d="m-16 1.622636q105.830645 93.911718 51.651754 140.656591" stroke="#006ed2"/><path d="m203.595797 159q-2.728514-16.986827 16.622954-38.591988" stroke="#233e90"/><path d="m11.552595-1.597407q-27.552595 146.773823 98.087659 149.606769" stroke="#006dd0"/><path d="m185.514867 113.39761q-.470776 37.722353-15.565182 45.52287" stroke="#213a92"/><path d="m112.003277 79.502317q23.489401 6.815151 32.534827 10.565894" stroke="#5f98d9"/><path d="m149.347869 127.365213q8.581125 1.039835 7.176276 7.4419" stroke="#7b6eb6"/><path d="m235.134735 16.784626q35.865265 42.599078-7.895061 121.715488" stroke="#006fd0"/><path d="m97.271089 103.501815q-3.741249-12.338039-16.939153-4.048526" stroke="#90a7d8"/><path d="m162.290744-16q1.193105 32.078644-36.767766 36.509917" stroke="#4ca8f5"/><path d="m158.626351 110.059127q11.835465-38.818575 7.20352-45.285915" stroke="#3455af"/><path d="m95.481988 72.146043q-4.539088 12.166156-12.508099 12.016377" stroke="#6f7acc"/><path d="m3.7897 30.638041q107.795658-39.509732 136.811863 40.829284" stroke="#008eea"/><path d="m229.308664 10.448815q.734075.032757 8.272351-8.856139" stroke="#7fa7f6"/><path d="m-.892399 46.131432q30.574086 10.23842 45.716032 103.517478" stroke="#0066ca"/><path d="m195.175381 144.415883q35.028275-109.679173-23.035123-141.04489" stroke="#0089e3"/><path d="m83.213571 91.953318q1.127085-9.804559 18.990174-2.974377" stroke="#1f3d92"/><path d="m256.203432 21.304056q-1.129159 113.461969-40.05317 137.695944" stroke="#006ece"/><path d="m164.799568 97.866318q-2.535027-19.647134-17.033465-29.298218" stroke="#0348a8"/><path d="m90.41881 73.233212q1.051703-59.487118-58.175487-31.411111" stroke="#009bee"/><path d="m166.447938 99.705873q-10.093711-18.482848-6.01932-38.847277" stroke="#0843a0"/><path d="m-4.522817 27.129899q96.714763 63.703315 9.994327 116.953822" stroke="#006acd"/><path d="m89.668251 138.672884q7.555877-8.455719 11.94316 1.390393" stroke="#6c5cac"/><path d="m187.193233 28.070177q-10.825552 11.298565-28.997033-3.817834" stroke="#49a8f4"/><path d="m27.89071-8.308783q17.780679 18.669733 26.375922 7.769994" stroke="#70a8f3"/><path d="m194.71345 92.432248q-21.885053-108.432248-122.213429-34.700245" stroke="#0094eb"/><path d="m75.570794 91.732582q31.955288-41.67652-23.010269-85.837911" stroke="#0096ec"/><path d="m60.210547-2.765514q-17.50347 80.797054 59.835885 65.745749" stroke="#0093ea"/><path d="m210.498199 20.4141q-2.273711-12.636549-146.944904 5.34657" stroke="#1d9df2"/><path d="m225.637202 127.537259q4.412524 31.462741-18.328819 31.462741" stroke="#001d79"/><path d="m48.644183 146.156329q-64.644183-101.884151-12.40087-140.265822" stroke="#006acf"/><path d="m143.385193 67.309422q13.078669 4.022248 14.611014-19.919128" stroke="#6878cb"/><path d="m196.322894 123.865314q-4.804435 11.341379-17.985037 15.94034" stroke="#043689"/><path d="m.170037 3.385656q105.420259-1.873393 71.493755 94.048887" stroke="#008ceb"/><path d="m190.113776-10.613968q7.640747 30.627069 24.109543 22.163231" stroke="#60a4f4"/><path d="m-8.937203 54.987755q24.537117-7.435802 50.383771 91.526564" stroke="#0065c8"/><path d="m136.251011 91.246185q26.061051-26.034238 14.397093-35.017622" stroke="#214cac"/><path d="m170.680971 92.029997q-22.88837 42.245782-32.461824 39.694948" stroke="#0052b4"/><path d="m177.724338 107.299247q10.91528 20.858121 12.998738 42.443609" stroke="#2d4292"/><path d="m58.722281 131.085392q10.365518-4.944418 16.854804 7.352774" stroke="#767ec5"/><path d="m104.326305 95.875697q2.334361-6.031472 8.495184-8.371639" stroke="#1b4097"/><path d="m105.068636 139.103217q-.167406-2.239638-6.550483-5.009733" stroke="#827bc5"/><path d="m184.755629 16.480026q-60.692519 6.731083-69.793253 12.385233" stroke="#43a3f1"/><path d="m36.1193 158.794864q56.959862-39.523665-32.922846-154.896665" stroke="#0074d6"/><path d="m158.438486 39.874771q15.578221 44.2659 81.432168-2.343204" stroke="#069aef"/><path d="m60.836501 87.903146q-9.323627-83.411656 94.300697-76.96604" stroke="#0096ec"/><path d="m-2.326007 81.51417q21.217568 77.459065 83.593008 31.029807" stroke="#005ec0"/><path d="m166.130115 150.375468q-20.914329-75.477947 94.207145-160.464422" stroke="#0088e3"/><path d="m185.575854 105.713662q-4.716024-5.617216-8.345483 2.187929" stroke="#798bd5"/><path d="m140.030978 128.741626q14.36492 4.72607 15.237118 2.750894" stroke="#143c93"/><path d="m82.782731 109.141819q-10.019303 7.654158-14.107762 20.067633" stroke="#002980"/><path d="m219.145328 150.561324q-6.859331-30.920017 11.503883-34.144495" stroke="#6063b5"/><path d="m126.465404 38.397639q35.394449-1.075518 74.936954-54.397639" stroke="#35a5f4"/><path d="m81.101387 33.529891q3.097255-3.991736 9.68163 1.19621" stroke="#62bbfc"/><path d="m122.423322 70.620515q.607614 36.798847-21.12507 39.402302" stroke="#1b5eb3"/><path d="m118.333789 69.31986q5.135993 5.761914-19.471197 37.621672" stroke="#7d8ccf"/><path d="m107.674398 139.705218q-7.967329-.153108-13.362472-4.604861" stroke="#6759a9"/><path d="m147.443019 1.749171q-23.452031 5.237152-28.561971-16.357311" stroke="#84b6f9"/><path d="m73.183369 133.103818q-3.760125-7.885407-14.784313-2.186979" stroke="#6f97d7"/><path d="m117.381131 97.130886q-11.136649 5.848171-18.924074 36.182372" stroke="#174aa2"/><path d="m193.01062 38.572639q-22.265906-54.572639-115.312831-8.10803" stroke="#28a3f3"/><path d="m103.711343 73.47672q-6.127616 9.664601-4.01976 20.99179" stroke="#0045a7"/><path d="m156.513349 71.974892q-16.601628 46.347526-29.999361 67.613116" stroke="#0095e4"/><path d="m-6.011163 141.881925q78.359271-41.789215 18.134861-100.362097" stroke="#0068ca"/><path d="m132.626895 79.035765q8.289075-47.529771-129.24737-54.984973" stroke="#008fe9"/><path d="m171.370572 123.646075q-5.739071-86.028223 46.272063-126.236725" stroke="#0092e8"/><path d="m102.787306 75.293224q-6.343426 13.798045-31.925168 43.298114" stroke="#2c4ba7"/><path d="m211.926317-1.708927q-45.854701 10.22102-91.793675 8.658715" stroke="#5ba9f6"/><path d="m159.808914 40.092733q-6.111182 8.428012-26.163608 1.419691" stroke="#4fa9f4"/><path d="m139.146401 102.646284q-3.516504-3.827681-15.856395-2.277615" stroke="#6859a8"/><path d="m184.75673 154.095517q86.24327-108.415651 36.512731-148.959924" stroke="#0079d8"/><path d="m211.429029 17.367856q-7.559203 3.844844-16.305634-20.336638" stroke="#5ba3f3"/><path d="m48.012752 139.472321q-60.264764-2.770437-43.348093-93.027473" stroke="#0065c9"/><path d="m-16 .254187q78.026829 15.439487 16.077184 138.849435" stroke="#006cd0"/><path d="m-7.433096 45.709234q72.951748 56.187051 35.018238 111.051955" stroke="#0066ca"/><path d="m271 .040107q-129.940215 30.711541-94.327902 158.959893" stroke="#0087e2"/><path d="m258.020057-2.0618q-9.536505 83.949017-182.450051 160.454076" stroke="#0082db"/><path d="m93.726338 134.858911q8.457785-1.730051 8.801874 6.40787" stroke="#756cbb"/><path d="m138.069754 91.648799q12.331887-12.535491 22.513089-31.361686" stroke="#0052b6"/><path d="m192.160115 159q78.839885-115.846911 30.909122-155.00622" stroke="#0077d6"/><path d="m80.658599 86.411016q3.640811.044039 3.921678 7.053537" stroke="#081a60"/><path d="m232.314813 114.66219q-6.765396 3.726156-14.626837 7.689717" stroke="#6983cf"/><path d="m137.705887 104.655106q-9.813588-11.911116 19.21039-50.045592" stroke="#6c77c3"/><path d="m250.412573 5.300944q17.317589 53.608945-68.898096 153.418312" stroke="#0076d5"/><path d="m104.474631 148.568928q-120.474631-12.906088-87.190381-142.789664" stroke="#006ed0"/><path d="m228.153644 7.720331q11.907411-.91673 42.846356-15.212797" stroke="#70a4f2"/><path d="m173.495159 159q-34.403245-78.282129 97.504841-146.483066" stroke="#008be3"/><path d="m224.967334 150.316041q23.575252-70.925724 33.661837-166.316041" stroke="#0070d0"/><path d="m189.112477 145.748887q9.955659-14.515046-9.611991-23.694632" stroke="#0b3285"/><path d="m137.909075 65.120674q7.604565-9.508645 16.230506.368069" stroke="#7ca0e0"/><path d="m123.213422 69.00867q-2.059193 11.973021-19.669897 40.864662" stroke="#525eaf"/><path d="m99.876669 106.669459q-6.491188-14.10447-18.063775-11.486567" stroke="#88a8d7"/><path d="m161.362148 50.931704q27.479064 41.660109 73.804194-9.857964" stroke="#0094e9"/><path d="m162.287244 62.157401q1.095501 29.370997.065727 40.108278" stroke="#4362b6"/><path d="m-8.311166 25.513065q140.763649 3.353249 143.322546 54.679259" stroke="#008fe9"/><path d="m269.617243-.253685q-29.97334 155.118689-58.179483 159.253685" stroke="#006bca"/><path d="m163.13553 71.355843q1.824306-.23571 11.061421 7.167082" stroke="#6987d3"/><path d="m39.727738 144.749771q51.509309-35.571846-55.691219-160.749771" stroke="#0072d4"/><path d="m31.8341 19.435814q23.551513 75.674823 186.536336.403211" stroke="#008ee5"/><path d="m26.802887 33.963214q-42.802887 91.601438 32.950174 111.968259" stroke="#0068cb"/><path d="m193.074855 122.651458q-15.023946-10.583189-9.381131-22.554955" stroke="#6d82ce"/><path d="m199.413655 29.633638q-19.692388 15.05017-34.130838-1.644522" stroke="#3aa3f3"/><path d="m211.896111 147.868215q13.908488-7.34299 10.491616-21.35242" stroke="#272b80"/><path d="m56.613184-16q-2.670867 95.327798 58.924113 81.324895" stroke="#0095eb"/><path d="m68.752855 75.428778q73.405299-20.746439 35.906366-74.969195" stroke="#0094eb"/><path d="m160.31236 147.158077q11.547696-144.182977 110.68764-142.174563" stroke="#0088e2"/><path d="m223.597056 83.045986q-57.136905-90.769636-164.812244-1.373485" stroke="#0090e7"/><path d="m.313671 114.356272q17.266012 44.643728 55.074236 3.836243" stroke="#005dc3"/><path d="m12.195368-16q37.828014 111.203853 47.804818 175" stroke="#0074d5"/><path d="m264.987006-16q-33.260749 75.255237-74.708209 164.171755" stroke="#007cd9"/><path d="m121.224999 99.95142q9.954568-3.951971 18.542395 1.486781" stroke="#8479c3"/><path d="m77.554014 14.785036q9.689248 11.950066 111.5873 2.396252" stroke="#30a1f2"/><path d="m156.158962 74.464156q3.054971 53.829135-42.899578 44.009649" stroke="#0094e4"/><path d="m149.466524 31.471019q-18.650199-1.798717-21.770061 5.962559" stroke="#57a5f3"/><path d="m177.521702 118.738887q13.559685-1.059999 17.202138.341203" stroke="#6c86d0"/><path d="m1.845504 159q-6.530253-70.631669 58.317811-44.546829" stroke="#0061c5"/><path d="m76.292798 104.600524q12.133006-13.103997 13.072778-25.176688" stroke="#8681c4"/><path d="m42.643814 144.09011q48.578929-24.561516-42.184468-152.958176" stroke="#0076d7"/><path d="m156.852161 103.5046q13.847026-35.903932-10.442963-46.586706" stroke="#1d4faa"/><path d="m137.793005 46.044803q16.023642-5.887701 34.342338-5.921054" stroke="#43a3f1"/><path d="m76.906791 108.660031q12.501972-16.469252 25.345931-36.693015" stroke="#4e56a8"/><path d="m223.437107 159q6.332938-23.583395 47.562893-144.281062" stroke="#006dcc"/><path d="m226.330413-2.837288q-64.51143 22.973102-34.121618 110.014169" stroke="#0092e9"/><path d="m178.585546 4.917748q-26.662024 11.171574-109.628743 1.293646" stroke="#0a9bf1"/><path d="m163.330751 64.814857q12.26515 26.792327-6.393479 32.552423" stroke="#1e4ea8"/><path d="m251.660874 32.233459q19.339126 74.107374-58.150407 95.328579" stroke="#0070cd"/><path d="m209.568348 102.833877q-56.644651-118.833877-130.689063-16.632551" stroke="#0093e8"/><path d="m3.406026-.048014q111.471922 30.105556 65.187589 110.392936" stroke="#008ce7"/><path d="m181.241467 130.533197q18.131667 2.139235 6.346844 21.058799" stroke="#013283"/><path d="m-4.961439 152.972076q2.428662-52.217661 69.13821-29.64728" stroke="#0061c5"/><path d="m22.212194-4.913219q-38.212194 146.692109 206.711514 152.093674" stroke="#0077d4"/><path d="m140.368797 80.955783q-8.486629-.626041-14.125298 3.872625" stroke="#88bfe9"/><path d="m150.744831 68.257911q1.361525-4.024679-8.312559-8.316514" stroke="#8f96d4"/><path d="m81.944946 86.26705q6.297038-4.399897 9.77918 2.468583" stroke="#3b3e95"/><path d="m182.521783 159q-97.608309-35.066254-41.421242-105.116609" stroke="#008ee1"/><path d="m140.102636 110.040504q-6.584658-9.099693-14.684744-6.972803" stroke="#5bb0e3"/><path d="m211.133141 130.432332q20.254944 16.568657 24.149074 22.315628" stroke="#1c2e85"/><path d="m158.504191 60.928116q-17.502187 88.849585-50.602393 87.40291" stroke="#008ee1"/><path d="m54.050524-3.653421q115.305433 30.92107 124.780309 12.141214" stroke="#2ba3f4"/><path d="m244.068872 42.143886q-47.686664 66.763111-81.574938 13.995157" stroke="#008ee5"/><path d="m181.600744 14.295356q-6.760261 5.635769-19.244914 5.093198" stroke="#64b0f5"/><path d="m141.430217 65.074609q8.066426 7.104736 2.988923 13.074565" stroke="#8393da"/><path d="m83.325199-8.84302q29.064758 82.037786-21.607014 99.917952" stroke="#0096eb"/><path d="m240.518636 151.16431q30.481364-131.257606-14.222143-135.254554" stroke="#0071d2"/><path d="m180.708943 109.55286q13.204067 1.165121 9.001249 11.147352" stroke="#8798d8"/><path d="m180.679977 98.7882q-3.605386 2.417653-2.756369 37.221989" stroke="#3560ba"/><path d="m66.280294 136.636855q5.045148-22.063807 15.597545-25.270719" stroke="#022b7e"/><path d="m133.590104 47.152376q38.195729-13.033759 52.113286-19.177092" stroke="#41a4f1"/><path d="m143.221637 130.69053q7.500717-4.457152 14.814953 6.393041" stroke="#243f96"/><path d="m72.87143 137.00836q-5.246151-4.949604-12.421821-4.570973" stroke="#302562"/><path d="m182.659853 159q51.079602-72.85319 71.098414-151.327765" stroke="#007ad7"/><path d="m194.650007 100.128048q-26.041906-116.128048-134.359758-72.599167" stroke="#0297ec"/><path d="m58.53942 142.729143q-22.772155-6.211122-54.075345-139.482758" stroke="#006ccf"/><path d="m91.425586 75.844378q-.850897 16.092605-16.273829 23.902254" stroke="#7f86c8"/><path d="m181.841412 83.120365q-36.216722-38.864601 16.120906-57.467466" stroke="#009aec"/><path d="m53.565999 85.686441q-69.565999 27.259474-47.788152 58.968506" stroke="#0063c5"/><path d="m114.754672 63.574403q-54.546235 28.285239-64.326266-49.807777" stroke="#0096ea"/><path d="m248.66339 10.755637q-1.740385 2.376948-10.558964 4.54155" stroke="#5aa1f6"/><path d="m183.79642 100.519027q60.35575-48.612176-8.220391-92.035797" stroke="#008de6"/><path d="m242.228082 144.254943q28.771918-22.158702-9.141594-68.781308" stroke="#006bca"/><path d="m184.9225 153.522896q-8.604819-28.12265-3.781557-30.198798" stroke="#0d2d80"/><path d="m107.959104 94.067134q-7.491334 6.839563-9.319608 12.173324" stroke="#81a3d4"/><path d="m101.728743 84.198965q73.063329-93.559417 108.047237-52.965445" stroke="#0094ea"/><path d="m129.495627 8.242812q6.277833 4.628442 60.793164-16.237506" stroke="#68aff6"/><path d="m58.438003-16q25.146927 46.102007 175.916627 59.67227" stroke="#1c9aef"/><path d="m-16 18.641952q92.27039 59.752537 240.502821-10.704179" stroke="#008fe7"/><path d="m242.563203-16q-34.584046 37.940265-50.38611 16.928184" stroke="#55a1f2"/><path d="m214.044404 156.122187q-9.484573-17.298713 13.639283-36.648292" stroke="#6467ba"/><path d="m181.379412 13.377102q-45.552236-6.984799-48.7411 15.864426" stroke="#3ea7f4"/><path d="m122.138028 80.138194q-1.976777 6.567532-14.711086 17.025621" stroke="#2044a1"/><path d="m62.138745 80.69197q8.812933-10.652972 189.036621-96.69197" stroke="#0295ea"/><path d="m259.323862-3.537452q-76.816754 137.477067-63.900104 162.537452" stroke="#007fdb"/><path d="m58.844696 18.3669q73.70308 45.516872 34.947386 85.825221" stroke="#0097e9"/><path d="m174.586295-6.773608q-22.812527 8.906909-44.673718 14.758441" stroke="#78b2f8"/><path d="m223.32729 125.891739q5.560962 16.511638-5.308012 21.861544" stroke="#082283"/><path d="m264.003882 3.080658q-82.494395 12.202606-63.697037 144.271823" stroke="#007fdd"/><path d="m109.327055 12.383624q-62.538599-28.383624-65.954744 38.596952" stroke="#0092ec"/><path d="m160.287 23.227241q53.457128-21.760862 52.713895-35.297835" stroke="#4ca5f2"/><path d="m66.076946 105.957465q28.086011-121.957465-82.076946-103.68085" stroke="#0087e7"/><path d="m15.226532 142.706597q-31.226532-30.365097 7.866285-68.413829" stroke="#0060c4"/><path d="m108.287248 146.509987q-2.495996-10.295619-19.685755-9.424964" stroke="#444899"/><path d="m52.530892 8.001862q-24.340601-8.904571-34.791805-29.518515" stroke="#64a6f5"/><path d="m125.297747.21263q9.959802 70.976766 63.112382 34.287406" stroke="#339eef"/><path d="m125.097389 84.35476q7.310369-.376512 7.013292 2.215042" stroke="#77bcea"/><path d="m110.825433 131.034322q-126.825433 1.911183-102.991431-121.038523" stroke="#0070cf"/><path d="m162.014471 71.336832q10.621109 15.851251-5.364135 36.53088" stroke="#3e61b8"/><path d="m138.725468 63.347523q6.958869-7.507576 12.279798 1.849538" stroke="#80a3e3"/><path d="m100.397806 122.945328q8.583113-6.906663 2.328123-18.37322" stroke="#213d9a"/><path d="m150.262901 128.909479q3.748059.028423 5.286979-4.39062" stroke="#8a95db"/><path d="m111.257838 84.675489q1.859141-7.344154 9.784851-19.613698" stroke="#929add"/><path d="m259.075476 151.2918q-57.069446-139.782021-27.81911-150.007772" stroke="#0079d7"/><path d="m192.529132 120.949491q64.000721-32.788698 62.597833 38.050509" stroke="#006ac6"/><path d="m-10.496232 142.421254q67.825687 8.885945 49.521613-60.423863" stroke="#0062c5"/><path d="m4.817741 159q-5.817586-59.409422 55.33478-39.827973" stroke="#0061c5"/><path d="m192.900109 144.538665q33.412284-8.153759 31.554469-141.885085" stroke="#007cd9"/><path d="m115.274823 29.570506q23.644398-6.446031 38.430564-15.139621" stroke="#43a2f2"/><path d="m63.378589 81.549431q-13.8496-35.698705 108.290693-66.671338" stroke="#0093e9"/><path d="m63.715254-16q-19.180331 89.267503 74.73885 81.427547" stroke="#0092e8"/><path d="m167.576447 79.530197q-5.857018-.815931-11.955016-.54157" stroke="#00419d"/><path d="m153.42305 45.315135q-39.343704 39.301452-146.587008-54.277986" stroke="#008fe9"/><path d="m61.622255 140.85546q-64.394842-.902925-57.287112-89.645496" stroke="#0068ca"/><path d="m190.339582 122.26408q.324819 9.961201-4.72976 36.73592" stroke="#22347a"/><path d="m267.160323 158.733211q-64.586103-58.997035 3.839677-113.640343" stroke="#006dcb"/><path d="m181.413201 144.699917q-197.413201-9.802972-143.184987-148.731206" stroke="#0079d4"/><path d="m271 57.493677q-262.302143-55.015913-277.801572-12.222208" stroke="#008ce8"/><path d="m157.755108 43.254132q-12.042971 32.705743-12.037649 38.938895" stroke="#465fb9"/><path d="m157.764438 98.155838q4.838726-18.322881 1.269485-38.373214" stroke="#1247a2"/><path d="m169.164131 159q-27.008583-98.175102 95.833715-128.443134" stroke="#008ae2"/><path d="m184.062215 22.907536q-18.83989 12.821403-51.630165 24.094866" stroke="#2da5f2"/><path d="m7.437224 56.131787q3.412405 102.868213 106.144141 86.058609" stroke="#006ccb"/><path d="m25.180072-6.777925q13.165728 91.143275 219.051035 32.973544" stroke="#008ce6"/><path d="m17.333752 38.858266q69.799204 84.281605-7.258329 118.628873" stroke="#006dce"/><path d="m-16-1.124122q112.74628 96.705837 64.549923 141.65996" stroke="#0077d7"/><path d="m121.845485 71.085752q-10.963064-2.49267-10.768923 15.383652" stroke="#9393db"/><path d="m140.956488 104.90777q-2.586331-11.653573-11.816343-8.726207" stroke="#749bdd"/><path d="m137.618755 81.104826q-3.781407-1.431229-11.792416 2.220134" stroke="#80c3ee"/><path d="m213.062201 47.421403q-21.526889 37.893632-51.028957 4.472464" stroke="#009aed"/><path d="m8.041458 34.117634q36.577013 102.074541-19.448336 113.029227" stroke="#0066c9"/><path d="m82.45428-7.857211q-9.951094 42.410462 9.192446 43.134364" stroke="#32a9f7"/><path d="m144.068248 34.083277q-11.934102 7.51294-18.746847 1.164969" stroke="#42a3f2"/><path d="m-3.952269-14.289531q96.262559 120.945373 64.254932 143.134956" stroke="#007fde"/><path d="m84.481555 80.070982q-26.0155-43.177495 57.752642-68.661727" stroke="#0096eb"/><path d="m145.325287 123.962551q4.711306 8.776533 11.330297 2.700537" stroke="#636ebd"/><path d="m100.585222 70.331399q-16.087616 30.641021-25.89281 40.04751" stroke="#6267b8"/><path d="m190.791406 145.205178q80.208594-61.879636 55.173396-133.637693" stroke="#0074d2"/><path d="m229.46427 132.439416q-23.164638-8.317909-23.376776 26.560584" stroke="#25388b"/><path d="m58.795912 131.828818q11.312323-2.760017 12.193923 5.127838" stroke="#48357d"/><path d="m166.630116 66.265001q-1.590024-.135534-19.658753-7.820052" stroke="#1348a8"/><path d="m107.165885.139757q21.164992 52.17809-56.416433 74.626035" stroke="#0094ea"/><path d="m246.758135 12.86794q24.241865 12.423752-59.54878 146.13206" stroke="#0077d5"/><path d="m177.868681 109.8911q13.497056 5.243768 17.34901 14.188999" stroke="#3951a5"/><path d="m252.018801 5.74562q-17.964655 61.468607-58.643099 138.389563" stroke="#007bd8"/><path d="m188.485033 107.334219q-33.469012-61.636449 46.077732-69.577722" stroke="#0092e8"/><path d="m189.590586 122.58201q-15.858327 3.507862-8.471815 36.41799" stroke="#072e7f"/><path d="m63.830755 118.483036q-79.830755-12.632064-55.726029-115.578559" stroke="#006fd1"/><path d="m199.15397-3.963129q2.716489 24.128373 14.656034 21.564179" stroke="#52a0f2"/><path d="m157.537038 64.239138q-8.406142 93.195009-75.402843 56.065388" stroke="#008bde"/><path d="m14.477359-16q-8.334872 33.926771 37.189507 168.226944" stroke="#006dd0"/><path d="m224.131631 10.665454q22.771199-1.255899 11.664747-26.665454" stroke="#66a0f3"/><path d="m24.152131 18.844319q103.688504 66.936029 121.007911 35.719095" stroke="#0093e8"/><path d="m-8.142457-1.371716q77.809387 82.022141 59.192341 143.504249" stroke="#0074d5"/><path d="m102.055207 98.278444q9.869418-1.661258 9.340422 22.056636" stroke="#7195cb"/><path d="m146.650234 54.470445q11.2797 7.549882 1.954747 22.042977" stroke="#2b4cad"/><path d="m219.139833 146.307471q51.860167-8.857092 24.106231-74.38847" stroke="#006bca"/><path d="m247.68763 64.393083q23.31237 72.582541-20.50805 73.722722" stroke="#0069c9"/><path d="m162.861267 105.15011q-7.690197 10.632173-7.424017 17.180644" stroke="#0036a3"/><path d="m255.771336 8.463166q-83.295983 53.790735-4.518687 138.284195" stroke="#0075d4"/><path d="m87.146921 138.651791q7.519222-.687795 26.125373 7.214051" stroke="#294d9d"/><path d="m245.547618-6.746538q-78.016889 43.463326-40.835802 153.68764" stroke="#0085e1"/><path d="m50.022884 87.280176q-60.587246 5.309122-34.517997 56.721932" stroke="#0065c7"/><path d="m105.740942 96.169877q4.12495 6.855939-1.853193 9.390897" stroke="#9e99cd"/><path d="m148.618078 35.180842q-28.751551 4.905783-29.560426-.877939" stroke="#3ba0f1"/><path d="m154.247347 73.615895q18.113236 64.094092-101.295025 85.076812" stroke="#008bdf"/><path d="m226.826215 122.297547q-19.800368 17.319566 5.634004 36.702453" stroke="#404499"/><path d="m84.057009 86.724007q-64.527311 72.275993-98.694598 40.367097" stroke="#0065c4"/><path d="m140.012753 80.454768q-5.384322 7.033582-24.676461 9.140682" stroke="#499cdb"/><path d="m96.939493 103.448738q-6.537096-12.879738-13.972707-9.082813" stroke="#8babd5"/><path d="m119.972508 70.153443q-2.283775 1.78714-7.784368 3.724285" stroke="#a0b6f2"/><path d="m69.105255 10.120818q4.609999 7.597795 74.258522-26.120818" stroke="#32a6f6"/><path d="m76.926043-15.040457q-27.686856 81.305723 66.148207 73.618252" stroke="#0095ea"/><path d="m69.756032-16q59.600434 55.92819-8.942395 109.700151" stroke="#0095ea"/><path d="m148.733142 40.904347q16.139416 7.84254 3.420574 26.351801" stroke="#5785d8"/><path d="m179.5797 122.352375q-.419766-12.407303 3.808663-20.680906" stroke="#6879c7"/><path d="m179.206567 103.30176q8.454162 1.036889 5.684969 8.721237" stroke="#8088d1"/><path d="m93.775829 33.815014q-6.696953-4.360979-10.592495-1.056943" stroke="#61b6f9"/><path d="m117.08029 95.275746q-11.358392 17.725541-16.442917 29.546389" stroke="#11439e"/><path d="m170.552573-5.354883q-22.658847 26.934194-39.30226 4.58978" stroke="#65aef6"/><path d="m72.626296 135.250205q.02353-7.508261-7.948295-6.369452" stroke="#7c97d5"/><path d="m109.331751 137.185685q37.887529 8.511619 44.106143-58.843372" stroke="#008ee0"/><path d="m44.536468 6.040282q30.999396-22.040282 41.605422-22.040282" stroke="#74adf5"/><path d="m193.779258 117.198999q53.177651-32.936256-25.160067-124.063627" stroke="#0089e3"/><path d="m212.962654 159q47.126982-42.741503 27.575915-103.14587" stroke="#006ecc"/><path d="m64.630016 135.683831q13.189855-26.751882 16.510786-29.037006" stroke="#0d2d80"/><path d="m144.246035 125.839215q.274302 6.897642 13.321733 6.983721" stroke="#26439a"/><path d="m174.855845 147.788308q-89.66183-16.827259-33.684049-92.976653" stroke="#008ee0"/><path d="m126.269259 20.710098q10.505906-.887016 23.770347 1.861871" stroke="#44a2f3"/><path d="m189.894587 135.124115q-17.208155-9.851509-1.714046-24.884239" stroke="#1a419b"/><path d="m227.238784 24.432758q-74.854155 15.703138-43.195117 63.991896" stroke="#0091e9"/><path d="m205.780875 17.438484q2.074516 1.71298 36.11337-15.455739" stroke="#4e9bf0"/><path d="m131.63941 3.716985q18.677005-.937822 67.865524-19.716985" stroke="#86b9f9"/><path d="m61.252848 128.114603q-63.974851-15.713542-22.587895-144.114603" stroke="#006fd1"/><path d="m192.16552 6.767869q12.126947 11.311993 27.513653 1.567957" stroke="#56a0f0"/><path d="m1.842338 142.958884q10.460779-68.5415 66.944945-29.790702" stroke="#0067c8"/><path d="m186.244032 136.497368q12.379914 13.2684-.197991 22.502632" stroke="#001d5b"/><path d="m-7.066426-16q96.192696 119.565798 64.922691 146.908064" stroke="#007cdb"/><path d="m185.860415 9.091165q85.139585 40.95526 3.838216 149.908835" stroke="#007fdb"/><path d="m94.380374 92.065407q-5.595152-12.164563-13.475094-2.727915" stroke="#143e97"/><path d="m219.350752 123.364253q-8.573157 5.87008-17.051396 31.600732" stroke="#253380"/><path d="m112.008533 24.273273q7.210007 4.125273 39.355976 6.358886" stroke="#3e9ef0"/><path d="m122.634769.414486q-63.919647 1.645408-33.474312 71.947122" stroke="#0c9def"/><path d="m236.551736 104.890828q-7.545876 54.109172-52.553988 53.769383" stroke="#004eb0"/><path d="m153.240726 128.648934q2.859101-1.605286.200468-3.31481" stroke="#a1a0e0"/><path d="m82.782504 108.719794q-11.475273 4.927283-12.48641 19.643179" stroke="#002e89"/><path d="m83.723792 84.686812q3.580185-2.781911 7.325091-8.065654" stroke="#6874c8"/><path d="m158.373252 135.326102q-2.721863-9.818566-4.752541-9.5409" stroke="#7b82cb"/><path d="m172.835996 77.876917q-4.507337-5.600698-11.766253-4.191559" stroke="#6b8cd8"/><path d="m260.83015 59.348375q-112.98554-22.00496-81.207861 99.651625" stroke="#0087de"/><path d="m229.628751 5.165343q-68.873101 10.424065-35.76807 102.466559" stroke="#008fe6"/><path d="m240.429168 38.932005q-62.013104 40.695865-81.59224 14.227913" stroke="#0094e9"/><path d="m100.616776 130.400133q2.736027-11.300968 6.433926-20.596217" stroke="#0144a0"/><path d="m47.20349 26.218633q16.679434 74.081166 73.628846 24.059786" stroke="#0094e9"/><path d="m256.498468-5.073049q9.644138 4.488003-67.223435 162.46706" stroke="#007ad7"/><path d="m53.208078 159q92.280784-76.272594 125.91909-6.544174" stroke="#0084d8"/><path d="m140.197213 105.783963q.692521-6.242-5.48978-9.226336" stroke="#899ad8"/><path d="m209.34452 99.813103q-35.598996-107.930229-160.34192-25.088298" stroke="#0090e6"/><path d="m175.595909 100.878468q80.410893-9.168502 76.488184 39.603726" stroke="#0073ce"/><path d="m112.280113 99.548142q-4.909372-3.522335-15.919375 4.754366" stroke="#88acd8"/><path d="m57.361746 134.274192q4.105362-5.367002 12.886687 2.750016" stroke="#24255f"/><path d="m160.836642 105.046346q-1.698934 23.64574-26.636845 26.144488" stroke="#0151af"/><path d="m254.840438 8.662599q-31.834764-10.460965-97.821027 112.619525" stroke="#0086e0"/><path d="m139.645813 72.335773q5.945621.97955 7.871341-.022036" stroke="#abb3e3"/><path d="m182.377731 17.813065q-5.552313-10.596557-114.290472-1.169093" stroke="#29a2f3"/><path d="m6.770551 51.405274q71.606154 56.873141 11.063471 92.657027" stroke="#006bcc"/><path d="m20.174151 63.823959q-36.174151 76.761799 37.51877 78.156145" stroke="#0067c9"/><path d="m95.766716 96.817363q14.834406 12.454146-21.516231 44.33909" stroke="#008adc"/><path d="m141.519612 60.089463q4.703332 3.326891 14.209251 2.220044" stroke="#8aa0dc"/><path d="m162.171782 159q-75.68312-38.163741-19.756055-109.609769" stroke="#008cdd"/><path d="m269.875107 5.268799q-76.75649-11.616473-64.664691 144.917923" stroke="#007fdd"/><path d="m-3.847793-14.934124q99.805804 120.768509 65.565258 142.042426" stroke="#0081de"/><path d="m161.756292 39.453501q-8.294632 6.156617-25.033152 6.24393" stroke="#4aa7f3"/><path d="m135.03544 76.526731q3.839596-49.921441-117.763265-57.91164" stroke="#0090ea"/><path d="m237.844847 63.293673q32.07178 72.9728-36.847914 92.714977" stroke="#006ecc"/><path d="m86.052119 139.423681q22.904289-2.855159 32.817388 15.683551" stroke="#2d4796"/><path d="m35.242541 40.732904q71.071368-1.136941 51.642152-56.732904" stroke="#09e"/><path d="m103.83548 16.665643q-4.699683-5.711982-30.047352-5.734163" stroke="#57abf5"/><path d="m216.718399 42.886877q2.362139-4.739201 6.451533-4.374114" stroke="#46a6f5"/><path d="m241.710882 2.417649q-9.689143-2.573063-9.633039 6.48572" stroke="#6ea5f6"/><path d="m13.904785 80.753433q-29.904785 60.114459 44.063242 62.143766" stroke="#0065c8"/><path d="m108.54628 2.8466q-66.370008-12.203031-60.82816 50.232358" stroke="#0093ed"/><path d="m229.989475 143.854554q41.010525-.60833 18.318885-83.24856" stroke="#006bca"/><path d="m16.963123 146.793015q-32.963123-29.485309 22.361315-82.563325" stroke="#0065c8"/><path d="m108.243119 89.138708q5.778996-5.428903 9.84191-19.875848" stroke="#9294d7"/><path d="m251.524838 144.753615q-51.682637-124.280096-11.055428-135.58101" stroke="#0077d6"/><path d="m222.320571 60.356404q-50.266463 26.755129-62.353976-13.9418" stroke="#0094e8"/><path d="m80.200047 86.192349q.675605.463663 5.774822 2.194191" stroke="#052b78"/><path d="m-16 147.243801q87.303464-12.148939 31.287814-107.571178" stroke="#0068c9"/><path d="m154.215544 67.34986q-9.412812-10.446103.371727-21.331943" stroke="#546ac2"/><path d="m71.021413 115.087737q7.551288-10.625805 10.282214-21.709699" stroke="#7e8dd7"/><path d="m86.319601 103.412179q6.418696-21.250748 8.34636-29.360949" stroke="#626eb9"/><path d="m147.657768 83.988363q3.444934 42.209103-32.775866 30.944685" stroke="#0095e4"/><path d="m151.271999 74.259417q-.43539-2.336203-3.35183-8.263027" stroke="#113ca4"/><path d="m107.703713 95.130934q-6.690638 1.678518-4.850538 12.916841" stroke="#928ec9"/><path d="m198.247683 134.673615q72.752317-41.707942 48.499019-128.14551" stroke="#0074d3"/><path d="m24.56103 17.784794q80.911765.304715 59.34716 64.919606" stroke="#0094eb"/><path d="m155.049119 72.655708q1.308079 68.535211-52.566372 59.93565" stroke="#008de0"/><path d="m201.096165 144.331484q-13.814102-115.983564 67.516171-123.296617" stroke="#0082de"/><path d="m108.597169 90.748683q-.626994-19.199693 13.977048-25.691096" stroke="#6b7ccf"/><path d="m48.2514 135.021377q42.21804-34.238886-52.643732-125.85924" stroke="#0076d6"/><path d="m231.444726 115.4496q-11.599848-1.922727-23.225089 43.5504" stroke="#6170c3"/><path d="m215.612568 80.213044q-17.537689-96.213044-165.373667-25.074701" stroke="#0193e9"/><path d="m260.387484 18.882425q-2.537005 20.496664-66.802592 140.117575" stroke="#0076d3"/><path d="m68.606099 82.130803q-30.241405-57.995593 46.751713-69.246462" stroke="#0092e9"/><path d="m218.604394 159q-8.662696-11.411366 8.871999-32.965005" stroke="#202e7e"/><path d="m185.315345 111.036065q-3.661491-8.78718-5.427085-7.448251" stroke="#949ce0"/><path d="m148.946229 30.009892q-9.565274 2.253825-17.663474-.140494" stroke="#5aa4f2"/><path d="m250.262101-1.21978q-6.430782.111676-26.366193-4.505716" stroke="#80b1f8"/><path d="m63.104961 5.104575q-70.12812 23.181955-.019556 141.516164" stroke="#0074d5"/><path d="m243.812542 67.076831q27.187458 69.292228-35.711104 84.499981" stroke="#006dcb"/><path d="m197.400794-7.01823q-76.813073 11.79288-76.265361 20.59203" stroke="#64abf6"/><path d="m271-.121035q-25.560492-15.878965-62.814122 9.920397" stroke="#59a0f2"/><path d="m122.637867 80.729257q-8.460668 16.786518-17.822501 13.107037" stroke="#1445a0"/><path d="m251.616376 52.431096q-96.121399-17.247612-82.006815 105.996355" stroke="#008ce1"/><path d="m144.699385 159q55.368987-16.23589 41.206306-50.994062" stroke="#234194"/><path d="m105.57701 109.107784q15.171559-7.729264 5.214261-22.378372" stroke="#2e4ba2"/><path d="m149.72199 60.262069q-2.479612.672009-9.637433 1.484995" stroke="#a4b7e4"/><path d="m67.333658 10.562487q10.818162.923742 16.221639 1.150498" stroke="#65b0f6"/><path d="m137.905171 131.189673q8.082347-4.010011 17.39048-8.222803" stroke="#0b49a3"/><path d="m199.241795 143.169665q43.018931-43.996689 44.852595-93.650459" stroke="#0073cf"/><path d="m31.484494 48.828925q107.756809-.613408 110.864574 14.981256" stroke="#0090e5"/><path d="m96.080742 133.43257q3.608463-.145413 9.358138 4.429892" stroke="#6584cf"/><path d="m163.690354 27.583359q15.908178 10.272004 23.304381-.634888" stroke="#49a7f2"/><path d="m158.4696 55.238477q47.682126 46.985374 67.786618-5.512847" stroke="#008fe5"/><path d="m101.295597 108.54324q13.142549-4.662957 22.483067-48.095419" stroke="#5264b5"/><path d="m190.210173 79.699601q-30.977225-75.705446-103.233357-3.211004" stroke="#0c9ced"/><path d="m19.413651 43.752734q70.165496 90.103008-34.560602 115.247266" stroke="#006ccc"/><path d="m177.042679 5.430451q93.957321 37.064948 14.10249 106.919219" stroke="#0087e2"/><path d="m3.875061 147.028164q-2.238003-72.987163 61.297972-42.416673" stroke="#0067c8"/><path d="m143.713729 69.715813q-99.580539-13.064494-87.678059-63.703128" stroke="#0091e8"/><path d="m116.657083 1.911774q65.923074-.7856 75.767176-.611344" stroke="#5da9f6"/><path d="m65.260056 121.767032q-81.260056-16.706065-46.426163-128.340478" stroke="#0070d3"/><path d="m16.780816 149.76008q45.601111-21.552148-11.40378-96.246648" stroke="#0069ca"/><path d="m163.438103 65.891522q-2.782685 13.671689 2.208752 22.524495" stroke="#5270c1"/><path d="m230.748253 116.427046q-15.649059 11.102189-14.790523 27.893322" stroke="#5a62b7"/><path d="m86.584218 103.293444q-15.240872 10.935801-16.996833 20.66417" stroke="#133795"/><path d="m-16 36.633897q1.072976-52.633897 68.759053-35.676129" stroke="#52a3f8"/><path d="m228.098546 142.799016q25.728571-55.498812 10.038649-85.110323" stroke="#0071cf"/><path d="m227.426133 125.111347q-11.60491 7.939553 8.79536 33.888653" stroke="#0a277d"/><path d="m9.882426 1.123304q125.828931 29.205157 124.90705 83.490543" stroke="#008ae8"/><path d="m259.866154-.496847q-33.977628 56.611353-67.107821 139.223188" stroke="#007dda"/><path d="m66.519255 123.775474q18.317965-134.52789-82.519255-114.125865" stroke="#0085e2"/><path d="m105.268783 97.805855q-.262639 14.851237 9.654938 12.496537" stroke="#778dc7"/><path d="m24.547964 159q66.163882-29.508231-20.759612-153.498202" stroke="#0073d3"/><path d="m140.623594 89.459178q-4.298929-6.316331-23.210389.386552" stroke="#5093d3"/><path d="m59.347729 93.451414q51.795889-37.988904-2.726079-94.903784" stroke="#0093e9"/><path d="m192.859345 138.760919q78.140655-118.559897 60.095192-134.219864" stroke="#007ad7"/><path d="m146.34238 83.983297q-4.763063-10.543052-29.320368 7.157961" stroke="#69a2d8"/><path d="m111.610086 2.347638q-106.023209.783794-127.610086 74.057458" stroke="#0086e7"/><path d="m85.347472 83.123631q8.521853-4.689487 12.331583-.423546" stroke="#757bcf"/><path d="m188.202708 26.829208q-15.692753 8.569546-20.611156 4.542834" stroke="#55a9f2"/><path d="m73.994515 111.814252q24.344555-28.578367 26.470184-35.044866" stroke="#5561b5"/><path d="m101.336363 90.389121q-6.071839-17.875939 5.257847-18.844057" stroke="#074bab"/><path d="m191.885245 138.732072q-5.078468-6.986757-13.70362-1.41557" stroke="#4659ac"/><path d="m2.593046 23.014252q243.243197 58.19695 255.962199-3.459459" stroke="#008de6"/><path d="m236.555652-9.549598q-76.47328 103.797275-41.804714 122.671246" stroke="#0089e3"/><path d="m181.310142 10.922283q65.479817 46.461702 2.208825 90.563168" stroke="#008be4"/><path d="m201.993096 15.731622q8.474547 2.483699 9.938814 1.247172" stroke="#60a3f3"/><path d="m254.470397 61.532963q5.85884 81.91714-18.892642 82.032935" stroke="#006bca"/><path d="m138.481358 61.065062q14.374852 11.735614 1.642289 18.764857" stroke="#7298db"/><path d="m81.814209 90.522982q-93.382137-79.001433-72.326127-106.522982" stroke="#007edd"/><path d="m197.078295 127.601726q-3.850004-6.867452-5.14044-5.748016" stroke="#163a8d"/><path d="m168.393286 69.68763q-.207491 8.659032 5.021809 7.391688" stroke="#668ad8"/><path d="m237.01702 16.14897q6.768383-1.816498 5.953698-8.533477" stroke="#519bf1"/><path d="m113.618217 28.837864q18.472319-.736961 35.736645-13.344735" stroke="#40a0f1"/><path d="m-14.846342 159q73.895977-61.426703-1.153658-116.395943" stroke="#0065c7"/><path d="m172.744117 159q-48.310966-72.281702 97.585867-120.769354" stroke="#0085dc"/><path d="m73.302447 78.437762q57.073985-92.337261 92.672663-58.036537" stroke="#0296eb"/><path d="m18.032289 9.879884q39.152486 60.539292 154.806582-3.158345" stroke="#0291ea"/><path d="m147.989887 29.467107q-14.311179.6412-23.330335 10.204132" stroke="#4fa3f2"/><path d="m197.714026-16q-22.205679 52.21507-85.742573 21.32759" stroke="#3da3f3"/><path d="m38.961772 153.230678q59.40076-72.375917-54.961772-139.25691" stroke="#0075d5"/><path d="m205.745671-12.190303q31.307972 30.852985 58.551711 7.659301" stroke="#549ef2"/><path d="m150.604024 81.398593q4.548507 57.579798-41.461249 57.211012" stroke="#008ddf"/><path d="m219.945396 119.864286q-5.090116 17.557578-15.233029 28.228442" stroke="#434d9f"/><path d="m135.438387 51.207098q-85.898592 62.358881-114.024044-51.388738" stroke="#0087e1"/><path d="m140.037739 106.669054q-8.48132-8.454167-12.071038-5.904069" stroke="#5b57a6"/><path d="m207.181099 102.131083q63.818901-.097223 43.429875 56.868917" stroke="#0070cc"/><path d="m263.729437-14.043127q.069603 7.154986-77.273114 173.043127" stroke="#007cd9"/><path d="m162.612286 90.667515q12.365541 10.332916-22.905101 40.125825" stroke="#004eb0"/><path d="m144.457993 125.554532q11.492578 4.22285 14.613942 12.126608" stroke="#364ca3"/><path d="m106.226041-2.74947q9.316876 87.298965-46.881625 90.573792" stroke="#008fe5"/><path d="m117.838011 47.840863q9.145201-1.149211 25.613297-9.575167" stroke="#2aa3f2"/><path d="m-4.454357 2.272799q101.545214 94.274401 45.988971 152.113018" stroke="#0079d7"/><path d="m61.465851 14.244792q22.483843 5.238568 36.066333-2.669208" stroke="#33a2f5"/><path d="m181.06011 109.170081q13.706887 38.891882-11.424771 49.829919" stroke="#3954ad"/><path d="m79.572983 30.846898q6.02608 2.256252 13.646697 1.13058" stroke="#4caff6"/><path d="m84.166771 91.747709q-2.614684-3.294194 2.628446-5.072408" stroke="#0e2976"/><path d="m110.881853 155.336577q22.417908-21.046886 45.519047-85.039809" stroke="#008fe1"/></g></svg>