<svg height="1024" width="1024" xmlns="http://www.w3.org/2000/svg"><path d="m0 0h1024v1024h-1024z" fill="#5c5857"/><g fill-opacity=".501961" transform="matrix(4 0 0 4 2 2)"><path d="m37 224 178 3-86-59z" fill="#fffffd"/><path d="m254 258-64-274h73z" fill="#120c17"/><path d="m117 189 46-123-42-21z" fill="#bfc8c8"/><path d="m0 270-14-272 94-5z" fill="#2e1d26"/><path d="m239 249-79-26-84 19z" fill="#3b0000"/><path d="m195 215-84-20-102 39z" fill="#ffffc3"/><path d="m115 246h-106l93-26z" fill="#0d0000"/><path d="m131 268 72-22h-152z" fill="#ffc47c"/><path d="m2 160 27-19-25-5z" fill="#fff4e5"/><path d="m121 122 119-90 5 196z" fill="#394553"/><path d="m153 53-54 1-5 32z" fill="#c5d7ce"/><path d="m269 240-93-26 47 29z" fill="#ffd070"/><path d="m86 125 38-57 13 16z" fill="#00071b"/><path d="m-16 90 63-106-50 3z"/><path d="m240 154-241-1 43 61z" fill="#4e6982"/><path d="m124 236 29-30-60-2z" fill="#ffffe8"/><path d="m-16 236 31 12 57-33z" fill="#ecb461"/><path d="m5 61 2 16 43-15z" fill="#ff8b80"/><path d="m59 32 171-2-126-46z" fill="#89876b"/><path d="m-16 171 94-8-94 70z" fill="#04263b"/><path d="m102 154 71 59 71 1z" fill="#728ba6"/><path d="m271 115-61-131 61 12z" fill="#080000"/><path d="m206 233-14-27-58 12z" fill="#fff7b2"/><path d="m145 223 79 13-75 10z" fill="#190000"/><path d="m123 125 10-34 23-4z" fill="#fff3e0"/><path d="m135 129-3 38-17-27z" fill="#e6e9e7"/><path d="m142 245-106-9 69-15z" fill="#5f0000"/><path d="m90 192-39 23-55-5z" fill="#71a4c0"/><path d="m243 47-17 57-38-18z" fill="#80706b"/><path d="m45 158-55-50 128-75z" fill="#323c44"/><path d="m264 232-5-18-62 2z" fill="#280000"/><path d="m47 214-63 2 50 14z" fill="#3c1400"/><path d="m228 271-69-16 110-8z" fill="#2b0600"/><path d="m197 69 19 121-75-154z" fill="#36393d"/><path d="m57 127-16 5-4-13z" fill="#cbcec7"/><path d="m104 242 40-19 12 11z" fill="#c41c00"/><path d="m111 133 39-10-43-2z" fill="#09142b"/><path d="m18 246 82-2-18-18z"/><path d="m194 215 77 19-36 17z" fill="#b8763d"/><path d="m252 88-62-43-10-61z" fill="#3d302e"/><path d="m114 180-25 42 81 1z" fill="#f3e2d2"/><path d="m173 121 2 17 4-14z" fill="#fcfff8"/><path d="m39 136-55-89v93z" fill="#19101d"/><path d="m31 161-24 7 25-16z" fill="#ccded1"/><path d="m56 17-22 38-17-32z" fill="#736e6b"/><path d="m219 246-14-15-40 13z"/><path d="m218 121-35 5 34 5z" fill="#baaaaf"/><path d="m176-2-57 18-27-19z" fill="#a5a587"/><path d="m-4 39 71-48-83 7z" fill="#000003"/><path d="m9 62 8 7-10 3z" fill="#fff"/><path d="m103 83 7 2 9-19z" fill="#eaf8f1"/><path d="m-10 248 32 23 71-17z" fill="#4c1a00"/><path d="m50 165-16 16-7-65z" fill="#12212f"/><path d="m138 74-28 40 9-46z" fill="#1e2a36"/><path d="m229 61 42 36-20 52z" fill="#100c19"/><path d="m156 106-17 54-3-53z" fill="#292433"/><path d="m72 127 12-3 1 6z" fill="#fff"/><path d="m226 61 32-4-25-5z" fill="#d9897c"/><path d="m212 27 9-3-1 35z" fill="#b29b93"/><path d="m109 210 16 27 9-28z" fill="#ffffe3"/><path d="m31 45-29-4 31 46z" fill="#560b15"/><path d="m46 216 86-25 2-41z" fill="#928c99"/><path d="m245 115-12 2 7-11z" fill="#c5c8b1"/><path d="m122 172-61-88 44 1z" fill="#354755"/><path d="m8 146 12 24 3-19z" fill="#0e2334"/><path d="m138 121-20-2 3-18z" fill="#cbd9da"/><path d="m178 162 93 30v37z" fill="#0e3148"/><path d="m80 39-6 10h5z" fill="#fff"/><path d="m45 210 7 21 70-15z" fill="#f0e3a3"/><path d="m195 165 4-13-9 4z" fill="#dee2c9"/><path d="m2 80 48-20-4 40z" fill="#734b4f"/><path d="m179 49-8-1 4-6z" fill="#fff"/><path d="m190 159 63 54-102-19z" fill="#3b556f"/><path d="m205 28-22-5-5 12z" fill="#a6a397"/><path d="m222 242-21-14 36 4z" fill="#ddbf8c"/><path d="m229 214-55-5-6-19z" fill="#6b96b5"/><path d="m18 170-16-24 4 18z" fill="#bdcbc0"/><path d="m117 226 12 22-32-26z" fill="#c83100"/><path d="m-11 218 95-38-14-23z" fill="#33495b"/><path d="m90 61 57-18-97-59z" fill="#5b5b4e"/><path d="m53 246 46-23-60 11z" fill="#0a0000"/><path d="m158 127 57 8 24 39z" fill="#263643"/><path d="m59 168-12-11 16-16z" fill="#97a8a8"/><path d="m210 36-14 28-9-7z" fill="#96978b"/><path d="m201 102 45-2-25 25z" fill="#22202a"/><path d="m127 128 11 7-26 4z" fill="#f5e0d7"/><path d="m140 73 10 29-15 4z" fill="#ffe2cd"/><path d="m107 155-8-7 7-22z" fill="#95a6a9"/><path d="m159 225 66 20h-96z" fill="#230000"/><path d="m211 148 12 5-11-1z" fill="#ffffec"/><path d="m193 30-9 18 30 5z" fill="#212424"/><path d="m9 148-8-10 24 5z" fill="#fcdfcd"/><path d="m85 163-4-2 3-14z" fill="#dde6da"/><path d="m72 156-31-42 74 30z" fill="#3d5362"/><path d="m170 112-3-4-2 5z" fill="#fff"/><path d="m247 175-6-1 3-5z" fill="#ecf5de"/><path d="m271 70-12-80-42-6z"/><path d="m233 14-8 7 6-9z" fill="#ddcebf"/><path d="m229 157 6-4-2 6z" fill="#feffec"/><path d="m201 18v-6h6z" fill="#f6f1d1"/><path d="m237 21-27 17 42 21z" fill="#4b252c"/><path d="m247 139-5 3-2-2z" fill="#f8fcdf"/><path d="m233 134 1 8-5-6z" fill="#e9eeda"/><path d="m29 163-1-9-5 2z" fill="#fffff8"/><path d="m145 271 87-25h-46z" fill="#987244"/><path d="m234 177-4-1 3 4z" fill="#fff"/><path d="m217 139h6l-2 4z" fill="#fff"/><path d="m252 162 19 21-6-23z" fill="#e8f3dc"/><path d="m149 247-38-2 7 9z" fill="#f4bf8b"/><path d="m249 197 22-29-26-4z" fill="#001225"/><path d="m81 100 16 1-3-5z" fill="#bcbeb3"/><path d="m69 22 1 83 11-43z" fill="#7b796e"/><path d="m104 246 48-22 5 17z" fill="#770a00"/><path d="m234 43h-6l5-4z" fill="#fffff1"/><path d="m158 205-11-62-4 45z" fill="#927c89"/><path d="m14 173-30 55v-90z" fill="#000e1f"/><path d="m118 85-4 55-22-53z" fill="#262f3f"/><path d="m-16 235 70-20-46 36z" fill="#a57a4b"/><path d="m115 51 40 43 4-16z" fill="#a7b8b4"/><path d="m211 227 40-9-44-2z" fill="#321807"/><path d="m208 162 3 3 10-6z" fill="#dbdecf"/><path d="m239 27-2 4-1-5z" fill="#e8e7df"/><path d="m201 98-16 9v-60z" fill="#26252a"/><path d="m91 111-12-43 12-26z" fill="#313337"/><path d="m257 146-16 7 30-4z" fill="#bac2b1"/><path d="m173 124 17-21-16-53z" fill="#616663"/><path d="m222 27-6-1 2 5z" fill="#fff"/><path d="m217 61v43l-26-19z" fill="#6d7573"/><path d="m16 145 15 9h-21z" fill="#192c3e"/><path d="m203 218 7 14-31-4z" fill="#f5e9a7"/><path d="m224 175-5-2 3-4z" fill="#ffffef"/><path d="m29 231-25 6 27 6z" fill="#d4b481"/><path d="m215 27-36-30 3 25z" fill="#2e322d"/><path d="m144 141-14-14 38-52z" fill="#47383f"/><path d="m31 62 4 1v4z" fill="#fff"/><path d="m18 245 127 11-58 15z" fill="#966742"/><path d="m46 149 7-35 5 36z" fill="#132234"/><path d="m151 205-54-2 30-26z" fill="#c3b1c2"/><path d="m52 28 20-43-41 11z" fill="#1e221d"/><path d="m72 205 90 2-36 23z" fill="#fdf7ce"/><path d="m127 68 8 3 1 17z" fill="#212830"/><path d="m162 58-60-13 73-42z" fill="#5c5d51"/><path d="m79 210-50 30 25-31z" fill="#e4d181"/><path d="m-16 91 24-19-8 99z" fill="#220c16"/><path d="m69 130 13 12h-9z" fill="#abada3"/><path d="m217 45h6l-7 5z" fill="#fbffeb"/><path d="m59 40-67 24 53-4z" fill="#772b2b"/><path d="m64 118-8-3 8-10z" fill="#94958d"/><path d="m219 56 17-9-14-7z" fill="#21080d"/><path d="m172 31-19 19 21 60z" fill="#383d3b"/><path d="m108 82v-26l24-5z" fill="#b8c2ba"/><path d="m179 138-1 33 38-70z" fill="#2c3644"/><path d="m39 122-55-4 56-28z" fill="#404349"/><path d="m155 34 10-13 8 10z" fill="#a59f8c"/><path d="m132 121-16-6 23-31z" fill="#bcb9b4"/><path d="m155 223-32 14 11-12z" fill="#b42d05"/><path d="m79 129-16 11v17z" fill="#20303e"/><path d="m271 225-17 24-19-25z" fill="#8c562b"/><path d="m213 59 27 19 22-14z" fill="#3b131d"/><path d="m236 151 13-26-16 17z" fill="#03121f"/><path d="m27 190-26 26 93-25z" fill="#42637b"/><path d="m258 112-40 18 5 11z" fill="#151d28"/><path d="m172 154 4-22 3 35z" fill="#828f8f"/><path d="m216 151 11 9-14 16z" fill="#1b2c3a"/><path d="m240 55v8l-28-6z" fill="#b47b70"/><path d="m23 213 39-10-12 11z" fill="#75a7c6"/><path d="m186 67h45l-3-12z" fill="#2e2326"/><path d="m93 117 8 6-8-24z" fill="#8f968f"/><path d="m192 115 11-8-10-3z" fill="#a27770"/><path d="m262 118 6 24-30 12z" fill="#000e1c"/><path d="m271 248-1 23-86-16z" fill="#201104"/><path d="m203 43 2-6 3 4z" fill="#f8e9c6"/><path d="m149 61-9 31 16-3z" fill="#848c8a"/><path d="m48 39 20 1-1 71z" fill="#3b3736"/><path d="m44 80-22 20 16-8z" fill="#7d8685"/><path d="m32 12-11 9 46 12z" fill="#5d5d5e"/><path d="m6 66 5 4 5-6z" fill="#ffffef"/><path d="m-12 271 3-20 72 4z" fill="#1c0b03"/><path d="m145 56 13 28 1-14z" fill="#c2cfc8"/><path d="m177 125-4-2 2 8z" fill="#fff"/><path d="m219 7v4l-5-4z" fill="#e1d4bd"/><path d="m194-12 13 26 26-16z" fill="#12100f"/><path d="m45 231 33 9-55 6z" fill="#0d0000"/><path d="m46 231 12-19-3 16z" fill="#ffffd2"/><path d="m67 128-10-2 13-1z" fill="#bdbeb6"/><path d="m41 139 6 3-3 4z" fill="#b6c1b5"/><path d="m45 90 16-7v8z" fill="#8b8b80"/><path d="m199 62-4-13 7 8z" fill="#bcb9ad"/><path d="m72 159-54 22-34 47z" fill="#273a49"/><path d="m209 120-4 9 16-6z" fill="#b9abae"/><path d="m5 162-3-7 6 3z" fill="#e7eae0"/><path d="m149 176 25-20-1-17z" fill="#3a414a"/><path d="m161 156 8-4-1-23z" fill="#808984"/><path d="m35 47 17-14-28 5z" fill="#857a78"/><path d="m192 207 5 7 21-1z" fill="#83b7d0"/><path d="m213 65 14 5 7 14z" fill="#8a8b87"/><path d="m167 151-3-17-15 28z" fill="#223544"/><path d="m71 36 1 92 15-44z" fill="#40464a"/><path d="m123 244-32 2 6-22z" fill="#600400"/><path d="m132 168 18-23-20 11z" fill="#2b3d4e"/><path d="m218 238-64-33 40 7z" fill="#e7d99b"/><path d="m4 24-10 36 33-15z" fill="#1d0611"/><path d="m147 109 7-12-14 8z" fill="#b3564e"/><path d="m194 232-43 13 74-1z" fill="#060000"/><path d="m242 207-67-36 31-12z" fill="#2e3f4d"/><path d="m58 123-21-11 17-30z" fill="#272c39"/><path d="m61 157 1 2-4 5z" fill="#fff"/><path d="m184 115 21-53-21 8z" fill="#2e2d31"/><path d="m158 101 1 18 3-14z" fill="#989f95"/><path d="m129 117-6-14h10z" fill="#70878f"/><path d="m96 103-1 20 45-40z" fill="#333c48"/><path d="m134 90 14 12-27-2z" fill="#f1e2d3"/><path d="m247 106 3-6 2 2z" fill="#a5ac9e"/><path d="m252 237-42-15 20 27z" fill="#b7875d"/><path d="m119 150v21l-12-39z" fill="#263445"/><path d="m159 143-8 10 8-25z" fill="#808f8d"/><path d="m109 56-13 29-2-12z" fill="#b2bdba"/><path d="m267 153-46 22 24-21z" fill="#0b2433"/><path d="m75 107 3-31 3 16z" fill="#7b807a"/><path d="m169 85-9-5 1 37z" fill="#282c32"/><path d="m271 74-42-44 36 2z" fill="#250915"/><path d="m147 194 26-24-13 21z" fill="#a3919a"/><path d="m98 164 23 14-7 3z" fill="#9ba1a6"/><path d="m7 142 17 5v-7z" fill="#dce4d2"/><path d="m94 221 44 3-8-11z" fill="#ffffdf"/><path d="m214 159h11l-14 4z" fill="#babaab"/><path d="m204 71-8 12 8 16z" fill="#8b8d8b"/><path d="m91 139-1 14 23 20z" fill="#2d3c4d"/><path d="m87 104-4-7-1 3z" fill="#eaecdb"/><path d="m33 101 3 1-3-3z" fill="#fff"/><path d="m168 102-1-3 3-1z" fill="#f5fcee"/><path d="m139 79-35 39 12-46z" fill="#333a44"/><path d="m86 127-3 5-2-11z" fill="#e4f3da"/><path d="m1 58 13 25-7 3z" fill="#9a4943"/><path d="m214 96-12-9 12-15z" fill="#40444d"/><path d="m238 88 17 22-33-4z" fill="#22242e"/><path d="m170 24 11-4-2 22z" fill="#4b4c45"/><path d="m38 225 8-11h-49z" fill="#2b1e1c"/><path d="m14 179 16 18 26-63z" fill="#24323d"/><path d="m187 196-23 5-43-48z" fill="#726a7b"/><path d="m42 100v-3l-1 1z" fill="#fff"/><path d="m234 84-19 19 16-9z" fill="#7d8a92"/><path d="m17 72 2-10-8-3z" fill="#ec6e5e"/><path d="m141 73-18-8h13z" fill="#d4e3d9"/><path d="m244 121-1-12-8 7z" fill="#92968e"/><path d="m56 98 5 3-3-5z" fill="#d2cebb"/><path d="m251 62-6 17 7-3z" fill="#8a4d4b"/><path d="m53 213-20 15-33-1z" fill="#724a26"/><path d="m244 138-3 3 6 4z" fill="#cfd2c1"/><path d="m193 34 20-50-25 3z" fill="#323430"/><path d="m99 148-6-4v-12z" fill="#9da6a4"/><path d="m48 126 40-25 5 20z" fill="#35444e"/><path d="m38 124 12-3-10 10z" fill="#b9bab3"/><path d="m43 136-28-17 22 38z" fill="#1c2735"/><path d="m157 17-93-24 48 38z" fill="#797865"/><path d="m153 122 1-1-2-2z" fill="#fffff7"/><path d="m60 145-1 2 5 1z" fill="#fffffd"/><path d="m134 127 28-11-27-6z" fill="#283643"/><path d="m-1 95 39 1-47-16z" fill="#2a131e"/><path d="m178 125h27l-28-32z" fill="#373a45"/><path d="m180 72 5 14-2-26z" fill="#84857a"/><path d="m132 146-14-2 7 6z" fill="#faffff"/><path d="m205 154-7-5-14 3z" fill="#5d727c"/><path d="m87 166 8 13 11 4z" fill="#989ba4"/><path d="m146 180-28 9 3-38z" fill="#8a9094"/><path d="m233 15-2 1-1-2z" fill="#fffff4"/><path d="m138 220 54 9-46-28z" fill="#eee4b9"/><path d="m217 141 6-6-1 6z" fill="#dfdbbf"/><path d="m36 80 4-30 10 24z" fill="#592127"/><path d="m201 29-4-2-4 3z" fill="#f3ddc5"/><path d="m75 142-3-3h7z" fill="#ffffe6"/><path d="m102 201-55 11 23-14z" fill="#7794aa"/><path d="m177 90 6-17-6-22z" fill="#2e2f31"/><path d="m258 214h-47l41 12z" fill="#15100d"/><path d="m219 20 11 25-1-29z" fill="#452a31"/><path d="m27 30 5 7-1-13z" fill="#18131c"/><path d="m152 126-18 22v20z" fill="#25374c"/><path d="m81 144-8-17 9 3z" fill="#273643"/><path d="m213 221 34 10h-31z" fill="#875330"/><path d="m139 96-5 12 14-13z" fill="#fff"/><path d="m105 161 9 9-9-20z" fill="#a7ada9"/><path d="m218 164-6-7 5-7z" fill="#18212d"/><path d="m107 137-1-4-3 6z" fill="#ecf0dd"/><path d="m77 168-4-8 3-12z" fill="#97a5a5"/><path d="m187 53 8-25 12 18z" fill="#363534"/><path d="m231 164-2-62-14 11z" fill="#32343e"/><path d="m215 134 10 17-19-12z" fill="#1b202c"/><path d="m168 109-2 5h4z" fill="#fffff5"/><path d="m46 109h21l-44-17z" fill="#272c39"/><path d="m50 155 3 6 7-1z" fill="#2d4050"/><path d="m240 125 3 7h-5z" fill="#939a93"/><path d="m218 42-10 17 2-45z" fill="#373234"/><path d="m271 100v24l-43 4z" fill="#061021"/><path d="m79 105 3-67 21 16z" fill="#3f4243"/><path d="m11 126 5 2 1 15z" fill="#2d2c31"/><path d="m70 123-1 15 5-12z" fill="#a7aba7"/><path d="m181 252-25 19-52-16z" fill="#8d5c3e"/><path d="m104 137v13l-8-19z" fill="#36434e"/><path d="m230 139v-3l4 1z" fill="#fffff5"/><path d="m16 155h-14l29-11z" fill="#333f4b"/></g></svg>