<svg height="588" width="1024" xmlns="http://www.w3.org/2000/svg"><path d="m0 0h1024v588h-1024z" fill="#d0c7b8"/><g fill-opacity=".501961" transform="matrix(4 0 0 4 2 2)"><path d="m27 132 162-23-123-56z" fill="#340f00"/><path d="m271 6-269-22-18 126z" fill="#fff"/><path d="m215 68 8 44 48-6z" fill="#141000"/><path d="m128-16 41 139 102-104z" fill="#fff"/><path d="m142 55 18 41-124 30z" fill="#443124"/><path d="m17 131 232 31 22-64z" fill="#d8b766"/><path d="m271 78-17-94-270 51z" fill="#f5fbff"/><path d="m38 94 108-33-90 1z" fill="#a5654c"/><path d="m-16 113 44 49 24-56z" fill="#d1ae63"/><path d="m136 95-20 59 75 8z" fill="#e6d7a3"/><path d="m207 72 40 45-5-41z" fill="#414131"/><path d="m137-2-153-10 17 125z" fill="#f7fcff"/><path d="m42 83 4 51 86-28z" fill="#564534"/><path d="m250 105-19-86 40 71z" fill="#f6fbff"/><path d="m154 71 10 55-45-55z" fill="#614b3d"/><path d="m167 104 52-2-27-87z" fill="#f1f9ff"/><path d="m1 107 42-28-4 30z" fill="#f8ffff"/><path d="m112 123 13 1-12-21z" fill="#1b120e"/><path d="m44 77h97l-16-22z" fill="#b78f7d"/><path d="m-16 152h59l4-50z" fill="#d7bf89"/><path d="m140 109-3-13-7 7z" fill="#fff"/><path d="m161 104 1 19 56-18z" fill="#bfa16d"/><path d="m138 89-14-14 1 34z" fill="#0f1615"/><path d="m214 70 13-1-7 32z" fill="#817e71"/><path d="m237 73-16 33 27-2z" fill="#3c392c"/><path d="m247-13-47 113-106-74z" fill="#edeeef"/><path d="m120 82-79 5 19-25z" fill="#9a705d"/><path d="m105 118-121 34 158-1z" fill="#dec88e"/><path d="m94 94-10-16-21 31z" fill="#342a23"/><path d="m64 105-41 18-39-10z" fill="#a28867"/><path d="m48 111 6-15-8-5z" fill="#0d0f10"/><path d="m172 126-34-20-27 23z" fill="#cbad7a"/><path d="m248 113-179 26 192 23z" fill="#e2cf99"/><path d="m217 20-195-2-38 62z" fill="#ebeced"/><path d="m90 95 10 17-41 23z" fill="#886f4d"/><path d="m148 86 5-4-14-18z" fill="#211d1a"/><path d="m129 57 14 45 2-21z" fill="#b99381"/><path d="m113 116-49-11 23 14z" fill="#3b3423"/><path d="m121 56v41l-11-34z" fill="#b7a093"/><path d="m271 72-196-19 180-69z" fill="#f0f1f2"/><path d="m156 75 6 32 59-77z" fill="#ebf0f1"/><path d="m-9 31 180-32-169-15z" fill="#fbfbfd"/><path d="m154 94 16 10-13-3z" fill="#484037"/><path d="m207 110 49 7 15-16z" fill="#a78c5e"/><path d="m157 98 4 14-7 6z" fill="#2c2b20"/><path d="m81 162 12-16-19-35z" fill="#dec896"/><path d="m247 91-4 13-24 6z" fill="#353426"/><path d="m130 108-14 6 14 11z" fill="#987c55"/><path d="m37 115v18l7-26z" fill="#755f51"/><path d="m-16 131 55-20-8 51z" fill="#ddc38b"/><path d="m39 109 7-58-52 45z" fill="#eaf0f4"/><path d="m68 99 1-41h13z" fill="#b27860"/><path d="m160 100 7 38 23-11z" fill="#ddca98"/><path d="m99 63 15-17-75 1z" fill="#f7f9fb"/><path d="m176 106-34-53 81 40z" fill="#ecf1f2"/><path d="m149 104-10-6h7z" fill="#000604"/><path d="m219-6 52 45-43 38z" fill="#f0f1f2"/><path d="m144 105-3-3-5 3z" fill="#feffff"/><path d="m110 105 4 22 7-8z" fill="#44362c"/><path d="m235 96-20-25 12-2z" fill="#746f5b"/><path d="m157 105h62l-29 12z" fill="#b79c6e"/><path d="m122 74 8 29 5-14z" fill="#191b18"/><path d="m147 63-31-6-27 18z" fill="#c49f8f"/><path d="m77 84-12-11-9 10z" fill="#cba58f"/><path d="m135 92-11-19 23 10z" fill="#6e5446"/><path d="m107 116 25 46h-116z" fill="#dcc895"/><path d="m147 75 9 2-9-13z" fill="#aa877b"/><path d="m95 100-11-6 17 23z" fill="#a3885d"/><path d="m28 91-42-66 140-23z" fill="#eeefef"/><path d="m68 63-16 7-11 17z" fill="#8f6554"/><path d="m134 114 10 42 7-46z" fill="#dfcb94"/><path d="m52 144-32-9 51-5z" fill="#ceb483"/><path d="m79 58-2 13 26-1z" fill="#d4a086"/><path d="m221 102-52 1 16-59z" fill="#ebeeef"/><path d="m241 86 30 5v-33z" fill="#eff5fa"/><path d="m57 37 46-37 114 78z" fill="#ebeced"/><path d="m124 87 5 29-22-42z" fill="#716051"/><path d="m174-8 92 1-36 82z" fill="#f3f2f2"/><path d="m150 84 11 14-2-9z" fill="#ad8f82"/><path d="m160 115-10-2 8 11z" fill="#886d48"/><path d="m140 104-7-5 2-2z" fill="#fff"/><path d="m255 97-31-3-1-14z" fill="#524f3c"/><path d="m248 96-3 8 17-7z" fill="#c6c7c4"/><path d="m49 83-4 6h5z" fill="#ebc5ae"/><path d="m103 117-5-9 6-7z" fill="#202117"/><path d="m44 103 4 6-5 15z" fill="#dacbab"/><path d="m138 64 7 5 1 11z" fill="#362c25"/><path d="m43 131 29-25 14 11z" fill="#69513d"/><path d="m43 111-1-5-3 10z" fill="#3d2a2a"/><path d="m93 111 7 6-4 4z" fill="#22241b"/><path d="m34 108 3 2-7 1z" fill="#515044"/><path d="m137 58-7 18v-15z" fill="#d8a891"/><path d="m28 110 20-36-64 6z" fill="#ebeeef"/><path d="m110 112 9-7-4-14z" fill="#29251e"/><path d="m145 87 1 20 14-13z" fill="#554934"/><path d="m89 91-12 21 7-27z" fill="#2f2b25"/><path d="m223 105-34 11 40 4z" fill="#d1b381"/><path d="m156 93-9 6 7 14z" fill="#866e4f"/><path d="m89 122 6 21-19-20z" fill="#d6b886"/><path d="m69 60 8 32 9-12z" fill="#8a5f4f"/><path d="m217 82 5-1-4 9z" fill="#a1a19d"/><path d="m42 95 4 7 11-15z" fill="#463730"/><path d="m167 103h3l-2 4z" fill="#51402a"/><path d="m94 87 18-15 12 15z" fill="#7b6b64"/><path d="m212 82-1-5 6 1z" fill="#606157"/><path d="m108 91-4 22 6-7z" fill="#8d704f"/><path d="m263 88-111-67 104-11z" fill="#edeeee"/><path d="m88 122 16-2 7 42z" fill="#e3d0a6"/><path d="m221 100 22-21-9-4z" fill="#53503c"/><path d="m155 80 19-58-1 84z" fill="#eff1f2"/><path d="m69 113-27-4 13 8z" fill="#8b6957"/><path d="m121 79 5-8-1-8z" fill="#5d4c43"/><path d="m144 77 2-7 3 6z" fill="#a08e84"/><path d="m151 99 6 11-2-19z" fill="#8f725f"/><path d="m271 111-46 27-44-10z" fill="#e3cc9b"/><path d="m75 125-22 3 15 4z" fill="#89735a"/><path d="m251 93 13 2-23-26z" fill="#edf2f5"/><path d="m45 128 27-10-24-2z" fill="#503f34"/><path d="m157 110-4-8-9 5z" fill="#5a5239"/><path d="m94 90 5 4-2 15z" fill="#3c342a"/><path d="m96 107-9 9 5-13z" fill="#937855"/><path d="m129 95-3 16-11-5z" fill="#584939"/><path d="m16 110 30-34-62-76z" fill="#eceeef"/><path d="m65 21 64 39 50-45z" fill="#ececec"/><path d="m90 58h-50l28-20z" fill="#f8f9f8"/><path d="m151 98-14 3 15-12z" fill="#3c362b"/><path d="m76 85 19 24-11-5z" fill="#544336"/><path d="m125 158-21-28 5-14z" fill="#ceb880"/><path d="m96 104-9 4-8-2z" fill="#ac8c67"/><path d="m45 144-1-30-5 15z" fill="#d9bf87"/><path d="m237 84-15-14-10 1z" fill="#7f7966"/><path d="m252 99 2-3-10-6z" fill="#9d8d6b"/><path d="m140 72-13-5 16 13z" fill="#c8a693"/><path d="m150 66-18-7h11z" fill="#cf977e"/><path d="m12 110-6 11-16-10z" fill="#b09568"/><path d="m136 106 8-2-10-2z" fill="#e5f4fb"/><path d="m207 103-5 3h7z" fill="#7e6b4a"/><path d="m113-16 152 16-87 17z" fill="#fafaf9"/><path d="m139 115-14 27 30-25z" fill="#e1ce9c"/><path d="m219 87-70-28 19 43z" fill="#ecefee"/><path d="m128 104 14 3-13 3z" fill="#a89171"/><path d="m153 74-6 17 7-9z" fill="#564940"/><path d="m97 117h-10l8-4z" fill="#121413"/><path d="m121 75 2-19-21 5z" fill="#c1a698"/><path d="m85 59-19 1-8 14z" fill="#b6826c"/><path d="m225 91-4-6 18-6z" fill="#424030"/><path d="m230 109-12-5 6 8z" fill="#877456"/><path d="m82 121 8 1 4-3z" fill="#b58d62"/><path d="m56 134-8-5 10-2z" fill="#95705b"/><path d="m161 105 1-4 2 4z" fill="#f1ffff"/><path d="m131 120-8 9-2-17z" fill="#ac9065"/><path d="m165 21 52 3-23 8z" fill="#e2e3e3"/><path d="m44 135 3-21 3 7z" fill="#725647"/><path d="m57 66-12 14 15-5z" fill="#8c6250"/><path d="m-16 127 64 35 13-27z" fill="#d8c491"/><path d="m101 118-5-9 5 4z" fill="#ab9561"/><path d="m217 92 7 12 5-5z" fill="#656259"/><path d="m136 88-13-13 4 12z" fill="#21211d"/><path d="m89 109 3 2-2-6z" fill="#2d2519"/><path d="m155 113 4-4 3 6z" fill="#272624"/><path d="m61 131-1-26 7 16z" fill="#645242"/><path d="m76 70 16 11 18-7z" fill="#a77e6c"/><path d="m247 102h24v-9z" fill="#dfe9f4"/><path d="m219 97 21-4-10 5z" fill="#363831"/><path d="m51 96 5-13 6 4z" fill="#7a6358"/><path d="m110 132 14-8-7-2z" fill="#cca77a"/><path d="m117 78-25-15 20-3z" fill="#b79484"/><path d="m48 97-2 8 15-10z" fill="#322a24"/><path d="m245 115-26-2 18 10z" fill="#d6b57d"/><path d="m69 104v9l-7-2z" fill="#342c28"/><path d="m71 100 6-23-7 12z" fill="#9c6f5a"/><path d="m174 105 23-2-35-8z" fill="#e9eff0"/><path d="m92 62 57-18-94 3z" fill="#f2f3f4"/><path d="m22 110 34-45-72 19z" fill="#ebeeee"/><path d="m122 118-8-3 6 5z" fill="#2d2a26"/><path d="m96 125-21-2 21 12z" fill="#d3b781"/><path d="m44 82v8l4-14z" fill="#9a7764"/><path d="m122 97 7-11 7 8z" fill="#20211d"/><path d="m227 103 12 1 9-14z" fill="#383729"/><path d="m239 86 3 3h-14z" fill="#7c7155"/><path d="m157 95-2 6h7z" fill="#312d2b"/><path d="m93 109 17-28 10 6z" fill="#615145"/><path d="m46 100-4-7-1 19z" fill="#69544e"/><path d="m112 118 17-14-22 10z" fill="#514331"/><path d="m151 110-14-2 12 34z" fill="#d4bc86"/><path d="m178 108 24 19-45-8z" fill="#d8bc89"/><path d="m155 82 4 9-9-5z" fill="#a88b7d"/><path d="m42 109-3 2 1 10z" fill="#6a5444"/><path d="m156 84 8 15 45 2z" fill="#ebf0f0"/><path d="m189 66 50 4-40-19z" fill="#e8eaea"/><path d="m143 97 1-13-3 8z" fill="#b28972"/><path d="m271 115h-29l20-18z" fill="#c6a876"/><path d="m105 101-4-10-18 2z" fill="#40362f"/><path d="m122 108 9-6-7 8z" fill="#3b3630"/><path d="m141 107-6-10-3 6z" fill="#edf5f7"/><path d="m211 126 33 31-31-52z" fill="#e1cd9e"/><path d="m100 111 9 3-6 3z" fill="#2b291c"/><path d="m172 89 48 3-89-45z" fill="#edeeef"/><path d="m250 94-6-62 27 58z" fill="#ebecee"/><path d="m175 61-1 40 49 1z" fill="#eaeeef"/><path d="m97 157 19 5-13-30z" fill="#e7ddb9"/><path d="m51 103-4 11 25-18z" fill="#7d5e53"/><path d="m160 108-8 4-4-15z" fill="#826d4f"/><path d="m77 114 9 3 2 5z" fill="#906e49"/><path d="m123 91-2 14-2-14z" fill="#997a59"/><path d="m74 112-2 11 5-8z" fill="#aa845e"/><path d="m32 110-33 13 40 3z" fill="#d0b07a"/><path d="m102 112 5-4 2 3z" fill="#b6905c"/><path d="m45 119 14 11-12-4z" fill="#513e34"/><path d="m225 74-14 7 15-1z" fill="#5e5847"/><path d="m29 89-20 20-25 2z" fill="#e8eff1"/><path d="m71 114 10-3-4-4z" fill="#372f24"/><path d="m224 82-10-11 16 8z" fill="#7f7864"/><path d="m244 108 8-5-8 1z" fill="#836e4a"/><path d="m221 76 3-4-9 5z" fill="#9e9b93"/><path d="m271 77-6 24-22-18z" fill="#eaeeee"/><path d="m140 72 7 6-2-11z" fill="#463d37"/><path d="m132 75 9 4-2 18z" fill="#7c6253"/><path d="m72 117-5 3 6-1z" fill="#1b1b19"/><path d="m44 140 7-9-3-4z" fill="#c8a587"/><path d="m231 96 3-6-3-4z" fill="#7e796a"/><path d="m145 105-4 3v-3z" fill="#5a5b47"/><path d="m131 94-8 12-7-5z" fill="#5c4b3c"/><path d="m203 73-2-6 15 11z" fill="#eaeceb"/><path d="m-8 105 47 2 4-28z" fill="#ebeff1"/><path d="m181 54-36-19 96-9z" fill="#f5f5f5"/><path d="m208 162-61-19 124 2z" fill="#d0c28a"/><path d="m74 129-49 9 24 3z" fill="#cfb889"/><path d="m124 119 1-6-6-3z" fill="#b49a70"/><path d="m72 61 10 8 14-4z" fill="#cf9f88"/><path d="m23 120 13 9-17 27z" fill="#dfc795"/><path d="m11 118 27-2-27-7z" fill="#bba06e"/><path d="m78 93h-34l10-9z" fill="#73584b"/><path d="m61 88 6-1-15-10z" fill="#9c7969"/><path d="m111 120 5-7-2 11z" fill="#574739"/><path d="m113 95-21-22 13 7z" fill="#80675a"/><path d="m93 109 4 3 5-13z" fill="#8a6f48"/><path d="m227 98-1 1 5 1z" fill="#beb6b0"/><path d="m201 103 1 13 11-5z" fill="#b8a072"/><path d="m144 90 4 7 2-6z" fill="#373025"/><path d="m191 132-32-10 42-8z" fill="#dcc68d"/><path d="m233 97-12-9 6 9z" fill="#32352f"/><path d="m252 96 15 7 4-10z" fill="#9b8b61"/><path d="m114 71 6 13-16-13z" fill="#937d72"/><path d="m226 89-4 11 4-1z" fill="#3d3f37"/><path d="m78 113 12-7-6 9z" fill="#443329"/><path d="m69 121-18-14-3 6z" fill="#816352"/><path d="m190 105-16 11-1-11z" fill="#bba277"/><path d="m104 162-45-7 19-32z" fill="#ddcd9a"/><path d="m152 75v-5l-5 6z" fill="#aa9084"/><path d="m221 102 14 7-5 1z" fill="#6e6049"/><path d="m154 117-3-9-3 7z" fill="#b9a06f"/><path d="m140 71 12 10-5 1z" fill="#37332b"/><path d="m53 69 13-9 14 7z" fill="#a97663"/><path d="m142 99 6 9h6z" fill="#36352b"/><path d="m44 88 2 4 7-13z" fill="#c4a08b"/><path d="m128 83 7 8-2-13z" fill="#4e3f33"/><path d="m227 76 19-8h-16z" fill="#e2e7e8"/><path d="m143 72-3-6-1 2z" fill="#13110d"/><path d="m139 116-9-6 1 9z" fill="#d5b688"/><path d="m155 74-11-9v7z" fill="#8a7167"/><path d="m213 78 5-4h-3z" fill="#c1bcb7"/><path d="m128 64-22-3 14-5z" fill="#ba9e8f"/><path d="m250 141-46-30 32 5z" fill="#dac08c"/><path d="m120 70-3-9 3-2z" fill="#d2beb0"/><path d="m130 124-1-3 2 1z" fill="#816342"/><path d="m139 66-1-3-3 9z" fill="#8f5c47"/><path d="m76 123 1-5-7-6z" fill="#9a7756"/><path d="m63 135-4-7-3 13z" fill="#d0bd8a"/><path d="m63 72-5 7 11 5z" fill="#ca9e87"/><path d="m244 91h4l-1 8z" fill="#736a52"/><path d="m95 53 82 9-31-26z" fill="#edf0f0"/><path d="m54 132-2-5 7-5z" fill="#7d614d"/><path d="m237 81-6 11 11-7z" fill="#5c5641"/><path d="m155 101 3 9-11-14z" fill="#836e53"/><path d="m232 81v-8h6z" fill="#86816d"/><path d="m139 106-5-1 3-7z" fill="#e9edec"/><path d="m90 107 2-1 1-2z" fill="#dbbd92"/><path d="m217 96-21 9 9-43z" fill="#e9ecec"/><path d="m150 128-19-3 8-8z" fill="#e5d3a3"/><path d="m104 119 4-2-1 10z" fill="#d3ac74"/><path d="m154 114 1-2 2 4z" fill="#171819"/><path d="m168 24-97 20 25-25z" fill="#e9e9ea"/><path d="m121 120 1 3 6-1z" fill="#8f7653"/><path d="m238 77-19 8 7-7z" fill="#7d735b"/><path d="m71 112 7-13 1 6z" fill="#6e543e"/><path d="m88 99-12 1 8-3z" fill="#2d2824"/><path d="m82 107-4 2-1-3z" fill="#372b25"/><path d="m261 129 7-8-17-20z" fill="#aa906d"/><path d="m191 154 18-5 2-18z" fill="#d4bb7f"/><path d="m44 111-12 34 12-15z" fill="#cdb580"/><path d="m126 133 9-5-11-5z" fill="#d7b986"/><path d="m225 80-6-7 9 6z" fill="#605d4b"/><path d="m63 66 1 8 15 9z" fill="#b0826f"/><path d="m6 115 6-6 5 2z" fill="#a38e69"/><path d="m168 101 1 3-6-3z" fill="#654f3a"/><path d="m170 116 9-7-19-1z" fill="#d1b58c"/><path d="m239 104 6-1 2 6z" fill="#574f39"/><path d="m-16 73 56 36-16-81z" fill="#eceeef"/><path d="m228 105 10-9v-7z" fill="#343527"/><path d="m187 109 10-4 5 6z" fill="#d2b78a"/><path d="m119 102-3-14-8-6z" fill="#534439"/><path d="m58 63 30-16-88-1z" fill="#f3f4f4"/><path d="m77 113-3-4-4-1z" fill="#917351"/><path d="m200 106 2-2 2 3z" fill="#847457"/><path d="m23 141 9-19-32 18z" fill="#d5bd85"/><path d="m163 99 10 5 17-4z" fill="#ebeeec"/><path d="m120 143 61 1-12-15z" fill="#dbce9e"/><path d="m218 95-4-4 9 3z" fill="#aba7a3"/><path d="m44 102 7-1-1-9z" fill="#2c2921"/><path d="m225 133 9-14-6 28z" fill="#e5d4a7"/><path d="m103 111 3-3-5-11z" fill="#332d25"/><path d="m189 156-26-4-14-33z" fill="#dac994"/><path d="m56 116-7 11 10-6z" fill="#41332a"/><path d="m219 92h-20l10-3z" fill="#ebefef"/><path d="m41-7-2 28-55-37z" fill="#fcfcfc"/><path d="m139 101 7-1-7-2z" fill="#0a1013"/><path d="m143 13-20-29-110 43z" fill="#f4f4f3"/><path d="m117 106-8-5 5 10z" fill="#262420"/><path d="m217 89 6-1-2 3z" fill="#5d5b52"/><path d="m86 107-3-2h4z" fill="#cca77c"/><path d="m194 139-9-22 4 33z" fill="#e0d09e"/><path d="m82 126 11 4-10-9z" fill="#cba87b"/><path d="m231 112 9-2-2 7z" fill="#caa970"/><path d="m141 134 12 6-4-26z" fill="#d6c387"/><path d="m107 100-3 3 4 2z" fill="#9f8159"/><path d="m208 103-48-6 49-48z" fill="#ebeeee"/><path d="m185 108 10 4-13 3z" fill="#b19565"/><path d="m67 29-55-2 19 82z" fill="#edeff0"/><path d="m89 106-7 7 12-5z" fill="#574333"/><path d="m95 111v-1h-1z" fill="#f7d7a6"/><path d="m99 162 20-36 9 34z" fill="#d5c893"/><path d="m40 109-9 2 3 3z" fill="#9e8b68"/><path d="m131 105-8 8 3 1z" fill="#907651"/><path d="m68 150 21-22-66 21z" fill="#deca98"/><path d="m98 109 7-4h-6z" fill="#23211c"/><path d="m62 106 12 1 4-6z" fill="#473a2e"/><path d="m122 81 3 9h-8z" fill="#715b4c"/><path d="m14 149 8 6 8-20z" fill="#dfcfa7"/><path d="m68 133-2-9 7 5z" fill="#a78d67"/><path d="m271 14-29 21-8 40z" fill="#edecee"/><path d="m66 122 7 5-9-14z" fill="#6a553e"/><path d="m210 76 1 5 2 1z" fill="#aba99d"/><path d="m126 69 12-7h-12z" fill="#ad8571"/><path d="m203 117 2 23-5-7z" fill="#e5d2a6"/><path d="m81 99-2 4 6 3z" fill="#2e2a21"/><path d="m136 96-1 3 3 2z" fill="#f2fcff"/><path d="m88 93 8 3-12-13z" fill="#352d25"/><path d="m88 80 9 12-17-12z" fill="#6d5144"/><path d="m137 96v7l-5 3z" fill="#e9efee"/><path d="m13 55 3 55 37-48z" fill="#ebedee"/><path d="m254 104-4-7-2 1z" fill="#d7dcdc"/><path d="m217 86h2l-4-2z" fill="#5f6260"/><path d="m70 162h-12l15-34z" fill="#d6c38f"/><path d="m87 122-3 1 4-4z" fill="#6a543c"/><path d="m201 106-15-2 8 4z" fill="#b09c76"/><path d="m53 81-2-4-2 9z" fill="#ceab94"/><path d="m197 124-8-13-2 17z" fill="#d4bb7e"/><path d="m254 101 17-14v26z" fill="#eef4fa"/><path d="m52 86-1 7 6-4z" fill="#463c34"/><path d="m45 103 1 4-2 2z" fill="#def4ff"/><path d="m155 79 39-41-33 5z" fill="#eeeff0"/><path d="m134 117-2-7 10-5z" fill="#c8ad83"/><path d="m220 83-4-3 2 5z" fill="#979894"/><path d="m83 84 9 25-10-14z" fill="#4b3d31"/><path d="m63 93-11 7 23 1z" fill="#6f5446"/><path d="m61 63-5 14-8 1z" fill="#916755"/><path d="m81 71 16 10-2-10z" fill="#ae8470"/><path d="m106 106-13-16 10 6z" fill="#4c4036"/><path d="m164 110-4-10 5 4z" fill="#d3cec9"/><path d="m226 61-23 15-39-19z" fill="#eaeced"/><path d="m159 105 24 5-9 7z" fill="#c8ac81"/><path d="m155 100 5-2 1 2z" fill="#322e26"/><path d="m43 108 1-2 1 1z" fill="#f1ffff"/><path d="m51 111-4-20-1 11z" fill="#332c25"/><path d="m57 109-5 3-2-6z" fill="#8e7061"/><path d="m91 120-1 16 6 3z" fill="#d7bf89"/><path d="m12 116 5 12-20 14z" fill="#dcc391"/><path d="m226 74-2-2 2 1z" fill="#525241"/><path d="m49 98 10-13v6z" fill="#7d6253"/><path d="m239 137 9-4-19-2z" fill="#d7bc81"/><path d="m96 87 17 15-4-25z" fill="#695950"/><path d="m56 94-11 7 7-1z" fill="#2d2821"/><path d="m167 122-5 14-21 12z" fill="#e1d3a8"/><path d="m55 120 4-10-9 10z" fill="#6d5244"/><path d="m150 84v-4l1 1z" fill="#171d19"/><path d="m235 77 6 5v-5z" fill="#5c5335"/><path d="m109 127 12 12-29-14z" fill="#d8c388"/><path d="m143 98-2-1 2 2z" fill="#9f7d69"/><path d="m108 85-4-5-17 8z" fill="#7c6458"/><path d="m63 112-1 3 8-1z" fill="#9c7859"/><path d="m25 109-2 3 2 1z" fill="#968261"/><path d="m135 97 4 9-7-6z" fill="#e4e8e5"/><path d="m117 123-2-5 4 4z" fill="#856853"/><path d="m103 73 12 6 1 7z" fill="#7d6d66"/><path d="m118 107 4 1-6 6z" fill="#68543d"/><path d="m154 97 5-4-2-1z" fill="#ab8678"/><path d="m4 114 13 8 12-11z" fill="#c2a577"/><path d="m149 100-1 8 5-1z" fill="#665938"/><path d="m235 1-30 6 36 67z" fill="#f2f3f3"/><path d="m215 80 3-3-1-6z" fill="#625c49"/><path d="m137 80-6-5 3-3z" fill="#846554"/><path d="m88 98v-3l-2 2z" fill="#a07a5a"/><path d="m110 115h3l-2-2z" fill="#946f54"/><path d="m257 42-14 45 28-30z" fill="#eaeced"/><path d="m271 51v-22l-56 9z" fill="#eaeaec"/><path d="m46 97-4-9v19z" fill="#745c4f"/><path d="m158 127-8-15 8 8z" fill="#ac9160"/><path d="m83 100h11l-7 5z" fill="#7c6244"/><path d="m143 98-4-6 5-10z" fill="#a07c68"/><path d="m157 138-1-13 7 14z" fill="#dbc790"/><path d="m104 89 8 9-16-5z" fill="#56473d"/><path d="m101 93-4 13-2-17z" fill="#453a31"/><path d="m88 96 2 5 7 1z" fill="#a48059"/><path d="m61 127 4-6-6 3z" fill="#494033"/><path d="m136 128 3 9-18 12z" fill="#e4d3a9"/><path d="m139 104 4-1-3 2z" fill="#e2ecec"/><path d="m99 116v4l-6-5z" fill="#312f22"/><path d="m253 99-2 6-4 2z" fill="#a39479"/><path d="m132 43-31 18-31-6z" fill="#f1f1f3"/><path d="m48 114 1 2-5 1z" fill="#4f3931"/><path d="m97 113h2l-2 1z" fill="#e2c397"/><path d="m7 120-6 6 1 16z" fill="#d5bb81"/><path d="m132 63 2-5h4z" fill="#ca9c85"/><path d="m218 79v3l3-3z" fill="#574f45"/><path d="m159 92 4-42 47 26z" fill="#edeeee"/><path d="m125 85 12 7-5 2z" fill="#1f1f1a"/><path d="m139 70 1 6-10-5z" fill="#c7a28e"/><path d="m156 95-7-8 11 7z" fill="#7a6156"/><path d="m167 141-2 10 4 10z" fill="#c3b16d"/><path d="m146 71 5 1v5z" fill="#a5958b"/><path d="m124 130 3-7-2-5z" fill="#c9ad78"/><path d="m96 89 3 4-10 13z" fill="#594837"/><path d="m114 67-3-6-13 2z" fill="#cda795"/><path d="m180 78-13-21 46 23z" fill="#ecedee"/><path d="m217 137-26-23 14 4z" fill="#dfc695"/><path d="m37 115-8 1v-7z" fill="#bba16d"/><path d="m49 91 1-6-3 4z" fill="#a88470"/><path d="m238 84 3 8 1-4z" fill="#686551"/><path d="m141 63 4-1 4 4z" fill="#b88b77"/><path d="m220 114-11-9 15 25z" fill="#d8be89"/><path d="m171 114 7 8v10z" fill="#d7c284"/><path d="m136 60-6 16-1-9z" fill="#c59f8c"/><path d="m73 63 4-5 9 3z" fill="#ca9881"/><path d="m246 94 25-3-14-5z" fill="#e6e9e7"/><path d="m159 100-1 3-4 1z" fill="#1f221e"/><path d="m162 107-5-2-5 4z" fill="#73604e"/><path d="m245 90 26-59v31z" fill="#eaeded"/><path d="m224 106v5l-15 3z" fill="#bda376"/><path d="m129 101h2l1 1z" fill="#121611"/><path d="m234 108 4-3 11 7z" fill="#968c5d"/><path d="m237 132 12-18 1 8z" fill="#e2cda1"/><path d="m229 110-7-1-3-5z" fill="#8e7c5a"/><path d="m154 82v-4l-6-1z" fill="#5a514a"/><path d="m112 47 24 7-7 6z" fill="#edeff1"/><path d="m130 78-5-8 1-7z" fill="#977261"/><path d="m84 96h-7l12 5z" fill="#362f28"/><path d="m252 33 19 38-19 24z" fill="#ebeced"/><path d="m132 75 1 10h-4z" fill="#58463b"/><path d="m35 136 4-7h-3z" fill="#b39672"/><path d="m47 115 3-6v4z" fill="#8c6855"/><path d="m51 74 3 5 11-10z" fill="#936c5c"/><path d="m246 98-17-2v9z" fill="#3c3a2b"/><path d="m68 107-1-5 6-1z" fill="#3f352b"/><path d="m149 67v1l-3 1z" fill="#d2957b"/><path d="m271 128-23 28 23-51z" fill="#bcb081"/><path d="m100 105 1-7-3 5z" fill="#8c6d4c"/><path d="m158 98-3 5h3z" fill="#1a1c17"/><path d="m121 77-2 10-3-13z" fill="#9e7e6c"/><path d="m82 104-2 1 1 2z" fill="#a6815f"/><path d="m82 113-4 6 2-9z" fill="#5a4731"/><path d="m148 109 3 6-11-4z" fill="#c7a87d"/><path d="m214 72h-2v4z" fill="#6c6b5d"/><path d="m138 109-9-1 8-2z" fill="#a88c6a"/><path d="m192 48-32 45 31 8z" fill="#ebeeef"/><path d="m77 85 6 1-11 10z" fill="#665143"/><path d="m118 98 2-3 1 6z" fill="#917450"/><path d="m223 134-8-20-5 32z" fill="#e0cd9c"/><path d="m141 87 1-6-2-3z" fill="#645348"/><path d="m233 86 1-6-9 7z" fill="#434032"/><path d="m160 115 3-9 4 8z" fill="#c1a77f"/><path d="m227 97 3-12-4 5z" fill="#5b5a4d"/><path d="m228 106-2-6v5z" fill="#493928"/><path d="m140 102-1-2 1-2z" fill="#0d151d"/><path d="m33 108 6 4h-5z" fill="#7e7155"/><path d="m77 111-4-6v5z" fill="#6b5b3a"/><path d="m268 125-21-22 12 23z" fill="#c9a979"/><path d="m133 129-2-2v-3z" fill="#b1956e"/><path d="m271 67-34 9 23-14z" fill="#eaebea"/><path d="m67 119 4 5 2-1z" fill="#97765d"/><path d="m232 78-11-2 7 7z" fill="#827a67"/><path d="m155 99-7-11-2 3z" fill="#44382b"/><path d="m130 120-3 1 2-3z" fill="#927542"/><path d="m145 88v-7l5 10z" fill="#695041"/><path d="m101 98-3 3-7-13z" fill="#423830"/><path d="m248 105-5 1-1 9z" fill="#887a50"/><path d="m166 137 6-28h-8z" fill="#d6c08f"/><path d="m205 114-8-7h-12z" fill="#d0b585"/><path d="m253 104 18 1v-11z" fill="#a59072"/><path d="m171 26 47-10-6 14z" fill="#e8e8e8"/><path d="m64 92-8-5 12 20z" fill="#73574a"/><path d="m112 106-3 5h2z" fill="#26231b"/><path d="m37 142 9 1 1 19z" fill="#e5d3a9"/><path d="m59 125-2-2-4 6z" fill="#8d7156"/><path d="m232 136-7-3-2-11z" fill="#e5d6af"/><path d="m68 96 3-3 4 13z" fill="#7e644c"/><path d="m242 104 1-7 3 13z" fill="#56533d"/><path d="m17 110v-16l-30-16z" fill="#eaefee"/><path d="m195 111h-3l4 3z" fill="#9b7f54"/><path d="m123 120-2 1-1-2z" fill="#67553f"/><path d="m219 80 6-3-9 1z" fill="#58523e"/><path d="m251 97 20-3v6z" fill="#908875"/><path d="m65 61 9 18-2-20z" fill="#ab7863"/><path d="m229 103 3-1-1 5z" fill="#323528"/><path d="m107 117 16 33-13-13z" fill="#d9c58f"/><path d="m106 97 8 4-8-1z" fill="#87664e"/><path d="m218 83 4-5-1-4z" fill="#6a644f"/><path d="m175 128-3 34 8-6z" fill="#e3d3a5"/><path d="m163 121-5-6-1 2z" fill="#ab8565"/><path d="m8 117-2-2 7-6z" fill="#ab946b"/><path d="m124 87-3-3-5 6z" fill="#6e5b4d"/><path d="m18 109v3h4z" fill="#81755a"/><path d="m74 112-3 1-2-1z" fill="#342a20"/><path d="m67 132 26 30h-12z" fill="#e3d0a4"/><path d="m154 110v5l2 2z" fill="#564635"/><path d="m54 126 2-2 1 8z" fill="#6e5746"/><path d="m128 106 1-4-12 4z" fill="#4c4138"/><path d="m135 79-3 5 4-1z" fill="#957663"/><path d="m218 40-26 9 61 3z" fill="#f4f4f4"/><path d="m13 27-29 8 64 12z" fill="#ececed"/><path d="m220 144 1 14 6 4z" fill="#b29b52"/><path d="m72 116-10 2 1-4z" fill="#4f3e31"/><path d="m136 106 7-4-5 1z" fill="#e4e7e4"/><path d="m232 76-4-11-9-7z" fill="#e9ebed"/><path d="m104 128-1-5-2 1z" fill="#ebdfc3"/><path d="m222 85 7 2v-3z" fill="#3b3a2d"/><path d="m29 114-8 6 4 22z" fill="#d6ba83"/><path d="m74 65 9 13-14-8z" fill="#976553"/><path d="m38 114-23-3 8 5z" fill="#c4ab77"/><path d="m123 121 18-10-9 1z" fill="#cbad80"/><path d="m77 130-1 15 5-4z" fill="#e3d5ae"/><path d="m223 107 1-2-4 3z" fill="#bca187"/><path d="m88 115v-8l3 5z" fill="#846649"/><path d="m45 120 1-3 3 2z" fill="#8a6755"/><path d="m84 111h8l-7-3z" fill="#48392d"/><path d="m46 148 22 13-20-27z" fill="#dcc593"/><path d="m244 81h-8l2 2z" fill="#7c7768"/><path d="m148 92-3 4v-5z" fill="#21201e"/><path d="m68 102h3v4z" fill="#21211c"/><path d="m215 104-6-1 11-3z" fill="#e4e6e2"/><path d="m90 97 4 6-5-4z" fill="#ac8a5e"/><path d="m234 83v10l6-16z" fill="#514c36"/><path d="m183 134v-4h-2z" fill="#cab373"/><path d="m220 80v4l1-3z" fill="#abaca8"/><path d="m217 69-1-2 7 2z" fill="#d4d6d3"/><path d="m44 123-12 22 9-8z" fill="#d4c38d"/><path d="m238 112 5 1-1-4z" fill="#b69a61"/><path d="m155 87-2 3v-2z" fill="#b4988b"/><path d="m137 84-4-9 2-5z" fill="#91705f"/><path d="m209 81 5 11 2-4z" fill="#e3e6e7"/><path d="m140 133 9 27-8-8z" fill="#dac582"/><path d="m145 80-8-9-2 5z" fill="#b79e8e"/><path d="m243 98-4-2 3 9z" fill="#2e2d24"/><path d="m107 61h16l-8-4z" fill="#b89b8c"/><path d="m154 98-8-2 9 11z" fill="#80694b"/><path d="m264 121-6 26-9-32z" fill="#ddc48c"/><path d="m212 120v-2l-3 3z" fill="#cbac76"/><path d="m99 120-17 10h16z" fill="#ddc591"/><path d="m68 123h-7l6 6z" fill="#806d54"/><path d="m78 91 6-6-2 12z" fill="#5a483f"/><path d="m94 102-3 3h2z" fill="#d3b57d"/><path d="m75 114h2l-2 1z" fill="#d8b172"/><path d="m215 61h3v10z" fill="#e6e8e6"/><path d="m153 74v-2l-2 1z" fill="#866758"/><path d="m133 42-54-1 28-8z" fill="#e6e9ea"/><path d="m85 104-2 1-1-6z" fill="#41382d"/><path d="m126 86-4 13 4-4z" fill="#292823"/><path d="m149 116-8-2-5-8z" fill="#d0b785"/><path d="m249 94 1 3-2-2z" fill="#ab9675"/><path d="m130 88 3-4v13z" fill="#22211d"/><path d="m239 77 2-2h-5z" fill="#8e7b54"/><path d="m145 103-3-4 4 1z" fill="#423d34"/><path d="m206 139-11-1-6 18z" fill="#d9c288"/><path d="m167 114-5 8 34 1z" fill="#dec795"/><path d="m235 101 4 6-1-13z" fill="#4a4737"/><path d="m101 74-13-5h22z" fill="#bf947f"/><path d="m92 122-2-3 6-2z" fill="#967a51"/><path d="m98 115-1-3 2-2z" fill="#b79d73"/><path d="m108 99 1 5 2-2z" fill="#59443b"/><path d="m112 95-7-19v10z" fill="#7b6558"/><path d="m113 93 2 2-1 6z" fill="#393027"/><path d="m132 59 12 6-4-6z" fill="#c6967e"/><path d="m226 98-5 7 5-14z" fill="#434238"/><path d="m41 94-21-22 7 37z" fill="#ebefef"/><path d="m237 116-7-6 10 1z" fill="#c2a572"/><path d="m117 53-12 7-25-19z" fill="#eff1f1"/><path d="m42 76-51-19 70 4z" fill="#ebedee"/><path d="m227 72 2 6-2-3z" fill="#9c9890"/><path d="m147 102 6-2-4 6z" fill="#6a583c"/><path d="m106-1 41 15-103 14z" fill="#f1f0f0"/><path d="m217 86h3l-1 2z" fill="#9b9d9a"/><path d="m150 98 2 2 1-3z" fill="#a28164"/><path d="m107 88h-17l24 10z" fill="#604e44"/><path d="m166 63-11 4-13-10z" fill="#f3f5f4"/><path d="m244 109 1-7 3 9z" fill="#877854"/><path d="m224 100-1 1-4-3z" fill="#6c736c"/><path d="m85 85v9l9 1z" fill="#372f28"/><path d="m189 111-5-4 2 6z" fill="#aa9163"/><path d="m60 71 7-11 3 16z" fill="#ad7f6c"/><path d="m139 95-2-2 2-6z" fill="#765849"/><path d="m9 44-6 7-19-12z" fill="#f8f9f8"/><path d="m152 59-34-4 31-13z" fill="#ebeded"/><path d="m88 110h-6l3 6z" fill="#392d25"/><path d="m266 67-12 32 17-13z" fill="#acaba2"/><path d="m153 125-8-8 9 1z" fill="#e0cb97"/><path d="m82 116 3 5 1-3z" fill="#926e53"/><path d="m220 93 8-11 8-1z" fill="#4e4b3a"/><path d="m208 137-16-8 10-4z" fill="#e4d0a3"/><path d="m235 79 2-5 1 8z" fill="#58523a"/><path d="m238 116 12 19 5-4z" fill="#e0cb9a"/><path d="m232 106 4-1-2 2z" fill="#7e7a51"/><path d="m45 99 5-6-1 4z" fill="#1a1c18"/><path d="m154 80-3 5 2 6z" fill="#886e61"/><path d="m75 69-10 19 9-2z" fill="#ae816c"/><path d="m127 95-4-21 6 11z" fill="#1e1f1c"/><path d="m81 84v-8l-4-1z" fill="#835e4f"/><path d="m106 129-2-3 4-3z" fill="#c9a86c"/><path d="m116 114-1 2 1 3z" fill="#373226"/><path d="m92 127-3-5 2-1z" fill="#e4c9a0"/><path d="m70 116h2v4z" fill="#25221e"/><path d="m206 107-5-3 7 1z" fill="#958264"/><path d="m68 76-2 7-3-8z" fill="#cda38b"/><path d="m120 94-4-7-1 10z" fill="#6e5744"/><path d="m201 95 5 3-2 6z" fill="#eaeff0"/><path d="m110 127-9 1 23 15z" fill="#d3c086"/><path d="m125 114 2 5v-11z" fill="#8b7151"/><path d="m52 104-1-2-2 6z" fill="#5d493b"/><path d="m134 136-15 9 9-17z" fill="#ddce9d"/><path d="m177 67v16l28 22z" fill="#eaeded"/><path d="m3 111 5 2 2-2z" fill="#9c8557"/><path d="m63 154 9 2-3-16z" fill="#cdbe7e"/><path d="m64 58 18-13-32-9z" fill="#f6f7f6"/><path d="m130 74 1 1-3 4z" fill="#a28575"/><path d="m67 130-2-4-3 3z" fill="#a6956d"/><path d="m225 122 13 1-10 10z" fill="#e0cc9a"/><path d="m93 115 3-2 1 4z" fill="#1c1e1a"/><path d="m244 159-2-20-16 23z" fill="#d9bd80"/><path d="m103 111 7 1-3-4z" fill="#987953"/><path d="m117 128-4-4v7z" fill="#b18e67"/><path d="m41 105 2-6-2 3z" fill="#786961"/><path d="m61 131 3 3v-3z" fill="#b29d76"/><path d="m75 106-2-5 2-7z" fill="#41362c"/><path d="m117 125 3 2-6 5z" fill="#e1c095"/><path d="m22 128 1 24-9 10z" fill="#dcc99a"/><path d="m112 116 8-14h-5z" fill="#3b3127"/><path d="m119 56-2 8 3 9z" fill="#cdb7aa"/><path d="m63 97 13 2-17 4z" fill="#725949"/><path d="m159 128h3l-3-11z" fill="#d6b992"/><path d="m61 84-4-6-5 5z" fill="#a38574"/><path d="m127 106 1 5-2 4z" fill="#7f684f"/><path d="m208 143-6 19h16z" fill="#bcb06d"/><path d="m79 101 7-3 1-8z" fill="#322e28"/><path d="m167 89 35 15-24-3z" fill="#ebefef"/><path d="m50 127 8-11-3 8z" fill="#47392f"/><path d="m10 162-16-22 39 22z" fill="#ebd8a4"/><path d="m142 103-2 3-3-4z" fill="#eaf0f0"/><path d="m229 99 3-1-4 3z" fill="#78604b"/><path d="m82 112-3 6 4-1z" fill="#7c6241"/><path d="m144 76v4l2-2z" fill="#5e4e43"/><path d="m153 100 4 1-1-3z" fill="#43352b"/><path d="m128 76-6-4 6 1z" fill="#796054"/><path d="m216 70 5 1-9 3z" fill="#78725c"/><path d="m135 77 3 5 3-4z" fill="#7f6758"/><path d="m187 119v3l-5-3z" fill="#e8d7b2"/><path d="m83 133 10-4 2 7z" fill="#cfb784"/><path d="m76 124-4 8 13 6z" fill="#dbc292"/><path d="m150 94 3-2-1 2z" fill="#392e28"/><path d="m144 78 6 4-2-3z" fill="#2b2822"/><path d="m200 113 5 4 4-3z" fill="#c7aa73"/><path d="m144 81h3v4z" fill="#81695a"/><path d="m97 114-9 3 9 1z" fill="#312b22"/><path d="m243 91-6 4 4-1z" fill="#605f51"/><path d="m206 111-26 5 13 3z" fill="#cfb483"/><path d="m67 113v2l-2-2z" fill="#be9873"/><path d="m8 109-24-3 49-20z" fill="#eaeeef"/><path d="m223 79 3 6-7-7z" fill="#5b553f"/><path d="m154 110 3-1-3-8z" fill="#8b7463"/><path d="m150 70 4 1-4-3z" fill="#dca58d"/><path d="m72 127 1-7h4z" fill="#7a5c4a"/><path d="m117 112-5-1 2 3z" fill="#68503b"/><path d="m55 119 9 3h-8z" fill="#3d352a"/><path d="m5 126 8-7h-13z" fill="#cfb284"/><path d="m124 117-2-6-1 7z" fill="#c5aa77"/><path d="m181 106-10 3 3-3z" fill="#a79268"/><path d="m149 81 1 1v1z" fill="#141813"/><path d="m227 122 13-5-29-6z" fill="#dabe8a"/><path d="m43 117 4-5-2-2z" fill="#c8ad73"/><path d="m83 122-7 2v5z" fill="#dfc28e"/><path d="m156 112-6-7 4 2z" fill="#4d4534"/><path d="m72 64 6 14 1-7z" fill="#9a6a58"/><path d="m164 110 19-3-15 13z" fill="#d0b488"/><path d="m59 160-16-21 33 23z" fill="#d2ba83"/><path d="m99 150-10-1 1-18z" fill="#d5c88f"/><path d="m49 124-3 2-1 7z" fill="#7d5f4c"/><path d="m84 102-1-1 5-1z" fill="#967553"/><path d="m207 108-3-2v6z" fill="#cbaf81"/><path d="m85 113 2-3-9 3z" fill="#5e4839"/><path d="m138 82 5 9-9-8z" fill="#916f5c"/><path d="m167 115-6-6 2-3z" fill="#c0a780"/><path d="m156 123-15-5 17 13z" fill="#dcc68c"/><path d="m33 98 2-12 3 24z" fill="#e9edee"/><path d="m115 119-5-3h4z" fill="#3c3327"/><path d="m127 142-2-9 3-2z" fill="#dcc58a"/><path d="m200 112 12 22-14-11z" fill="#dec893"/><path d="m203 119 10 4-3 2z" fill="#e6d0ad"/><path d="m121 91 2 4h-4z" fill="#9f7f68"/><path d="m144 131 3 10 5-1z" fill="#d6c388"/><path d="m215 77 2-3h3z" fill="#b1a9a0"/><path d="m102 111v-12l4 8z" fill="#2e2a22"/><path d="m136 72-2-8-5 5z" fill="#c69f8b"/><path d="m98 121 8-4 3 2z" fill="#d8b881"/><path d="m110 131 6 31h-9z" fill="#dece97"/><path d="m154 84h-5l3-5z" fill="#3d3932"/><path d="m232 141 10 8-2 13z" fill="#e4d5a6"/><path d="m80 76 12 10 4-3z" fill="#8f6958"/><path d="m45 84-2 4 4 5z" fill="#967361"/><path d="m219 107-4 1 3-4z" fill="#bea977"/><path d="m151 143 10 3-5 9z" fill="#cbc089"/><path d="m127 132-12 4v-7z" fill="#e0c695"/><path d="m34 118v-5l5 2z" fill="#c0a271"/><path d="m87 70 16-2-8-4z" fill="#ca9e88"/><path d="m47 123h2l-3-3z" fill="#393128"/><path d="m47 81 7-7-5 2z" fill="#846454"/><path d="m53 88 7-2-5 3z" fill="#745e51"/><path d="m146 127-10 4-2-4z" fill="#dfc98d"/><path d="m199 85 21 3-10-5z" fill="#e7eaeb"/><path d="m57 19-57 5 97-40z" fill="#f7f7f7"/><path d="m160 114-3-3 1-4z" fill="#312a22"/><path d="m140 66 10 5-5-5z" fill="#665145"/><path d="m-16 77 40 33-18-32z" fill="#ebeeef"/><path d="m74 118 6 5-4-6z" fill="#c19b70"/><path d="m122 102 5-3-3-1z" fill="#735c4d"/><path d="m116 106-6 3 5-9z" fill="#25241d"/><path d="m153 136v3l5-5z" fill="#e3dcbb"/><path d="m224 107h6l-3-3z" fill="#655241"/><path d="m52 136-6-2 4 6z" fill="#dec5a0"/><path d="m213 142-3-15-1 12z" fill="#d7bf85"/><path d="m-16 127 16-10 8 29z" fill="#d6c088"/><path d="m139 69-10 2 6-3z" fill="#ab7e69"/><path d="m33 141-4-7 8-13z" fill="#d6be84"/><path d="m99 80-9 3-1-4z" fill="#a07662"/><path d="m52 80 1 1-3-1z" fill="#ecd4be"/><path d="m74 90 3-8-9 9z" fill="#8e6452"/><path d="m68 77 4 2-4 2z" fill="#c39882"/><path d="m116 117-3-3-1 8z" fill="#534437"/><path d="m49 98 1-2v3z" fill="#674e3f"/><path d="m82 142 20 20-13-5z" fill="#dfdbb1"/><path d="m191 77 24-8-47 1z" fill="#e8eaeb"/><path d="m105 109 1-5-8 7z" fill="#2b281f"/><path d="m42 89 5-1 1 2z" fill="#b08d7c"/><path d="m249 106-2-3h6z" fill="#a58a5c"/><path d="m217 88h5l-6 2z" fill="#716b5f"/><path d="m116 101v5l4 4z" fill="#664f3b"/><path d="m24 109-2 3 3-1z" fill="#948165"/><path d="m106 115-2-2-3 4z" fill="#232420"/><path d="m225 116 1 9-3-1z" fill="#e3cba2"/><path d="m147 129-4-3h5z" fill="#e2d4a6"/><path d="m141 135 26 27-19-10z" fill="#e1d6ab"/><path d="m109 96 8 6 2-3z" fill="#47392d"/><path d="m17 128 6 1-12-13z" fill="#d1b37e"/><path d="m107 113 1-3-2-4z" fill="#a08155"/><path d="m125 126-2-3 10 3z" fill="#d8ba88"/><path d="m241 102-7 3-3-5z" fill="#323227"/><path d="m219 93h-3l4 2z" fill="#908d85"/><path d="m184 14 3-30h-61z" fill="#fafbfb"/><path d="m104 106-2-7 7 9z" fill="#4e4031"/><path d="m19 125-2-7-1 3z" fill="#bb9a6a"/><path d="m121 109 3 1v-7z" fill="#403a2f"/><path d="m80 59-4 5-6-2z" fill="#c9957f"/><path d="m153 133-1-10 10 16z" fill="#dfd09d"/><path d="m68 117-8-7-5 1z" fill="#6b5242"/><path d="m103 141v-3l-7 3z" fill="#e8d9bb"/><path d="m216 91 2-3-4 3z" fill="#d9d8d3"/><path d="m232 33 1-22-59-16z" fill="#f3f3f3"/><path d="m221 151 2-20 15 31z" fill="#dbca8f"/><path d="m218 75v1h2z" fill="#c1c0bc"/><path d="m64 141-6-5-4 1z" fill="#ceb981"/><path d="m236 118 4 5-11-6z" fill="#d4ba7a"/><path d="m243 91 3 7-7 7z" fill="#413e2e"/><path d="m106 135 5 11-2-14z" fill="#d5c186"/><path d="m196 31-16-7 27 1z" fill="#e3e5e5"/><path d="m108 114 1-2 2 5z" fill="#3c2f25"/><path d="m116 84 5-10 1 6z" fill="#8f7465"/><path d="m80 118 7 4 2-2z" fill="#7a5d46"/><path d="m224 71-3 3-1-1z" fill="#9b9790"/><path d="m206 116-2 12 5-9z" fill="#dbbf89"/><path d="m159 90-5-6 1 4z" fill="#ac968b"/><path d="m154 77-7-2-2-4z" fill="#9f8d84"/><path d="m149 93 1-1-1-3z" fill="#6b553d"/><path d="m123 79 5 2v-2z" fill="#121818"/><path d="m225 73h-1l-1 3z" fill="#494130"/><path d="m46 110 14-2-2-6z" fill="#836657"/><path d="m81 131-2 2h2z" fill="#eadcbf"/><path d="m2 112-13-1 15 7z" fill="#a88e68"/><path d="m161 121-8-2 8-1z" fill="#b79268"/><path d="m21 114 3-6-2 11z" fill="#c2a980"/><path d="m240 90-7-2h9z" fill="#4a4534"/><path d="m245 76h-3l3 6z" fill="#d1d2d0"/><path d="m241 72 8 12 8-10z" fill="#e9ebec"/><path d="m193 125 10 5-11-14z" fill="#e0c68d"/><path d="m99 109v2l2-4z" fill="#55422d"/><path d="m225 98-3-1 7-3z" fill="#383932"/><path d="m212 158-10-5 1-9z" fill="#caa96a"/><path d="m162 27 32-4-32-7z" fill="#eaeaea"/><path d="m7 113-18 7-5-7z" fill="#c7ab82"/><path d="m226 98-7 1 4-2z" fill="#4a4b42"/><path d="m220 101-2-6-4-3z" fill="#d4d9d6"/><path d="m187 115-7-1 3-6z" fill="#c4a47a"/><path d="m106 125 1 1h-1z" fill="#a07f4d"/><path d="m239 99 2-5v4z" fill="#20241e"/><path d="m101 97h-4l-1 9z" fill="#41382b"/><path d="m241 131-2-14-7 25z" fill="#d9c38a"/><path d="m130 83 1-3 1 6z" fill="#685042"/><path d="m161 62h31l-15-5z" fill="#e7e9ea"/><path d="m83 122v5l4-1z" fill="#c4a073"/><path d="m190 107-1-2-3 2z" fill="#95835c"/><path d="m183 125 7 11-4 8z" fill="#d8c78d"/><path d="m115 152-3-13 11-6z" fill="#d1c48c"/><path d="m220 86 10 5v-3z" fill="#5c5845"/><path d="m88 122-4 7v-5z" fill="#cfaf81"/><path d="m62 160-4-17 9-6z" fill="#e1d2a1"/><path d="m173 144 1 13 4-1z" fill="#c8b670"/><path d="m90 91-6-4 1-4z" fill="#4c3d33"/><path d="m123 13-91 17 40 10z" fill="#ededee"/><path d="m144 96-2-1h1z" fill="#d8b391"/><path d="m158 126-1 6-1-4z" fill="#d0b479"/><path d="m122 117-4-4 1 3z" fill="#7d6555"/><path d="m84 57 6 5 14-5z" fill="#ecedef"/><path d="m224 78 9 4h-5z" fill="#615c48"/><path d="m20 96 19 12 2-25z" fill="#eaeeef"/><path d="m109 127-5-3 3 9z" fill="#d8bf80"/><path d="m58 133-4 3 11 9z" fill="#d3bf8b"/><path d="m158 64 11 39-12-19z" fill="#eceeee"/><path d="m24 162-11-28 3 28z" fill="#d8cb97"/><path d="m215 141-2 21 10-9z" fill="#d1c284"/><path d="m182 145-12 6 23 10z" fill="#bfb071"/><path d="m144 97h2l2 6z" fill="#25241e"/><path d="m18 129-19 8 14-11z" fill="#dec798"/><path d="m151 100 5 5-1-3z" fill="#997960"/><path d="m63 58-19 17-28-1z" fill="#eaeced"/><path d="m115 111-2-2 4 2z" fill="#23211b"/><path d="m45 103-3-2 2-7z" fill="#6e5749"/><path d="m116 122-3-1v2z" fill="#3e322c"/><path d="m85 119-2 2h1z" fill="#a57f67"/><path d="m238 88 3-1 3 1z" fill="#877f65"/><path d="m231 80-2 1h2z" fill="#9b8e71"/><path d="m33 144-4-7-4 3z" fill="#e2cfa6"/><path d="m140 83-1-4-8-3z" fill="#776052"/><path d="m62 112 2-1h-4z" fill="#4b3a30"/><path d="m58 92-7 2 3-2z" fill="#997663"/><path d="m109 120 3 7h-4z" fill="#e3c695"/><path d="m136 96-4 7 6-6z" fill="#e5edef"/><path d="m48 92-1 2-3-2z" fill="#3e3125"/><path d="m82 101-3 3 2-1z" fill="#1c1e18"/><path d="m210 92-1-9 12 19z" fill="#e9eeed"/><path d="m145 115 3 1-3-10z" fill="#c5ac7f"/><path d="m250 100 3 1h-5z" fill="#dee6ec"/><path d="m94 73 3 4-7-4z" fill="#946a58"/><path d="m139 124-7 1 7 3z" fill="#e4d1a1"/><path d="m63 65h8l-11 13z" fill="#ab816f"/><path d="m87 98 2-3 5 3z" fill="#836346"/><path d="m135 138v24l4-12z" fill="#d7c58b"/><path d="m154 90h-2v-5z" fill="#a68776"/><path d="m127 89 8 7-9-14z" fill="#181a18"/><path d="m23 59-31-5-3 10z" fill="#e8eaea"/><path d="m53 142v-7h2z" fill="#c5a97b"/><path d="m187 124-2-4 1-2z" fill="#e6d6b1"/><path d="m44 134-14 4 4 3z" fill="#ccb681"/><path d="m115 123 3-3h-2z" fill="#826754"/><path d="m84 29 67-1-35-10z" fill="#e9e9ea"/><path d="m54 140-10 22-3-8z" fill="#e0cb99"/><path d="m67 120-3-1-1 1z" fill="#917150"/><path d="m159 107 3 9-3-2z" fill="#44392f"/><path d="m188 106 3-1h-2z" fill="#897d5a"/><path d="m157 86-2-3-3 7z" fill="#978176"/><path d="m77 141-4 1 2-11z" fill="#d9c48e"/><path d="m155 99-4-2h4z" fill="#644b37"/><path d="m56 109-3-3-1 1z" fill="#9f7d69"/><path d="m246 96 1-6 3 5z" fill="#8c7e65"/><path d="m151 107 4-1-1 3z" fill="#554f3d"/><path d="m130 162h-20l-8-19z" fill="#decd95"/><path d="m123 66-3-9 5 5z" fill="#b99c8d"/><path d="m23 109-9-7 10-4z" fill="#e9eef0"/><path d="m127 107 8 1-8 2z" fill="#a58769"/><path d="m126 62-3-4 6 3z" fill="#d0b5a5"/><path d="m138 73-3 4 5-2z" fill="#c8ae9c"/><path d="m209 117 1-2 4 1z" fill="#e2cda9"/><path d="m100 123 4 4-2-5z" fill="#eadcbf"/><path d="m79 95 4-2h-11z" fill="#554339"/><path d="m216 81-4-3h7z" fill="#54554c"/><path d="m74 109-2 2-2-3z" fill="#80604e"/><path d="m109 87 5 4 4-3z" fill="#50443b"/><path d="m76 121h-6l1 2z" fill="#98785d"/><path d="m77 143-32 13h21z" fill="#e7d8b3"/><path d="m57 124 2 2v-3z" fill="#8a7055"/><path d="m79 143 31 19h-48z" fill="#d5c68d"/><path d="m163 123-5-5-4 3z" fill="#b3946a"/><path d="m143 60h-8l-6 6z" fill="#bb8c76"/><path d="m121 72-1 5-4-5z" fill="#b49a8b"/><path d="m68 103-3 10-3-3z" fill="#4d3d33"/><path d="m233 100 2-7-2-3z" fill="#534e3d"/><path d="m208 137 8 25h10z" fill="#e1cf9c"/><path d="m117 73h-13l6-3z" fill="#a58a7d"/><path d="m195 32-19 11-33-5z" fill="#f6f6f5"/><path d="m180 91 1-24-22 23z" fill="#eceeef"/><path d="m194 110 1 4 2 1z" fill="#b09265"/><path d="m140 104 2-2-2 4z" fill="#e0e9e9"/><path d="m121 104v-3h-3z" fill="#917954"/><path d="m50 128h-5l2 1z" fill="#a98167"/><path d="m39 136 4 6-1-19z" fill="#d6bf89"/><path d="m168 132-7 9 8-19z" fill="#d3c58c"/><path d="m142 99 7 6-2-5z" fill="#3f362c"/><path d="m154 116-4-8 1 7z" fill="#a9956e"/><path d="m74 100 8 14-6-3z" fill="#3a3027"/><path d="m153 83v-3l1 1z" fill="#7d6d65"/><path d="m68 93 1 3 6-6z" fill="#8f6a59"/><path d="m175 116-1 7 6 7z" fill="#d5be81"/><path d="m188 76 22 4-20 2z" fill="#f2f2f1"/><path d="m165 138 7-19-1 13z" fill="#ded1a1"/><path d="m223 84 2 1-4 2z" fill="#3d3d2c"/><path d="m72 105h7l-4 2z" fill="#6c523c"/><path d="m150 83-1-3v5z" fill="#21211a"/><path d="m121 107-3-3 2-2z" fill="#45392e"/><path d="m211 104 3 1-7 3z" fill="#d6be94"/><path d="m71 127-4-7h5z" fill="#715b44"/><path d="m170 140 7 22h-14z" fill="#e3d3a6"/><path d="m8 142 30 20 17-7z" fill="#d3c18a"/><path d="m133 113-4-4 8 1z" fill="#c9ae87"/><path d="m119 158 5-22-15 26z" fill="#dbd2a7"/><path d="m100 156-6-7 5-20z" fill="#e2cea0"/><path d="m111 104-3 4v-2z" fill="#7f6243"/><path d="m225 96v-2l1 3z" fill="#252319"/><path d="m129 62-2 2h7z" fill="#c89e87"/><path d="m68 90-10 3 11 2z" fill="#7a594b"/><path d="m88 112 3 2h-3z" fill="#886e4c"/><path d="m92 109h4l3 2z" fill="#bd9d70"/><path d="m118 87 5-1 3 2z" fill="#766050"/><path d="m226 76 2 2h-2z" fill="#949289"/><path d="m124 94-2 1-1 5z" fill="#4e403a"/><path d="m134 129 6-11-5-3z" fill="#dec897"/><path d="m137 64-3 4 6-3z" fill="#835c4b"/><path d="m104 143v-15l9 28z" fill="#e2d3a5"/><path d="m271 134-11 1-11-26z" fill="#d4b783"/><path d="m124 83 9 7-11-16z" fill="#242420"/><path d="m75 58h-5l-1 6z" fill="#b9826d"/><path d="m168 108 2-2h-7z" fill="#b09a72"/><path d="m130 116 8-2-6 7z" fill="#d3b984"/><path d="m82 81-1-3 6 4z" fill="#6a4f42"/><path d="m111 67 10 6-2-6z" fill="#c4a89a"/><path d="m223 49-4 19-37-10z" fill="#ebedee"/><path d="m21 82 21-3-3 6z" fill="#f4f3f2"/><path d="m249 132-5 14 10-10z" fill="#e0cc9b"/><path d="m69 126 5-1-5-1z" fill="#6f5842"/><path d="m122 81-1 6 2 3z" fill="#6d5a50"/><path d="m183 139-2-8-3 3z" fill="#e3cf9d"/><path d="m109 106-3 2v-4z" fill="#886e47"/><path d="m227 121 3-7 1 13z" fill="#dabd85"/><path d="m103 104-1 6-2-6z" fill="#262420"/><path d="m162 130-4 1 1-9z" fill="#e2cda3"/><path d="m51 85 11 5-12 1z" fill="#624e42"/><path d="m115 76 1 6-5 4z" fill="#7b6a60"/><path d="m77 98-4-5 9 5z" fill="#463a31"/><path d="m63 119-1 2-5-6z" fill="#78604c"/><path d="m123 82-1-5-3 3z" fill="#836a5d"/><path d="m212 79-25 7 5-7z" fill="#eeefee"/><path d="m54 79v-7l-3 3z" fill="#886352"/><path d="m45 112-2 7v-11z" fill="#b8a377"/><path d="m218 34-16 7h25z" fill="#edeeef"/><path d="m229 108 2 4v-2z" fill="#ab976b"/><path d="m64 119 6-5h-5z" fill="#604c38"/><path d="m154 130 6 3-6 2z" fill="#dfcd98"/><path d="m61 120v11l3-9z" fill="#51493a"/><path d="m153 102-3 1-2 3z" fill="#816d4b"/><path d="m79 73 11 3-8-7z" fill="#b2806b"/><path d="m116 120 1-3 3 2z" fill="#2a2820"/><path d="m52 100 5 2-2-2z" fill="#705547"/><path d="m220 134 1 4-3 6z" fill="#e5d9ae"/><path d="m75 63-9 5 3-5z" fill="#a37460"/><path d="m100 104-3 2 4-5z" fill="#a6845a"/><path d="m190 122-3 3v-2z" fill="#d3b972"/><path d="m97 97v-9l6 13z" fill="#54453b"/><path d="m151 128-5-6 2-8z" fill="#d3bd82"/><path d="m167 116 6 1v20z" fill="#dcc790"/><path d="m125 144 4 13-6 2z" fill="#e6ddc5"/><path d="m70 110-1 2-5-6z" fill="#3d342c"/><path d="m218 118 6-6-7 1z" fill="#d0b47f"/><path d="m146 131-5-2-4 6z" fill="#d9c385"/><path d="m100 105 3 1-1 5z" fill="#27251f"/><path d="m159 144 13 9-2 5z" fill="#c0b37b"/><path d="m103 118-3-4 1 4z" fill="#77613d"/><path d="m70 133-9 2 5-3z" fill="#c6ad7f"/><path d="m143 79-5-1 7 4z" fill="#a58776"/><path d="m189 155 2-20 5 27z" fill="#e1d2a5"/><path d="m180 135-4 1 1 5z" fill="#d5c388"/><path d="m31 124-5 5 11 3z" fill="#dfc48f"/><path d="m71 98h-6l2 2z" fill="#816553"/><path d="m12 119h3l-6-6z" fill="#c8ad80"/><path d="m134 127 1 10 7 6z" fill="#e4d1a5"/><path d="m71 78-4-3 4 10z" fill="#bc917c"/><path d="m159 95-1 2 2-2z" fill="#b49c86"/><path d="m62 129 9-1-2 3z" fill="#a79169"/><path d="m158 121-4-5-2 1z" fill="#c7aa70"/><path d="m210 74-7 1v8z" fill="#f0f1f0"/><path d="m129 74 6-8-2 6z" fill="#c9a28f"/><path d="m243 96 1 5 1-7z" fill="#52503c"/><path d="m74 116-2-4 2-2z" fill="#5c4b32"/><path d="m70 128-2-2v5z" fill="#b59877"/><path d="m60 73 3-8-10 10z" fill="#a27461"/><path d="m271 125-22-15h10z" fill="#c1a370"/><path d="m188 156 8-19-2 21z" fill="#d1bf82"/><path d="m31 87 1 23-18-40z" fill="#eceeef"/><path d="m230 111 4-4-2 5z" fill="#a29463"/><path d="m142 72 2 1-4 2z" fill="#32312c"/><path d="m254 118v3l-7-6z" fill="#dfc399"/><path d="m151 16 14-10-46-3z" fill="#f5f6f5"/><path d="m59 106 1 8 2-8z" fill="#674f42"/><path d="m67 85 3 4-1-5z" fill="#956e5c"/><path d="m88 104-4-10 8 10z" fill="#534332"/><path d="m115 116 3-2 4 1z" fill="#7f644f"/><path d="m175 153 38 9-13-20z" fill="#dcc995"/><path d="m166 109-1-2 7 2z" fill="#d0b88f"/><path d="m157 121 3-5 3 2z" fill="#bc9875"/><path d="m20 111 19 1-14 4z" fill="#bea471"/><path d="m162 117 5 3-5-11z" fill="#dac094"/><path d="m83 106 7 3-4-4z" fill="#a98862"/><path d="m117 93-2-6 4 5z" fill="#6b594a"/><path d="m221 128v-8l-2 3z" fill="#dbc285"/><path d="m216 137 10 13 15 3z" fill="#d8c58a"/><path d="m128 85 3-6 2 1z" fill="#58473c"/><path d="m52 162 4-18 2 16z" fill="#ccbe7e"/><path d="m140 95h4l-3 1z" fill="#b79175"/><path d="m48 89 2-8-3 2z" fill="#c5a590"/><path d="m60 100 2-5 5 10z" fill="#755a4c"/><path d="m134 64-2 6 3-3z" fill="#bf9b88"/><path d="m55 96-1 4 4-7z" fill="#4d3f37"/><path d="m232 96 2-5-3-2z" fill="#717161"/><path d="m32 123 4-8-7 7z" fill="#cead78"/><path d="m49 89 2 2-1-6z" fill="#93705f"/><path d="m29 118-11-5 10-1z" fill="#c7ad7c"/><path d="m232 92-2-2h6z" fill="#57543b"/><path d="m106 102 2 2-1-2z" fill="#b18a5e"/><path d="m45 87h-2v5z" fill="#7d5f4d"/><path d="m74 141-15 19 10-5z" fill="#dcc88d"/><path d="m268 77-41-8 44-7z" fill="#edeeef"/><path d="m127 98 3 1 5-5z" fill="#22211e"/><path d="m120 119 2 2-4-2z" fill="#6c5743"/><path d="m50 90 2 4 2-4z" fill="#46392f"/><path d="m164 69-12-1 8 9z" fill="#e9ebeb"/><path d="m49 110h3l-2-5z" fill="#604d3f"/><path d="m248 100 3 3-1-5z" fill="#e4e7e3"/><path d="m57 125-1-2v4z" fill="#917457"/><path d="m145 105h-2l4 4z" fill="#726a52"/><path d="m118 124v-2l3 2z" fill="#af8e64"/><path d="m198 105v5l8 1z" fill="#bda278"/><path d="m26 108-1-1h-2z" fill="#c1cbd0"/><path d="m271 146v-26l-24 6z" fill="#d7c389"/><path d="m37 122-14 1 6-6z" fill="#d5b77f"/><path d="m233 115-2-4 4 3z" fill="#d1b081"/><path d="m3 126 6 4 9-6z" fill="#dec491"/><path d="m83 85-4 12 5-2z" fill="#56463b"/><path d="m219 111 2 3 9-1z" fill="#c4a672"/><path d="m95 143 1-11-4 1z" fill="#d1bb86"/><path d="m185 57-42-18 52 1z" fill="#f0f1f1"/><path d="m0 120 8 5 1-7z" fill="#ceb181"/><path d="m117 115 4-7-2-1z" fill="#6d5742"/><path d="m38 110-6 2 1-2z" fill="#8c7851"/><path d="m229 102-2-2 1-2z" fill="#a6a297"/><path d="m125 74-3-3 1 2z" fill="#6e6057"/><path d="m43 111-2-3-1 10z" fill="#6b5546"/><path d="m134 61-5 1 4-3z" fill="#cfa28d"/><path d="m105 71-1 9-1-6z" fill="#a37b68"/><path d="m233 104-7-5 3 7z" fill="#47422f"/><path d="m170 107h-2l2-2z" fill="#948164"/><path d="m146 104 1-6 3 11z" fill="#3b332a"/><path d="m163 125-3 1 1 3z" fill="#d6bb86"/><path d="m141 67-1 4 4 1z" fill="#232421"/><path d="m109 108h-3v-1z" fill="#5a4c33"/><path d="m25 126-3-7-2 9z" fill="#dcc092"/><path d="m228 101h7l-5 4z" fill="#2e3024"/><path d="m213 111 2 4 6-1z" fill="#dcc297"/><path d="m187 115 4 2-1-4z" fill="#c2a978"/><path d="m127 51 15 6 20-5z" fill="#e9ecec"/><path d="m75 71-9-2-2 5z" fill="#ab745f"/><path d="m89 120 2-3-1 3z" fill="#9b7652"/><path d="m232 115 4 7-1 5z" fill="#dfca9c"/><path d="m150 96-2-6h-2z" fill="#161b18"/><path d="m140 87-4 3-3-1z" fill="#705546"/><path d="m69 123-2-2h1z" fill="#44392c"/><path d="m63 59 22-12-44 9z" fill="#f7f6f6"/><path d="m119 63-8-2 2-2z" fill="#b59687"/><path d="m187 106h-3l-4 6z" fill="#b69c6e"/><path d="m135 102-1 5 2-4z" fill="#e9ebe6"/><path d="m111 91 2 4-6-3z" fill="#79604f"/><path d="m128 144-7 18 18-19z" fill="#dbca96"/><path d="m52 68 3-2-2-4z" fill="#eaecec"/><path d="m168 136 5-1-10 9z" fill="#d3c48c"/><path d="m240 143-8 19h12z" fill="#d0b975"/><path d="m96 90 16 8-6-10z" fill="#5d4e43"/><path d="m102 74-5 1 1-7z" fill="#b28673"/><path d="m216 80 1 4-3 1z" fill="#797d7b"/><path d="m227 61v-22l27 14z" fill="#f2f2f2"/><path d="m100 118h-3l-4-5z" fill="#27281f"/><path d="m235 77 1 2-6-2z" fill="#6d6950"/><path d="m153 67 32-1-44-11z" fill="#f1f2f2"/><path d="m209 90 5-5 5 19z" fill="#e7e9e8"/><path d="m165 99-1-2h-4z" fill="#e4d3c5"/><path d="m69 119v-3l2 2z" fill="#23211c"/><path d="m201 86-6 16-31-4z" fill="#ebefef"/><path d="m239 89 3 5-2-8z" fill="#6f6854"/><path d="m55 124-5 4v-4z" fill="#40332b"/><path d="m256 41 4-15-31 18z" fill="#eaeaec"/><path d="m36 132 2-11 2 5z" fill="#9a7c5f"/><path d="m39 139-1-7-2 11z" fill="#cfc091"/><path d="m120 120-1-1v-2z" fill="#24211a"/><path d="m160 133 5-10-2 14z" fill="#e4d2a8"/><path d="m102 116-1-1 2 1z" fill="#191c1a"/><path d="m58 95 14-5-15-2z" fill="#76594a"/><path d="m79 45 42 11-9-13z" fill="#eff2f2"/><path d="m26 132-3-3v4z" fill="#cdb277"/><path d="m200 91-14-3 29-5z" fill="#e9eded"/><path d="m112 92h2l1 3z" fill="#292621"/><path d="m155 108 1 2 1-4z" fill="#93785d"/><path d="m27 109 12-7-14-8z" fill="#e8edee"/><path d="m190 131 10 1 8 13z" fill="#ddc693"/><path d="m163 141-1 11 7 10z" fill="#dcd5ab"/><path d="m247 67 4 19-6-7z" fill="#eaeded"/><path d="m146 77 3-1-3-1z" fill="#826d61"/><path d="m212 80-1 2-1-2z" fill="#a6a6a0"/><path d="m131 162-14-18-8 18z" fill="#c3b97f"/><path d="m130 123-8 1 2 2z" fill="#cfb37e"/><path d="m52 108 3 6-6-1z" fill="#866958"/><path d="m129 95 1 3-4-1z" fill="#5a4839"/><path d="m226 91h3l-3 4z" fill="#5c5d54"/><path d="m129 72-4-1 4 3z" fill="#98705b"/><path d="m6 98-22-14 24 27z" fill="#e9eeed"/><path d="m184 120-2 8-1-13z" fill="#ddc28b"/><path d="m93 119v-4l-4 2z" fill="#352c24"/><path d="m218 86v1h-1z" fill="#696a61"/><path d="m138 98 3 4-3-2z" fill="#404953"/><path d="m31 117 1-5-7 2z" fill="#c6ad76"/><path d="m224 111-1-2-2 1z" fill="#9e8553"/><path d="m183 106 3-1 2 1z" fill="#b8a884"/><path d="m234 75 8 5-7-2z" fill="#666148"/><path d="m228 95 5 1-2 2z" fill="#333127"/><path d="m18 143v-8l-3-2z" fill="#cdbb84"/><path d="m63 134-1 7 2-2z" fill="#e3d0a6"/><path d="m114 109-2-1-3 1z" fill="#121715"/><path d="m123 112v1l-3 1z" fill="#ad8e5b"/><path d="m200 109-4 5 7 1z" fill="#cbb17d"/><path d="m225 108h2l-2-4z" fill="#534a35"/><path d="m52 131 3 2h-6z" fill="#b79571"/><path d="m62 62 5 7v-3z" fill="#b1806d"/><path d="m199 79-36 19-8-24z" fill="#ecefef"/><path d="m227 112-2 1 1-2z" fill="#96824f"/><path d="m212 115-3-8 3 1z" fill="#c4ab75"/><path d="m214 75h3l2 2z" fill="#7a7162"/><path d="m77 99 2 6-3 1z" fill="#735542"/><path d="m157 117-3-2h7z" fill="#7c6546"/><path d="m253 141 18-29-8 35z" fill="#cec089"/><path d="m91 131-2-9h5z" fill="#dfc798"/><path d="m238 68-11 8 5-7z" fill="#e5e9e8"/><path d="m16 140-32 22h15z" fill="#ddcd9c"/><path d="m141 62-3 2-2-2z" fill="#ab7d67"/><path d="m219 151-2-7v7z" fill="#e9d7ad"/><path d="m101 94 11-3h-9z" fill="#5b4c42"/><path d="m49 106-2-5 5-3z" fill="#2b2720"/><path d="m146 131-1 4-2-9z" fill="#d8bd7e"/><path d="m70 43 2-10 37 7z" fill="#e8ebec"/><path d="m121 90-4-4 2 4z" fill="#836f5b"/><path d="m70 113 6 3-5-1z" fill="#92704f"/><path d="m27 85-6 25 9-12z" fill="#ebeeef"/><path d="m60 116-3 1 5 5z" fill="#59493a"/><path d="m210 81-24 4-11 20z" fill="#eaeeee"/><path d="m44 125-5 1v6z" fill="#d4bc81"/><path d="m5 113 3 12-4-3z" fill="#cbae7e"/><path d="m113 140 2-12 1 7z" fill="#d0ba83"/><path d="m112 138 4 21-6-7z" fill="#ded1a2"/><path d="m44 89 4-6-3-1z" fill="#967460"/><path d="m-16 132 5 13 19-25z" fill="#d8bf8b"/><path d="m36 132 12 2-2 3z" fill="#d0b289"/><path d="m183 110 2 7-9-7z" fill="#c5a87a"/><path d="m1 146-17-24 15-14z" fill="#dcc892"/><path d="m151 135-2-4 1-4z" fill="#ccbb83"/><path d="m113 106 6 2-3-2z" fill="#4c3b30"/><path d="m238 66h22l-15-6z" fill="#f3f3f2"/><path d="m36 109 2 3 2-3z" fill="#978b73"/><path d="m55 138-7 8 10-6z" fill="#dfcb97"/><path d="m64 69h-1l1-3z" fill="#ab8e81"/><path d="m119 125 3-1-2-3z" fill="#b19067"/><path d="m7 118 1-7 1 7z" fill="#a48b68"/><path d="m220 89h-2l2 2z" fill="#787875"/><path d="m223 81 2-1v-1z" fill="#8f8c7e"/><path d="m85 115h-1l2-1z" fill="#191c18"/><path d="m155 131 7 1-9 2z" fill="#dec991"/><path d="m66 49-3-11-31-4z" fill="#f1f3f3"/><path d="m66 2-8 22-36-1z" fill="#f4f4f4"/><path d="m92 97-3-5 4 3z" fill="#3c3027"/><path d="m31 144 15 5-30 4z" fill="#d1c189"/><path d="m73 126-4 2 3-4z" fill="#896d50"/><path d="m90 88h8l-10-4z" fill="#725447"/><path d="m146 115v10l-8 4z" fill="#e1cb94"/><path d="m121 78-4 1-6-9z" fill="#9c857a"/><path d="m148 101-2-7 5 7z" fill="#6f5d40"/><path d="m183 106-4 2-7-2z" fill="#a9936a"/><path d="m177 110-5-1 4 7z" fill="#caab7c"/><path d="m135 75-3 3h2z" fill="#967766"/><path d="m87 56-5 2-5-1z" fill="#eeedec"/><path d="m262 0-18 38-17-25z" fill="#f0f0f1"/><path d="m240 131v3l9 1z" fill="#d4b77e"/><path d="m139 85 1 5-4-5z" fill="#826454"/><path d="m217 127 3-6-7-2z" fill="#e2cd9d"/><path d="m242 162h17l-28-19z" fill="#cec187"/><path d="m147 88 4 1-8 1z" fill="#5c4839"/><path d="m149 139 1-5 4 8z" fill="#dbcc9b"/><path d="m78 65 6 8-4-2z" fill="#bf907b"/><path d="m107 100 1 4-3-2z" fill="#997d58"/><path d="m89 124 1-2-3 2z" fill="#e3cdb2"/><path d="m43 108-2-3 2 1z" fill="#6a554f"/><path d="m171 118-2 3-2-1z" fill="#d2ba7f"/><path d="m218 104-2 4 3 2z" fill="#c1a97b"/><path d="m217 30-17-22 19 6z" fill="#eff0f0"/><path d="m209 79v-1l2-1z" fill="#b2b0a3"/><path d="m155 95 1-1-1-1z" fill="#5d483e"/><path d="m45 92h3l-1-2z" fill="#876556"/><path d="m200 103 9-12 1-15z" fill="#ebeeee"/><path d="m230 119 9 4-3-5z" fill="#d6bb7e"/><path d="m191 69-12-6 28 2z" fill="#f1f1f1"/><path d="m226 142 4-6-1 8z" fill="#e4d4a9"/><path d="m72 134-1-3 6-1z" fill="#decaa4"/><path d="m69 113-1 1 4 1z" fill="#92704e"/><path d="m33 79-21-7 31-1z" fill="#e9ebec"/><path d="m129 126-6-3-5 6z" fill="#c7a977"/><path d="m189 108 6-1 1 2z" fill="#d4bb8e"/><path d="m231 109 1-4h-3z" fill="#605741"/><path d="m95 63-5 3-2-4z" fill="#bd9684"/><path d="m129 89v-3l6 1z" fill="#332e25"/><path d="m94 94 2 4 4-2z" fill="#41372e"/><path d="m84 114 3 2-2-8z" fill="#43352a"/><path d="m86 113-2 1h3z" fill="#1a1817"/><path d="m41 117-3 4 1-8z" fill="#7f644f"/><path d="m88 86 2 3 5 1z" fill="#664c3e"/><path d="m110 87 4 1-2 2z" fill="#493d35"/><path d="m164 102v3l-2-3z" fill="#edf7fc"/><path d="m172 109 8-1 1 3z" fill="#d0b78a"/><path d="m234 112 6-3 2 7z" fill="#c0a36e"/><path d="m63 63-1 4 5-4z" fill="#b0745d"/><path d="m56 46-38 1 5-13z" fill="#ebeeef"/><path d="m44 105 4 3-3-1z" fill="#d9dfe5"/><path d="m43 115 2-6 1 10z" fill="#c5aa78"/><path d="m149 95 1-2 2 1z" fill="#5d4939"/><path d="m83 117-1 2-4-5z" fill="#846a43"/><path d="m18 119-2 10 9-8z" fill="#d4b780"/><path d="m143 101h-4l2-3z" fill="#1c1c18"/><path d="m98 75h10l-7 3z" fill="#947262"/><path d="m2 135v7l2-5z" fill="#d1bb7b"/><path d="m193 162-27-16-7 11z" fill="#ac9f5e"/><path d="m245 134 3 28 4-15z" fill="#dac28e"/><path d="m163 128-1 3h3z" fill="#e8dcbf"/><path d="m36 140 18 10-2 12z" fill="#e1cfa3"/><path d="m117 141 3 2-8-1z" fill="#d9cf9c"/><path d="m88 39 37-4-12 8z" fill="#e8e9ea"/><path d="m239 122-12 4 7 3z" fill="#dfcc9c"/><path d="m225 73-3-1h4z" fill="#a6a69d"/><path d="m-4 57 30-2-17-11z" fill="#eff1f2"/><path d="m109 113-1 2h-1z" fill="#21231e"/><path d="m65 93 6 4-2-4z" fill="#916e5a"/><path d="m236 139-8 23 13-5z" fill="#e2d19e"/><path d="m113 124 1 2 1-1z" fill="#806646"/><path d="m5 158 11-16-12 10z" fill="#d3bc83"/><path d="m110 64-2 3 11 7z" fill="#bb9e90"/><path d="m80 120 3 1-4-6z" fill="#5b4a31"/><path d="m155 122-1 2v-2z" fill="#c8ad76"/><path d="m181 134-3 1 1-4z" fill="#e6d2a7"/><path d="m67 93-10 4h8z" fill="#6d5245"/><path d="m204 109-1-1-2 2z" fill="#a58c63"/><path d="m148 71 2 2h3z" fill="#8c7163"/><path d="m246 135h-2l-2 4z" fill="#e3cca2"/><path d="m230 78-9-1 3 2z" fill="#746c51"/><path d="m222 90h1v1z" fill="#1c1e14"/><path d="m70 88 6-9-3 9z" fill="#a67762"/><path d="m145 75-3-2 3 6z" fill="#574940"/><path d="m200 126-3-5-5-2z" fill="#dbbe85"/><path d="m254 99-1-1h1z" fill="#cdd3d8"/><path d="m235 99 2 1-1 5z" fill="#484734"/><path d="m127 133 2-5-17 6z" fill="#e1c998"/><path d="m245 111 2-1v3z" fill="#b39f61"/><path d="m138 109h5l-1 7z" fill="#d6bc8f"/><path d="m218 128-12 8 16-21z" fill="#dfca97"/><path d="m106 77 3 3-8 9z" fill="#6f6055"/><path d="m38 109h-2l-1 1z" fill="#afa599"/><path d="m107 83-8-4 11 12z" fill="#7a6559"/><path d="m159 98-1 2-1-5z" fill="#23211d"/><path d="m223 89h3l-3 2z" fill="#363b31"/><path d="m125 78 2 2v5z" fill="#161a18"/><path d="m232 80h-3l4-4z" fill="#90846c"/><path d="m104 65-12 6 13-2z" fill="#c49783"/><path d="m145 75-5-5v-4z" fill="#25241f"/><path d="m153 111-2-2-2 3z" fill="#ae8d66"/><path d="m232 109-4-4-1 4z" fill="#746048"/><path d="m143 112 4-1-4-2z" fill="#c1a37a"/><path d="m90 77h3l-5-4z" fill="#b08d7d"/><path d="m109 85-3 4-3-2z" fill="#63574f"/><path d="m83 140v-3l2 3z" fill="#cfba7f"/><path d="m139 61 4 5v-5z" fill="#bd8f7a"/><path d="m29 134-2-1-1 5z" fill="#dfcd9d"/><path d="m86 119 5-2h-5z" fill="#57442e"/><path d="m246 144 1-3-1 1z" fill="#e6d4a7"/><path d="m63 88-4-3 12 2z" fill="#a27966"/><path d="m100 65 4 2 2-2z" fill="#b48f7e"/><path d="m124 74 4 3-1-4z" fill="#766155"/><path d="m207 106-1-2h2z" fill="#7f6b48"/><path d="m71 113-3-3h-3z" fill="#43372e"/><path d="m251 98v2l2 1z" fill="#929598"/><path d="m222 68 10 5-4-4z" fill="#e0e1df"/><path d="m126 88-2-3h1z" fill="#514136"/><path d="m165 137 4-8-9 9z" fill="#d6c791"/><path d="m192 157-5 5-4-24z" fill="#d0c28b"/><path d="m232 102 4-4v-4z" fill="#2e2f24"/><path d="m129 115-4 2-2-1z" fill="#bb9b70"/><path d="m-16 112 24 7-14-10z" fill="#aa9168"/><path d="m51 146-5 7v9z" fill="#baaa6d"/><path d="m222 64 35-11-27 19z" fill="#edeeef"/><path d="m0 115-6 40-10-40z" fill="#c5a785"/><path d="m106 80 5 8 1-4z" fill="#605148"/><path d="m134 90-3-1-2 2z" fill="#292721"/><path d="m106 107-3-2-5 1z" fill="#332d23"/><path d="m58 77-3 2-1 4z" fill="#ab826e"/><path d="m149 78 3-4 2 2z" fill="#726a64"/><path d="m127 78v-4l-4-4z" fill="#735c51"/><path d="m191 126-7 13 8-5z" fill="#dccc98"/><path d="m61 128 3-2-1-2z" fill="#685f4b"/><path d="m67 96-6 13-1-13z" fill="#70574a"/><path d="m179 125 2-2-2-3z" fill="#e2d09f"/><path d="m130 79-3-15-2 7z" fill="#9b7765"/><path d="m123 145-8 16 13-10z" fill="#bdbb8a"/><path d="m114 20 26-3-24-11z" fill="#eff0ef"/><path d="m171 133-2-1-3 3z" fill="#e1d8b0"/><path d="m48 118 2 1-2 1z" fill="#846453"/><path d="m260 93-2 5h-7z" fill="#99907a"/><path d="m184 107h-9l-7 5z" fill="#ceb484"/><path d="m66 157-8-16 20 21z" fill="#e2d4a7"/><path d="m244 128 1-11-6 15z" fill="#dfc896"/><path d="m64 87h2v-3z" fill="#926a58"/><path d="m145 102 3 1-4 1z" fill="#4a4133"/><path d="m271 90-17 7 17-28z" fill="#b0aa9b"/><path d="m129 101 2-4 1 5z" fill="#222521"/><path d="m143 61-2 3 9 3z" fill="#b38874"/><path d="m194 112-1-2h1z" fill="#9c8555"/><path d="m152 125v4l-6-9z" fill="#d2bf82"/><path d="m244 113-1-2v3z" fill="#8f7c4f"/><path d="m94 113 2 5 4 1z" fill="#29281f"/><path d="m77 114 4 4h5z" fill="#896c47"/><path d="m190 130v-5l5 10z" fill="#dbc890"/><path d="m33 157 7-16-41 21z" fill="#d9c894"/><path d="m77 109 1 5 1-6z" fill="#2a2821"/><path d="m14 132v3l3 3z" fill="#caaf75"/><path d="m213 61-31-3 19 8z" fill="#e9ebec"/><path d="m249 131-3-8-6 5z" fill="#e0cea0"/><path d="m11 108h3l-2 10z" fill="#ae9973"/><path d="m50 108 11 7-10-3z" fill="#826657"/><path d="m156 120 3 6-1-9z" fill="#a8895e"/><path d="m78 90-1-4-3-2z" fill="#795647"/><path d="m124 100 2 2-2-1z" fill="#755a4b"/><path d="m107 101-6-9-7-1z" fill="#4f4339"/><path d="m241 103h4l-1 1z" fill="#484030"/><path d="m170 127 5 2-3-15z" fill="#dfcc99"/><path d="m126 108 3 4-3 2z" fill="#7d664c"/><path d="m125 75 3-2-5-3z" fill="#7c6457"/><path d="m211 111-7-6 5 2z" fill="#b89f71"/><path d="m92 138 3 5-3 1z" fill="#ccbe84"/><path d="m16 124-5-1v-7z" fill="#d6bc8c"/><path d="m13 111-1-2 4 3z" fill="#988765"/><path d="m90 162h-10l13-23z" fill="#d9ce9d"/><path d="m146 112-3 5 2-7z" fill="#d5b88a"/><path d="m138 109-1-2h-1z" fill="#9f8a60"/><path d="m96 83 2 1-4 2z" fill="#766054"/><path d="m142 88v1l2 1z" fill="#b08a74"/><path d="m227 92 2-4h5z" fill="#706955"/><path d="m17-16 16 28-45-28z" fill="#fcfdfc"/><path d="m121 80v11h3z" fill="#796154"/><path d="m133 103-2 2 7-1z" fill="#e4e9e7"/><path d="m93 89 13 4-1-5z" fill="#625045"/><path d="m110 71 4 5-2 1z" fill="#938179"/><path d="m141 121-4-2 1 7z" fill="#e5d3aa"/><path d="m202 137-1-12 3 5z" fill="#e4d3aa"/><path d="m99 162-13-9 3-10z" fill="#ccc691"/><path d="m139 133-10-2 2 5z" fill="#e3d2a7"/><path d="m137 123 2 2-5 7z" fill="#dfc994"/><path d="m113 102 2-2 3 8z" fill="#2e2a22"/><path d="m155 73-4-2-2-4z" fill="#cda895"/><path d="m207 69 5 8-20-5z" fill="#e8eaea"/><path d="m138 119 2-4 12 3z" fill="#ddc393"/><path d="m67 146 10 9-3-8z" fill="#aaa573"/><path d="m179 141 5 5 9-20z" fill="#dbc994"/><path d="m143 87-1-2 4 1z" fill="#886959"/><path d="m109 124-4 4 3 4z" fill="#d4bc80"/><path d="m21 127-5 4 7 10z" fill="#dcc28f"/><path d="m129 106 1-3-6 4z" fill="#6d5e52"/><path d="m117 98h4l-1-5z" fill="#8c6d52"/><path d="m196 145v10l13 5z" fill="#cab772"/><path d="m228 90-3 1 1-1z" fill="#474736"/><path d="m124 128-4 2 3-4z" fill="#b79a74"/><path d="m148 140 8 15-5 7z" fill="#e0d4aa"/><path d="m131 137 5-3-1 4z" fill="#dfcc99"/><path d="m102 133 3 3-8 5z" fill="#e4d3ae"/><path d="m2 144 6 18-9-3z" fill="#e9d8b7"/><path d="m73 85 4-8v4z" fill="#9f6f5b"/><path d="m212 128v12l4-8z" fill="#e0cea4"/><path d="m55 84 3-3h5z" fill="#9b8377"/><path d="m254 145 13 2 4 15z" fill="#b4a272"/><path d="m102 149 3 2 8-6z" fill="#cbbc7e"/><path d="m80 117v-2h-4z" fill="#685133"/><path d="m190 141h-5l5-2z" fill="#dbc385"/><path d="m117 34 22 13 22-2z" fill="#ebedee"/><path d="m50 72 3-1 2-4z" fill="#caa697"/><path d="m44 124-2-2-2 9z" fill="#dac18e"/><path d="m53 73 4-5 1 7z" fill="#926857"/><path d="m64 103-3-4-9 5z" fill="#7a5f50"/><path d="m85 72-1 6 5-6z" fill="#a17866"/><path d="m156 105-1-3-1 7z" fill="#5f574a"/><path d="m125 116 3-4v3z" fill="#796447"/><path d="m43 121 2-5-4 2z" fill="#cdad76"/><path d="m47 104 2 5-1-10z" fill="#312c26"/><path d="m177 137 2 1-2-6z" fill="#cdbb7f"/><path d="m208 112 5 1-1-3z" fill="#d3bb89"/><path d="m149 99v5l4-2z" fill="#6b5d3d"/><path d="m232 137v-11l8 12z" fill="#dac38a"/><path d="m85 78 10 4 1 5z" fill="#926d5c"/><path d="m143 61-2-1 2 4z" fill="#b78f7e"/><path d="m67 119 5 2h-6z" fill="#866b4b"/><path d="m98 113 2-1-4-2z" fill="#a88e61"/><path d="m51 71 8-13-8 7z" fill="#eceeee"/><path d="m224 87 2-2 3 2z" fill="#3b3b30"/><path d="m72 122v1l-2-1z" fill="#a4806c"/><path d="m149 87-1-2 4 3z" fill="#806449"/><path d="m105 87 2-3-6-3z" fill="#74665e"/><path d="m70 74h11l-11-4z" fill="#a06e5a"/><path d="m9 135 6 9-3-11z" fill="#d3ba80"/><path d="m101 132-6 6 1 6z" fill="#e0cc9d"/><path d="m218 108-1 4 2 5z" fill="#cfb480"/><path d="m41 111 3-1h-3z" fill="#6e5d44"/><path d="m239 84-1 1v2z" fill="#4a4734"/><path d="m87 115 5-2-4-5z" fill="#7e6447"/><path d="m84 109 7 1-4 1z" fill="#564433"/><path d="m42 98 2 4v-7z" fill="#6d594d"/><path d="m128 140-7-11 7 5z" fill="#ddc996"/><path d="m215 79-4-2h2z" fill="#939080"/><path d="m164 127-1-1 1 2z" fill="#d8be8d"/><path d="m129 91-2-7 9 11z" fill="#1a1c1a"/><path d="m64 89 1 4 3-4z" fill="#6e4f42"/><path d="m85 108v1l2 1z" fill="#3b3026"/><path d="m139 130-4 4 2-4z" fill="#e7d8b6"/><path d="m123 95-2-3 1-1z" fill="#a4826f"/><path d="m207 134 4 4v-6z" fill="#d4be83"/><path d="m50 91-2-1-1 1z" fill="#7b5e50"/><path d="m157 55 4 13 16-24z" fill="#eceff0"/><path d="m154 130 2-4-5 4z" fill="#e0ce9e"/><path d="m57 121 2-2h-2z" fill="#322a22"/><path d="m103 162 5-1-8-17z" fill="#ebe2c8"/><path d="m136 115 10-3 4 3z" fill="#d1b583"/><path d="m128 131-2 1-1-8z" fill="#dbc28c"/><path d="m130 117-9 3h5z" fill="#b89d75"/><path d="m140 79-1 1v2z" fill="#7b6253"/><path d="m129 144 21 14-12-3z" fill="#e2d5ae"/><path d="m85 135 4-5 1 4z" fill="#ccb37d"/><path d="m67 121-3-3 2-3z" fill="#5d4a38"/><path d="m55 127-3 3-3-1z" fill="#906a58"/><path d="m231 8 10-10 30 5z" fill="#f4f4f4"/><path d="m220 72h2l1-2z" fill="#67614e"/><path d="m230 85h-4l-1-2z" fill="#535041"/><path d="m20 143-23 12 12 7z" fill="#dacea1"/><path d="m126 102-3 6 3-3z" fill="#3e3934"/><path d="m186 128 1 3 2-2z" fill="#e2d1a5"/><path d="m22 123 1-1v3z" fill="#dfc797"/><path d="m244 100v2l2-2z" fill="#726b57"/><path d="m6 28 27 3v-11z" fill="#f1f0f0"/><path d="m90 86 7-3 3 2z" fill="#806658"/><path d="m7 141v-6l2 1z" fill="#dbc398"/><path d="m117 95-2 6 4 7z" fill="#544232"/><path d="m68 56-2 4-3-2z" fill="#edeae9"/><path d="m30 16-46 12 31-24z" fill="#f5f6f6"/><path d="m220 91 2-3 3-1z" fill="#676559"/><path d="m184 126 2 3-2 3z" fill="#d2bd80"/><path d="m222 105-2 1 2 4z" fill="#997f5a"/><path d="m245 120 3-3 2 7z" fill="#e3cea8"/><path d="m142 111-10 2 1-3z" fill="#c6ad7f"/><path d="m87 109-2 4-1-2z" fill="#594235"/><path d="m220 93h1l-1-3z" fill="#9e958f"/><path d="m252 104 11-10 1 7z" fill="#bdae95"/><path d="m233 99-4 4 5-9z" fill="#434135"/><path d="m214 108-5-2 1 2z" fill="#d4b88e"/><path d="m7 134 2-7-2 3z" fill="#e2c99e"/><path d="m243 83 28-6v29z" fill="#eaeded"/><path d="m31 123 6 4-2-6z" fill="#cdae7b"/><path d="m90 137 6 3-7-8z" fill="#ddc48d"/><path d="m40 139-6-3 3-1z" fill="#c7b07f"/><path d="m117 132-9 3 4-4z" fill="#dabf89"/><path d="m70 118 1-2-6 2z" fill="#41372a"/><path d="m32 105 2 2 2-1z" fill="#e0e5e4"/><path d="m76 106 3-2h-3z" fill="#7a5e44"/><path d="m62 133 3-3-5 2z" fill="#b7a378"/><path d="m155 11-56-20 65 4z" fill="#f7f8f8"/><path d="m151 129 3-3-3-9z" fill="#e0ce9a"/><path d="m64 73 3-4-1-9z" fill="#ae816e"/><path d="m80 100h-6l-1 2z" fill="#372e27"/><path d="m104 73-4-9 9 6z" fill="#bb9482"/><path d="m255 78 16 4-29 4z" fill="#eceeee"/><path d="m56 61 17-5-30-1z" fill="#f3f4f3"/><path d="m165 108-2 4 3 3z" fill="#c5a985"/><path d="m118 44-14 3 27 12z" fill="#f0f1f2"/><path d="m95 107-1 2-1-1z" fill="#4b402f"/><path d="m133 76-3-1h4z" fill="#815c4c"/><path d="m93 107 2-1h-2z" fill="#8f754b"/><path d="m194 111 1-6h3z" fill="#c8ac7f"/><path d="m106 110v-1l-2 2z" fill="#92764e"/><path d="m222 16 4 12-5 4z" fill="#f8f7f7"/><path d="m247 122-6-2-2-4z" fill="#e2c89d"/><path d="m247 108-2-3 1-1z" fill="#816f4d"/><path d="m145 141-2-8-1 8z" fill="#e0d19f"/><path d="m119 114 2-2-1 2z" fill="#c6ad89"/><path d="m114 105 1-3-2 3z" fill="#1a1d18"/><path d="m234 142v-11l6-7z" fill="#d8c48a"/><path d="m27 52-28 3 18-8z" fill="#eceeef"/><path d="m98 112h-1l1 2z" fill="#d2b88e"/><path d="m176 58 43-9-21-4z" fill="#f0eff1"/><path d="m112 95-3-6-1 2z" fill="#846756"/><path d="m131 138-3 1 5 3z" fill="#e4d6ae"/><path d="m234 108 3 1-5-4z" fill="#7b7a54"/><path d="m80 86 2-3-4 2z" fill="#806051"/><path d="m57 114 3-3v2z" fill="#5e493a"/><path d="m137 128-2 3 2-1z" fill="#d9c081"/><path d="m62 129h5l1-3z" fill="#8a785a"/><path d="m239 93v-2l-4 1z" fill="#353629"/><path d="m129 114-4-3 2-1z" fill="#957955"/><path d="m134 124 1 3-3-3z" fill="#e8d9b6"/><path d="m84 109-3-3 3 1z" fill="#b28f6d"/><path d="m247 79-7-9 21 6z" fill="#e8eaeb"/><path d="m234 73-5 2h3z" fill="#c3c3be"/><path d="m130 143 14 13-5 2z" fill="#dcc487"/><path d="m156 142-5 15v-11z" fill="#d4c58b"/><path d="m113 91h2l-3 2z" fill="#544437"/><path d="m154 132-1-2h-2z" fill="#e7d8b6"/><path d="m65 62-4 7-4-1z" fill="#a9725c"/><path d="m75 127h3l-3-1z" fill="#c8ad73"/><path d="m95 125 4 14 1-19z" fill="#dfca99"/><path d="m45 84-4 3 3-4z" fill="#967e70"/><path d="m82 97-4 7 6-6z" fill="#2c2821"/><path d="m60 111 9 8-8-4z" fill="#705744"/><path d="m119 85h3l1 3z" fill="#645349"/><path d="m103 113-3-2 1 2z" fill="#51432d"/><path d="m244 104v-2l-2 2z" fill="#58503c"/><path d="m209 18 10 10-16 1z" fill="#ebebec"/><path d="m146 134 3-4-1 5z" fill="#d7c895"/><path d="m241 81 1-4 1 3z" fill="#979183"/><path d="m231 75-5-13 5 5z" fill="#eaeced"/><path d="m176 19 24-3 14-29z" fill="#f5f6f5"/><path d="m152 86 1-5 2 3z" fill="#78665a"/><path d="m78 64-5-3 8 1z" fill="#cc9a84"/><path d="m162 99-3 1h4z" fill="#8a7365"/><path d="m88 102-3-4 1-7z" fill="#3b322a"/><path d="m13 129-5-4 6 14z" fill="#dbc091"/><path d="m138 30-17-5h30z" fill="#e8e8e9"/><path d="m5 143 16 19h-28z" fill="#d7c087"/><path d="m223 144-3-2v1z" fill="#cab773"/><path d="m96 110-2-6 2 3z" fill="#957b4d"/><path d="m107 64h-6l7-4z" fill="#cf9e86"/><path d="m101 89 1 4h11z" fill="#5d4e44"/><path d="m123 122v-4h-2z" fill="#756247"/><path d="m95 97 1-2h-3z" fill="#574537"/><path d="m223 101v-1h-1z" fill="#4d4f45"/><path d="m252 60 5-34 14 44z" fill="#e8eaeb"/><path d="m223 87 7-7h12z" fill="#4d4936"/><path d="m225 38 10 14 25 2z" fill="#f0f0f0"/><path d="m50 116 6 5-1-5z" fill="#554236"/><path d="m73 107 7-2-1 2z" fill="#5a4434"/><path d="m250 162 18-17h-25z" fill="#d2be86"/><path d="m128 131v5l-2 1z" fill="#d9c386"/><path d="m26 113 5-3-9 1z" fill="#b0956e"/><path d="m194 71 21 6h-12z" fill="#eaebe9"/><path d="m76 108-4-4 10 4z" fill="#4a3a2e"/><path d="m131 64h-4l-4 4z" fill="#a07d6e"/><path d="m213 70 4-2h-2z" fill="#d0d0c9"/><path d="m218 67-15 7 4-6z" fill="#e7ebea"/><path d="m169 142 7-2-2 2z" fill="#e4d6ad"/><path d="m233 141-7-10 5 3z" fill="#e4d2a9"/><path d="m66 139v-6l2 2z" fill="#dfc99c"/><path d="m120 97-1-4 3 4z" fill="#876b52"/><path d="m18 119-7-5h12z" fill="#c0a574"/><path d="m145 64-1 1 3 3z" fill="#907163"/><path d="m150 73-3-1h2z" fill="#b7a298"/><path d="m44 87 2 2-1 3z" fill="#af8975"/><path d="m233 119-4-4 10 4z" fill="#dfc593"/><path d="m155 113h4l-1 1z" fill="#584839"/><path d="m95 95 4 5h-4z" fill="#3b342d"/><path d="m64 101 8-1-6 3z" fill="#5a483b"/><path d="m88 103h-2l-2-3z" fill="#906f4c"/><path d="m41 62-1 9 9 5z" fill="#ebecec"/><path d="m77 92 5-5-13 6z" fill="#6b5445"/><path d="m66 107h2l-3 5z" fill="#322e27"/><path d="m28 144 6 14 10 4z" fill="#ceb37d"/><path d="m80 116 1 1 2-1z" fill="#a17e54"/><path d="m81 63-1 2h7z" fill="#d6a68f"/><path d="m52 106 11-10 6 3z" fill="#745a4c"/><path d="m103 138-1 3 4 4z" fill="#e6dcbb"/><path d="m216 71 5 3-7-2z" fill="#655f47"/><path d="m230 92-7-3h4z" fill="#47483b"/><path d="m137 78 2 3-2 5z" fill="#7c6050"/><path d="m155 103-3 1v1z" fill="#967c61"/><path d="m228 95 1-4 1 1z" fill="#303328"/><path d="m184 143 18 19h-10z" fill="#c5bc84"/><path d="m29 97 12 11-19-7z" fill="#eaeeef"/><path d="m110 95h-2l1 3z" fill="#52463c"/><path d="m40 124 3-3 1-5z" fill="#d7ba84"/><path d="m188 128v6l3-2z" fill="#d6c58d"/><path d="m104 120 4-4-3 8z" fill="#d3b681"/><path d="m131 118-1-2 2-1z" fill="#ceaf85"/><path d="m73 94 10-3h-7z" fill="#54473d"/><path d="m128 66 1-3-3 4z" fill="#be907b"/><path d="m235 110 3 2v3z" fill="#b69b62"/><path d="m103 112 3-3-1 2z" fill="#806846"/><path d="m236 93v-2l-2-1z" fill="#4f4c38"/><path d="m58 91h1l-2 1z" fill="#9a7d6a"/><path d="m98 79-3-2-6 4z" fill="#a67e6c"/><path d="m51 73h8l1-8z" fill="#996c5a"/><path d="m149 116-1-3 4 4z" fill="#cbb377"/><path d="m28 57-25 2 16 4z" fill="#e8eaeb"/><path d="m227 82-1 2v-2z" fill="#666450"/><path d="m188 130 2 6 3 1z" fill="#e4d1a4"/><path d="m97 102h-1v1z" fill="#2c2720"/><path d="m167 144 4 18 5-4z" fill="#dbcb97"/><path d="m67 59h4l-7 4z" fill="#b07761"/><path d="m147 87 1 2-5 3z" fill="#4d3f33"/><path d="m74 122 1-1h-4z" fill="#9a7a59"/><path d="m101 51-21-4 5 12z" fill="#f4f4f3"/><path d="m66 121-3-1-2-3z" fill="#856b55"/><path d="m60 107-5-4 4-1z" fill="#7f6455"/><path d="m121 150 17-5 9 9z" fill="#e4d4a7"/><path d="m-5 44-11-17 60 2z" fill="#eeeeef"/><path d="m186 29-11-3-12 5z" fill="#ecedef"/><path d="m227 80-3-2 4 1z" fill="#575341"/><path d="m207 144-11 18h12z" fill="#cabe80"/><path d="m121 56h-4l3 2z" fill="#d0b8aa"/><path d="m189 114 1 4-3 1z" fill="#c9b178"/><path d="m156 113-1-2-3 4z" fill="#37332c"/><path d="m73 107h2l-1 1z" fill="#7c6642"/><path d="m222 96h-3l3-1z" fill="#655941"/><path d="m45 138 10 7 6-2z" fill="#dbc793"/><path d="m78 144 11 18-2-11z" fill="#e5d4a5"/><path d="m215 134-2-10 3 6z" fill="#dec596"/><path d="m160 122-1-5-1 4z" fill="#c7a77e"/><path d="m69 75v-4l-14 6z" fill="#b58670"/><path d="m73 97 7 1-1-3z" fill="#3d352d"/><path d="m76 128-2 5 2 2z" fill="#d9c18c"/><path d="m59 94h3l-1-1z" fill="#846558"/><path d="m135 107-5-2 1 2z" fill="#a1906f"/><path d="m93 145 6 10-3 2z" fill="#c8bb79"/><path d="m94 126-3 7 3-1z" fill="#d0b982"/><path d="m110 111 1 1-4 1z" fill="#604739"/><path d="m213 118-7-5v3z" fill="#d1b582"/><path d="m234 90-1-2 1-3z" fill="#514837"/><path d="m166 140 5-3-7 2z" fill="#e3d09d"/><path d="m242 143 5-1-6-1z" fill="#e2c99e"/><path d="m63 130 1 5 3 2z" fill="#ccb281"/><path d="m130 66 1 3 1-1z" fill="#c5aa9c"/><path d="m82 139-5-9 1 7z" fill="#e3d2aa"/><path d="m220 73-2 1 1-2z" fill="#74715f"/><path d="m203 120 8-5-1 4z" fill="#d9bf8d"/><path d="m211 72 1 4-2 1z" fill="#c0bfb7"/><path d="m198 104-15-3 24-4z" fill="#eaeeee"/><path d="m105 37-46-21 4 16z" fill="#eeeeef"/><path d="m156 55-3 13-6-6z" fill="#f1f3f2"/><path d="m253 132-5 1 1-12z" fill="#e0ca99"/><path d="m177 121v7l2-1z" fill="#cfbf83"/><path d="m148 110v4l-2 2z" fill="#d4ba89"/><path d="m120 92-6-3h4z" fill="#745f4d"/><path d="m120 59 4 2-4 3z" fill="#b99b8a"/><path d="m159 113v-3l2 3z" fill="#23241f"/><path d="m44 89 5-4-1 3z" fill="#cda691"/><path d="m97 80v-4h5z" fill="#916a58"/><path d="m83 98-7-4h4z" fill="#534337"/><path d="m247 74-5 6 7-2z" fill="#e8eaeb"/><path d="m234 115-5-1 11-4z" fill="#cfaf80"/><path d="m32 117-8 2v-3z" fill="#d0b37d"/><path d="m16 120 1 2-1-1z" fill="#a98759"/><path d="m75 106-7-8 5 3z" fill="#644f39"/><path d="m206 111 3-2 1 1z" fill="#b29a64"/><path d="m128 145 5 17h8z" fill="#d5c37c"/><path d="m58 91h-4l-3 4z" fill="#8a6c5b"/><path d="m99 121-11 12 7-4z" fill="#dbc48d"/><path d="m240 107 1 4-2 3z" fill="#a99662"/><path d="m147 136v2l-2-3z" fill="#d5be7e"/><path d="m102 58-7 4-5-4z" fill="#ecedee"/><path d="m40 127 3 1v1z" fill="#c9b379"/><path d="m94 63 3 2 3-1z" fill="#aa9188"/><path d="m70 106 2-1 4 7z" fill="#50422d"/><path d="m240 100h-6l7 2z" fill="#313124"/><path d="m237 108-3-1h5z" fill="#a19a6c"/><path d="m84 121-2-1h1z" fill="#a57f65"/><path d="m53 70h2l1-3z" fill="#b28472"/><path d="m237 113-2-2-2 2z" fill="#bf9d6d"/><path d="m126 73-2-1v-2z" fill="#6e594e"/><path d="m193 135 8-4-3-2z" fill="#e0c998"/><path d="m251 142-1 12 5 8z" fill="#d5c084"/><path d="m218 107-3 5 6-5z" fill="#ccb183"/><path d="m271 131-21-7 21 23z" fill="#d3bf86"/><path d="m58 80 7-1 1 2z" fill="#c4a28f"/><path d="m167 104h3l-5 2z" fill="#6a6457"/><path d="m110 109h3l-2 1z" fill="#0f1615"/><path d="m177 145 2-1-2-4z" fill="#e0d1a4"/><path d="m219 91 1-3 1 1z" fill="#757a76"/><path d="m230 108-2 3-1-1z" fill="#8c7754"/><path d="m114 126v5l2-6z" fill="#c39e72"/><path d="m224 28-18 2 3 5z" fill="#f5f5f4"/><path d="m115 65 2 2v-5z" fill="#bca194"/><path d="m117 124-1 6 2-1z" fill="#d3b384"/><path d="m139 74-4 2 2-4z" fill="#caaf9f"/><path d="m171 120-5 1v9z" fill="#d9c389"/><path d="m93 34 45-6-7 11z" fill="#ececec"/><path d="m66 140-2 4v-8z" fill="#e3d3aa"/><path d="m111 41-38-1 28-7z" fill="#e7e9eb"/><path d="m98 95-5-1-1-4z" fill="#443930"/><path d="m110 58-9-4 23-4z" fill="#f0eff2"/><path d="m64 140 7 22h-11z" fill="#dccc96"/><path d="m253 107h13l-2-3z" fill="#c2a577"/><path d="m66 118-3-1-1-2z" fill="#47382f"/><path d="m237 123-3-7 5 3z" fill="#d7bb7d"/><path d="m17 113 2-4-2 2z" fill="#938168"/><path d="m205 122-13-7 8 1z" fill="#dcc392"/><path d="m208 109v-2h-4z" fill="#ceb384"/><path d="m60 48h-24l23-10z" fill="#eef1f1"/><path d="m147 158-11-5 6-14z" fill="#dcc88b"/><path d="m80 132 12 10-1-5z" fill="#dec997"/><path d="m166 105 2 10-4-2z" fill="#c6af8c"/><path d="m195 162-17-17 2 12z" fill="#c8c28b"/><path d="m90 112-2 1-3-1z" fill="#4b3a2b"/><path d="m153 89 2-2h-1z" fill="#ba9c8d"/><path d="m45 81 1 1-1 1z" fill="#8b6857"/><path d="m132 86 2 5 4 3z" fill="#3e342b"/><path d="m31 111-2-2v3z" fill="#aa9678"/><path d="m86 97v-1h3z" fill="#b18d65"/><path d="m114 125-1 3 2-3z" fill="#967a51"/><path d="m103 113-3 3 6-3z" fill="#23241d"/><path d="m70 139h-3v3z" fill="#d6c285"/><path d="m125 134v7l-2-4z" fill="#e4d0a2"/><path d="m131 68-2 2h2z" fill="#d0af9e"/><path d="m71 96v3l-2-6z" fill="#90725a"/><path d="m212 108-2 4v-2z" fill="#c7af7a"/><path d="m112 118 2 1 1-2z" fill="#66523e"/><path d="m3 119 2-3 4 3z" fill="#c1a475"/><path d="m120 102-2-1h2z" fill="#917554"/><path d="m92 125-2 5v-8z" fill="#dac18b"/><path d="m52 91h2l-4 3z" fill="#3f332b"/><path d="m226 98-4 1-2-2z" fill="#4a4a40"/><path d="m7 111-19 9-4-5z" fill="#af9767"/><path d="m77 120-6 4 2 1z" fill="#7a5c47"/><path d="m135 115 6 5 9-1z" fill="#dcc48f"/><path d="m124 141-5 21-5-4z" fill="#d6c590"/><path d="m112 101-3 3 6-3z" fill="#41362a"/><path d="m246 115-1 2h-4z" fill="#d2b37b"/><path d="m80 61 6 2-4-3z" fill="#b98975"/><path d="m180 110h3l-2-1z" fill="#b29861"/><path d="m21 143 10 19 4-6z" fill="#e2d1a9"/><path d="m95 124v-2l-2 1z" fill="#e5d1a4"/><path d="m-16 20 33-12-33-3z" fill="#f4f4f4"/><path d="m55 116-2 1-4-6z" fill="#775849"/><path d="m136 162 11-17 3 10z" fill="#dfc98e"/><path d="m102 66-15-3v4z" fill="#ca9b85"/><path d="m216 76 1 3-1 1z" fill="#726f65"/><path d="m30 111 8 2-16 1z" fill="#c2a775"/><path d="m97 103 2 4-2-2z" fill="#7c6645"/><path d="m208 101h-3v2z" fill="#dfe2dd"/><path d="m151 107 2 3-1-3z" fill="#a48659"/><path d="m231 144-9 17-8 1z" fill="#c9b97c"/><path d="m58 129-3-5 1 4z" fill="#6a5341"/><path d="m109 117v-2l2-2z" fill="#89684b"/><path d="m228 87h1l-1-1z" fill="#302f28"/><path d="m43 106 1-1v-2z" fill="#9b948e"/><path d="m236 76-3-1h2z" fill="#737362"/><path d="m233 94 5-5-2 5z" fill="#444333"/><path d="m155 84-1-1-2 5z" fill="#8f786c"/><path d="m25 145-14 11-27-6z" fill="#d3c28d"/><path d="m253 144-6 18 9-3z" fill="#d2c6a3"/><path d="m170 113-6 4 4 1z" fill="#d8c09a"/><path d="m51 75 4-6h3z" fill="#8a6252"/><path d="m154 119 1-1v4z" fill="#a48d58"/><path d="m77 113-1-3h-3z" fill="#705a3e"/><path d="m96 114 3-5-2-2z" fill="#6e5c3b"/><path d="m55 109-4-1 5-1z" fill="#987864"/><path d="m183 119-2-4 4 4z" fill="#d3b787"/><path d="m143 65-2-1v-1z" fill="#cc9e87"/><path d="m121 142-1-2-2-1z" fill="#c7bc81"/><path d="m174 115 2-5 6 1z" fill="#c5a881"/><path d="m24 145-1 6 5-10z" fill="#e4d2aa"/><path d="m200 92 9 10-32-7z" fill="#eaefef"/><path d="m235 144v9l6 9z" fill="#dbc487"/><path d="m71 61-4-1 5 4z" fill="#b68875"/><path d="m59 99-5-4 2 3z" fill="#4a3c32"/><path d="m251 116-5 5 1-4z" fill="#dec396"/><path d="m223 98-2-1 6-1z" fill="#36362c"/><path d="m249 112v8l2-5z" fill="#d7bd8a"/><path d="m93 126 5-2h-12z" fill="#dcc192"/><path d="m157 138 2 3v-5z" fill="#d7c78c"/><path d="m27 162 2-9-5-10z" fill="#dbc18c"/><path d="m57 87 2 1v-3z" fill="#816759"/><path d="m149 125v-5l6 9z" fill="#d8c284"/><path d="m50 99v6l-5-5z" fill="#332c24"/><path d="m86 99h-3l5-9z" fill="#363029"/><path d="m191 47-7-1-8 7z" fill="#f5f5f3"/><path d="m206 75h-22l17 5z" fill="#eff0f0"/><path d="m160 106-2 2 1-8z" fill="#7a6352"/><path d="m209 143-12 19 12-11z" fill="#c5b575"/><path d="m227 95 2-5h-3z" fill="#59584c"/><path d="m239 96-2 7v-7z" fill="#4b4835"/><path d="m231 82-1 3v-3z" fill="#302f23"/><path d="m144 98h2v4z" fill="#29281e"/><path d="m49 76 1-1-2 1z" fill="#a77864"/><path d="m184 29-26-7 16-2z" fill="#eae9ea"/><path d="m67 80 5 4-2 1z" fill="#b48771"/><path d="m95 72 3-8-7 1z" fill="#c99f8a"/><path d="m47 111-5 4h3z" fill="#c9b07b"/><path d="m234 125 3 3-4-7z" fill="#e4d0a6"/><path d="m102 74-5-1 4 4z" fill="#a88270"/><path d="m253 141 8 2 1 6z" fill="#c3b682"/><path d="m127 122-1 1 3-1z" fill="#8c714b"/><path d="m74 99 3 5h-6z" fill="#44382c"/><path d="m134 141-9 4 4-5z" fill="#e5d3a9"/><path d="m20 117-3 7 1-12z" fill="#c8ab79"/><path d="m85 146-5 4-8-1z" fill="#e8e3cc"/><path d="m181 143-6 19 11-8z" fill="#cbb97e"/><path d="m93 86 5 1 3 3z" fill="#635246"/><path d="m248 105-1 1h-2z" fill="#a78f5e"/><path d="m159 107h-1l1 3z" fill="#49392d"/><path d="m116 109 1-2h3z" fill="#695643"/><path d="m169 129v7l2-4z" fill="#e2d7ae"/><path d="m47 112 2 3 5-3z" fill="#866653"/><path d="m59 126 2-3-1 4z" fill="#544335"/><path d="m42 139 1 2 2-1z" fill="#cbb17b"/><path d="m155 113v1l-2 1z" fill="#2d2921"/><path d="m84 122h-2l1 6z" fill="#c8a773"/><path d="m49 120-1-2 5 2z" fill="#7d5f4f"/><path d="m38 116-1 3-2-2z" fill="#c3a474"/><path d="m267 112 4-7-17 3z" fill="#a5895d"/><path d="m52 125 3-3-6 2z" fill="#48392e"/><path d="m87 138-6 6 7-4z" fill="#ddcf9f"/><path d="m162 115 2 4-2-2z" fill="#ceb580"/><path d="m126 129-4-3h2z" fill="#b49b67"/><path d="m222 136 10-1-7 3z" fill="#decb99"/><path d="m126 90-3 8 3-2z" fill="#2d2c25"/><path d="m126 64 2 2 3-1z" fill="#a2806f"/><path d="m165 106-4-5 5 3z" fill="#d8dddd"/><path d="m255 127 11 13 5-3z" fill="#e2c8a2"/><path d="m249 109 2-2-1 7z" fill="#c8ad7d"/><path d="m245 140 1-7 2 3z" fill="#d6b783"/><path d="m218 129-1 5 3-1z" fill="#dec690"/><path d="m220 81h2l-2 3z" fill="#b2b1aa"/><path d="m155 136h-2l2 3z" fill="#e6ddbf"/><path d="m121 75-4-4v3z" fill="#b89e8f"/><path d="m209 143-18-8 10 1z" fill="#ddc491"/><path d="m55 139 2-5 3 2z" fill="#ccb682"/><path d="m45 101-3 1 4 1z" fill="#6c5446"/><path d="m229 41-15 2 11 5z" fill="#f5f6f5"/><path d="m13 106-14-4 2 7z" fill="#e9edee"/><path d="m143 156 4-6-4-7z" fill="#d5c082"/><path d="m135 58 16-6h-18z" fill="#e9ebec"/><path d="m184 119 3 2-3-1z" fill="#e2cca0"/><path d="m152 115-2-2 1-1z" fill="#9b8860"/><path d="m127 98 2-2-7 2z" fill="#54473b"/><path d="m159 144-3-5v4z" fill="#ded2a6"/><path d="m8 110 2 1h-5z" fill="#bfb29a"/><path d="m146 109 4 5-6-3z" fill="#c2a67c"/><path d="m63 104 2-1h-4z" fill="#8b6d5b"/><path d="m221 122 1-8-4 3z" fill="#d8be84"/><path d="m67 100-7 5 2-10z" fill="#72594a"/><path d="m239 125 1-10 3 9z" fill="#dfc693"/><path d="m73 90-3 2 4-6z" fill="#946e5a"/><path d="m163 112 3-7v7z" fill="#c3ab83"/><path d="m170 145 4 17 3-6z" fill="#cfc287"/><path d="m134 68-4 1-1-2z" fill="#c8a795"/><path d="m101 108v-4l3-1z" fill="#362e27"/><path d="m168 114-2-4 8 4z" fill="#cfb58b"/><path d="m91 103-2-2-4 2z" fill="#796144"/><path d="m154 96v-7h2z" fill="#8a6c5f"/><path d="m1 121-17 1 10 40z" fill="#d8c18e"/><path d="m136 109-3 6-6 3z" fill="#c7a87d"/><path d="m182 119-5-2-3 4z" fill="#dcc898"/><path d="m223 105 1-1 2 4z" fill="#9a8468"/><path d="m97 132 5-1 2 3z" fill="#e4d0a8"/><path d="m253 104h7l7 7z" fill="#a38b5f"/><path d="m201 112 2 3 3 1z" fill="#bfa473"/><path d="m48 110v-1l1 2z" fill="#4b3e32"/><path d="m13 120-4-5v5z" fill="#c7ab80"/><path d="m137 104 1 1-2-1z" fill="#d6d4c9"/><path d="m130 78v2l2 1z" fill="#4f4137"/><path d="m133 125-8 4 3-4z" fill="#dcc191"/><path d="m66 136-8-4-3 3z" fill="#d4bf8f"/><path d="m121 132-2-6-2 6z" fill="#e0c596"/><path d="m121 104h-1v-2z" fill="#8c7453"/><path d="m258 4-27 10 35 10z" fill="#f0f0ef"/><path d="m81 85-8 3 4-3z" fill="#755647"/><path d="m226 78-3 2h2z" fill="#858272"/><path d="m248 123 4-3-9 1z" fill="#e4d1a5"/><path d="m124 131-5 8-2-2z" fill="#dbc58b"/><path d="m77 75-1-4-2 2z" fill="#936452"/><path d="m215 134-3-3h-3z" fill="#d6c18b"/><path d="m244 93-1-2 3 3z" fill="#73674c"/><path d="m69 113 1-2v1z" fill="#6c4941"/><path d="m96 109 1 1 1-1z" fill="#77663f"/><path d="m111 66-2-5h5z" fill="#c3a797"/><path d="m191 109h-2l2 2z" fill="#cdb47a"/><path d="m73 116 2 5-4 8z" fill="#7c614c"/><path d="m227 129 5-4 1-5z" fill="#e0c897"/><path d="m41 83-11 5 10 10z" fill="#edefef"/><path d="m253 22-20 18 8 5z" fill="#ecedee"/><path d="m20 117h-6l11-3z" fill="#bba173"/><path d="m32 123 5-5-4 1z" fill="#cbad7e"/><path d="m230 105 1-2 1 4z" fill="#414230"/><path d="m216 142v15l-6 5z" fill="#d2c081"/><path d="m142 97 1-3-1-3z" fill="#ac8671"/><path d="m146 78 3 1-3 2z" fill="#2c2c26"/><path d="m193 129 7 3-4-4z" fill="#e4d1a7"/><path d="m121 130 4-1-7-1z" fill="#ceae7d"/><path d="m198 46-1-8 12 5z" fill="#f5f5f4"/><path d="m195 128-1-11 3 1z" fill="#dbc088"/><path d="m-3 132 14 11-3-7z" fill="#d5bf88"/><path d="m222 129-1 4-7-7z" fill="#e3d0a2"/><path d="m98 80 2 3h-3z" fill="#957565"/><path d="m234 74h1l1 2z" fill="#a3a29d"/><path d="m85 135 3-5-1 4z" fill="#c7af7c"/><path d="m47 133h7v2z" fill="#d2b192"/><path d="m63 117-1-3h7z" fill="#6c5442"/><path d="m73 127 6-1-8 5z" fill="#d0b984"/><path d="m17 142 1 13 9 7z" fill="#d6cc9f"/><path d="m64 71v3h3z" fill="#a57967"/><path d="m81 89 3-5-1-2z" fill="#564439"/><path d="m202 102-1 1-1-1z" fill="#d8ddda"/><path d="m176 108 1-1h-2z" fill="#a89464"/><path d="m104 103v7l-6-3z" fill="#2f2a23"/><path d="m216 74-1-2-2 3z" fill="#9c9b91"/><path d="m156 91v2l-1 1z" fill="#927667"/><path d="m214 100 2 1 1-2z" fill="#e1e3de"/><path d="m152 109h2v2z" fill="#715544"/><path d="m142 111 6 4 2-2z" fill="#ccb07d"/><path d="m92 112-1-2v5z" fill="#836a48"/><path d="m13 128 5 5-5-11z" fill="#decb96"/><path d="m119 89h4l1 3z" fill="#7e6757"/><path d="m66 110 5 2-8-7z" fill="#483b31"/><path d="m151 133-1-6-1 7z" fill="#cab77f"/><path d="m137 69h-4l3 3z" fill="#ac8570"/><path d="m91 137 3 4-1-4z" fill="#d2bd82"/><path d="m202 125-4-8 1 6z" fill="#e3c99b"/><path d="m234 134-2 1h3z" fill="#d5b77b"/><path d="m51 74 10-2-2-2z" fill="#98715f"/><path d="m106 80-5 1 7 2z" fill="#7f6354"/><path d="m101 108 2-1-3 5z" fill="#25231d"/><path d="m122 120-2 1 1-1z" fill="#5c4a3e"/><path d="m110 113 1-2v1z" fill="#553f34"/><path d="m171 136h1l-2 2z" fill="#e4d3ab"/><path d="m158 110 1 2-1-1z" fill="#262421"/><path d="m239 129-3 2 5 2z" fill="#ddc698"/><path d="m151 141-3-5 3-3z" fill="#d9c790"/><path d="m89 98 1 1v-3z" fill="#836346"/><path d="m62 79 5-1-7 5z" fill="#c39f8a"/><path d="m218 58 11 2-11 9z" fill="#ebedee"/><path d="m69 123v1l-3 1z" fill="#60513f"/><path d="m123 106-1 1-1-2z" fill="#665740"/><path d="m173 134 1 10-3 2z" fill="#d6c58e"/><path d="m22 30-30-2-8 16z" fill="#eeeded"/><path d="m115 81 2-1-1-2z" fill="#a78876"/><path d="m198 134-1-2-1 6z" fill="#dbc48b"/><path d="m93 105-1-1v3z" fill="#cbad84"/><path d="m164 140 3 1-1-1z" fill="#ccbe7d"/><path d="m233 98v2h-2z" fill="#4b4d40"/><path d="m125 111-3 1h3z" fill="#b8956c"/><path d="m98 100h-2l1 4z" fill="#372f27"/><path d="m238 136 3 4 2-4z" fill="#ddc18d"/><path d="m170 129 3 3v4z" fill="#d8c48b"/><path d="m126 61-2 2v-3z" fill="#c0a99a"/><path d="m17 135 8 9-1-5z" fill="#d9c18e"/><path d="m80 129-6-1 6-4z" fill="#e1c892"/><path d="m36 58-16 10 35-9z" fill="#f0eff0"/><path d="m81 64 4-2 3 1z" fill="#cd9882"/><path d="m238 106v3l-1-1z" fill="#7f7550"/><path d="m254 122 17 9-1 11z" fill="#d5b976"/><path d="m240 86h-5l-5 4z" fill="#6c624b"/><path d="m140 38 7-6h14z" fill="#f1f1f0"/><path d="m129 106 2-1 2 2z" fill="#7c6f55"/><path d="m252 101 19 3-4-6z" fill="#e5e9ea"/><path d="m232 146 2 9-15-4z" fill="#b7b479"/><path d="m193 45-14-1 13-3z" fill="#ecefef"/><path d="m155 93v-2h-1z" fill="#614e44"/></g></svg>