<svg xmlns="http://www.w3.org/2000/svg" version="1.1" width="1024" height="680">
<rect x="0" y="0" width="1024" height="680" fill="#4d6974" />
<g transform="scale(4.000000) translate(0.5 0.5)">
<polygon fill="#bffcff" fill-opacity="0.501961" points="255,-16 -16,2 271,99" />
<polygon fill="#040000" fill-opacity="0.501961" points="-16,168 271,169 119,28" />
<polygon fill="#6dc2e7" fill-opacity="0.501961" points="-3,-16 -16,120 229,-4" />
<polygon fill="#000005" fill-opacity="0.501961" points="-2,110 -3,185 264,167" />
<polygon fill="#5f4739" fill-opacity="0.501961" points="95,17 80,102 271,132" />
<polygon fill="#ffaa56" fill-opacity="0.501961" points="125,48 114,15 91,96" />
<polygon fill="#232831" fill-opacity="0.501961" points="271,156 204,75 80,60" />
<polygon fill="#a6bfda" fill-opacity="0.501961" points="123,24 265,115 256,-16" />
<polygon fill="#56b3d9" fill-opacity="0.501961" points="3,-16 -13,92 123,16" />
<polygon fill="#000201" fill-opacity="0.501961" points="42,99 -16,135 48,185" />
<polygon fill="#172f3b" fill-opacity="0.501961" points="31,120 179,185 81,64" />
<polygon fill="#98694a" fill-opacity="0.501961" points="271,119 236,87 200,133" />
<polygon fill="#b4855c" fill-opacity="0.501961" points="95,79 123,111 102,43" />
<polygon fill="#80b1cc" fill-opacity="0.501961" points="226,65 117,-16 138,54" />
<polygon fill="#1c252d" fill-opacity="0.501961" points="271,138 212,185 39,98" />
<polygon fill="#1b2934" fill-opacity="0.501961" points="134,98 137,53 233,96" />
<polygon fill="#0b2836" fill-opacity="0.501961" points="106,66 71,77 90,52" />
<polygon fill="#00283c" fill-opacity="0.501961" points="111,26 95,43 98,27" />
<polygon fill="#020908" fill-opacity="0.501961" points="-16,101 124,173 -13,171" />
<polygon fill="#5cadc9" fill-opacity="0.501961" points="55,92 99,34 -16,-1" />
<polygon fill="#ffae51" fill-opacity="0.501961" points="106,34 121,56 121,28" />
<polygon fill="#4998aa" fill-opacity="0.501961" points="20,44 66,80 10,115" />
<polygon fill="#e5a26f" fill-opacity="0.501961" points="51,107 53,101 41,106" />
<polygon fill="#abb3b8" fill-opacity="0.501961" points="216,45 221,90 271,100" />
<polygon fill="#162832" fill-opacity="0.501961" points="139,98 139,185 43,124" />
<polygon fill="#262428" fill-opacity="0.501961" points="174,68 219,84 224,116" />
<polygon fill="#4c4645" fill-opacity="0.501961" points="271,136 198,90 184,126" />
<polygon fill="#98c7e2" fill-opacity="0.501961" points="252,54 255,-12 117,-16" />
<polygon fill="#8e6642" fill-opacity="0.501961" points="136,95 118,68 126,100" />
<polygon fill="#c78e5f" fill-opacity="0.501961" points="145,110 146,103 163,108" />
<polygon fill="#ca8a50" fill-opacity="0.501961" points="117,67 92,51 117,25" />
<polygon fill="#2b3b42" fill-opacity="0.501961" points="93,71 37,101 105,110" />
<polygon fill="#3d1e18" fill-opacity="0.501961" points="123,39 124,32 138,44" />
<polygon fill="#ffffd1" fill-opacity="0.501961" points="246,102 252,108 262,108" />
<polygon fill="#5d8693" fill-opacity="0.501961" points="87,69 100,54 93,72" />
<polygon fill="#8dadbf" fill-opacity="0.501961" points="169,68 141,30 242,72" />
<polygon fill="#81b7d3" fill-opacity="0.501961" points="142,56 214,19 101,-16" />
<polygon fill="#4f97aa" fill-opacity="0.501961" points="-16,111 62,34 28,111" />
<polygon fill="#1e2e37" fill-opacity="0.501961" points="176,118 143,55 164,61" />
<polygon fill="#1e2e36" fill-opacity="0.501961" points="82,147 271,125 147,185" />
<polygon fill="#4f4744" fill-opacity="0.501961" points="112,51 104,30 101,48" />
<polygon fill="#ffdc97" fill-opacity="0.501961" points="99,81 101,87 109,88" />
<polygon fill="#98663b" fill-opacity="0.501961" points="229,92 217,103 265,102" />
<polygon fill="#67aed1" fill-opacity="0.501961" points="-16,19 108,-16 90,51" />
<polygon fill="#914a1b" fill-opacity="0.501961" points="243,143 268,142 271,165" />
<polygon fill="#0b1e28" fill-opacity="0.501961" points="87,74 59,89 93,51" />
<polygon fill="#222b33" fill-opacity="0.501961" points="170,113 221,114 225,94" />
<polygon fill="#72625a" fill-opacity="0.501961" points="247,130 232,110 200,127" />
<polygon fill="#fffbce" fill-opacity="0.501961" points="102,57 105,61 103,64" />
<polygon fill="#1a2226" fill-opacity="0.501961" points="33,98 47,98 30,126" />
<polygon fill="#383e43" fill-opacity="0.501961" points="126,46 135,72 110,96" />
<polygon fill="#033249" fill-opacity="0.501961" points="113,23 109,22 105,29" />
<polygon fill="#d2ae8a" fill-opacity="0.501961" points="234,100 223,94 228,102" />
<polygon fill="#a3b2b9" fill-opacity="0.501961" points="267,104 270,55 205,78" />
<polygon fill="#252b31" fill-opacity="0.501961" points="151,79 193,72 240,100" />
<polygon fill="#daad8f" fill-opacity="0.501961" points="247,113 244,108 235,113" />
<polygon fill="#090f12" fill-opacity="0.501961" points="57,129 24,185 -2,109" />
<polygon fill="#302a2a" fill-opacity="0.501961" points="239,117 258,153 271,136" />
<polygon fill="#73b3d7" fill-opacity="0.501961" points="40,-13 133,-14 106,28" />
<polygon fill="#0e2126" fill-opacity="0.501961" points="256,185 140,168 265,150" />
<polygon fill="#589eb5" fill-opacity="0.501961" points="92,50 -16,67 54,93" />
<polygon fill="#30505d" fill-opacity="0.501961" points="62,114 104,88 70,92" />
<polygon fill="#5c3622" fill-opacity="0.501961" points="242,102 254,121 258,114" />
<polygon fill="#303a40" fill-opacity="0.501961" points="157,63 102,65 157,103" />
<polygon fill="#462d1f" fill-opacity="0.501961" points="35,103 61,90 65,102" />
<polygon fill="#ffdaa3" fill-opacity="0.501961" points="116,47 125,45 123,41" />
<polygon fill="#69b7d8" fill-opacity="0.501961" points="60,-16 0,-16 1,62" />
<polygon fill="#79797a" fill-opacity="0.501961" points="127,61 137,55 137,60" />
<polygon fill="#a16637" fill-opacity="0.501961" points="109,99 118,106 118,92" />
<polygon fill="#4b99b0" fill-opacity="0.501961" points="-13,89 46,98 40,42" />
<polygon fill="#cf8e52" fill-opacity="0.501961" points="103,77 116,81 111,85" />
<polygon fill="#685142" fill-opacity="0.501961" points="99,78 118,69 124,78" />
<polygon fill="#5a8f9b" fill-opacity="0.501961" points="27,109 -6,111 45,80" />
<polygon fill="#615b59" fill-opacity="0.501961" points="223,119 199,113 176,120" />
<polygon fill="#162229" fill-opacity="0.501961" points="122,102 102,155 171,130" />
<polygon fill="#ffe4ae" fill-opacity="0.501961" points="246,100 247,104 254,106" />
<polygon fill="#53a6c3" fill-opacity="0.501961" points="-16,69 74,53 69,11" />
<polygon fill="#f8cc95" fill-opacity="0.501961" points="106,35 113,33 111,42" />
<polygon fill="#81afc5" fill-opacity="0.501961" points="155,24 105,15 174,68" />
<polygon fill="#6a452c" fill-opacity="0.501961" points="254,98 254,103 239,96" />
<polygon fill="#182631" fill-opacity="0.501961" points="148,56 132,61 167,63" />
<polygon fill="#233038" fill-opacity="0.501961" points="132,63 199,79 154,107" />
<polygon fill="#ffdc90" fill-opacity="0.501961" points="265,121 249,121 265,126" />
<polygon fill="#ffb159" fill-opacity="0.501961" points="122,30 116,44 116,25" />
<polygon fill="#603b25" fill-opacity="0.501961" points="194,134 188,123 212,127" />
<polygon fill="#716a62" fill-opacity="0.501961" points="197,103 190,97 205,96" />
<polygon fill="#1b2f3b" fill-opacity="0.501961" points="42,106 92,137 19,116" />
<polygon fill="#f8dabf" fill-opacity="0.501961" points="98,50 99,53 93,49" />
<polygon fill="#e1aa78" fill-opacity="0.501961" points="103,67 105,55 99,43" />
<polygon fill="#514a45" fill-opacity="0.501961" points="156,87 144,87 142,115" />
<polygon fill="#b6773f" fill-opacity="0.501961" points="129,84 134,94 130,97" />
<polygon fill="#6fa5bb" fill-opacity="0.501961" points="55,87 80,66 90,21" />
<polygon fill="#d9b68d" fill-opacity="0.501961" points="226,88 239,100 236,92" />
<polygon fill="#b97637" fill-opacity="0.501961" points="99,52 117,65 120,47" />
<polygon fill="#b7876a" fill-opacity="0.501961" points="138,51 136,42 131,43" />
<polygon fill="#302622" fill-opacity="0.501961" points="111,90 117,96 97,91" />
<polygon fill="#66605e" fill-opacity="0.501961" points="169,103 156,106 160,112" />
<polygon fill="#92afbe" fill-opacity="0.501961" points="226,47 167,66 226,79" />
<polygon fill="#f8a75d" fill-opacity="0.501961" points="149,106 150,110 153,108" />
<polygon fill="#212d36" fill-opacity="0.501961" points="160,76 178,131 178,68" />
<polygon fill="#3f342e" fill-opacity="0.501961" points="230,92 211,107 218,91" />
<polygon fill="#3a302e" fill-opacity="0.501961" points="122,30 124,41 129,37" />
<polygon fill="#89afc2" fill-opacity="0.501961" points="129,25 194,68 139,52" />
<polygon fill="#a5bcc9" fill-opacity="0.501961" points="248,99 219,23 271,53" />
<polygon fill="#4a3c35" fill-opacity="0.501961" points="98,50 101,52 102,56" />
<polygon fill="#a4b2b8" fill-opacity="0.501961" points="271,101 271,60 220,88" />
<polygon fill="#1d2a33" fill-opacity="0.501961" points="240,164 171,116 118,158" />
<polygon fill="#895c3b" fill-opacity="0.501961" points="59,101 57,93 61,89" />
<polygon fill="#36363c" fill-opacity="0.501961" points="251,132 192,160 229,127" />
<polygon fill="#2b3133" fill-opacity="0.501961" points="116,67 117,88 129,98" />
<polygon fill="#7b6a62" fill-opacity="0.501961" points="218,126 217,116 247,107" />
<polygon fill="#232a2f" fill-opacity="0.501961" points="211,118 216,109 230,108" />
<polygon fill="#252e37" fill-opacity="0.501961" points="189,71 167,71 189,130" />
<polygon fill="#112d3a" fill-opacity="0.501961" points="85,73 85,91 97,70" />
<polygon fill="#225969" fill-opacity="0.501961" points="90,49 97,34 103,36" />
<polygon fill="#2d4c59" fill-opacity="0.501961" points="79,91 97,86 102,114" />
<polygon fill="#ae8f79" fill-opacity="0.501961" points="109,70 113,74 102,74" />
<polygon fill="#090f11" fill-opacity="0.501961" points="69,138 22,185 10,112" />
<polygon fill="#303337" fill-opacity="0.501961" points="100,37 108,49 103,47" />
<polygon fill="#48b4d9" fill-opacity="0.501961" points="9,17 8,-16 -16,36" />
<polygon fill="#1c2931" fill-opacity="0.501961" points="86,55 100,51 82,69" />
<polygon fill="#6eacc9" fill-opacity="0.501961" points="86,56 102,13 72,16" />
<polygon fill="#d2beab" fill-opacity="0.501961" points="96,54 103,58 93,48" />
<polygon fill="#1f3039" fill-opacity="0.501961" points="23,117 36,98 55,118" />
<polygon fill="#484241" fill-opacity="0.501961" points="227,125 246,118 239,112" />
<polygon fill="#1d303d" fill-opacity="0.501961" points="92,142 80,150 53,124" />
<polygon fill="#9fcadf" fill-opacity="0.501961" points="207,-4 246,45 238,-1" />
<polygon fill="#ffe1bc" fill-opacity="0.501961" points="105,63 105,59 99,57" />
<polygon fill="#c19876" fill-opacity="0.501961" points="48,109 51,103 43,103" />
<polygon fill="#5590a0" fill-opacity="0.501961" points="8,86 11,108 57,89" />
<polygon fill="#ffcb94" fill-opacity="0.501961" points="114,23 125,30 115,28" />
<polygon fill="#504e52" fill-opacity="0.501961" points="243,102 208,101 224,109" />
<polygon fill="#e6a678" fill-opacity="0.501961" points="104,85 98,80 100,90" />
<polygon fill="#1b303b" fill-opacity="0.501961" points="108,122 94,82 108,96" />
<polygon fill="#4e4d51" fill-opacity="0.501961" points="143,57 126,54 129,42" />
<polygon fill="#1c3139" fill-opacity="0.501961" points="104,30 97,32 100,25" />
<polygon fill="#242b34" fill-opacity="0.501961" points="212,87 199,73 175,78" />
<polygon fill="#272729" fill-opacity="0.501961" points="49,93 45,100 73,105" />
<polygon fill="#96afbb" fill-opacity="0.501961" points="186,64 238,65 239,95" />
<polygon fill="#18252c" fill-opacity="0.501961" points="87,88 57,102 79,82" />
<polygon fill="#d0ac89" fill-opacity="0.501961" points="96,77 104,73 97,70" />
<polygon fill="#18232b" fill-opacity="0.501961" points="118,138 95,141 77,93" />
<polygon fill="#dabba2" fill-opacity="0.501961" points="244,111 241,108 249,110" />
<polygon fill="#94633c" fill-opacity="0.501961" points="121,104 108,91 108,100" />
<polygon fill="#584c49" fill-opacity="0.501961" points="112,69 102,73 99,68" />
<polygon fill="#866344" fill-opacity="0.501961" points="118,88 113,89 127,98" />
<polygon fill="#7eb3cd" fill-opacity="0.501961" points="161,14 146,54 115,20" />
<polygon fill="#88afc2" fill-opacity="0.501961" points="185,56 172,70 144,33" />
<polygon fill="#79b7d8" fill-opacity="0.501961" points="159,6 91,27 123,-16" />
<polygon fill="#e8c8a4" fill-opacity="0.501961" points="230,100 225,99 234,98" />
<polygon fill="#3f5c6b" fill-opacity="0.501961" points="110,23 109,30 114,23" />
<polygon fill="#94b8cb" fill-opacity="0.501961" points="234,47 192,74 209,22" />
<polygon fill="#a16231" fill-opacity="0.501961" points="271,150 271,159 243,145" />
<polygon fill="#282f37" fill-opacity="0.501961" points="154,106 217,84 183,75" />
<polygon fill="#e7a15a" fill-opacity="0.501961" points="114,52 109,64 106,60" />
<polygon fill="#363231" fill-opacity="0.501961" points="240,131 255,124 271,166" />
<polygon fill="#4d808f" fill-opacity="0.501961" points="109,23 93,38 102,35" />
<polygon fill="#ab5407" fill-opacity="0.501961" points="254,102 261,98 264,120" />
<polygon fill="#132530" fill-opacity="0.501961" points="48,107 70,122 37,117" />
<polygon fill="#67747a" fill-opacity="0.501961" points="97,52 94,63 100,59" />
<polygon fill="#1e333c" fill-opacity="0.501961" points="121,147 117,167 178,149" />
<polygon fill="#4b5658" fill-opacity="0.501961" points="47,109 43,110 39,102" />
<polygon fill="#867a73" fill-opacity="0.501961" points="143,54 134,59 136,55" />
<polygon fill="#5f919d" fill-opacity="0.501961" points="5,112 20,111 7,100" />
<polygon fill="#684d38" fill-opacity="0.501961" points="97,77 116,75 101,81" />
<polygon fill="#1c2832" fill-opacity="0.501961" points="121,128 146,98 132,100" />
<polygon fill="#eaceb0" fill-opacity="0.501961" points="105,43 105,45 110,46" />
<polygon fill="#345865" fill-opacity="0.501961" points="24,117 33,117 25,113" />
<polygon fill="#192c34" fill-opacity="0.501961" points="137,58 142,92 132,90" />
<polygon fill="#df9947" fill-opacity="0.501961" points="114,26 120,29 122,46" />
<polygon fill="#7e5036" fill-opacity="0.501961" points="81,80 85,84 84,87" />
<polygon fill="#c7865d" fill-opacity="0.501961" points="244,116 244,113 249,115" />
<polygon fill="#679aaf" fill-opacity="0.501961" points="80,64 52,93 53,72" />
<polygon fill="#212e39" fill-opacity="0.501961" points="139,52 132,57 129,52" />
<polygon fill="#bb8156" fill-opacity="0.501961" points="126,99 124,98 125,102" />
<polygon fill="#90bfd7" fill-opacity="0.501961" points="233,31 189,40 176,-16" />
<polygon fill="#84bcd9" fill-opacity="0.501961" points="270,58 271,-8 235,-16" />
<polygon fill="#704326" fill-opacity="0.501961" points="271,104 246,118 256,121" />
<polygon fill="#090e10" fill-opacity="0.501961" points="4,111 -16,171 125,177" />
<polygon fill="#9c6940" fill-opacity="0.501961" points="128,82 124,93 128,92" />
<polygon fill="#c4854a" fill-opacity="0.501961" points="111,76 113,86 115,80" />
<polygon fill="#353a43" fill-opacity="0.501961" points="119,69 116,73 101,62" />
<polygon fill="#282e32" fill-opacity="0.501961" points="232,107 221,109 228,113" />
<polygon fill="#563820" fill-opacity="0.501961" points="237,95 243,100 245,95" />
<polygon fill="#262c33" fill-opacity="0.501961" points="215,83 223,100 170,82" />
<polygon fill="#30251d" fill-opacity="0.501961" points="233,98 231,99 228,93" />
<polygon fill="#a1958c" fill-opacity="0.501961" points="130,53 126,53 133,51" />
<polygon fill="#a6744b" fill-opacity="0.501961" points="121,77 118,74 123,75" />
<polygon fill="#4c433e" fill-opacity="0.501961" points="181,116 217,121 204,126" />
<polygon fill="#956846" fill-opacity="0.501961" points="147,104 145,95 153,106" />
<polygon fill="#74b6d8" fill-opacity="0.501961" points="23,-16 16,20 61,3" />
<polygon fill="#121e24" fill-opacity="0.501961" points="247,185 271,147 221,163" />
<polygon fill="#253039" fill-opacity="0.501961" points="126,64 162,62 142,56" />
<polygon fill="#875a3b" fill-opacity="0.501961" points="101,89 109,87 120,92" />
<polygon fill="#ffcd9c" fill-opacity="0.501961" points="251,107 259,107 245,100" />
<polygon fill="#8eaebc" fill-opacity="0.501961" points="175,54 212,82 209,64" />
<polygon fill="#222d37" fill-opacity="0.501961" points="121,60 126,47 132,47" />
<polygon fill="#d7976a" fill-opacity="0.501961" points="267,119 248,121 267,127" />
<polygon fill="#fad2a5" fill-opacity="0.501961" points="228,101 231,101 227,97" />
<polygon fill="#65acc6" fill-opacity="0.501961" points="24,20 32,40 -16,76" />
<polygon fill="#674831" fill-opacity="0.501961" points="230,98 222,91 228,91" />
<polygon fill="#2e3136" fill-opacity="0.501961" points="218,86 223,113 190,110" />
<polygon fill="#64a7c1" fill-opacity="0.501961" points="90,51 59,76 73,16" />
<polygon fill="#122732" fill-opacity="0.501961" points="91,77 83,64 65,82" />
<polygon fill="#1f2e36" fill-opacity="0.501961" points="119,85 113,75 125,80" />
<polygon fill="#b5a594" fill-opacity="0.501961" points="220,89 218,81 227,91" />
<polygon fill="#1b222b" fill-opacity="0.501961" points="200,130 218,141 167,156" />
<polygon fill="#3e312a" fill-opacity="0.501961" points="144,107 139,104 149,106" />
<polygon fill="#e7af75" fill-opacity="0.501961" points="114,24 114,32 111,27" />
<polygon fill="#756559" fill-opacity="0.501961" points="163,104 157,111 156,105" />
<polygon fill="#353a3f" fill-opacity="0.501961" points="247,105 241,104 249,109" />
<polygon fill="#61463a" fill-opacity="0.501961" points="238,133 229,131 236,136" />
<polygon fill="#b17341" fill-opacity="0.501961" points="123,47 116,52 120,58" />
<polygon fill="#584234" fill-opacity="0.501961" points="56,98 51,109 61,97" />
<polygon fill="#283039" fill-opacity="0.501961" points="160,109 185,115 209,104" />
<polygon fill="#74b1cf" fill-opacity="0.501961" points="120,1 106,27 87,19" />
<polygon fill="#102029" fill-opacity="0.501961" points="56,112 66,104 65,89" />
<polygon fill="#2d4752" fill-opacity="0.501961" points="87,94 66,114 67,92" />
<polygon fill="#6e594d" fill-opacity="0.501961" points="178,118 182,121 183,116" />
<polygon fill="#ffcfa3" fill-opacity="0.501961" points="125,43 120,41 124,45" />
<polygon fill="#f2c49b" fill-opacity="0.501961" points="229,99 236,101 229,101" />
<polygon fill="#5394a8" fill-opacity="0.501961" points="16,82 56,76 43,99" />
<polygon fill="#775237" fill-opacity="0.501961" points="271,102 271,115 247,98" />
<polygon fill="#232d37" fill-opacity="0.501961" points="150,56 151,98 138,65" />
<polygon fill="#102b36" fill-opacity="0.501961" points="86,57 74,73 89,62" />
<polygon fill="#181e20" fill-opacity="0.501961" points="34,99 30,107 45,99" />
<polygon fill="#8a776d" fill-opacity="0.501961" points="242,106 238,114 230,112" />
<polygon fill="#b4b1af" fill-opacity="0.501961" points="261,97 243,90 248,98" />
<polygon fill="#4b372b" fill-opacity="0.501961" points="147,115 136,105 155,113" />
<polygon fill="#89aebe" fill-opacity="0.501961" points="123,27 144,55 161,50" />
<polygon fill="#1e2932" fill-opacity="0.501961" points="126,41 131,41 123,32" />
<polygon fill="#1f2d35" fill-opacity="0.501961" points="123,117 127,96 139,117" />
<polygon fill="#c6936a" fill-opacity="0.501961" points="103,72 102,67 105,73" />
<polygon fill="#1b232a" fill-opacity="0.501961" points="134,142 178,119 150,113" />
<polygon fill="#426571" fill-opacity="0.501961" points="96,67 88,65 90,73" />
<polygon fill="#232e35" fill-opacity="0.501961" points="204,85 177,69 135,75" />
<polygon fill="#58514e" fill-opacity="0.501961" points="214,112 188,117 199,124" />
<polygon fill="#844f2d" fill-opacity="0.501961" points="200,124 205,125 206,133" />
<polygon fill="#715849" fill-opacity="0.501961" points="155,110 168,113 160,114" />
<polygon fill="#786d6b" fill-opacity="0.501961" points="247,109 225,105 238,103" />
<polygon fill="#c7834a" fill-opacity="0.501961" points="251,108 256,113 267,113" />
<polygon fill="#6c6055" fill-opacity="0.501961" points="134,75 130,75 131,70" />
<polygon fill="#8b6239" fill-opacity="0.501961" points="113,35 115,34 113,33" />
<polygon fill="#74553e" fill-opacity="0.501961" points="167,69 163,71 164,66" />
<polygon fill="#233137" fill-opacity="0.501961" points="149,56 138,98 131,78" />
<polygon fill="#4c9fbb" fill-opacity="0.501961" points="46,45 58,66 -2,69" />
<polygon fill="#172e38" fill-opacity="0.501961" points="91,57 88,68 96,55" />
<polygon fill="#222a2f" fill-opacity="0.501961" points="60,108 74,100 51,105" />
<polygon fill="#514641" fill-opacity="0.501961" points="127,102 124,108 113,104" />
<polygon fill="#070d0e" fill-opacity="0.501961" points="57,128 43,127 67,162" />
<polygon fill="#756760" fill-opacity="0.501961" points="219,126 225,119 240,117" />
<polygon fill="#183b47" fill-opacity="0.501961" points="100,41 94,42 106,31" />
<polygon fill="#776c63" fill-opacity="0.501961" points="198,95 206,95 192,100" />
<polygon fill="#925c2a" fill-opacity="0.501961" points="113,51 108,46 113,48" />
<polygon fill="#5f93a2" fill-opacity="0.501961" points="48,87 34,87 60,94" />
<polygon fill="#453631" fill-opacity="0.501961" points="86,98 87,106 97,108" />
<polygon fill="#58909d" fill-opacity="0.501961" points="27,110 20,90 -14,110" />
<polygon fill="#202b33" fill-opacity="0.501961" points="235,163 178,152 246,144" />
<polygon fill="#89abbe" fill-opacity="0.501961" points="177,53 185,71 150,53" />
<polygon fill="#424246" fill-opacity="0.501961" points="98,68 108,64 114,70" />
<polygon fill="#60514c" fill-opacity="0.501961" points="251,132 248,134 243,130" />
<polygon fill="#5c5a5e" fill-opacity="0.501961" points="130,58 128,65 124,66" />
<polygon fill="#a9b3b7" fill-opacity="0.501961" points="260,86 259,97 228,91" />
<polygon fill="#212327" fill-opacity="0.501961" points="112,92 114,94 112,96" />
<polygon fill="#192932" fill-opacity="0.501961" points="72,142 130,106 72,119" />
<polygon fill="#35383c" fill-opacity="0.501961" points="106,46 102,47 107,50" />
<polygon fill="#613f2a" fill-opacity="0.501961" points="113,87 106,81 107,85" />
<polygon fill="#070f10" fill-opacity="0.501961" points="48,130 -16,117 14,113" />
<polygon fill="#e49856" fill-opacity="0.501961" points="105,88 102,87 103,81" />
<polygon fill="#21262f" fill-opacity="0.501961" points="236,132 252,136 241,142" />
<polygon fill="#639eb4" fill-opacity="0.501961" points="47,79 81,55 65,82" />
<polygon fill="#3c3d43" fill-opacity="0.501961" points="125,45 127,55 124,58" />
<polygon fill="#d18c43" fill-opacity="0.501961" points="120,42 119,33 122,32" />
<polygon fill="#162830" fill-opacity="0.501961" points="109,99 104,91 94,97" />
<polygon fill="#be8b5e" fill-opacity="0.501961" points="100,81 107,78 109,80" />
<polygon fill="#a87e59" fill-opacity="0.501961" points="102,39 109,38 100,42" />
<polygon fill="#4b646d" fill-opacity="0.501961" points="84,97 90,94 82,94" />
<polygon fill="#10222a" fill-opacity="0.501961" points="85,81 95,83 94,88" />
<polygon fill="#73a8c0" fill-opacity="0.501961" points="92,45 81,48 78,64" />
<polygon fill="#49423e" fill-opacity="0.501961" points="232,116 247,118 239,114" />
<polygon fill="#97b5c7" fill-opacity="0.501961" points="236,77 180,41 237,54" />
<polygon fill="#52565b" fill-opacity="0.501961" points="148,98 142,95 144,90" />
<polygon fill="#65564e" fill-opacity="0.501961" points="238,122 248,111 224,124" />
<polygon fill="#eaa95d" fill-opacity="0.501961" points="116,35 115,26 122,36" />
<polygon fill="#da9653" fill-opacity="0.501961" points="109,44 118,52 113,37" />
<polygon fill="#253138" fill-opacity="0.501961" points="169,69 144,73 184,116" />
<polygon fill="#66b1d5" fill-opacity="0.501961" points="78,22 29,14 98,-16" />
<polygon fill="#39383c" fill-opacity="0.501961" points="123,70 116,63 122,58" />
<polygon fill="#955e2a" fill-opacity="0.501961" points="109,54 110,52 110,57" />
<polygon fill="#a37148" fill-opacity="0.501961" points="224,96 224,91 227,97" />
<polygon fill="#d69046" fill-opacity="0.501961" points="101,56 114,62 116,58" />
<polygon fill="#84bbd7" fill-opacity="0.501961" points="197,36 152,-12 138,14" />
<polygon fill="#b88b6a" fill-opacity="0.501961" points="239,123 240,121 242,124" />
<polygon fill="#8e8178" fill-opacity="0.501961" points="133,46 126,44 132,48" />
<polygon fill="#99adb5" fill-opacity="0.501961" points="224,90 205,69 242,91" />
<polygon fill="#bf7735" fill-opacity="0.501961" points="118,102 113,98 117,97" />
<polygon fill="#40332e" fill-opacity="0.501961" points="197,128 210,121 188,121" />
<polygon fill="#244351" fill-opacity="0.501961" points="111,32 107,26 110,27" />
<polygon fill="#af7f5d" fill-opacity="0.501961" points="110,88 109,85 102,88" />
<polygon fill="#424140" fill-opacity="0.501961" points="210,103 207,93 224,111" />
</g>
</svg>