<svg xmlns="http://www.w3.org/2000/svg" version="1.1" width="985" height="327">
<rect x="0" y="0" width="985" height="327" fill="#8c5f39" />
<g transform="scale(3.847656) translate(0.5 0.5)">
<polygon fill="#e7ae7a" fill-opacity="0.501961" points="100,39 125,-13 37,24" />
<polygon fill="#5f2f09" fill-opacity="0.501961" points="232,30 185,100 141,-15" />
<polygon fill="#45352e" fill-opacity="0.501961" points="-5,41 85,39 -1,99" />
<polygon fill="#c99059" fill-opacity="0.501961" points="217,7 251,100 271,4" />
<polygon fill="#d5b190" fill-opacity="0.501961" points="97,56 113,78 55,72" />
<polygon fill="#b08157" fill-opacity="0.501961" points="111,-16 141,47 -16,25" />
<polygon fill="#46250a" fill-opacity="0.501961" points="103,-16 194,-16 187,33" />
<polygon fill="#7d4a1f" fill-opacity="0.501961" points="103,71 228,100 232,20" />
<polygon fill="#eab07e" fill-opacity="0.501961" points="82,14 115,-3 93,38" />
<polygon fill="#b57638" fill-opacity="0.501961" points="145,18 167,100 168,37" />
<polygon fill="#603d1e" fill-opacity="0.501961" points="152,100 229,78 110,66" />
<polygon fill="#573e30" fill-opacity="0.501961" points="49,3 29,12 66,16" />
<polygon fill="#815f45" fill-opacity="0.501961" points="54,31 117,39 22,100" />
<polygon fill="#bb854f" fill-opacity="0.501961" points="226,46 239,100 271,42" />
<polygon fill="#c09d7c" fill-opacity="0.501961" points="132,100 88,66 120,76" />
<polygon fill="#b78e61" fill-opacity="0.501961" points="129,48 108,37 126,69" />
<polygon fill="#8f5322" fill-opacity="0.501961" points="234,31 196,83 189,-16" />
<polygon fill="#b88455" fill-opacity="0.501961" points="11,10 -1,22 43,46" />
<polygon fill="#423224" fill-opacity="0.501961" points="4,10 -7,-2 40,-16" />
<polygon fill="#d5a274" fill-opacity="0.501961" points="32,99 80,82 34,83" />
<polygon fill="#3d2d21" fill-opacity="0.501961" points="81,50 86,61 100,50" />
<polygon fill="#c37d37" fill-opacity="0.501961" points="201,-6 220,-4 241,42" />
<polygon fill="#8a5b39" fill-opacity="0.501961" points="84,6 71,-1 69,46" />
<polygon fill="#533821" fill-opacity="0.501961" points="125,64 140,50 142,90" />
<polygon fill="#945c2c" fill-opacity="0.501961" points="143,74 136,-12 176,100" />
<polygon fill="#c5966a" fill-opacity="0.501961" points="71,73 43,76 48,68" />
<polygon fill="#553926" fill-opacity="0.501961" points="15,32 -16,61 25,100" />
<polygon fill="#b98757" fill-opacity="0.501961" points="90,20 86,50 129,9" />
<polygon fill="#2e200f" fill-opacity="0.501961" points="175,8 150,8 161,25" />
<polygon fill="#513217" fill-opacity="0.501961" points="120,23 126,25 108,34" />
<polygon fill="#7c4b23" fill-opacity="0.501961" points="219,23 146,19 236,100" />
<polygon fill="#7c4519" fill-opacity="0.501961" points="147,-16 126,-16 109,17" />
<polygon fill="#905e3b" fill-opacity="0.501961" points="260,50 247,13 229,14" />
<polygon fill="#e7d7c0" fill-opacity="0.501961" points="91,57 93,64 97,59" />
<polygon fill="#cb9463" fill-opacity="0.501961" points="69,49 79,49 71,59" />
<polygon fill="#694d39" fill-opacity="0.501961" points="36,35 85,52 83,35" />
<polygon fill="#bf9164" fill-opacity="0.501961" points="271,68 259,100 235,30" />
<polygon fill="#d8a274" fill-opacity="0.501961" points="96,-16 81,22 96,36" />
<polygon fill="#b37438" fill-opacity="0.501961" points="161,41 158,96 168,69" />
<polygon fill="#bd9879" fill-opacity="0.501961" points="244,3 248,10 224,13" />
<polygon fill="#a57c5a" fill-opacity="0.501961" points="84,1 28,5 23,-16" />
<polygon fill="#8a572b" fill-opacity="0.501961" points="221,72 175,62 200,21" />
<polygon fill="#916a43" fill-opacity="0.501961" points="94,38 109,17 113,88" />
<polygon fill="#e8b382" fill-opacity="0.501961" points="84,66 89,72 69,68" />
<polygon fill="#603615" fill-opacity="0.501961" points="205,32 215,22 224,59" />
<polygon fill="#75523a" fill-opacity="0.501961" points="70,81 77,71 104,87" />
<polygon fill="#ad7b52" fill-opacity="0.501961" points="21,41 70,28 37,12" />
<polygon fill="#a66b36" fill-opacity="0.501961" points="244,54 219,34 244,97" />
<polygon fill="#6d4f3a" fill-opacity="0.501961" points="35,28 72,66 42,65" />
<polygon fill="#ce9966" fill-opacity="0.501961" points="3,34 4,24 -16,24" />
<polygon fill="#c18a57" fill-opacity="0.501961" points="33,70 38,99 50,100" />
<polygon fill="#423223" fill-opacity="0.501961" points="127,74 103,68 120,67" />
<polygon fill="#8a5224" fill-opacity="0.501961" points="135,26 118,-16 156,18" />
<polygon fill="#9f744a" fill-opacity="0.501961" points="130,5 111,56 128,71" />
<polygon fill="#372616" fill-opacity="0.501961" points="27,58 22,53 14,63" />
<polygon fill="#cb9562" fill-opacity="0.501961" points="56,24 78,27 64,12" />
<polygon fill="#9f5f26" fill-opacity="0.501961" points="195,7 206,23 230,8" />
<polygon fill="#9b704c" fill-opacity="0.501961" points="47,52 57,58 31,56" />
<polygon fill="#623b1b" fill-opacity="0.501961" points="164,92 250,99 171,65" />
<polygon fill="#bf9871" fill-opacity="0.501961" points="90,49 83,52 91,40" />
<polygon fill="#724e34" fill-opacity="0.501961" points="-3,59 11,50 46,98" />
<polygon fill="#c1986b" fill-opacity="0.501961" points="105,25 115,13 115,27" />
<polygon fill="#b78e64" fill-opacity="0.501961" points="44,43 18,36 27,33" />
<polygon fill="#8f4811" fill-opacity="0.501961" points="192,-16 224,22 199,6" />
<polygon fill="#9c6a40" fill-opacity="0.501961" points="73,85 97,76 93,68" />
<polygon fill="#a0815e" fill-opacity="0.501961" points="94,54 106,72 111,58" />
<polygon fill="#d0ac85" fill-opacity="0.501961" points="117,34 121,29 116,31" />
<polygon fill="#47301d" fill-opacity="0.501961" points="14,77 -16,80 8,62" />
<polygon fill="#251908" fill-opacity="0.501961" points="99,46 91,54 98,51" />
<polygon fill="#be813e" fill-opacity="0.501961" points="239,69 230,93 232,53" />
<polygon fill="#a87239" fill-opacity="0.501961" points="173,-16 102,4 121,-16" />
<polygon fill="#6d4e38" fill-opacity="0.501961" points="62,18 46,2 31,7" />
<polygon fill="#704f39" fill-opacity="0.501961" points="75,32 81,62 90,62" />
<polygon fill="#683917" fill-opacity="0.501961" points="194,14 169,-16 185,42" />
<polygon fill="#5f3d21" fill-opacity="0.501961" points="38,67 44,77 38,79" />
<polygon fill="#e5b287" fill-opacity="0.501961" points="109,5 87,12 103,15" />
<polygon fill="#733e17" fill-opacity="0.501961" points="231,64 219,46 215,94" />
<polygon fill="#4b290c" fill-opacity="0.501961" points="213,83 207,69 208,87" />
<polygon fill="#52341a" fill-opacity="0.501961" points="137,68 130,51 137,54" />
<polygon fill="#855b3b" fill-opacity="0.501961" points="22,70 28,56 40,93" />
<polygon fill="#4b392c" fill-opacity="0.501961" points="-6,54 30,43 -16,40" />
<polygon fill="#69401f" fill-opacity="0.501961" points="195,67 196,35 203,49" />
<polygon fill="#8d6347" fill-opacity="0.501961" points="244,9 267,-4 258,14" />
<polygon fill="#8d6046" fill-opacity="0.501961" points="221,11 226,-7 248,2" />
<polygon fill="#8d572b" fill-opacity="0.501961" points="175,58 199,62 175,35" />
<polygon fill="#a5713c" fill-opacity="0.501961" points="168,61 165,26 156,32" />
<polygon fill="#745139" fill-opacity="0.501961" points="55,32 64,82 70,35" />
<polygon fill="#9a653f" fill-opacity="0.501961" points="21,21 32,-8 31,36" />
<polygon fill="#764c29" fill-opacity="0.501961" points="143,18 149,41 128,9" />
<polygon fill="#c9945f" fill-opacity="0.501961" points="29,24 35,25 37,14" />
<polygon fill="#b7814b" fill-opacity="0.501961" points="213,5 236,28 218,-4" />
<polygon fill="#b98156" fill-opacity="0.501961" points="77,57 60,56 75,52" />
<polygon fill="#c9b197" fill-opacity="0.501961" points="95,55 99,64 94,62" />
<polygon fill="#825a3e" fill-opacity="0.501961" points="-13,-14 -16,22 12,19" />
<polygon fill="#774b2b" fill-opacity="0.501961" points="232,12 242,16 227,17" />
<polygon fill="#c1a790" fill-opacity="0.501961" points="99,76 112,80 94,65" />
<polygon fill="#c79569" fill-opacity="0.501961" points="76,67 67,67 71,78" />
<polygon fill="#eabf93" fill-opacity="0.501961" points="81,91 61,82 55,88" />
<polygon fill="#705032" fill-opacity="0.501961" points="117,54 111,65 114,79" />
<polygon fill="#9a6b45" fill-opacity="0.501961" points="54,24 71,10 42,20" />
<polygon fill="#62432c" fill-opacity="0.501961" points="52,79 53,74 68,81" />
<polygon fill="#8e5a2c" fill-opacity="0.501961" points="214,81 200,53 216,43" />
<polygon fill="#1b1105" fill-opacity="0.501961" points="95,52 93,55 89,51" />
<polygon fill="#835631" fill-opacity="0.501961" points="104,49 94,49 111,31" />
<polygon fill="#aa7240" fill-opacity="0.501961" points="194,7 206,22 205,12" />
<polygon fill="#59422f" fill-opacity="0.501961" points="48,48 66,42 58,56" />
<polygon fill="#c78e5c" fill-opacity="0.501961" points="89,22 75,27 95,33" />
<polygon fill="#d09964" fill-opacity="0.501961" points="82,77 94,68 80,71" />
<polygon fill="#563d2b" fill-opacity="0.501961" points="86,79 81,100 96,82" />
<polygon fill="#856e5a" fill-opacity="0.501961" points="106,73 93,62 110,69" />
<polygon fill="#a56f3b" fill-opacity="0.501961" points="129,3 112,24 137,6" />
<polygon fill="#a17348" fill-opacity="0.501961" points="143,27 130,54 125,20" />
<polygon fill="#47290d" fill-opacity="0.501961" points="120,22 120,28 118,25" />
<polygon fill="#894a18" fill-opacity="0.501961" points="231,31 212,15 220,46" />
<polygon fill="#c59566" fill-opacity="0.501961" points="66,-2 73,-6 64,10" />
<polygon fill="#653e20" fill-opacity="0.501961" points="164,15 171,62 175,37" />
<polygon fill="#674b36" fill-opacity="0.501961" points="26,83 57,33 38,40" />
<polygon fill="#86644b" fill-opacity="0.501961" points="56,35 46,47 65,39" />
<polygon fill="#a27248" fill-opacity="0.501961" points="38,72 46,65 40,65" />
<polygon fill="#614734" fill-opacity="0.501961" points="50,65 75,58 34,58" />
<polygon fill="#af7f55" fill-opacity="0.501961" points="91,6 85,-16 82,15" />
<polygon fill="#7c593e" fill-opacity="0.501961" points="21,46 32,58 10,46" />
<polygon fill="#cf9f71" fill-opacity="0.501961" points="59,70 47,73 61,74" />
<polygon fill="#352211" fill-opacity="0.501961" points="156,0 149,6 162,21" />
<polygon fill="#d2a876" fill-opacity="0.501961" points="121,16 120,12 115,12" />
<polygon fill="#59371d" fill-opacity="0.501961" points="147,97 146,68 158,100" />
<polygon fill="#deaa7d" fill-opacity="0.501961" points="58,20 61,24 66,18" />
<polygon fill="#2d1907" fill-opacity="0.501961" points="190,76 191,87 193,84" />
<polygon fill="#4d392a" fill-opacity="0.501961" points="20,40 20,48 38,46" />
<polygon fill="#bd936f" fill-opacity="0.501961" points="240,13 253,3 234,9" />
<polygon fill="#7e4e27" fill-opacity="0.501961" points="209,78 171,20 178,74" />
<polygon fill="#7b5b42" fill-opacity="0.501961" points="16,12 29,3 9,-6" />
<polygon fill="#8b613a" fill-opacity="0.501961" points="115,37 126,47 122,31" />
<polygon fill="#b0875c" fill-opacity="0.501961" points="113,44 110,31 127,54" />
<polygon fill="#b98156" fill-opacity="0.501961" points="113,78 121,73 131,100" />
<polygon fill="#a26f4d" fill-opacity="0.501961" points="59,68 70,76 62,63" />
<polygon fill="#6e3912" fill-opacity="0.501961" points="139,9 153,4 140,-7" />
<polygon fill="#c29668" fill-opacity="0.501961" points="51,27 43,33 45,24" />
<polygon fill="#8f5b30" fill-opacity="0.501961" points="155,56 138,27 138,74" />
<polygon fill="#bb8148" fill-opacity="0.501961" points="238,43 240,20 232,19" />
<polygon fill="#5b381a" fill-opacity="0.501961" points="152,22 177,15 163,25" />
<polygon fill="#6d4625" fill-opacity="0.501961" points="121,80 152,95 128,71" />
<polygon fill="#a26f4a" fill-opacity="0.501961" points="51,79 62,98 -8,92" />
<polygon fill="#73533d" fill-opacity="0.501961" points="66,58 50,52 54,70" />
<polygon fill="#925f3b" fill-opacity="0.501961" points="22,26 17,26 20,43" />
<polygon fill="#a5713f" fill-opacity="0.501961" points="102,28 112,12 105,13" />
<polygon fill="#aa805b" fill-opacity="0.501961" points="44,57 48,52 48,58" />
<polygon fill="#b47d4f" fill-opacity="0.501961" points="12,19 13,8 21,22" />
<polygon fill="#684d36" fill-opacity="0.501961" points="81,59 79,44 87,40" />
<polygon fill="#7f532e" fill-opacity="0.501961" points="166,42 170,35 156,25" />
<polygon fill="#897057" fill-opacity="0.501961" points="126,62 116,61 129,72" />
<polygon fill="#885f3c" fill-opacity="0.501961" points="96,36 113,32 110,27" />
<polygon fill="#9e734a" fill-opacity="0.501961" points="91,49 96,50 88,36" />
<polygon fill="#ac7d50" fill-opacity="0.501961" points="105,38 87,39 104,27" />
<polygon fill="#48331c" fill-opacity="0.501961" points="3,6 5,-16 18,-6" />
<polygon fill="#7f5a3e" fill-opacity="0.501961" points="26,13 47,11 47,-1" />
<polygon fill="#5b3516" fill-opacity="0.501961" points="189,98 169,60 177,96" />
<polygon fill="#231708" fill-opacity="0.501961" points="119,71 122,68 115,68" />
<polygon fill="#a57649" fill-opacity="0.501961" points="233,40 257,100 236,73" />
<polygon fill="#835739" fill-opacity="0.501961" points="75,6 80,0 80,13" />
<polygon fill="#a87c48" fill-opacity="0.501961" points="150,34 165,41 147,24" />
<polygon fill="#78563e" fill-opacity="0.501961" points="78,50 90,55 90,60" />
<polygon fill="#a0704e" fill-opacity="0.501961" points="70,61 60,72 89,62" />
<polygon fill="#cb9864" fill-opacity="0.501961" points="9,26 14,23 17,30" />
<polygon fill="#a36f3b" fill-opacity="0.501961" points="206,72 203,60 202,68" />
<polygon fill="#7b4720" fill-opacity="0.501961" points="188,-3 194,13 182,13" />
<polygon fill="#8e5e3a" fill-opacity="0.501961" points="40,27 38,36 27,32" />
<polygon fill="#dfad82" fill-opacity="0.501961" points="91,19 97,10 92,-4" />
<polygon fill="#b26b25" fill-opacity="0.501961" points="209,5 223,20 222,7" />
<polygon fill="#674322" fill-opacity="0.501961" points="170,1 150,12 161,0" />
<polygon fill="#281a0b" fill-opacity="0.501961" points="164,5 156,12 159,18" />
<polygon fill="#6d4c32" fill-opacity="0.501961" points="131,83 133,64 127,60" />
<polygon fill="#543d2b" fill-opacity="0.501961" points="38,63 40,72 29,64" />
<polygon fill="#a36831" fill-opacity="0.501961" points="209,69 211,59 215,81" />
<polygon fill="#614530" fill-opacity="0.501961" points="45,9 57,16 60,11" />
<polygon fill="#36200e" fill-opacity="0.501961" points="119,28 120,23 118,23" />
<polygon fill="#775338" fill-opacity="0.501961" points="14,72 15,48 8,47" />
<polygon fill="#9a602d" fill-opacity="0.501961" points="202,35 192,29 207,50" />
<polygon fill="#9a7351" fill-opacity="0.501961" points="68,4 37,-16 55,9" />
<polygon fill="#8a4d20" fill-opacity="0.501961" points="227,55 216,100 233,71" />
<polygon fill="#785537" fill-opacity="0.501961" points="1,25 -8,32 3,10" />
<polygon fill="#53351a" fill-opacity="0.501961" points="132,82 136,69 142,82" />
<polygon fill="#ad8356" fill-opacity="0.501961" points="130,51 130,38 118,63" />
<polygon fill="#b29679" fill-opacity="0.501961" points="105,67 96,56 100,65" />
<polygon fill="#a37550" fill-opacity="0.501961" points="271,53 243,20 271,3" />
<polygon fill="#a2642d" fill-opacity="0.501961" points="221,44 234,41 232,65" />
<polygon fill="#483322" fill-opacity="0.501961" points="22,52 18,71 16,52" />
<polygon fill="#dea77c" fill-opacity="0.501961" points="91,28 93,32 102,21" />
<polygon fill="#a6682b" fill-opacity="0.501961" points="122,20 112,23 118,15" />
<polygon fill="#74523a" fill-opacity="0.501961" points="-14,52 9,71 1,55" />
<polygon fill="#754724" fill-opacity="0.501961" points="201,53 206,30 209,65" />
<polygon fill="#8f6036" fill-opacity="0.501961" points="100,61 98,53 117,48" />
<polygon fill="#9a6c42" fill-opacity="0.501961" points="128,34 120,23 127,49" />
<polygon fill="#ad7a51" fill-opacity="0.501961" points="60,75 56,75 60,79" />
<polygon fill="#6c4a2e" fill-opacity="0.501961" points="48,68 44,72 42,68" />
<polygon fill="#70401b" fill-opacity="0.501961" points="191,26 168,16 191,52" />
<polygon fill="#8a5327" fill-opacity="0.501961" points="198,56 189,69 186,30" />
<polygon fill="#7c563b" fill-opacity="0.501961" points="79,73 64,80 80,82" />
<polygon fill="#4b3728" fill-opacity="0.501961" points="-16,27 9,47 4,57" />
<polygon fill="#aa7042" fill-opacity="0.501961" points="8,22 30,6 17,25" />
<polygon fill="#a06c44" fill-opacity="0.501961" points="222,-3 220,12 232,0" />
<polygon fill="#bf8b5c" fill-opacity="0.501961" points="243,34 245,56 233,36" />
<polygon fill="#b29272" fill-opacity="0.501961" points="99,77 106,71 110,82" />
<polygon fill="#c68b59" fill-opacity="0.501961" points="98,13 85,29 105,16" />
<polygon fill="#7a553c" fill-opacity="0.501961" points="223,12 237,-5 238,2" />
<polygon fill="#8a6042" fill-opacity="0.501961" points="123,90 91,74 103,100" />
<polygon fill="#b58e6c" fill-opacity="0.501961" points="82,83 57,85 107,96" />
<polygon fill="#734924" fill-opacity="0.501961" points="192,77 190,57 213,84" />
<polygon fill="#c29c75" fill-opacity="0.501961" points="87,45 92,48 85,50" />
<polygon fill="#50351e" fill-opacity="0.501961" points="25,81 -16,93 36,100" />
<polygon fill="#a76223" fill-opacity="0.501961" points="219,23 236,26 233,31" />
<polygon fill="#a77347" fill-opacity="0.501961" points="71,35 66,29 78,16" />
<polygon fill="#6f3d1b" fill-opacity="0.501961" points="118,9 124,-16 132,-16" />
<polygon fill="#ca9668" fill-opacity="0.501961" points="103,9 107,-16 94,-16" />
<polygon fill="#9e622b" fill-opacity="0.501961" points="148,18 155,17 144,11" />
<polygon fill="#b98b5f" fill-opacity="0.501961" points="248,72 251,100 257,82" />
<polygon fill="#7e5a3e" fill-opacity="0.501961" points="17,65 28,60 34,73" />
<polygon fill="#bb9064" fill-opacity="0.501961" points="37,41 22,28 26,36" />
<polygon fill="#704b2e" fill-opacity="0.501961" points="95,46 104,50 100,43" />
<polygon fill="#653915" fill-opacity="0.501961" points="221,77 212,69 216,77" />
<polygon fill="#754822" fill-opacity="0.501961" points="176,70 179,57 194,92" />
<polygon fill="#734520" fill-opacity="0.501961" points="145,44 146,35 149,45" />
<polygon fill="#debe9f" fill-opacity="0.501961" points="93,62 97,55 94,57" />
<polygon fill="#4d3b28" fill-opacity="0.501961" points="48,41 48,37 40,39" />
<polygon fill="#b4845c" fill-opacity="0.501961" points="77,47 77,56 71,55" />
<polygon fill="#7b4d36" fill-opacity="0.501961" points="252,4 218,-15 267,-16" />
<polygon fill="#7c5944" fill-opacity="0.501961" points="80,58 69,61 76,66" />
<polygon fill="#532d10" fill-opacity="0.501961" points="212,38 215,45 219,46" />
<polygon fill="#a67a51" fill-opacity="0.501961" points="43,6 30,2 42,-2" />
<polygon fill="#975a28" fill-opacity="0.501961" points="191,41 198,27 194,52" />
<polygon fill="#b68253" fill-opacity="0.501961" points="4,37 1,26 5,16" />
<polygon fill="#a26e3a" fill-opacity="0.501961" points="118,-11 125,-8 111,14" />
<polygon fill="#d9a774" fill-opacity="0.501961" points="108,2 103,15 113,5" />
<polygon fill="#ce904a" fill-opacity="0.501961" points="230,20 226,23 224,16" />
<polygon fill="#be8a5d" fill-opacity="0.501961" points="220,2 214,5 220,-6" />
<polygon fill="#5e4024" fill-opacity="0.501961" points="164,30 150,18 157,18" />
<polygon fill="#834b23" fill-opacity="0.501961" points="188,-10 162,-13 214,14" />
<polygon fill="#603817" fill-opacity="0.501961" points="171,15 186,39 176,-13" />
<polygon fill="#936846" fill-opacity="0.501961" points="90,36 91,41 73,40" />
<polygon fill="#885636" fill-opacity="0.501961" points="22,18 27,15 21,25" />
<polygon fill="#7e5e44" fill-opacity="0.501961" points="108,67 101,68 117,76" />
<polygon fill="#995e2d" fill-opacity="0.501961" points="227,83 249,100 241,80" />
<polygon fill="#6d4f38" fill-opacity="0.501961" points="87,40 74,50 41,43" />
<polygon fill="#896245" fill-opacity="0.501961" points="50,60 46,50 55,59" />
<polygon fill="#976840" fill-opacity="0.501961" points="106,47 120,51 97,33" />
<polygon fill="#ad794a" fill-opacity="0.501961" points="249,51 246,41 260,36" />
<polygon fill="#9b6d48" fill-opacity="0.501961" points="65,79 76,76 75,72" />
<polygon fill="#734a2e" fill-opacity="0.501961" points="4,42 10,29 15,34" />
<polygon fill="#432a12" fill-opacity="0.501961" points="154,0 168,16 175,14" />
<polygon fill="#a46734" fill-opacity="0.501961" points="135,3 139,13 124,2" />
<polygon fill="#c29062" fill-opacity="0.501961" points="70,0 71,-13 57,1" />
<polygon fill="#ae7a50" fill-opacity="0.501961" points="32,77 33,82 41,82" />
<polygon fill="#9a6634" fill-opacity="0.501961" points="212,61 205,48 212,52" />
<polygon fill="#654223" fill-opacity="0.501961" points="121,74 128,75 122,69" />
<polygon fill="#a4744b" fill-opacity="0.501961" points="91,74 95,71 94,62" />
<polygon fill="#c99c71" fill-opacity="0.501961" points="68,77 74,67 69,68" />
<polygon fill="#c49169" fill-opacity="0.501961" points="102,100 118,77 123,100" />
<polygon fill="#6d4e38" fill-opacity="0.501961" points="30,39 18,39 15,44" />
<polygon fill="#ad7b4e" fill-opacity="0.501961" points="67,4 62,8 73,22" />
<polygon fill="#805027" fill-opacity="0.501961" points="169,67 165,80 174,100" />
<polygon fill="#874d1f" fill-opacity="0.501961" points="140,14 150,13 134,-1" />
<polygon fill="#d2ad8b" fill-opacity="0.501961" points="100,72 95,66 95,74" />
<polygon fill="#b98c5f" fill-opacity="0.501961" points="233,12 221,17 231,8" />
<polygon fill="#6e4a30" fill-opacity="0.501961" points="25,67 11,86 32,74" />
<polygon fill="#9b794f" fill-opacity="0.501961" points="92,47 92,50 99,47" />
<polygon fill="#b87836" fill-opacity="0.501961" points="166,45 164,55 168,63" />
<polygon fill="#543416" fill-opacity="0.501961" points="197,100 200,89 192,72" />
<polygon fill="#b18860" fill-opacity="0.501961" points="38,39 23,38 34,35" />
<polygon fill="#845630" fill-opacity="0.501961" points="140,84 146,83 142,77" />
<polygon fill="#714f2f" fill-opacity="0.501961" points="108,66 111,70 119,59" />
<polygon fill="#55402d" fill-opacity="0.501961" points="53,63 45,64 50,57" />
<polygon fill="#b28861" fill-opacity="0.501961" points="40,34 48,26 45,36" />
<polygon fill="#542c0b" fill-opacity="0.501961" points="190,4 152,-6 161,-14" />
<polygon fill="#7a4922" fill-opacity="0.501961" points="228,79 212,47 216,76" />
<polygon fill="#7f502d" fill-opacity="0.501961" points="140,20 137,30 127,5" />
<polygon fill="#8e5b30" fill-opacity="0.501961" points="159,83 159,59 141,40" />
<polygon fill="#5f4028" fill-opacity="0.501961" points="45,75 38,75 47,78" />
<polygon fill="#7f5e46" fill-opacity="0.501961" points="45,49 46,43 54,39" />
<polygon fill="#693d1b" fill-opacity="0.501961" points="207,55 199,48 196,34" />
<polygon fill="#895327" fill-opacity="0.501961" points="182,39 173,36 177,69" />
<polygon fill="#b17849" fill-opacity="0.501961" points="84,30 89,33 86,40" />
<polygon fill="#8e5a2a" fill-opacity="0.501961" points="222,77 211,62 215,57" />
<polygon fill="#b0794a" fill-opacity="0.501961" points="39,24 30,15 29,31" />
<polygon fill="#855f42" fill-opacity="0.501961" points="38,54 33,58 30,53" />
<polygon fill="#8f592e" fill-opacity="0.501961" points="203,23 196,12 191,15" />
<polygon fill="#6c401e" fill-opacity="0.501961" points="201,35 225,42 206,25" />
<polygon fill="#7e5139" fill-opacity="0.501961" points="213,2 229,-16 201,-16" />
<polygon fill="#a27f59" fill-opacity="0.501961" points="100,51 97,55 102,65" />
<polygon fill="#7c441a" fill-opacity="0.501961" points="231,40 225,27 224,40" />
<polygon fill="#ba8756" fill-opacity="0.501961" points="96,65 86,65 87,74" />
<polygon fill="#a46739" fill-opacity="0.501961" points="6,23 12,31 3,32" />
<polygon fill="#9e683a" fill-opacity="0.501961" points="141,64 143,54 146,74" />
<polygon fill="#4a311c" fill-opacity="0.501961" points="12,61 4,61 12,64" />
<polygon fill="#c59468" fill-opacity="0.501961" points="35,15 39,18 31,20" />
<polygon fill="#906644" fill-opacity="0.501961" points="253,6 242,9 263,11" />
<polygon fill="#a26831" fill-opacity="0.501961" points="150,38 152,53 167,56" />
<polygon fill="#bc8144" fill-opacity="0.501961" points="234,87 232,70 237,69" />
<polygon fill="#82512b" fill-opacity="0.501961" points="172,33 169,31 174,20" />
<polygon fill="#965c2b" fill-opacity="0.501961" points="218,50 214,43 217,55" />
<polygon fill="#9b6c45" fill-opacity="0.501961" points="57,26 46,12 35,12" />
</g>
</svg>