<svg xmlns="http://www.w3.org/2000/svg" version="1.1" width="985" height="327">
<rect x="0" y="0" width="985" height="327" fill="#cbd69b" />
<g transform="scale(3.847656) translate(0.5 0.5)">
<g transform="translate(84.156285 59.037011) rotate(74.517360) scale(18.231413 81.144098)"><ellipse fill="#98a92e" fill-opacity="0.501961" cx="0" cy="0" rx="1" ry="1" /></g>
<g transform="translate(255.000000 19.955537) rotate(271.952891) scale(66.087505 25.021487)"><ellipse fill="#ffffff" fill-opacity="0.501961" cx="0" cy="0" rx="1" ry="1" /></g>
<g transform="translate(27.646664 7.846780) rotate(267.018660) scale(14.926130 99.833861)"><ellipse fill="#e4f6ff" fill-opacity="0.501961" cx="0" cy="0" rx="1" ry="1" /></g>
<g transform="translate(169.024364 0.000000) rotate(116.440571) scale(12.819276 59.845440)"><ellipse fill="#edf8ff" fill-opacity="0.501961" cx="0" cy="0" rx="1" ry="1" /></g>
<g transform="translate(152.407093 71.081798) rotate(81.148713) scale(44.283995 7.325604)"><ellipse fill="#849728" fill-opacity="0.501961" cx="0" cy="0" rx="1" ry="1" /></g>
<g transform="translate(87.413985 61.749059) rotate(99.343126) scale(78.686629 8.058687)"><ellipse fill="#e1e7e3" fill-opacity="0.501961" cx="0" cy="0" rx="1" ry="1" /></g>
<g transform="translate(110.371503 22.632087) rotate(249.186279) scale(14.355685 7.458153)"><ellipse fill="#cad500" fill-opacity="0.501961" cx="0" cy="0" rx="1" ry="1" /></g>
<g transform="translate(0.000000 48.663150) rotate(342.181641) scale(10.586769 31.701386)"><ellipse fill="#edf4ff" fill-opacity="0.501961" cx="0" cy="0" rx="1" ry="1" /></g>
<g transform="translate(69.099665 63.243756) rotate(261.949666) scale(6.822592 15.764136)"><ellipse fill="#587700" fill-opacity="0.501961" cx="0" cy="0" rx="1" ry="1" /></g>
<g transform="translate(202.784913 68.295620) rotate(111.852171) scale(9.790637 38.524960)"><ellipse fill="#a6b657" fill-opacity="0.501961" cx="0" cy="0" rx="1" ry="1" /></g>
<g transform="translate(19.249721 84.000000) rotate(200.662784) scale(10.148721 27.367053)"><ellipse fill="#718d11" fill-opacity="0.501961" cx="0" cy="0" rx="1" ry="1" /></g>
<g transform="translate(61.322425 32.304341) rotate(235.418240) scale(24.112971 10.309395)"><ellipse fill="#d9e152" fill-opacity="0.501961" cx="0" cy="0" rx="1" ry="1" /></g>
<g transform="translate(21.139692 9.497690) rotate(67.324624) scale(15.073013 113.326919)"><ellipse fill="#d2e3ff" fill-opacity="0.501961" cx="0" cy="0" rx="1" ry="1" /></g>
<g transform="translate(133.250471 21.424899) rotate(323.339333) scale(30.791340 15.040904)"><ellipse fill="#f4f279" fill-opacity="0.501961" cx="0" cy="0" rx="1" ry="1" /></g>
<g transform="translate(158.213251 34.199857) rotate(262.359993) scale(5.235928 25.308121)"><ellipse fill="#88a510" fill-opacity="0.501961" cx="0" cy="0" rx="1" ry="1" /></g>
<g transform="translate(106.337666 52.808918) rotate(211.239944) scale(14.806862 10.759422)"><ellipse fill="#7c9621" fill-opacity="0.501961" cx="0" cy="0" rx="1" ry="1" /></g>
<g transform="translate(208.781872 47.463599) rotate(236.775408) scale(27.672390 25.117703)"><ellipse fill="#edef8b" fill-opacity="0.501961" cx="0" cy="0" rx="1" ry="1" /></g>
<g transform="translate(255.000000 5.861472) rotate(104.053099) scale(58.092932 16.106893)"><ellipse fill="#ecf5ff" fill-opacity="0.501961" cx="0" cy="0" rx="1" ry="1" /></g>
<g transform="translate(40.666556 69.975275) rotate(109.371399) scale(8.460134 11.588416)"><ellipse fill="#fdfa97" fill-opacity="0.501961" cx="0" cy="0" rx="1" ry="1" /></g>
<g transform="translate(163.393526 66.152893) rotate(215.308884) scale(21.205316 5.198142)"><ellipse fill="#dfdfe4" fill-opacity="0.501961" cx="0" cy="0" rx="1" ry="1" /></g>
<g transform="translate(35.916567 35.181798) rotate(267.737281) scale(16.675028 7.953662)"><ellipse fill="#dde8f4" fill-opacity="0.501961" cx="0" cy="0" rx="1" ry="1" /></g>
<g transform="translate(74.240769 75.806591) rotate(46.420349) scale(9.722692 5.206764)"><ellipse fill="#edf0f2" fill-opacity="0.501961" cx="0" cy="0" rx="1" ry="1" /></g>
<g transform="translate(92.145012 25.717719) rotate(215.490545) scale(32.785666 4.102244)"><ellipse fill="#ddecf7" fill-opacity="0.501961" cx="0" cy="0" rx="1" ry="1" /></g>
<g transform="translate(16.701768 34.942086) rotate(115.137921) scale(16.979703 5.031891)"><ellipse fill="#9fb142" fill-opacity="0.501961" cx="0" cy="0" rx="1" ry="1" /></g>
<g transform="translate(186.173775 84.014594) rotate(269.743218) scale(3.206362 9.316686)"><ellipse fill="#597702" fill-opacity="0.501961" cx="0" cy="0" rx="1" ry="1" /></g>
<g transform="translate(89.479822 3.883108) rotate(262.169400) scale(11.602896 36.623602)"><ellipse fill="#dfecff" fill-opacity="0.501961" cx="0" cy="0" rx="1" ry="1" /></g>
<g transform="translate(176.068944 24.966346) rotate(121.561120) scale(10.892072 5.713480)"><ellipse fill="#98b02a" fill-opacity="0.501961" cx="0" cy="0" rx="1" ry="1" /></g>
<g transform="translate(187.195715 66.057669) rotate(265.936881) scale(5.079505 8.964474)"><ellipse fill="#657844" fill-opacity="0.501961" cx="0" cy="0" rx="1" ry="1" /></g>
<g transform="translate(132.936103 59.539287) rotate(123.830008) scale(21.504507 4.949659)"><ellipse fill="#f1f1bf" fill-opacity="0.501961" cx="0" cy="0" rx="1" ry="1" /></g>
<g transform="translate(171.583471 0.000000) rotate(26.878557) scale(8.066101 26.223795)"><ellipse fill="#f0f9ff" fill-opacity="0.501961" cx="0" cy="0" rx="1" ry="1" /></g>
<g transform="translate(214.113150 3.224936) rotate(40.429633) scale(33.052012 5.650800)"><ellipse fill="#dce452" fill-opacity="0.501961" cx="0" cy="0" rx="1" ry="1" /></g>
<g transform="translate(63.876181 84.000000) rotate(355.870606) scale(4.434079 2.232964)"><ellipse fill="#000f02" fill-opacity="0.501961" cx="0" cy="0" rx="1" ry="1" /></g>
<g transform="translate(59.272367 52.089797) rotate(148.858489) scale(5.447113 6.055971)"><ellipse fill="#5e7902" fill-opacity="0.501961" cx="0" cy="0" rx="1" ry="1" /></g>
<g transform="translate(149.952208 84.000000) rotate(138.803527) scale(16.114314 5.008444)"><ellipse fill="#6c8611" fill-opacity="0.501961" cx="0" cy="0" rx="1" ry="1" /></g>
<g transform="translate(34.177055 79.084274) rotate(211.067947) scale(10.583292 3.625516)"><ellipse fill="#527313" fill-opacity="0.501961" cx="0" cy="0" rx="1" ry="1" /></g>
<g transform="translate(78.609233 42.143294) rotate(184.803164) scale(21.902441 8.375212)"><ellipse fill="#cbd659" fill-opacity="0.501961" cx="0" cy="0" rx="1" ry="1" /></g>
<g transform="translate(141.268584 65.118177) rotate(106.301712) scale(27.365295 3.642748)"><ellipse fill="#9ead3e" fill-opacity="0.501961" cx="0" cy="0" rx="1" ry="1" /></g>
<g transform="translate(184.517696 75.917081) rotate(84.113705) scale(5.386021 23.591021)"><ellipse fill="#c6d6db" fill-opacity="0.501961" cx="0" cy="0" rx="1" ry="1" /></g>
<g transform="translate(219.877718 84.995046) rotate(25.139002) scale(12.533374 18.751686)"><ellipse fill="#9fb542" fill-opacity="0.501961" cx="0" cy="0" rx="1" ry="1" /></g>
<g transform="translate(90.576342 60.552192) rotate(39.832371) scale(22.416228 4.649093)"><ellipse fill="#dbdebe" fill-opacity="0.501961" cx="0" cy="0" rx="1" ry="1" /></g>
<g transform="translate(106.843364 76.971780) rotate(112.365191) scale(2.662693 33.784996)"><ellipse fill="#9aa96a" fill-opacity="0.501961" cx="0" cy="0" rx="1" ry="1" /></g>
<g transform="translate(140.314757 9.744062) rotate(136.311585) scale(5.742736 38.283962)"><ellipse fill="#f5f272" fill-opacity="0.501961" cx="0" cy="0" rx="1" ry="1" /></g>
<g transform="translate(179.339544 40.159641) rotate(90.703136) scale(14.106333 1.792445)"><ellipse fill="#99ac2c" fill-opacity="0.501961" cx="0" cy="0" rx="1" ry="1" /></g>
<g transform="translate(71.246438 27.988862) rotate(169.884458) scale(31.570383 3.075809)"><ellipse fill="#e0e9d1" fill-opacity="0.501961" cx="0" cy="0" rx="1" ry="1" /></g>
<g transform="translate(22.904760 53.492362) rotate(125.139032) scale(10.389933 3.196137)"><ellipse fill="#f2f3ff" fill-opacity="0.501961" cx="0" cy="0" rx="1" ry="1" /></g>
<g transform="translate(119.084602 7.337356) rotate(225.708767) scale(13.042146 4.642354)"><ellipse fill="#dcebff" fill-opacity="0.501961" cx="0" cy="0" rx="1" ry="1" /></g>
<g transform="translate(0.204990 22.787269) rotate(131.429083) scale(4.574905 24.359473)"><ellipse fill="#d3e5fd" fill-opacity="0.501961" cx="0" cy="0" rx="1" ry="1" /></g>
<g transform="translate(170.694494 59.441428) rotate(269.935877) scale(1.904218 21.863506)"><ellipse fill="#839469" fill-opacity="0.501961" cx="0" cy="0" rx="1" ry="1" /></g>
<g transform="translate(114.571646 22.581069) rotate(80.765705) scale(10.742672 10.330903)"><ellipse fill="#c3cf2c" fill-opacity="0.501961" cx="0" cy="0" rx="1" ry="1" /></g>
<g transform="translate(202.790953 55.177079) rotate(474.430809) scale(10.129152 8.738413)"><ellipse fill="#aabe5c" fill-opacity="0.501961" cx="0" cy="0" rx="1" ry="1" /></g>
<g transform="translate(113.781017 45.220233) rotate(296.599969) scale(10.230668 4.181246)"><ellipse fill="#d6df99" fill-opacity="0.501961" cx="0" cy="0" rx="1" ry="1" /></g>
<g transform="translate(74.414103 60.925782) rotate(239.217312) scale(5.387131 5.379186)"><ellipse fill="#41610b" fill-opacity="0.501961" cx="0" cy="0" rx="1" ry="1" /></g>
<g transform="translate(46.007434 56.491215) rotate(285.332896) scale(14.994912 7.672854)"><ellipse fill="#eaed6e" fill-opacity="0.501961" cx="0" cy="0" rx="1" ry="1" /></g>
<g transform="translate(191.232512 0.000000) rotate(156.016672) scale(12.916083 20.134000)"><ellipse fill="#e3eef8" fill-opacity="0.501961" cx="0" cy="0" rx="1" ry="1" /></g>
<g transform="translate(165.636426 69.052371) rotate(152.356718) scale(2.526264 22.435720)"><ellipse fill="#e6e7ec" fill-opacity="0.501961" cx="0" cy="0" rx="1" ry="1" /></g>
<g transform="translate(13.721287 42.356373) rotate(120.345079) scale(2.481529 7.289375)"><ellipse fill="#819f00" fill-opacity="0.501961" cx="0" cy="0" rx="1" ry="1" /></g>
<g transform="translate(120.295611 67.049749) rotate(283.766791) scale(31.695277 1.000000)"><ellipse fill="#6f706f" fill-opacity="0.501961" cx="0" cy="0" rx="1" ry="1" /></g>
<g transform="translate(147.174542 34.890102) rotate(121.424696) scale(4.421039 11.373130)"><ellipse fill="#7b9c01" fill-opacity="0.501961" cx="0" cy="0" rx="1" ry="1" /></g>
<g transform="translate(45.243718 74.698961) rotate(19.417375) scale(18.538924 3.320378)"><ellipse fill="#e8e9a5" fill-opacity="0.501961" cx="0" cy="0" rx="1" ry="1" /></g>
<g transform="translate(63.026512 37.934789) rotate(361.077415) scale(16.443428 1.876307)"><ellipse fill="#8faa26" fill-opacity="0.501961" cx="0" cy="0" rx="1" ry="1" /></g>
<g transform="translate(205.352607 28.700426) rotate(268.258083) scale(9.703057 24.017124)"><ellipse fill="#d9e4bf" fill-opacity="0.501961" cx="0" cy="0" rx="1" ry="1" /></g>
<g transform="translate(85.336355 70.438504) rotate(279.250837) scale(9.619613 1.889933)"><ellipse fill="#88953b" fill-opacity="0.501961" cx="0" cy="0" rx="1" ry="1" /></g>
<g transform="translate(124.104411 74.536912) rotate(283.985922) scale(1.000000 25.413821)"><ellipse fill="#f2efe1" fill-opacity="0.501961" cx="0" cy="0" rx="1" ry="1" /></g>
<g transform="translate(162.974959 32.355619) rotate(343.529495) scale(3.146134 16.789293)"><ellipse fill="#cfd7c5" fill-opacity="0.501961" cx="0" cy="0" rx="1" ry="1" /></g>
<g transform="translate(1.436755 53.502835) rotate(247.118916) scale(26.724662 9.735720)"><ellipse fill="#e5eae2" fill-opacity="0.501961" cx="0" cy="0" rx="1" ry="1" /></g>
<g transform="translate(103.110771 52.749568) rotate(12.755630) scale(2.201973 13.164755)"><ellipse fill="#63840e" fill-opacity="0.501961" cx="0" cy="0" rx="1" ry="1" /></g>
<g transform="translate(72.787690 38.097316) rotate(322.127754) scale(3.532648 6.585245)"><ellipse fill="#8da821" fill-opacity="0.501961" cx="0" cy="0" rx="1" ry="1" /></g>
<g transform="translate(162.205920 45.868789) rotate(340.335519) scale(2.200360 16.238265)"><ellipse fill="#abbc2f" fill-opacity="0.501961" cx="0" cy="0" rx="1" ry="1" /></g>
<g transform="translate(172.132433 44.127714) rotate(104.604641) scale(9.445406 3.482851)"><ellipse fill="#dee3e7" fill-opacity="0.501961" cx="0" cy="0" rx="1" ry="1" /></g>
<g transform="translate(21.310588 32.602429) rotate(26.035164) scale(5.822028 2.963782)"><ellipse fill="#969b0d" fill-opacity="0.501961" cx="0" cy="0" rx="1" ry="1" /></g>
<g transform="translate(95.346805 16.244120) rotate(243.581574) scale(29.294963 3.341215)"><ellipse fill="#daeaf8" fill-opacity="0.501961" cx="0" cy="0" rx="1" ry="1" /></g>
<g transform="translate(53.513913 57.734275) rotate(217.248225) scale(4.841437 2.834215)"><ellipse fill="#d7e1e7" fill-opacity="0.501961" cx="0" cy="0" rx="1" ry="1" /></g>
<g transform="translate(53.147156 25.788136) rotate(305.014299) scale(5.689431 16.673455)"><ellipse fill="#eeee7a" fill-opacity="0.501961" cx="0" cy="0" rx="1" ry="1" /></g>
<g transform="translate(149.139247 43.372962) rotate(266.477735) scale(3.106123 20.031890)"><ellipse fill="#e2e75c" fill-opacity="0.501961" cx="0" cy="0" rx="1" ry="1" /></g>
<g transform="translate(243.847783 75.235869) rotate(182.872407) scale(9.951363 2.739822)"><ellipse fill="#b7c181" fill-opacity="0.501961" cx="0" cy="0" rx="1" ry="1" /></g>
<g transform="translate(247.333098 1.268461) rotate(246.348061) scale(50.435420 15.375159)"><ellipse fill="#e9f1ff" fill-opacity="0.501961" cx="0" cy="0" rx="1" ry="1" /></g>
<g transform="translate(132.001121 19.934816) rotate(67.871177) scale(10.557955 12.089419)"><ellipse fill="#e7e8b1" fill-opacity="0.501961" cx="0" cy="0" rx="1" ry="1" /></g>
<g transform="translate(62.536431 66.521997) rotate(100.755214) scale(10.152570 5.122356)"><ellipse fill="#96b418" fill-opacity="0.501961" cx="0" cy="0" rx="1" ry="1" /></g>
<g transform="translate(54.344421 18.419834) rotate(155.902086) scale(3.919806 9.130839)"><ellipse fill="#d9e04a" fill-opacity="0.501961" cx="0" cy="0" rx="1" ry="1" /></g>
<g transform="translate(224.705278 16.765373) rotate(180.850932) scale(5.162873 4.168959)"><ellipse fill="#c4d327" fill-opacity="0.501961" cx="0" cy="0" rx="1" ry="1" /></g>
<g transform="translate(168.726608 23.324114) rotate(76.180252) scale(5.843861 4.048902)"><ellipse fill="#d1df4c" fill-opacity="0.501961" cx="0" cy="0" rx="1" ry="1" /></g>
<g transform="translate(158.665549 68.286392) rotate(207.839344) scale(8.292610 1.729955)"><ellipse fill="#efedeb" fill-opacity="0.501961" cx="0" cy="0" rx="1" ry="1" /></g>
<g transform="translate(148.193080 47.953246) rotate(22.797871) scale(2.326838 14.879427)"><ellipse fill="#698a2a" fill-opacity="0.501961" cx="0" cy="0" rx="1" ry="1" /></g>
<g transform="translate(147.217525 68.412274) rotate(133.606431) scale(2.826344 4.295516)"><ellipse fill="#e9eaaf" fill-opacity="0.501961" cx="0" cy="0" rx="1" ry="1" /></g>
<g transform="translate(221.349713 47.345917) rotate(71.868866) scale(15.626623 11.677950)"><ellipse fill="#f4f285" fill-opacity="0.501961" cx="0" cy="0" rx="1" ry="1" /></g>
<g transform="translate(78.673801 22.546951) rotate(59.340765) scale(2.381912 5.351623)"><ellipse fill="#94ae5b" fill-opacity="0.501961" cx="0" cy="0" rx="1" ry="1" /></g>
<g transform="translate(8.504040 10.626642) rotate(254.744345) scale(15.055305 59.059142)"><ellipse fill="#d5e4fc" fill-opacity="0.501961" cx="0" cy="0" rx="1" ry="1" /></g>
<g transform="translate(31.847406 70.208378) rotate(17.006213) scale(3.870425 3.630677)"><ellipse fill="#d4dfeb" fill-opacity="0.501961" cx="0" cy="0" rx="1" ry="1" /></g>
<g transform="translate(210.411546 6.904136) rotate(228.672804) scale(5.331011 3.298730)"><ellipse fill="#a4bb40" fill-opacity="0.501961" cx="0" cy="0" rx="1" ry="1" /></g>
<g transform="translate(204.975958 72.805801) rotate(176.433685) scale(9.539297 6.181989)"><ellipse fill="#f2f5b1" fill-opacity="0.501961" cx="0" cy="0" rx="1" ry="1" /></g>
<g transform="translate(88.125149 55.191760) rotate(31.522346) scale(7.798524 3.344199)"><ellipse fill="#f6f4f2" fill-opacity="0.501961" cx="0" cy="0" rx="1" ry="1" /></g>
<g transform="translate(163.140969 67.274313) rotate(76.252811) scale(22.944653 1.781597)"><ellipse fill="#e9ebf2" fill-opacity="0.501961" cx="0" cy="0" rx="1" ry="1" /></g>
<g transform="translate(188.735287 47.086295) rotate(64.852229) scale(10.289700 5.919478)"><ellipse fill="#fffd9d" fill-opacity="0.501961" cx="0" cy="0" rx="1" ry="1" /></g>
<g transform="translate(110.343136 62.361038) rotate(167.724132) scale(13.121323 3.749285)"><ellipse fill="#7f963b" fill-opacity="0.501961" cx="0" cy="0" rx="1" ry="1" /></g>
<g transform="translate(151.380552 19.382458) rotate(282.511699) scale(13.993670 7.096810)"><ellipse fill="#eaec5f" fill-opacity="0.501961" cx="0" cy="0" rx="1" ry="1" /></g>
<g transform="translate(184.622026 84.000000) rotate(299.527504) scale(26.417851 1.000000)"><ellipse fill="#7b8b4f" fill-opacity="0.501961" cx="0" cy="0" rx="1" ry="1" /></g>
<g transform="translate(22.985487 70.088850) rotate(203.042954) scale(3.024898 21.357042)"><ellipse fill="#90a621" fill-opacity="0.501961" cx="0" cy="0" rx="1" ry="1" /></g>
<g transform="translate(167.774222 3.817677) rotate(94.748667) scale(5.056506 22.905713)"><ellipse fill="#e4eef1" fill-opacity="0.501961" cx="0" cy="0" rx="1" ry="1" /></g>
<g transform="translate(17.014645 84.000000) rotate(65.254454) scale(4.817511 24.123148)"><ellipse fill="#79921b" fill-opacity="0.501961" cx="0" cy="0" rx="1" ry="1" /></g>
<g transform="translate(153.754646 36.655219) rotate(141.366560) scale(6.242800 3.919613)"><ellipse fill="#658d00" fill-opacity="0.501961" cx="0" cy="0" rx="1" ry="1" /></g>
<g transform="translate(73.313900 51.078791) rotate(304.904977) scale(3.471131 11.852288)"><ellipse fill="#e8ec6d" fill-opacity="0.501961" cx="0" cy="0" rx="1" ry="1" /></g>
<g transform="translate(144.154813 72.672554) rotate(262.921132) scale(2.053440 14.992839)"><ellipse fill="#a2b538" fill-opacity="0.501961" cx="0" cy="0" rx="1" ry="1" /></g>
<g transform="translate(87.844349 71.821221) rotate(98.396080) scale(4.267048 1.000000)"><ellipse fill="#698600" fill-opacity="0.501961" cx="0" cy="0" rx="1" ry="1" /></g>
<g transform="translate(121.782832 72.820904) rotate(52.486860) scale(10.399356 2.742262)"><ellipse fill="#e0e2f0" fill-opacity="0.501961" cx="0" cy="0" rx="1" ry="1" /></g>
<g transform="translate(76.341823 73.601261) rotate(178.781895) scale(7.883152 1.641515)"><ellipse fill="#fffdff" fill-opacity="0.501961" cx="0" cy="0" rx="1" ry="1" /></g>
<g transform="translate(122.957245 47.745983) rotate(265.872724) scale(2.881037 8.416712)"><ellipse fill="#788a34" fill-opacity="0.501961" cx="0" cy="0" rx="1" ry="1" /></g>
<g transform="translate(221.510376 0.191282) rotate(86.245989) scale(13.478609 5.279761)"><ellipse fill="#f6f7b1" fill-opacity="0.501961" cx="0" cy="0" rx="1" ry="1" /></g>
<g transform="translate(92.794759 70.108551) rotate(91.961380) scale(10.514970 3.647175)"><ellipse fill="#dde2df" fill-opacity="0.501961" cx="0" cy="0" rx="1" ry="1" /></g>
<g transform="translate(47.571607 61.220060) rotate(24.818984) scale(20.775133 2.224457)"><ellipse fill="#9db03e" fill-opacity="0.501961" cx="0" cy="0" rx="1" ry="1" /></g>
<g transform="translate(97.675513 48.382740) rotate(192.231722) scale(6.987288 2.392380)"><ellipse fill="#6d881a" fill-opacity="0.501961" cx="0" cy="0" rx="1" ry="1" /></g>
<g transform="translate(58.252991 78.567247) rotate(86.172067) scale(3.568904 16.533298)"><ellipse fill="#d5da5f" fill-opacity="0.501961" cx="0" cy="0" rx="1" ry="1" /></g>
<g transform="translate(33.409760 34.179854) rotate(231.379471) scale(3.729289 9.632668)"><ellipse fill="#eff0f4" fill-opacity="0.501961" cx="0" cy="0" rx="1" ry="1" /></g>
<g transform="translate(68.176593 27.755205) rotate(43.721069) scale(4.058335 9.703544)"><ellipse fill="#e0e9d3" fill-opacity="0.501961" cx="0" cy="0" rx="1" ry="1" /></g>
<g transform="translate(90.955091 40.171591) rotate(61.036119) scale(2.963646 17.184720)"><ellipse fill="#ecf093" fill-opacity="0.501961" cx="0" cy="0" rx="1" ry="1" /></g>
<g transform="translate(14.887823 72.075914) rotate(268.070669) scale(9.721707 1.563997)"><ellipse fill="#bbc54d" fill-opacity="0.501961" cx="0" cy="0" rx="1" ry="1" /></g>
<g transform="translate(142.682578 0.000000) rotate(390.154067) scale(4.311364 7.891918)"><ellipse fill="#e1e635" fill-opacity="0.501961" cx="0" cy="0" rx="1" ry="1" /></g>
<g transform="translate(168.014604 65.944409) rotate(166.228386) scale(9.085594 3.249587)"><ellipse fill="#e5ebf0" fill-opacity="0.501961" cx="0" cy="0" rx="1" ry="1" /></g>
<g transform="translate(99.136215 10.094092) rotate(25.319938) scale(5.041115 25.406989)"><ellipse fill="#e1edf9" fill-opacity="0.501961" cx="0" cy="0" rx="1" ry="1" /></g>
<g transform="translate(224.825556 84.000000) rotate(215.982423) scale(3.412302 5.116690)"><ellipse fill="#749d02" fill-opacity="0.501961" cx="0" cy="0" rx="1" ry="1" /></g>
<g transform="translate(66.983087 19.242268) rotate(469.694205) scale(2.459233 3.751144)"><ellipse fill="#d1d946" fill-opacity="0.501961" cx="0" cy="0" rx="1" ry="1" /></g>
<g transform="translate(134.463653 78.128088) rotate(80.693074) scale(2.032500 13.511326)"><ellipse fill="#f4f3c0" fill-opacity="0.501961" cx="0" cy="0" rx="1" ry="1" /></g>
<g transform="translate(243.797814 39.041939) rotate(109.256514) scale(31.143477 5.643698)"><ellipse fill="#e8f0f8" fill-opacity="0.501961" cx="0" cy="0" rx="1" ry="1" /></g>
<g transform="translate(107.845565 22.889667) rotate(166.355013) scale(4.893939 10.573577)"><ellipse fill="#acbe22" fill-opacity="0.501961" cx="0" cy="0" rx="1" ry="1" /></g>
<g transform="translate(255.000000 66.062204) rotate(241.953926) scale(7.335195 1.786269)"><ellipse fill="#d2db6b" fill-opacity="0.501961" cx="0" cy="0" rx="1" ry="1" /></g>
<g transform="translate(211.557898 29.944665) rotate(129.315688) scale(12.203979 2.081030)"><ellipse fill="#d7e6ee" fill-opacity="0.501961" cx="0" cy="0" rx="1" ry="1" /></g>
<g transform="translate(129.037155 56.725355) rotate(240.397394) scale(6.900055 2.506415)"><ellipse fill="#c8cbcc" fill-opacity="0.501961" cx="0" cy="0" rx="1" ry="1" /></g>
<g transform="translate(96.529108 84.000000) rotate(87.199081) scale(4.009364 7.265655)"><ellipse fill="#949d94" fill-opacity="0.501961" cx="0" cy="0" rx="1" ry="1" /></g>
<g transform="translate(75.320053 67.792019) rotate(265.431244) scale(4.288753 2.210883)"><ellipse fill="#567022" fill-opacity="0.501961" cx="0" cy="0" rx="1" ry="1" /></g>
<g transform="translate(55.237889 65.841638) rotate(19.003342) scale(1.000000 28.209282)"><ellipse fill="#819333" fill-opacity="0.501961" cx="0" cy="0" rx="1" ry="1" /></g>
<g transform="translate(198.364460 29.415188) rotate(363.246321) scale(7.511951 4.220716)"><ellipse fill="#d3d96e" fill-opacity="0.501961" cx="0" cy="0" rx="1" ry="1" /></g>
<g transform="translate(184.544211 34.577999) rotate(336.175615) scale(2.706863 14.718018)"><ellipse fill="#e7e967" fill-opacity="0.501961" cx="0" cy="0" rx="1" ry="1" /></g>
<g transform="translate(163.305272 26.746840) rotate(20.089426) scale(7.855011 2.394233)"><ellipse fill="#dfe8d7" fill-opacity="0.501961" cx="0" cy="0" rx="1" ry="1" /></g>
<g transform="translate(0.000000 40.350447) rotate(263.497798) scale(11.605884 7.937072)"><ellipse fill="#b7d6f8" fill-opacity="0.501961" cx="0" cy="0" rx="1" ry="1" /></g>
<g transform="translate(219.018949 71.401848) rotate(46.194982) scale(3.736569 2.877761)"><ellipse fill="#789d0e" fill-opacity="0.501961" cx="0" cy="0" rx="1" ry="1" /></g>
<g transform="translate(172.902787 74.562290) rotate(98.136872) scale(30.090320 2.554949)"><ellipse fill="#aeb8a3" fill-opacity="0.501961" cx="0" cy="0" rx="1" ry="1" /></g>
<g transform="translate(17.206930 67.093959) rotate(221.218956) scale(4.200848 1.753868)"><ellipse fill="#5f7b29" fill-opacity="0.501961" cx="0" cy="0" rx="1" ry="1" /></g>
<g transform="translate(205.916236 17.582443) rotate(155.466698) scale(20.432754 3.110021)"><ellipse fill="#d3e2dc" fill-opacity="0.501961" cx="0" cy="0" rx="1" ry="1" /></g>
<g transform="translate(168.691681 57.223131) rotate(141.763951) scale(16.517437 1.000000)"><ellipse fill="#93a45b" fill-opacity="0.501961" cx="0" cy="0" rx="1" ry="1" /></g>
<g transform="translate(236.089789 21.866993) rotate(86.509623) scale(2.686964 5.745894)"><ellipse fill="#dfe457" fill-opacity="0.501961" cx="0" cy="0" rx="1" ry="1" /></g>
<g transform="translate(149.979906 60.875305) rotate(338.847160) scale(4.554768 1.265409)"><ellipse fill="#8a9804" fill-opacity="0.501961" cx="0" cy="0" rx="1" ry="1" /></g>
<g transform="translate(139.017611 83.762600) rotate(113.302156) scale(1.000000 8.209092)"><ellipse fill="#72804a" fill-opacity="0.501961" cx="0" cy="0" rx="1" ry="1" /></g>
<g transform="translate(126.219743 43.056872) rotate(172.132062) scale(1.811285 6.094988)"><ellipse fill="#72724e" fill-opacity="0.501961" cx="0" cy="0" rx="1" ry="1" /></g>
<g transform="translate(157.990522 63.836203) rotate(169.021330) scale(1.669040 2.768133)"><ellipse fill="#748237" fill-opacity="0.501961" cx="0" cy="0" rx="1" ry="1" /></g>
<g transform="translate(10.141163 40.038172) rotate(232.178706) scale(5.683789 2.106870)"><ellipse fill="#84a90b" fill-opacity="0.501961" cx="0" cy="0" rx="1" ry="1" /></g>
<g transform="translate(107.072140 72.579956) rotate(249.858141) scale(4.272046 3.756144)"><ellipse fill="#dbdce0" fill-opacity="0.501961" cx="0" cy="0" rx="1" ry="1" /></g>
<g transform="translate(150.374811 49.528027) rotate(301.057052) scale(2.623873 4.578169)"><ellipse fill="#608023" fill-opacity="0.501961" cx="0" cy="0" rx="1" ry="1" /></g>
<g transform="translate(206.858824 7.813673) rotate(89.657019) scale(15.068726 1.487769)"><ellipse fill="#a9be7d" fill-opacity="0.501961" cx="0" cy="0" rx="1" ry="1" /></g>
<g transform="translate(53.681026 37.623481) rotate(224.215799) scale(1.744735 6.207418)"><ellipse fill="#89a53f" fill-opacity="0.501961" cx="0" cy="0" rx="1" ry="1" /></g>
<g transform="translate(174.953395 27.346593) rotate(299.772489) scale(16.844677 1.000000)"><ellipse fill="#87a33a" fill-opacity="0.501961" cx="0" cy="0" rx="1" ry="1" /></g>
<g transform="translate(156.157934 55.563911) rotate(101.040539) scale(12.329989 1.315480)"><ellipse fill="#f7f3e8" fill-opacity="0.501961" cx="0" cy="0" rx="1" ry="1" /></g>
<g transform="translate(88.533001 36.780628) rotate(177.869246) scale(1.436463 1.896697)"><ellipse fill="#6d9511" fill-opacity="0.501961" cx="0" cy="0" rx="1" ry="1" /></g>
<g transform="translate(213.876975 22.902448) rotate(197.858255) scale(5.097848 1.000000)"><ellipse fill="#8dac78" fill-opacity="0.501961" cx="0" cy="0" rx="1" ry="1" /></g>
<g transform="translate(83.238601 30.266630) rotate(93.321550) scale(9.273113 1.501278)"><ellipse fill="#e5e969" fill-opacity="0.501961" cx="0" cy="0" rx="1" ry="1" /></g>
<g transform="translate(42.007880 70.628121) rotate(161.289645) scale(3.624090 15.056218)"><ellipse fill="#eeef8e" fill-opacity="0.501961" cx="0" cy="0" rx="1" ry="1" /></g>
<g transform="translate(148.446200 35.377614) rotate(343.878824) scale(10.433944 3.044883)"><ellipse fill="#6d9003" fill-opacity="0.501961" cx="0" cy="0" rx="1" ry="1" /></g>
<g transform="translate(23.249312 44.952692) rotate(342.150411) scale(2.936529 9.212149)"><ellipse fill="#d6dce2" fill-opacity="0.501961" cx="0" cy="0" rx="1" ry="1" /></g>
<g transform="translate(120.855132 27.458602) rotate(186.344312) scale(5.020906 10.467933)"><ellipse fill="#f4ee66" fill-opacity="0.501961" cx="0" cy="0" rx="1" ry="1" /></g>
<g transform="translate(117.119184 78.946473) rotate(17.923918) scale(8.194795 1.174490)"><ellipse fill="#7a8c47" fill-opacity="0.501961" cx="0" cy="0" rx="1" ry="1" /></g>
<g transform="translate(34.702926 23.644720) rotate(24.381703) scale(1.727903 11.655342)"><ellipse fill="#a8c6cb" fill-opacity="0.501961" cx="0" cy="0" rx="1" ry="1" /></g>
<g transform="translate(136.267290 51.791094) rotate(239.125368) scale(22.862506 1.000000)"><ellipse fill="#dadead" fill-opacity="0.501961" cx="0" cy="0" rx="1" ry="1" /></g>
<g transform="translate(187.681981 52.941903) rotate(302.606620) scale(4.221083 6.085083)"><ellipse fill="#fdf8b3" fill-opacity="0.501961" cx="0" cy="0" rx="1" ry="1" /></g>
<g transform="translate(113.539850 64.490622) rotate(84.453038) scale(2.730265 2.522201)"><ellipse fill="#597227" fill-opacity="0.501961" cx="0" cy="0" rx="1" ry="1" /></g>
<g transform="translate(190.349575 73.282804) rotate(282.113892) scale(2.307425 16.285690)"><ellipse fill="#acc5d3" fill-opacity="0.501961" cx="0" cy="0" rx="1" ry="1" /></g>
<g transform="translate(37.728051 75.770194) rotate(349.964449) scale(1.000000 22.602486)"><ellipse fill="#8d9459" fill-opacity="0.501961" cx="0" cy="0" rx="1" ry="1" /></g>
<g transform="translate(108.613390 36.496885) rotate(114.997174) scale(2.895625 7.703058)"><ellipse fill="#daeaed" fill-opacity="0.501961" cx="0" cy="0" rx="1" ry="1" /></g>
<g transform="translate(69.174284 68.817306) rotate(308.263845) scale(2.627379 3.096701)"><ellipse fill="#c9d5c2" fill-opacity="0.501961" cx="0" cy="0" rx="1" ry="1" /></g>
<g transform="translate(99.003312 40.103881) rotate(89.973329) scale(8.906051 2.343403)"><ellipse fill="#c0ce54" fill-opacity="0.501961" cx="0" cy="0" rx="1" ry="1" /></g>
<g transform="translate(216.978565 62.734503) rotate(39.211435) scale(3.352809 6.290976)"><ellipse fill="#e9f0c7" fill-opacity="0.501961" cx="0" cy="0" rx="1" ry="1" /></g>
<g transform="translate(102.958600 47.295406) rotate(34.032881) scale(2.511262 5.318187)"><ellipse fill="#4d710b" fill-opacity="0.501961" cx="0" cy="0" rx="1" ry="1" /></g>
<g transform="translate(139.472498 45.240585) rotate(145.993591) scale(8.640150 3.322492)"><ellipse fill="#d5dd3e" fill-opacity="0.501961" cx="0" cy="0" rx="1" ry="1" /></g>
<g transform="translate(138.608946 16.787268) rotate(313.618826) scale(5.596401 19.543726)"><ellipse fill="#f2f093" fill-opacity="0.501961" cx="0" cy="0" rx="1" ry="1" /></g>
<g transform="translate(132.944392 21.116024) rotate(233.946764) scale(3.737733 5.851083)"><ellipse fill="#c3d1c9" fill-opacity="0.501961" cx="0" cy="0" rx="1" ry="1" /></g>
<g transform="translate(154.193801 17.438286) rotate(103.007361) scale(13.240305 2.974825)"><ellipse fill="#e1e651" fill-opacity="0.501961" cx="0" cy="0" rx="1" ry="1" /></g>
<g transform="translate(241.381258 13.478718) rotate(343.354613) scale(11.085004 4.040720)"><ellipse fill="#e9f1f8" fill-opacity="0.501961" cx="0" cy="0" rx="1" ry="1" /></g>
<g transform="translate(175.327308 58.609251) rotate(81.296402) scale(3.831524 6.687040)"><ellipse fill="#819393" fill-opacity="0.501961" cx="0" cy="0" rx="1" ry="1" /></g>
<g transform="translate(111.149391 52.898895) rotate(271.239925) scale(4.685505 2.295026)"><ellipse fill="#d4e099" fill-opacity="0.501961" cx="0" cy="0" rx="1" ry="1" /></g>
<g transform="translate(191.405355 32.714803) rotate(205.547004) scale(7.822978 3.386763)"><ellipse fill="#d5dcda" fill-opacity="0.501961" cx="0" cy="0" rx="1" ry="1" /></g>
<g transform="translate(0.000000 73.184071) rotate(283.476481) scale(2.826040 15.613915)"><ellipse fill="#f2f3e8" fill-opacity="0.501961" cx="0" cy="0" rx="1" ry="1" /></g>
<g transform="translate(208.080175 52.556404) rotate(259.363519) scale(1.887521 4.377693)"><ellipse fill="#f7f5b8" fill-opacity="0.501961" cx="0" cy="0" rx="1" ry="1" /></g>
<g transform="translate(110.625691 82.623145) rotate(75.518818) scale(3.566962 4.214510)"><ellipse fill="#fbf99e" fill-opacity="0.501961" cx="0" cy="0" rx="1" ry="1" /></g>
<g transform="translate(163.380070 13.836356) rotate(298.881490) scale(13.144535 3.474738)"><ellipse fill="#e5eff3" fill-opacity="0.501961" cx="0" cy="0" rx="1" ry="1" /></g>
<g transform="translate(79.888310 73.873150) rotate(286.899646) scale(8.744266 3.086173)"><ellipse fill="#e3e1e1" fill-opacity="0.501961" cx="0" cy="0" rx="1" ry="1" /></g>
<g transform="translate(140.849833 70.499082) rotate(23.217356) scale(7.891522 3.198620)"><ellipse fill="#a7b53f" fill-opacity="0.501961" cx="0" cy="0" rx="1" ry="1" /></g>
<g transform="translate(8.859251 79.490093) rotate(187.828365) scale(9.565803 1.524119)"><ellipse fill="#c5cc53" fill-opacity="0.501961" cx="0" cy="0" rx="1" ry="1" /></g>
<g transform="translate(74.107612 62.771214) rotate(264.114658) scale(2.939353 6.912114)"><ellipse fill="#44610a" fill-opacity="0.501961" cx="0" cy="0" rx="1" ry="1" /></g>
<g transform="translate(130.139662 83.499021) rotate(29.737505) scale(31.108719 1.000000)"><ellipse fill="#dfe4dd" fill-opacity="0.501961" cx="0" cy="0" rx="1" ry="1" /></g>
<g transform="translate(13.426218 59.827297) rotate(249.622123) scale(2.394593 15.686382)"><ellipse fill="#efeedf" fill-opacity="0.501961" cx="0" cy="0" rx="1" ry="1" /></g>
<g transform="translate(210.201834 71.820008) rotate(120.322680) scale(1.676083 16.316142)"><ellipse fill="#ebed84" fill-opacity="0.501961" cx="0" cy="0" rx="1" ry="1" /></g>
<g transform="translate(58.986781 42.368316) rotate(44.658908) scale(1.921656 13.888339)"><ellipse fill="#e4e97b" fill-opacity="0.501961" cx="0" cy="0" rx="1" ry="1" /></g>
<g transform="translate(194.044974 65.580492) rotate(70.670941) scale(1.000000 16.119241)"><ellipse fill="#809447" fill-opacity="0.501961" cx="0" cy="0" rx="1" ry="1" /></g>
<g transform="translate(241.327987 64.095287) rotate(78.233317) scale(1.931670 3.295590)"><ellipse fill="#bfcc6c" fill-opacity="0.501961" cx="0" cy="0" rx="1" ry="1" /></g>
<g transform="translate(67.032533 50.811990) rotate(-12.345011) scale(3.460990 9.180206)"><ellipse fill="#e1e55f" fill-opacity="0.501961" cx="0" cy="0" rx="1" ry="1" /></g>
<g transform="translate(228.132235 50.165683) rotate(355.931330) scale(7.481435 4.538901)"><ellipse fill="#ebec70" fill-opacity="0.501961" cx="0" cy="0" rx="1" ry="1" /></g>
<g transform="translate(27.291205 43.930939) rotate(251.353475) scale(2.053627 29.404106)"><ellipse fill="#cbd0b1" fill-opacity="0.501961" cx="0" cy="0" rx="1" ry="1" /></g>
<g transform="translate(52.172778 84.000000) rotate(208.490266) scale(2.310202 6.928076)"><ellipse fill="#fdf993" fill-opacity="0.501961" cx="0" cy="0" rx="1" ry="1" /></g>
<g transform="translate(193.484872 4.669788) rotate(375.626305) scale(3.625490 2.251168)"><ellipse fill="#e6ea91" fill-opacity="0.501961" cx="0" cy="0" rx="1" ry="1" /></g>
<g transform="translate(106.320830 61.807691) rotate(111.369722) scale(2.346827 8.076005)"><ellipse fill="#acbc59" fill-opacity="0.501961" cx="0" cy="0" rx="1" ry="1" /></g>
<g transform="translate(186.443099 20.310997) rotate(97.245714) scale(1.000000 8.192437)"><ellipse fill="#a4ba5b" fill-opacity="0.501961" cx="0" cy="0" rx="1" ry="1" /></g>
<g transform="translate(28.617069 62.958022) rotate(308.725920) scale(2.476329 5.056732)"><ellipse fill="#6e9010" fill-opacity="0.501961" cx="0" cy="0" rx="1" ry="1" /></g>
<g transform="translate(44.143076 64.072052) rotate(140.446288) scale(4.696024 6.444769)"><ellipse fill="#e8ec52" fill-opacity="0.501961" cx="0" cy="0" rx="1" ry="1" /></g>
<g transform="translate(186.840306 64.363649) rotate(6.348023) scale(3.159352 5.675335)"><ellipse fill="#728933" fill-opacity="0.501961" cx="0" cy="0" rx="1" ry="1" /></g>
<g transform="translate(188.167731 81.815585) rotate(198.694994) scale(1.000000 19.829548)"><ellipse fill="#878f57" fill-opacity="0.501961" cx="0" cy="0" rx="1" ry="1" /></g>
<g transform="translate(178.875781 35.971722) rotate(74.565902) scale(3.032099 2.091596)"><ellipse fill="#698a32" fill-opacity="0.501961" cx="0" cy="0" rx="1" ry="1" /></g>
<g transform="translate(62.552122 62.302479) rotate(335.242847) scale(3.068488 4.962134)"><ellipse fill="#bac900" fill-opacity="0.501961" cx="0" cy="0" rx="1" ry="1" /></g>
<g transform="translate(175.648083 67.898726) rotate(61.014136) scale(1.000000 9.727633)"><ellipse fill="#aec054" fill-opacity="0.501961" cx="0" cy="0" rx="1" ry="1" /></g>
<g transform="translate(118.155102 14.554923) rotate(212.754543) scale(5.195046 1.251098)"><ellipse fill="#81985e" fill-opacity="0.501961" cx="0" cy="0" rx="1" ry="1" /></g>
<g transform="translate(58.095470 52.372445) rotate(172.650416) scale(5.273209 2.882843)"><ellipse fill="#5d7b1c" fill-opacity="0.501961" cx="0" cy="0" rx="1" ry="1" /></g>
<g transform="translate(155.496556 43.503117) rotate(172.715097) scale(5.509540 2.275154)"><ellipse fill="#eef165" fill-opacity="0.501961" cx="0" cy="0" rx="1" ry="1" /></g>
<g transform="translate(56.631016 68.807512) rotate(44.100680) scale(8.419723 5.565306)"><ellipse fill="#8ba536" fill-opacity="0.501961" cx="0" cy="0" rx="1" ry="1" /></g>
<g transform="translate(236.941309 35.993410) rotate(208.366121) scale(3.591146 12.060959)"><ellipse fill="#e3f0fc" fill-opacity="0.501961" cx="0" cy="0" rx="1" ry="1" /></g>
<g transform="translate(89.310164 79.105063) rotate(56.731377) scale(2.824229 6.431476)"><ellipse fill="#edeff4" fill-opacity="0.501961" cx="0" cy="0" rx="1" ry="1" /></g>
<g transform="translate(185.387721 84.000000) rotate(173.567696) scale(5.996208 3.888510)"><ellipse fill="#7e9924" fill-opacity="0.501961" cx="0" cy="0" rx="1" ry="1" /></g>
<g transform="translate(26.758170 29.954598) rotate(204.763533) scale(3.874094 5.076901)"><ellipse fill="#dcd963" fill-opacity="0.501961" cx="0" cy="0" rx="1" ry="1" /></g>
<g transform="translate(149.372654 1.966314) rotate(289.770963) scale(6.250608 1.890058)"><ellipse fill="#e0efff" fill-opacity="0.501961" cx="0" cy="0" rx="1" ry="1" /></g>
<g transform="translate(86.721198 66.362089) rotate(246.901022) scale(6.774492 2.561898)"><ellipse fill="#8a9950" fill-opacity="0.501961" cx="0" cy="0" rx="1" ry="1" /></g>
<g transform="translate(84.357551 47.556774) rotate(2.965012) scale(13.469887 1.000000)"><ellipse fill="#a0b54d" fill-opacity="0.501961" cx="0" cy="0" rx="1" ry="1" /></g>
<g transform="translate(90.516935 18.084808) rotate(167.452754) scale(5.666420 22.100599)"><ellipse fill="#dde9e1" fill-opacity="0.501961" cx="0" cy="0" rx="1" ry="1" /></g>
<g transform="translate(77.270596 0.000000) rotate(281.945119) scale(5.471369 50.214023)"><ellipse fill="#ddeaf9" fill-opacity="0.501961" cx="0" cy="0" rx="1" ry="1" /></g>
<g transform="translate(53.281115 58.443171) rotate(236.816792) scale(2.663473 1.946866)"><ellipse fill="#f3f8fb" fill-opacity="0.501961" cx="0" cy="0" rx="1" ry="1" /></g>
<g transform="translate(233.234452 31.347225) rotate(98.382597) scale(2.517855 25.468849)"><ellipse fill="#e8f2e8" fill-opacity="0.501961" cx="0" cy="0" rx="1" ry="1" /></g>
<g transform="translate(179.342828 78.474920) rotate(231.712310) scale(2.705689 8.455639)"><ellipse fill="#cde2ef" fill-opacity="0.501961" cx="0" cy="0" rx="1" ry="1" /></g>
<g transform="translate(83.184876 44.351687) rotate(88.294309) scale(1.392326 17.652886)"><ellipse fill="#f5f28a" fill-opacity="0.501961" cx="0" cy="0" rx="1" ry="1" /></g>
<g transform="translate(162.270470 84.000000) rotate(199.421569) scale(4.199288 6.576625)"><ellipse fill="#b7b8a9" fill-opacity="0.501961" cx="0" cy="0" rx="1" ry="1" /></g>
<g transform="translate(226.918175 26.818338) rotate(250.681142) scale(11.492455 1.795276)"><ellipse fill="#f2f27b" fill-opacity="0.501961" cx="0" cy="0" rx="1" ry="1" /></g>
<g transform="translate(237.177008 82.765944) rotate(85.317704) scale(3.725299 3.182688)"><ellipse fill="#f9fa83" fill-opacity="0.501961" cx="0" cy="0" rx="1" ry="1" /></g>
<g transform="translate(119.456354 71.089716) rotate(286.244189) scale(29.456954 1.000000)"><ellipse fill="#878a70" fill-opacity="0.501961" cx="0" cy="0" rx="1" ry="1" /></g>
<g transform="translate(193.882775 29.413879) rotate(114.955795) scale(2.764682 1.655296)"><ellipse fill="#a6bc2e" fill-opacity="0.501961" cx="0" cy="0" rx="1" ry="1" /></g>
<g transform="translate(20.247514 68.890094) rotate(276.458992) scale(2.522858 5.749205)"><ellipse fill="#688520" fill-opacity="0.501961" cx="0" cy="0" rx="1" ry="1" /></g>
<g transform="translate(149.997685 84.000000) rotate(308.681773) scale(16.085790 5.460208)"><ellipse fill="#859c2f" fill-opacity="0.501961" cx="0" cy="0" rx="1" ry="1" /></g>
<g transform="translate(236.954433 76.483727) rotate(73.495666) scale(1.649695 6.757196)"><ellipse fill="#bbc955" fill-opacity="0.501961" cx="0" cy="0" rx="1" ry="1" /></g>
<g transform="translate(64.572629 84.000000) rotate(121.716113) scale(2.562079 3.720128)"><ellipse fill="#364b2b" fill-opacity="0.501961" cx="0" cy="0" rx="1" ry="1" /></g>
<g transform="translate(1.912214 81.212202) rotate(151.286140) scale(1.519255 18.745569)"><ellipse fill="#dde3de" fill-opacity="0.501961" cx="0" cy="0" rx="1" ry="1" /></g>
<g transform="translate(51.137585 61.640925) rotate(41.999135) scale(5.059454 1.000000)"><ellipse fill="#688e17" fill-opacity="0.501961" cx="0" cy="0" rx="1" ry="1" /></g>
<g transform="translate(11.905638 84.757405) rotate(244.610331) scale(2.752258 5.587457)"><ellipse fill="#698900" fill-opacity="0.501961" cx="0" cy="0" rx="1" ry="1" /></g>
<g transform="translate(69.314083 81.095440) rotate(96.207033) scale(1.000000 1.639903)"><ellipse fill="#f7fdff" fill-opacity="0.501961" cx="0" cy="0" rx="1" ry="1" /></g>
<g transform="translate(107.457104 57.875294) rotate(101.421052) scale(3.102075 12.446089)"><ellipse fill="#7c9330" fill-opacity="0.501961" cx="0" cy="0" rx="1" ry="1" /></g>
<g transform="translate(186.919892 35.228534) rotate(125.706069) scale(1.000000 26.563058)"><ellipse fill="#becc60" fill-opacity="0.501961" cx="0" cy="0" rx="1" ry="1" /></g>
<g transform="translate(226.619216 16.328365) rotate(194.114177) scale(1.854808 3.778404)"><ellipse fill="#96b416" fill-opacity="0.501961" cx="0" cy="0" rx="1" ry="1" /></g>
<g transform="translate(159.739105 40.860146) rotate(213.739556) scale(1.876294 4.795308)"><ellipse fill="#f7fa5c" fill-opacity="0.501961" cx="0" cy="0" rx="1" ry="1" /></g>
<g transform="translate(226.571109 7.975205) rotate(132.424751) scale(2.452166 7.263280)"><ellipse fill="#eaec62" fill-opacity="0.501961" cx="0" cy="0" rx="1" ry="1" /></g>
<g transform="translate(72.049782 84.000000) rotate(268.828230) scale(8.769005 1.000000)"><ellipse fill="#a4ba20" fill-opacity="0.501961" cx="0" cy="0" rx="1" ry="1" /></g>
<g transform="translate(112.926625 77.777745) rotate(302.554087) scale(1.000000 4.414057)"><ellipse fill="#67842c" fill-opacity="0.501961" cx="0" cy="0" rx="1" ry="1" /></g>
<g transform="translate(23.788013 81.795129) rotate(199.009810) scale(2.781046 5.614679)"><ellipse fill="#56731d" fill-opacity="0.501961" cx="0" cy="0" rx="1" ry="1" /></g>
<g transform="translate(72.887373 72.556555) rotate(222.123317) scale(3.321969 2.403121)"><ellipse fill="#f9fafc" fill-opacity="0.501961" cx="0" cy="0" rx="1" ry="1" /></g>
<g transform="translate(4.561181 67.832363) rotate(290.780406) scale(1.670003 20.587993)"><ellipse fill="#d9dd7a" fill-opacity="0.501961" cx="0" cy="0" rx="1" ry="1" /></g>
<g transform="translate(58.354248 45.308160) rotate(165.223663) scale(1.000000 6.487716)"><ellipse fill="#bbce89" fill-opacity="0.501961" cx="0" cy="0" rx="1" ry="1" /></g>
<g transform="translate(68.004283 44.079688) rotate(266.797500) scale(4.058030 4.549332)"><ellipse fill="#fef886" fill-opacity="0.501961" cx="0" cy="0" rx="1" ry="1" /></g>
<g transform="translate(127.648543 25.789758) rotate(82.370273) scale(20.273109 1.000000)"><ellipse fill="#d1dabc" fill-opacity="0.501961" cx="0" cy="0" rx="1" ry="1" /></g>
<g transform="translate(169.912501 9.427920) rotate(265.185000) scale(7.633676 11.108896)"><ellipse fill="#e7f0f3" fill-opacity="0.501961" cx="0" cy="0" rx="1" ry="1" /></g>
<g transform="translate(59.091523 1.960932) rotate(352.362027) scale(3.143321 19.196144)"><ellipse fill="#d4e5f3" fill-opacity="0.501961" cx="0" cy="0" rx="1" ry="1" /></g>
<g transform="translate(150.038142 55.666947) rotate(174.316987) scale(2.581175 2.224667)"><ellipse fill="#fff0dd" fill-opacity="0.501961" cx="0" cy="0" rx="1" ry="1" /></g>
<g transform="translate(51.418270 56.631514) rotate(363.847423) scale(5.322224 1.637429)"><ellipse fill="#dce2da" fill-opacity="0.501961" cx="0" cy="0" rx="1" ry="1" /></g>
<g transform="translate(245.313813 82.971361) rotate(315.688099) scale(5.433380 6.967792)"><ellipse fill="#dde3d4" fill-opacity="0.501961" cx="0" cy="0" rx="1" ry="1" /></g>
<g transform="translate(203.522295 28.886572) rotate(274.315098) scale(7.173536 2.993902)"><ellipse fill="#f0f083" fill-opacity="0.501961" cx="0" cy="0" rx="1" ry="1" /></g>
<g transform="translate(166.165821 60.116830) rotate(354.843243) scale(3.334865 1.823139)"><ellipse fill="#79924b" fill-opacity="0.501961" cx="0" cy="0" rx="1" ry="1" /></g>
<g transform="translate(142.354687 63.646255) rotate(220.090826) scale(5.223944 1.466697)"><ellipse fill="#fffb73" fill-opacity="0.501961" cx="0" cy="0" rx="1" ry="1" /></g>
<g transform="translate(85.489803 25.329781) rotate(218.240798) scale(1.825483 5.039944)"><ellipse fill="#d7e476" fill-opacity="0.501961" cx="0" cy="0" rx="1" ry="1" /></g>
<g transform="translate(86.410833 74.200790) rotate(306.908127) scale(7.127314 1.000000)"><ellipse fill="#899f34" fill-opacity="0.501961" cx="0" cy="0" rx="1" ry="1" /></g>
<g transform="translate(36.798360 42.304929) rotate(194.465184) scale(1.981318 2.764360)"><ellipse fill="#e1e775" fill-opacity="0.501961" cx="0" cy="0" rx="1" ry="1" /></g>
<g transform="translate(73.820058 37.472457) rotate(162.129894) scale(2.337769 6.654944)"><ellipse fill="#92ac30" fill-opacity="0.501961" cx="0" cy="0" rx="1" ry="1" /></g>
<g transform="translate(79.431684 21.134486) rotate(324.153564) scale(3.957901 1.303409)"><ellipse fill="#94b33e" fill-opacity="0.501961" cx="0" cy="0" rx="1" ry="1" /></g>
<g transform="translate(126.688918 70.602208) rotate(404.673235) scale(6.414474 5.056059)"><ellipse fill="#f3efc9" fill-opacity="0.501961" cx="0" cy="0" rx="1" ry="1" /></g>
<g transform="translate(104.686214 79.286212) rotate(329.410036) scale(1.000000 11.411774)"><ellipse fill="#c0d04f" fill-opacity="0.501961" cx="0" cy="0" rx="1" ry="1" /></g>
<g transform="translate(6.652374 55.356929) rotate(290.015747) scale(6.625506 3.920527)"><ellipse fill="#f6f7f4" fill-opacity="0.501961" cx="0" cy="0" rx="1" ry="1" /></g>
<g transform="translate(255.000000 79.728424) rotate(159.868156) scale(2.296532 52.347979)"><ellipse fill="#edf1ed" fill-opacity="0.501961" cx="0" cy="0" rx="1" ry="1" /></g>
<g transform="translate(17.453047 31.764389) rotate(221.158109) scale(4.388016 1.436707)"><ellipse fill="#7c8f1b" fill-opacity="0.501961" cx="0" cy="0" rx="1" ry="1" /></g>
<g transform="translate(142.780148 79.119664) rotate(37.773715) scale(3.641366 4.318594)"><ellipse fill="#e8e6c6" fill-opacity="0.501961" cx="0" cy="0" rx="1" ry="1" /></g>
<g transform="translate(119.872911 41.775561) rotate(164.232535) scale(3.150549 5.459065)"><ellipse fill="#c9cd6d" fill-opacity="0.501961" cx="0" cy="0" rx="1" ry="1" /></g>
<g transform="translate(14.289778 49.307404) rotate(181.414815) scale(1.000000 6.056176)"><ellipse fill="#8fa04b" fill-opacity="0.501961" cx="0" cy="0" rx="1" ry="1" /></g>
<g transform="translate(212.445481 15.716673) rotate(46.682141) scale(3.798605 4.942084)"><ellipse fill="#ebf2f7" fill-opacity="0.501961" cx="0" cy="0" rx="1" ry="1" /></g>
<g transform="translate(79.420638 60.201330) rotate(280.934282) scale(1.493060 6.172082)"><ellipse fill="#5a7a18" fill-opacity="0.501961" cx="0" cy="0" rx="1" ry="1" /></g>
<g transform="translate(54.310139 17.631689) rotate(178.570328) scale(2.643592 3.754339)"><ellipse fill="#c5d335" fill-opacity="0.501961" cx="0" cy="0" rx="1" ry="1" /></g>
<g transform="translate(166.235215 42.628384) rotate(11.919631) scale(1.000000 14.859544)"><ellipse fill="#97a983" fill-opacity="0.501961" cx="0" cy="0" rx="1" ry="1" /></g>
<g transform="translate(78.884781 33.546035) rotate(285.063638) scale(4.834719 2.680234)"><ellipse fill="#eef3ad" fill-opacity="0.501961" cx="0" cy="0" rx="1" ry="1" /></g>
<g transform="translate(167.431572 80.963250) rotate(131.610779) scale(14.507262 2.457546)"><ellipse fill="#dfe3cd" fill-opacity="0.501961" cx="0" cy="0" rx="1" ry="1" /></g>
<g transform="translate(36.168192 76.033681) rotate(263.635397) scale(2.458807 1.730030)"><ellipse fill="#d2db2c" fill-opacity="0.501961" cx="0" cy="0" rx="1" ry="1" /></g>
<g transform="translate(135.894126 43.304482) rotate(247.500887) scale(4.179901 3.846176)"><ellipse fill="#ebec66" fill-opacity="0.501961" cx="0" cy="0" rx="1" ry="1" /></g>
<g transform="translate(154.411484 30.063383) rotate(170.399357) scale(5.839094 1.507878)"><ellipse fill="#e6ed36" fill-opacity="0.501961" cx="0" cy="0" rx="1" ry="1" /></g>
<g transform="translate(116.006228 70.842778) rotate(-2.416407) scale(1.071266 4.817347)"><ellipse fill="#e0e9f2" fill-opacity="0.501961" cx="0" cy="0" rx="1" ry="1" /></g>
<g transform="translate(177.129942 21.852847) rotate(56.340533) scale(1.752796 6.405976)"><ellipse fill="#86a634" fill-opacity="0.501961" cx="0" cy="0" rx="1" ry="1" /></g>
<g transform="translate(90.605755 54.481282) rotate(339.712384) scale(6.001635 3.514494)"><ellipse fill="#e7e5d2" fill-opacity="0.501961" cx="0" cy="0" rx="1" ry="1" /></g>
<g transform="translate(166.768087 31.700233) rotate(24.105051) scale(5.111868 1.556509)"><ellipse fill="#849f5d" fill-opacity="0.501961" cx="0" cy="0" rx="1" ry="1" /></g>
<g transform="translate(71.366411 48.960751) rotate(228.761541) scale(1.000000 10.053747)"><ellipse fill="#adbf3c" fill-opacity="0.501961" cx="0" cy="0" rx="1" ry="1" /></g>
<g transform="translate(228.514098 74.840508) rotate(137.215213) scale(6.473283 2.735574)"><ellipse fill="#9bae86" fill-opacity="0.501961" cx="0" cy="0" rx="1" ry="1" /></g>
<g transform="translate(154.842153 64.838904) rotate(249.622607) scale(4.495761 1.000000)"><ellipse fill="#f6f8fd" fill-opacity="0.501961" cx="0" cy="0" rx="1" ry="1" /></g>
<g transform="translate(147.898636 37.145784) rotate(169.307034) scale(3.225628 5.544529)"><ellipse fill="#769609" fill-opacity="0.501961" cx="0" cy="0" rx="1" ry="1" /></g>
<g transform="translate(0.000000 14.153761) rotate(293.440511) scale(29.639686 18.758498)"><ellipse fill="#d0e2f3" fill-opacity="0.501961" cx="0" cy="0" rx="1" ry="1" /></g>
<g transform="translate(63.276580 72.526252) rotate(239.537840) scale(1.930901 5.643610)"><ellipse fill="#70953a" fill-opacity="0.501961" cx="0" cy="0" rx="1" ry="1" /></g>
<g transform="translate(20.035188 17.964330) rotate(239.312646) scale(9.252553 2.085829)"><ellipse fill="#d6e3e7" fill-opacity="0.501961" cx="0" cy="0" rx="1" ry="1" /></g>
<g transform="translate(19.598657 84.000000) rotate(346.479889) scale(2.286197 10.960042)"><ellipse fill="#a2ae59" fill-opacity="0.501961" cx="0" cy="0" rx="1" ry="1" /></g>
<g transform="translate(197.723110 80.668791) rotate(68.378507) scale(12.814647 2.342806)"><ellipse fill="#c8d9d2" fill-opacity="0.501961" cx="0" cy="0" rx="1" ry="1" /></g>
<g transform="translate(160.579083 55.871479) rotate(169.821007) scale(1.688376 9.396378)"><ellipse fill="#e6eaed" fill-opacity="0.501961" cx="0" cy="0" rx="1" ry="1" /></g>
<g transform="translate(203.530988 68.925920) rotate(273.182890) scale(3.618991 8.918534)"><ellipse fill="#f8f58e" fill-opacity="0.501961" cx="0" cy="0" rx="1" ry="1" /></g>
<g transform="translate(200.337740 7.175517) rotate(275.469898) scale(19.535817 4.733113)"><ellipse fill="#dfeae8" fill-opacity="0.501961" cx="0" cy="0" rx="1" ry="1" /></g>
<g transform="translate(65.815197 78.196985) rotate(82.311120) scale(2.623649 4.622986)"><ellipse fill="#f0f257" fill-opacity="0.501961" cx="0" cy="0" rx="1" ry="1" /></g>
<g transform="translate(42.110182 20.738874) rotate(264.194350) scale(6.952482 1.775234)"><ellipse fill="#d8e36b" fill-opacity="0.501961" cx="0" cy="0" rx="1" ry="1" /></g>
<g transform="translate(144.503985 56.501293) rotate(267.723705) scale(4.814334 1.629983)"><ellipse fill="#617642" fill-opacity="0.501961" cx="0" cy="0" rx="1" ry="1" /></g>
<g transform="translate(140.538158 15.178178) rotate(134.982555) scale(9.257214 1.000000)"><ellipse fill="#b7c770" fill-opacity="0.501961" cx="0" cy="0" rx="1" ry="1" /></g>
<g transform="translate(133.432490 32.140556) rotate(209.910081) scale(3.591094 6.250885)"><ellipse fill="#f4f479" fill-opacity="0.501961" cx="0" cy="0" rx="1" ry="1" /></g>
<g transform="translate(200.630997 41.468424) rotate(208.529777) scale(1.000000 19.877645)"><ellipse fill="#edf0ba" fill-opacity="0.501961" cx="0" cy="0" rx="1" ry="1" /></g>
</g>
</svg>