<svg height="680" width="1024" xmlns="http://www.w3.org/2000/svg"><path d="m0 0h1024v680h-1024z" fill="#284120"/><g fill-opacity=".501961" transform="matrix(4 0 0 4 2 2)"><path d="m58.145347 133.431825 181.997459-40.862225-162.826342-61.843659-80.19569 27.641938z" fill="#608e51"/><path d="m-16-.108885 273.128303-15.891115-.425407 64.282185-44.64163 5.576564z" fill="#000200"/><path d="m79.926574 185-95.926574-26.825237 52.879822-46.460346 8.623373 23.224096z"/><path d="m232.380474 185-63.731612-52.790738-39.071868-7.926078 18.798718 36.435543z"/><path d="m160.258086 44.588284-36.067683 49.243285-79.044088-7.185039 19.193204-13.547546z" fill="#738967"/><path d="m27.339473 41.91536 16.586472-25.858353-52.826387-24.930075-5.020117 55.250939z" fill="#000700"/><path d="m137.666018 70.17212 36.278623-16.51154 96.459194-69.66058-89.804825 94.418175z" fill="#0d1504"/><path d="m108.94816 127.214592 123.333749-20.432972 1.431401-62.208722-22.244128 11.314677z" fill="#39672e"/><path d="m199.888075 126.088833 34.062306-25.692249 19.613256-67.671317 17.436363 115.41738z" fill="#091809"/><path d="m92.444359 65.031911-23.157327-81.031911-43.988607 64.442863 142.61164-31.419541z" fill="#28531f"/><path d="m111.900176 36.137387 21.854029-50.622552-51.53278 5.628468-.313706 49.169462z" fill="#050b03"/><path d="m31.626962 112.570569 16.022377 31.434446-2.553611 40.994985-49.087134-30.440186z" fill="#060000"/><path d="m179.889809 175.553049-1.467627-78.625952 14.877314 13.049762-46.153672 33.778525z" fill="#030100"/><path d="m71.864344 93.88739 9.984045 12.927378 23.288993-9.387076-.243074-9.724161z" fill="#212f0b"/><path d="m144.570864 124.646876-123.390502-12.487321 64.643514-72.169874-16.625895 64.158813z" fill="#578045"/><path d="m92.57404 127.076082 7.221547 16.622505 45.441665-21.093374-80.889293.936139z" fill="#0a1608"/><path d="m.551779 53.469882 52.131169 30.647128-24.499984 20.020627-35.620331-34.387223z" fill="#2d561d"/><path d="m171.22849 40.23745 15.169076 12.991816-36.049876 11.650285 3.068622-26.694376z" fill="#396921"/><path d="m152.179741 174.557838-63.312528-40.188138-62.536481-33.639682 36.522031 44.251795z" fill="#33532b"/><path d="m73.676566-13.631479 168.665009-2.368521 28.658425 31.924069-73.119428 14.230262z" fill="#0c0805"/><path d="m177.782121 184.277139 70.237515-74.244646-47.987056 11.336826 70.96742 63.179496z" fill="#0d2108"/><path d="m-4.708449 125.820002 15.75702-4.476768 15.730199-22.60915-42.77877-24.88471z" fill="#0f230c"/><path d="m225.851153 55.710551-48.184338 14.396196 29.714217 53.365845 30.907132-36.569883z" fill="#3e6a2d"/><path d="m192.927991 159.306394 22.01618-21.605444-26.638557-19.390826-10.236504 18.962247z" fill="#37621f"/><path d="m129.498442 74.830347 18.12385-18.723743 2.299188-5.664823-69.518241 26.128257z" fill="#6c9370"/><path d="m116.162509 167.096962-55.793832 17.903038-20.220563-50.131624 21.895229 9.895954z" fill="#15280e"/><path d="m79.806659 95.113515 35.919165-10.588501-1.45642-11.537833-41.216309 8.829347z" fill="#765247"/><path d="m69.570627 22.030901-33.09103 80.679027 31.48305 17.516139 13.693178-93.159803z" fill="#517944"/><path d="m69.090135 77.654121 56.678302-61.576791 31.729469 18.337722-70.441942 27.894553z" fill="#254c20"/><path d="m180.143195 127.164898-12.586744-32.236669-63.608701-.463132 28.050448 28.92309z" fill="#385e37"/><path d="m180.206209 168.64891 48.496191 16.35109-82.856454-61.468788-13.92819 5.283796z" fill="#040102"/><path d="m216.07404 40.181766 44.656086 58.96829 2.076616-42.821753-34.246179-32.271672z" fill="#1c3b18"/><path d="m75.696937 99.326001 44.785094-1.589507 6.835935 20.295268-25.311313-28.503788z" fill="#173a13"/><path d="m140.969593 54.070639-29.628711-18.96669 2.810286 16.666423-65.29551 29.907806z" fill="#4b7649"/><path d="m141.586713 63.107288 33.063784 16.9872 6.366903 82.336948 1.066423-109.157128z" fill="#1f3d1a"/><path d="m120.131239 31.629962-33.737924-5.948393-7.02569 17.070703 9.374615-4.146774z" fill="#060b03"/><path d="m212.588917 163.68662 39.305301-78.870455 19.105782 19.446007v63.724561z" fill="#203c1a"/><path d="m189.945316 25.139794-7.631074 7.561566 8.018437 5.489598 3.850466-10.966153z" fill="#474d36"/><path d="m44.123619-3.512636-4.569199 50.604777 19.204319-1.78559 21.720776-38.940545z" fill="#284f1f"/><path d="m240.470655 123.605714-7.646798-33.931643 38.176143-10.3473-62.404687 38.485654z" fill="#0d1709"/><path d="m43.718013 110.355174-24.404148 16.575893 8.173496-20.811858 12.593387 2.388371z" fill="#323305"/><path d="m179.024205 61.181651 42.701059-7.2297-50.627967-8.881571 25.275796 10.213536z" fill="#0a0b01"/><path d="m78.108206 155.058056 8.687222-36.456306-33.828064 16.399119 92.69458 15.030843z" fill="#33552e"/><path d="m90.346002 73.906758 10.435306 12.077195-15.53975 1.796241-8.002616-16.620713z" fill="#81836c"/><path d="m192.962952 134.265819-.405968-2.763106-7.980013-12.088123 26.632348 15.99565z" fill="#546f26"/><path d="m158.53799 39.687816-55.021199 57.847727 8.380028 2.1257 37.321964-37.300222z" fill="#58824b"/><path d="m88.235368 117.398665 23.224482-18.914097 13.926669 19.631098-13.744706 5.344304z" fill="#538140"/><path d="m85.586764 25.581609-93.294518 38.857014 56.835812-34.92167 35.657254-10.520938z" fill="#325a22"/><path d="m155.686024 129.715002-8.768106-3.796032-26.677372-49.256111 58.40947-2.6784z" fill="#426a3f"/><path d="m124.911298 181.380587 32.440177-17.608828-23.256913-38.382564 6.768618 41.44046z" fill="#153211"/><path d="m146.162371 63.110813 28.16744 8.429047-34.022498-.141378 1.604528 1.006633z" fill="#14200c"/><path d="m66.966856 60.417058-30.223988-12.599281 33.169551 36.334755 20.833084-47.088372z" fill="#507651"/><path d="m48.557982 53.904594-1.092153 34.142325-32.23603 18.978059 4.433836 20.349664z" fill="#365f24"/><path d="m104.612622 159.879651.285866 3.355751-3.468583 4.615612-16.732094-8.947805z" fill="#030a00"/><path d="m249.014314 118.5054-46.990039 11.285868-17.992575-14.432624 24.832384 5.760582z" fill="#131c09"/><path d="m171.051126 3.203752-38.593008 11.299648 8.117181 40.243392 28.878997-24.760618z" fill="#192f12"/><path d="m105.712057 73.888824 11.683485 7.241093-33.555448 18.120494 27.107862-19.077937z" fill="#423b30"/><path d="m6.157603 53.756674 16.951365 1.298934-31.552489-34.554736-7.556479 53.372769z" fill="#173613"/><path d="m28.570042 49.257501 5.595929-17.822046 64.462988-45.265365-66.305497-2.17009z" fill="#1b3419"/><path d="m40.011645 62.41125 8.007941-1.725253-25.900127 36.395964-33.924027-35.609046z" fill="#366029"/><path d="m124.514318 124.912746-30.453648-2.870831 5.022155 22.873199 25.954538-24.640333z" fill="#0f1b0b"/><path d="m37.256996 95.751507-9.352501 8.989734 43.787047 13.991211 38.137764 4.309286z" fill="#5c8040"/><path d="m13.544173-16-29.544173 36.374956 33.539441-1.632605 15.429253 26.347047z" fill="#0a1106"/><path d="m217.105415 115.506799-51.312246-42.14051 26.293552 41.407696 10.56376 7.448183z" fill="#2e5b22"/><path d="m106.765597 55.402648-23.685617 8.315531 14.006291-19.617594 20.029465-15.913371z" fill="#1e4418"/><path d="m34.748494 94.552307-2.56805 7.300147-28.439982-7.55437-8.01783 12.50083z" fill="#18210d"/><path d="m79.333577 108.000127-19.0964-11.11394 43.976892 1.025677 10.41887 7.604508z" fill="#326524"/><path d="m145.256467 140.902094-38.86878 14.786075 6.695221-21.630349 14.854183-2.75281z" fill="#2d4e2c"/><path d="m121.480057 69.012784 44.810264-30.220115 1.053857 6.391075-5.808647-6.1804z" fill="#587b4c"/><path d="m206.977482 161.304265-43.603182-60.451531 22.369389-3.412321-6.627614 13.254207z" fill="#234420"/><path d="m86.714511 78.008694-9.12764 5.682314 24.490642-6.347568-3.513827-.730266z" fill="#9a6f1f"/><path d="m95.727576 74.662835 36.962579-16.81235 1.430947 17.067856-18.006005 2.712533z" fill="#698d69"/><path d="m184.083872 73.166798-6.670267-15.176288 7.135689-4.193322-40.779857 7.052675z" fill="#24451c"/><path d="m171.846028 133.201773 22.159587 33.737983-35.636984-3.996263-23.232007-41.541903z" fill="#090b06"/><path d="m184.924601 152.013126-6.108015-14.886441 16.894131 28.172805 75.289283-47.216779z" fill="#204117"/><path d="m77.844149 11.055378 12.500819 26.013122 20.10059 1.314913 28.190731-54.383413z" fill="#101b0b"/><path d="m48.195976 70.604276 43.717269-33.174975 9.952533 1.929512-50.260632 48.322413z" fill="#4a7248"/><path d="m54.740076 43.917803 9.652895 16.148487 18.541881-22.578651-3.648395-16.550419z" fill="#456b2d"/><path d="m144.12113 48.363777-2.379574 4.303551-44.25891-12.966444 28.202807-3.366899z" fill="#315b26"/><path d="m43.857725 93.473941-8.800953 4.371059-3.346744 4.852137 9.089669-4.355916z" fill="#848f57"/><path d="m223.489872 26.481656 47.510128 51.893491-46.651413-26.972005-6.890597 7.030783z" fill="#1d3917"/><path d="m113.552307 65.940615 28.046044-11.22372-20.737402-7.153755-5.727753 10.590049z" fill="#5d8257"/><path d="m207.050562 110.111218-7.840457-53.014961 39.97946 7.466074-4.620764 30.233933z" fill="#3b632c"/><path d="m94.159585 158.271311-52.094312-39.117154 41.932565 1.498608 6.625729 3.524021z" fill="#34542d"/><path d="m73.955794 141.459958 7.680599 23.412574-15.298447 20.127468-16.098395-41.944434z" fill="#1e3718"/><path d="m215.528806 136.261895-4.249194-14.762934 35.773737-31.802598-23.725303 50.497357z" fill="#0f190c"/><path d="m83.90751 64.253436-8.177712 8.355157-3.750391 13.984319 17.115393-12.136095z" fill="#59855b"/><path d="m72.116986 88.068052-1.996996 5.622152 2.602175 4.143707.159124 1.429245z" fill="#77817a"/><path d="m13.251549 92.639281 15.046624 4.902439 10.202745-15.706565-11.079411 1.138533z" fill="#29501c"/><path d="m72.215046 89.662014.687392 10.221323-1.872096-2.644611 18.241691-4.264382z" fill="#5d3d28"/><path d="m187.631237 127.990879-12.771096-18.530944 18.707575 4.691917-38.580826 18.273624z" fill="#193412"/><path d="m160.381802.808893-13.912204 27.581451 49.958205-24.549072 2.454319 31.0191z" fill="#171c0d"/><path d="m127.685727 77.813468 61.973475 21.378317-38.510174-28.869899 21.741766 51.386113z" fill="#456942"/><path d="m29.090539 111.855135-.089683-.625709 5.160632-6.651213-6.015008-9.861337z" fill="#5c5d0f"/><path d="m116.752449 105.224254 3.361194 3.390796-8.310628-9.135607 6.434823-2.927474z" fill="#13230c"/><path d="m190.866004 173.733688 17.787956-16.352754.108348 3.181572.748994 24.437494z" fill="#050303"/><path d="m194.148412 126.683391 19.629577 4.824513-11.498069 3.331505-16.927993-9.891208z" fill="#4f6a27"/><path d="m137.451234 124.129371-42.496413-7.092551 21.713875-12.245083-14.370519 1.183015z" fill="#527a42"/><path d="m200.046653 59.447156-16.39601-4.525546 4.603828 9.421199 15.870196-9.060709z" fill="#090d03"/><path d="m44.335545 81.195827-14.088767-53.866244 18.591645 73.730916-7.267004 4.095159z" fill="#39622b"/><path d="m179.183643 109.468302 25.441183 16.386973-10.412283-2.079458-9.370646-24.852073z" fill="#142208"/><path d="m233.98799 126.334096-28.193213 9.047804 61.509547-4.614385-14.291871-53.703226z" fill="#1f341d"/><path d="m106.258289 107.76839 48.748439 23.386981 41.89646-13.273212-53.778028 5.898356z" fill="#284e20"/><path d="m157.258066 56.814308 40.288839-2.390747-21.927284-4.363231-12.126036-10.338536z" fill="#365c1d"/><path d="m187.097758 94.349819-4.637441-15.022433 7.901121-8.354595 9.136217-1.054424z" fill="#4a7436"/><path d="m-16 152.758573 26.7221-22.922112-26.7221 40.149654 74.1359 15.013885z" fill="#172c13"/><path d="m248.700873 132.183331 5.489598 19.104351-5.832213 16.012704 22.641742-30.555693z" fill="#13270d"/><path d="m85.56469 81.623844 3.178788-8.084761 16.226797 5.539425-6.298739-5.683853z" fill="#748971"/><path d="m133.585056 16.53767 19.82231 22.300417-9.089662 11.807137-29.179324-27.354559z" fill="#22421c"/><path d="m68.148008 121.35415-18.919975-74.131786-2.793698 7.884843 2.65668 58.555238z" fill="#547b46"/><path d="m126.841473 94.7248-21.580966.115312 26.570681-22.406384 2.436827 3.986682z" fill="#5e8346"/><path d="m119.44046 121.103063 15.144537 3.350977 11.548903 13.807299-31.558054-14.979249z" fill="#121f0d"/><path d="m110.868372 79.961597-28.171186 3.260632 10.256843 4.932138 20.423761-5.503785z" fill="#6f626d"/><path d="m102.968664 74.761896-1.149875-.000039 4.296173 7.057246 5.961394-7.341722z" fill="#476e3f"/><path d="m216.226606 57.724888 7.38026-49.002622 47.393134-2.155131-68.997559-22.567135z" fill="#0c0d06"/><path d="m190.390852 55.823114-29.779502 16.455213 6.078496 2.621638 16.394962-17.421317z" fill="#121b09"/><path d="m109.505946 66.603208-29.202428 4.515677 20.907718-10.58776 21.270989-28.618965z" fill="#416b3b"/><path d="m27.614617 44.145891 13.789787 2.523388-35.88605 14.128087 9.544186 15.488709z" fill="#486938"/><path d="m128.120765-8.811359-18.789366 46.222426-26.780593.52811 54.563321-29.804636z" fill="#0a0e06"/><path d="m80.132158 138.577805 44.644321 18.631495-35.370875-23.232248-49.816204 6.927598z" fill="#26421e"/><path d="m184.678187 23.112072 11.905572 10.361683-10.133476 5.307501-3.282496-4.471994z" fill="#343a26"/><path d="m74.115512 138.098814 7.781899 11.300455 49.43291-2.744732-81.562991-5.331198z" fill="#3a5830"/><path d="m106.269413 133.389128-.6659 11.183476-7.874955-3.979356 1.12626-5.082903z" fill="#080c04"/><path d="m108.117529 92.569413-24.61405 4.794871 6.694806 3.284594 2.74051-12.903322z" fill="#1f381e"/><path d="m180.389612 104.346408-22.01768-17.374625 7.230152 25.35977 13.359936-41.704336z" fill="#365934"/><path d="m211.084202 110.955425-3.315693-11.703921 15.663075-41.477373.421369 40.436559z" fill="#436934"/><path d="m227.746039 42.176345 3.922832 38.456358 20.02523-1.559471-32.682298-31.805103z" fill="#244a1d"/><path d="m163.140677 137.404022 21.535934-10.988679-26.754674 34.201668 61.838164 22.255371z" fill="#090906"/><path d="m40.365724 121.228101 9.12919 11.947292-53.545308 28.94763 54.498534-13.586051z" fill="#141305"/><path d="m91.260827 88.537398 27.572805 14.745408-39.962684-20.164294-1.258475 2.247081z" fill="#3c4425"/><path d="m124.65257 117.575753-2.666035-25.30575-5.403409 6.577696 16.827217 22.017592z" fill="#2a4c25"/><path d="m114.328536 32.754469-39.764893 41.651973 13.592813-28.343846-3.607331 13.219035z" fill="#2b5329"/><path d="m-4.803636 145.510723 17.483112-9.678247 7.857661-10.91845-36.537137-15.380742z" fill="#22401c"/><path d="m247.11774 85.340539.235132 1.394629-8.815658 13.591761-.146561-21.455737z" fill="#091105"/><path d="m45.354606 135.024838 14.659542-13.509223 21.659298-4.519689-7.012254 4.856734z" fill="#416438"/><path d="m200.998586 55.268334 1.339052 2.422201-20.185618-6.646149 8.528177-13.878004z" fill="#0f0f06"/><path d="m109.041019 73.96582 39.405859-13.561567-7.079669 11.557252 2.869892-17.622859z" fill="#5a7d57"/><path d="m75.509862 67.531541-23.751034 30.904682 17.415664-14.82279 4.89347-50.577324z" fill="#597f4e"/><path d="m59.882225 52.522209-14.077123-6.39706 32.245735-19.69897-13.01047-11.69567z" fill="#355f29"/><path d="m50.80322 108.440925-9.804293-3.955437 16.374069-1.351839-5.947799 9.584563z" fill="#668957"/><path d="m101.382978 80.469455 1.475936-1.627869-4.912301-1.503756-7.699967.292691z" fill="#8a5907"/><path d="m83.235252 73.17317-7.893017 10.626206 6.747033 14.890592-11.362322-14.898367z" fill="#4c6b3a"/><path d="m72.359876 133.287605-27.716483 7.650729 15.214697-24.138896-25.022033-1.967143z" fill="#32502e"/><path d="m226.907129 125.417583 1.746996 30.304141 19.90121-2.03703 1.54735-30.209466z" fill="#24411b"/><path d="m-16 162.280435 53.378599-18.190893 3.996892-18.823635-57.375491 23.846215z" fill="#080903"/><path d="m55.16171 4.60056 16.729973 74.148673-.477683-7.64458-1.738732-9.125828z" fill="#345b2a"/><path d="m74.806093 61.263304 4.920748-14.025025 2.384911-2.516769 29.852887-60.72151z" fill="#203b1e"/><path d="m185.065062 53.807677-23.895837-16.860049-11.968204 23.188124 25.358485-6.086618z" fill="#375e21"/><path d="m41.286925 108.463715-8.198556 8.61576 4.011129 2.00389-14.362739 1.214181z" fill="#221001"/><path d="m184.193689 129.202507-5.320734 9.00165 10.400205 18.442525 9.933163-14.248932z" fill="#2f5623"/><path d="m94.321593 92.460453 2.707072.191897-5.24846-11.061238-6.594316-4.70442z" fill="#55695c"/><path d="m96.16883 157.854419-22.121621 5.392275.930477-12.182815 36.900343-6.171133z" fill="#2a4822"/><path d="m161.605509 18.593286-49.420356-6.205801 54.143548 26.596235 18.912875 13.911366z" fill="#152c12"/><path d="m271 178.473133-66.669145 6.095551 12.912686-41.120532-7.364436-13.846988z" fill="#1a3813"/><path d="m148.739508 82.455037-44.302792-7.795394 15.985903 1.35753 28.202411 16.531169z" fill="#4f7646"/><path d="m171.116278 4.315051 3.850626 35.493613 12.026922-17.736633-75.208042-16.998146z" fill="#111408"/><path d="m167.183021 130.30036-25.716001-38.969933 23.559996 24.611464-17.591558 7.638953z" fill="#345d2d"/><path d="m27.377697 97.908462-22.433261-7.485613 6.859896 31.435779-4.537821-9.519934z" fill="#142511"/><path d="m176.898156 62.026646-20.556067 6.645704-9.434072-7.528744 27.93435-5.619648z" fill="#23461c"/><path d="m78.825218 80.359114-4.608235 7.089183-7.529309-25.820605-2.072453 28.600702z" fill="#5b8355"/><path d="m58.188377 82.340584 6.673808-6.277995-2.4769 2.308465-11.460907-34.217714z" fill="#406637"/><path d="m63.46292 163.388054 31.937371 3.61087-106.702428-24.764945 16.982735 5.916236z" fill="#181f0d"/><path d="m24.725502 166.054209-11.526849 12.778333 43.12333-34.834749-54.760092 17.569069z" fill="#080804"/><path d="m97.8427 77.628527-14.895441 2.326259-3.137312 2.395025 7.820822-2.749299z" fill="#bf810f"/><path d="m196.933558 116.927152 1.822501 15.206773 8.629996-15.087698 24.151961-9.28894z" fill="#223a10"/><path d="m71.481094 130.832797 5.895742 23.706027 10.57891-11.951699-40.652136-11.739506z" fill="#395931"/><path d="m124.268654 50.414005-12.831748 3.705153-9.852774.26759-12.034015.321426z" fill="#285321"/><path d="m82.581899 41.821045-12.749025 24.120528 5.677218-20.366718 28.209771-7.889965z" fill="#53784f"/><path d="m83.764722 5.762162 44.588619 2.233059-32.977166 17.456846-21.85616-5.98255z" fill="#11200d"/><path d="m150.636872 68.278857-3.131176-2.207593-4.240888-1.012336 2.391186 5.268105z" fill="#0f1408"/><path d="m103.160249 83.47632 20.462734-1.815121-19.942762 5.436738-16.994314 8.936614z" fill="#554c38"/><path d="m72.662848 138.602518-28.257061.754558-53.369876 24.302613 69.527062-25.201891z" fill="#1d1d08"/><path d="m127.468965 83.680915 2.621405-5.049427 10.40855-7.081354-10.117724 19.956483z" fill="#466f31"/><path d="m22.125452 40.946282-6.612454.3213-8.682262-3.473689 22.649422-2.56351z" fill="#091005"/><path d="m173.624562 165.996351 20.139773 19.003649h27.742937l-106.995855-31.550578z" fill="#1a3516"/><path d="m89.975704 165.135356 6.258306-.167246 13.483075 3.471775-21.946315-10.727533z" fill="#0b1406"/><path d="m69.752608 93.866968 14.501156-19.86128-9.056518.151886 14.446201-13.469991z" fill="#658767"/><path d="m86.654557 90.976088-14.635546 1.153706 4.780911-5.123993 3.560672 10.59597z" fill="#4c3f26"/><path d="m59.149343 52.006007 16.394875-23.972818.579765 16.735241 7.122213-.753842z" fill="#527737"/><path d="m58.818138 24.08778 13.504472-28.790711 9.248902 10.506031-56.810961 29.203566z" fill="#1e4017"/><path d="m111.23869 38.32517-10.433739 16.298851-15.361649 9.231637-.897299-.259742z" fill="#1d4417"/><path d="m29.667078 93.886946 23.476663 3.92125 16.47703 10.403454-16.464684-19.260137z" fill="#4f7739"/><path d="m172.687434 74.595138-27.885803-3.712904 38.689684 11.126386-1.766302-17.109881z" fill="#2c4b27"/><path d="m239.123336 86.569049-7.939559 15.967452-4.205077-15.176303 2.324483 3.984296z" fill="#275019"/><path d="m89.146182 84.393266 51.856536-17.110303-10.864882-1.263553 1.34708 2.066102z" fill="#6c8562"/><path d="m22.608448 117.110915 5.941381-11.457176 14.616425-2.042948 3.047715-11.078431z" fill="#48682e"/><path d="m205.660654 55.847087-3.398993 3.714768-7.329267 61.531531 29.70991-63.167032z" fill="#37622b"/><path d="m26.985083 113.323951 8.88407-9.997141-26.963192 40.738667 9.416563-15.719828z" fill="#1d2b0a"/><path d="m227.427045 104.399408-4.987296 30.093559-15.589079 1.121083 35.612681-16.930598z" fill="#0f1a0c"/><path d="m99.525501 143.103264 29.414239 10.818624-1.319274-18.88751-28.010484 16.969545z" fill="#335130"/><path d="m110.164245 123.063908 15.270639-5.298947-35.808999-3.968492-8.310223 2.755986z" fill="#578045"/><path d="m271 28.200144-41.76787 11.408715 24.238224 16.962617 2.02434 63.597101z" fill="#182a14"/><path d="m66.18526 82.584702-5.931399-10.834785 17.36373-30.645444-14.445988 21.294011z" fill="#597b51"/><path d="m26.749175 50.460919-.150694-11.466216-11.29475 6.125908-7.832298 10.95697z" fill="#23461e"/><path d="m65.709289 93.950261 12.308534 11.219944 43.854057 12.645224-13.149181-1.939361z" fill="#37642c"/><path d="m116.139432 36.637674 4.363671 16.163745-12.408081-15.020427 14.561249 2.109412z" fill="#426737"/><path d="m81.138645 65.119865-6.302175-16.784405 10.025906 14.177843 6.962861-17.912816z" fill="#4a744a"/><path d="m94.813095 73.178044 29.866148-23.018865-15.643679 5.101157 3.355291 10.784121z" fill="#557b50"/><path d="m1.857512 59.471983 26.054453 25.110192-7.602136 11.656313-30.398204-31.298031z" fill="#325725"/><path d="m198.381208 7.646015-24.270834 45.977818 13.182644-31.35201-.982071-8.424723z" fill="#202a14"/><path d="m203.568439 60.242228-20.128289-6.781754 4.395757-2.290988 47.868503 35.606887z" fill="#375a27"/><path d="m177.427085 63.850206 7.235078-1.993718 16.125513-2.719385-17.852593-4.981738z" fill="#0f1608"/><path d="m116.165926 77.033605-9.00217-8.089854 12.072738 14.327892-2.584692-11.239568z" fill="#6f8e69"/><path d="m116.573634 110.996358-12.854851-22.028534.336899 1.982747-.513817 5.375581z" fill="#346221"/><path d="m63.903295 69.364493 4.004338-19.828122-1.824086 15.375919 1.570015 14.605881z" fill="#3f673c"/><path d="m143.371348 51.481632 2.728011-6.595991-31.924821-19.39005 12.130358 24.365284z" fill="#294f20"/><path d="m58.185924 122.202428-17.841066 11.211452 12.150032 11.453573-10.258354-21.411956z" fill="#1f3819"/><path d="m110.118268 73.200362-22.928615 5.241867 65.081246-30.132538-32.016212 18.768105z" fill="#6d8b6a"/><path d="m175.69206 52.377391-33.095533 6.212808.742448 6.041046-31.741884 6.830021z" fill="#4f7543"/><path d="m44.522815 55.5037 3.27146 23.276272-40.719122-8.225951 30.884007-19.895057z" fill="#3e692f"/><path d="m108.864745 98.090247 4.429178-1.633422 13.412332-16.139192-20.618777 6.852121z" fill="#618249"/><path d="m92.374074 79.197571-4.325481 9.353769 17.124931-10.10574-6.172876 9.047291z" fill="#7d7b6a"/><path d="m76.915814 136.207381-2.409247-7.93195 8.826018-8.296469 13.541088 19.106764z" fill="#2e5227"/><path d="m-6.143483 98.742127 20.556693 3.533471-4.284949 17.82656 10.993772-2.246452z" fill="#162c12"/><path d="m193.392344 147.162876 13.822446-14.872311 11.522907 7.831274-5.478533 7.529425z" fill="#295120"/><path d="m84.063473 100.348535 8.693391-3.887497 10.537991-7.950129 2.302993 5.684719z" fill="#193911"/><path d="m119.377947 83.633267-4.470116-4.206382-5.896276-2.54778 6.027498 3.844884z" fill="#363a21"/><path d="m149.782768 163.540071-12.651504 21.459929 4.128358-50.39918 5.321245 11.549604z" fill="#193314"/><path d="m164.90902 122.884404-33.395239-4.991822-8.779082-26.463954 35.544899 28.67229z" fill="#40673a"/><path d="m81.959471 142.586745 19.215183.148501 3.280262 14.49578 42.97209 8.243471z" fill="#345428"/><path d="m195.155557 21.569144 6.006661 33.015137 17.216756.939699 1.219514-19.002541z" fill="#141b0a"/><path d="m72.46949 4.781612-25.961712 17.996575-1.210684-13.429316 29.833802 12.384763z" fill="#274722"/><path d="m80.989219 80.116857-1.408405 7.888195 5.243599-8.524123-.932895 3.12784z" fill="#81520d"/><path d="m195.929425 64.157208-11.355931 7.979535-6.563263-7.457193-24.082771 5.003224z" fill="#1d3715"/><path d="m183.900655 121.629924 8.973107 9.272203 9.478374 3.184154-12.538108-11.585709z" fill="#506f2b"/><path d="m96.645648 86.276386 4.732112-11.176605-2.004617 9.812688-35.339132 21.71633z" fill="#525c37"/><path d="m134.509573 60.386325 25.707281-21.228111-31.298752 38.735279 5.142529-27.983274z" fill="#5c8159"/><path d="m81.026197 119.568222 14.471428 3.498801-2.202772-15.647078 14.301847-4.049722z" fill="#4f7c3b"/><path d="m24.329807 14.032549 10.266121-30.032549 25.519929 25.01386 11.565695-14.340889z" fill="#162712"/><path d="m109.608879 185h-51.420521l-20.817688-33.214786 25.096248 13.666281z" fill="#13230e"/><path d="m40.516248 27.094327 3.712931-26.414791-17.140313 35.846578-43.088866-4.555561z" fill="#152e11"/><path d="m179.926787 142.766752 16.141282 42.233248-22.25376-20.136366-21.806734-4.158778z" fill="#080806"/><path d="m86.923398 46.723462-16.088168 13.44871 6.41634-11.559112.778343 16.476372z" fill="#577e56"/><path d="m35.764789 102.916067 6.519836-8.236144-6.739318 1.123138 2.061493 10.069829z" fill="#778c5a"/><path d="m249.012479 137.639263 21.987521-9.898876v7.07578 18.147659z" fill="#0d1409"/><path d="m175.861162 41.983872-15.748929-2.754621-5.68909 4.506575 11.10083-41.697252z" fill="#172712"/><path d="m11.096058 109.795814-27.096058-55.620261 26.466707 35.028336-23.89569 43.188971z" fill="#1d361a"/><path d="m77.423273 47.880974-6.166406 7.258686-1.612597-6.439207-4.639591 7.081492z" fill="#30592d"/><path d="m90.442133 69.82411.731479 4.941875 11.058237-18.128958-11.321594 4.284113z" fill="#476f44"/><path d="m53.997886 144.371861 20.326739-3.161836-18.543428 18.081016-7.72059-8.703708z" fill="#1c3217"/><path d="m170.550052 85.427327-13.214218-14.815648-6.647379 5.447486 24.442024 2.605224z" fill="#375e35"/><path d="m222.681669 75.074061-22.238073 14.152728 35.712135-14.419152-3.140847-16.362911z" fill="#335d26"/><path d="m156.389799 110.05814 14.373296 25.730993 2.403639-28.438694 3.1121 23.566829z" fill="#22441d"/><path d="m95.147547 89.911536.070691 1.687931.477733 5.857539-7.394401-17.785697z" fill="#415042"/><path d="m96.374543 134.829526 29.158496-12.999439-37.032485 5.779936 19.442206 20.948893z" fill="#162912"/><path d="m41.672431 94.002412 5.634013-6.636985-40.792835-2.548857 20.085564-13.302602z" fill="#305a25"/><path d="m192.029593 29.457345-6.264025 9.883216-3.654788-6.305536 5.1211-3.858645z" fill="#3a422c"/><path d="m87.738079 70.103244 3.256596-3.593739-2.995951 18.216001-1.302133 6.636182z" fill="#678167"/><path d="m192.765286 119.070262 22.169929.481849-23.184935-11.65883-7.009251-7.423905z" fill="#26521a"/><path d="m69.784739 76.019311 9.481539 12.740808-10.263211-8.200161-10.579294 2.114607z" fill="#5f8551"/><path d="m35.042944 71.157302-2.910591-22.974129-16.783781 17.439465 21.629419-14.933054z" fill="#4c713c"/><path d="m79.336331 96.309157-7.656933-2.384122 11.982603-11.11764-6.049596.523674z" fill="#58432c"/><path d="m12.275462 119.849985 17.130867 1.814927-45.406329 13.607581 35.157347-7.329404z" fill="#28431e"/><path d="m82.474299 76.380471 9.516997 11.084851-15.967664.711603 15.890491 1.506433z" fill="#7b7c6c"/><path d="m74.204755 42.359135 25.167163 7.028933-22.409407-9.719443 7.643766-1.267176z" fill="#35632c"/><path d="m133.97463 73.339457 30.459134 5.950246 10.396005 24.424488-24.893893-29.149072z" fill="#466b46"/><path d="m230.347617 28.744669 8.085202 9.18676 32.567181-25.2326-70.667226 16.618917z" fill="#111b0b"/><path d="m5.018635 38.205042 10.485236 3.969496-20.9156 22.797992-10.588271-18.78403z" fill="#193614"/><path d="m38.869596 100.617207 45.919485-27.225117-32.930427 33.087463 1.047451-26.160847z" fill="#547d44"/><path d="m147.054807 59.820622-31.025716 4.293462 28.856077 3.806372-36.507802 9.448144z" fill="#668a63"/><path d="m182.012876 98.990552 4.94715 20.596017 38.807303 11.516354-32.649958-12.796895z" fill="#15220d"/><path d="m184.784467 132.363704 11.629632 10.515787-11.370168.180028-7.555273-4.297845z" fill="#375b25"/><path d="m240.725544 101.156004-.626524 19.385212 10.867582-3.492747 6.842969-36.071489z" fill="#20361e"/><path d="m123.319012 32.29162-9.647841 19.556866-4.420685-7.537387 22.914635 5.58568z" fill="#315b29"/><path d="m39.110176 135.4041 2.862937 6.808681-26.321176 5.807302 5.532918-26.128166z" fill="#080a05"/><path d="m97.874164 36.600317-3.420953 21.044896 9.625764-18.937534-10.845743 4.411992z" fill="#285521"/><path d="m31.55818 108.220316-4.663045 6.075999-10.351473-.150936 2.53028-12.950605z" fill="#33581e"/><path d="m16.051106 166.210774 19.932678 18.789226h-11.464027l-32.958608-28.40873z" fill="#1e3418"/><path d="m238.014542 82.62636-35.318523 33.730762 20.706537-6.829656 4.831543-5.080619z" fill="#355d25"/><path d="m192.576687 159.657344 30.641838 1.406123-14.629879 23.936533 6.517102-38.758032z" fill="#1c3b13"/><path d="m30.880888 34.274457-1.618992 10.762023 42.430235-26.243467-10.924559-2.433514z" fill="#264f19"/><path d="m104.133262 89.473745-2.267799-1.540356 15.158941-4.811726 4.938855-3.409938z" fill="#656731"/><path d="m95.331437 82.386264 8.286977-5.58714 8.083289-1.487818-6.945169-.247168z" fill="#3f5121"/><path d="m79.837917 97.591831 4.576961-1.943893 18.695595-3.866884-13.558229 6.219144z" fill="#142f0e"/><path d="m137.939937 125.491458-12.201837-3.440604-14.290397-5.487054-4.087104-8.892031z" fill="#4c753f"/><path d="m59.832117 62.947029 18.02378-17.75625-13.519125 15.73169-2.590589 33.324856z" fill="#587b4f"/><path d="m239.792162 79.388718-13.142327-47.032523-8.995681 17.531031 32.350916 21.408065z" fill="#203f1c"/><path d="m197.365244 164.678927-50.896168-25.070193-14.318947-10.690171 37.240832 3.389921z" fill="#0a0c05"/><path d="m100.985985 77.018865 1.050503 3.148105-4.24115 1.664792-2.586403-3.901649z" fill="#704e1e"/><path d="m146.55955 69.280716 8.517034-.987149-13.735512 3.33444 10.530531-11.907525z" fill="#13210d"/><path d="m167.889549 41.959134 4.567665.607207-16.138317 1.59162 6.24415-5.940143z" fill="#436529"/><path d="m28.184674 43.532501 3.161911-8.993505-47.346585-47.026111 34.703935 13.089122z" fill="#0c1509"/><path d="m107.598163 65.580799 3.25214 11.192493 11.643837 4.819265-4.116616 1.19196z" fill="#6c8a66"/><path d="m219.558219 44.46659 2.164678-16.030668 49.277103 89.018552-21.598842-73.343784z" fill="#1a3416"/><path d="m125.25994 121.46509-22.993748 13.34039 47.783523-10.680371-20.357477.630608z" fill="#152510"/><path d="m126.272694 52.852764.549831-23.241221-1.271838 28.698478 6.897317-15.645872z" fill="#375f2d"/><path d="m242.414864 161.96544 6.28395-23.43803-7.37864-2.720139 5.329548 30.88142z" fill="#2b4620"/><path d="m121.463308 113.199789-1.804939-21.060598 4.872143 7.879809 3.256497 13.751672z" fill="#31592c"/><path d="m174.361745-13.183805-65.806433 32.518387-18.417382 19.459698-8.830447 3.277324z" fill="#0d1709"/><path d="m188.57399 91.535004-8.944277.981606 10.714409 15.975506 21.534418-6.590278z" fill="#39652b"/><path d="m67.092862 98.352368-18.516417 5.919627-2.08826-15.143956 30.168746 25.393193z" fill="#4b7639"/><path d="m92.107428 89.674897-16.204958 1.487356.209441 5.863509 24.629319-7.457705z" fill="#554a2d"/><path d="m198.778274 121.575904-3.770379 17.393902 5.582475-8.116277 1.51536-8.173707z" fill="#363c10"/><path d="m104.528666 74.87514 34.992374-.485939-29.5589-6.103617 27.693832.051757z" fill="#6b8c69"/><path d="m84.739063 19.681328-33.946001 12.684667 14.815251 16.417509-7.420668-10.112143z" fill="#365e26"/><path d="m23.907045 151.515799-22.8298 8.54172 71.008697 24.942481-26.19363-19.27258z" fill="#080b06"/><path d="m53.330553 143.169963-3.479373-2.680887 33.69324-.517048-.801136.307988z" fill="#3a542b"/><path d="m139.979626 71.409288-4.008059 8.20085 6.83116-2.093-10.39428-.019673z" fill="#3c632d"/><path d="m87.098988 55.977462-31.771425 38.297593 38.94234-46.602396-5.055546-4.727303z" fill="#4a7347"/><path d="m32.161228 147.424915-7.18709 3.054016 24.387488 5.807455-31.670421-3.467114z" fill="#1e1406"/></g></svg>